<svg width="1919" height="1112" viewBox="0 0 1919 1112" fill="none" xmlns="http://www.w3.org/2000/svg">
<path d="M1917.5 1.5V1096.92L1807.33 1050.57L1806.71 1050.31L1806.11 1050.59L1729.06 1087.24L1680.06 1062.93L1679.61 1062.7L1679.11 1062.8L1549.99 1087.36L1401.42 1036.16L1400.54 1035.85L1399.88 1036.51L1337.74 1097.66L1060.64 1087.44L1022.22 1036.67L1021.27 1035.42L1020.07 1036.42L988.203 1062.69L906.838 1050.46L906.356 1050.39L905.925 1050.62L882.644 1062.7L747.165 1036.1L746.372 1035.95L745.806 1036.52L686.223 1097.25L633.287 1063.01L632.521 1062.52L631.729 1062.97L589.377 1087.14L495.176 1021.97L494.594 1021.57L493.913 1021.76L393.247 1050.28L361.484 1022.08L360.388 1021.11L359.39 1022.18L277.806 1110H1.5V13.0107L111.727 53.8691L112.281 54.0752L112.827 53.8457L189.944 21.5322L239.005 42.9824L239.414 43.1611L239.854 43.0869L369.021 21.4375L517.629 66.5586L518.422 66.7988L519.048 66.2568L581.202 12.373L858.415 21.3789L896.843 66.1006L897.743 67.1494L898.861 66.3369L930.755 43.1729L1012.19 53.9492L1012.62 54.0059L1013.01 53.8271L1036.33 43.1641L1171.87 66.6016L1172.58 66.7256L1173.13 66.2393L1232.76 12.6934L1285.79 42.9111L1286.48 43.3086L1287.2 42.9482L1329.63 21.6143L1423.9 79.0674L1424.44 79.3936L1425.04 79.2422L1525.79 54.0947L1557.59 78.9678L1558.61 79.7646L1559.54 78.875L1641.14 1.5H1917.5Z" fill="white" stroke="#5882E3" stroke-width="3"/>
</svg>
