<?xml version="1.0" standalone="no"?>
<!DOCTYPE svg PUBLIC "-//W3C//DTD SVG 1.1//EN" "http://www.w3.org/Graphics/SVG/1.1/DTD/svg11.dtd" >
<svg xmlns="http://www.w3.org/2000/svg" xmlns:xlink="http://www.w3.org/1999/xlink" version="1.1">
<metadata>
Created by FontForge 20201107 at Tue Dec 16 17:06:41 2025
 By 
Copyright (c) 1992 ParaGraph Intl, (c) 1998 Paratype, Inc., ParaType Ltd. All rights reserved.
</metadata>
<defs>
<font id="FreeSet-Book" horiz-adv-x="1138" >
  <font-face 
    font-family="FreeSet Book"
    font-weight="400"
    font-stretch="normal"
    units-per-em="2048"
    panose-1="2 11 5 3 4 5 4 2 2 4"
    ascent="1638"
    descent="-410"
    x-height="1044"
    cap-height="1434"
    bbox="-983 -508 2138 2048"
    underline-thickness="102"
    underline-position="-204"
    unicode-range="U+000D-FEFF"
  />
<missing-glyph horiz-adv-x="1024" 
d="M119 16h786v1016h-786v-1016zM102 0v1049h820v-1049h-820z" />
    <glyph glyph-name="IJ" unicode="IJ" horiz-adv-x="1351" 
d="M193 0v1434h204v-1434h-204zM598 4v176q73 -20 129 -20q126 0 180 65q54 61 54 215v994h204v-1059q0 -202 -112 -303q-103 -92 -295 -92q-95 0 -160 24z" />
    <glyph glyph-name="ij" unicode="ij" horiz-adv-x="1040" 
d="M463 -451l6 166q35 -6 57 -6h21q67 3 100 55q37 58 37 166v1114h193v-1085q0 -67 -3 -112.5t-19.5 -106t-47.5 -100.5q-46 -60 -109 -79.5t-145 -19.5q-49 0 -90 8zM164 0v1044h192v-1044h-192zM889 1475v-218h-217v218h217zM369 1475v-218h-217v218h217z" />
    <glyph glyph-name="uni0410.var.accented" unicode="&#x410;`" horiz-adv-x="1478" 
d="M25 0l610 1434h215l604 -1434h-223l-146 362h-700l-145 -362h-215zM1020 530l-285 711l-284 -711h569zM696 1782h267l-234 -246h-197z" />
    <glyph glyph-name="uni0415.var.accented" unicode="&#x415;`" horiz-adv-x="1134" 
d="M193 0v1434h800v-181h-596v-419h543v-181h-543v-473h596v-180h-800zM655 1782h267l-234 -246h-196z" />
    <glyph glyph-name="uni0418.var.accented" unicode="&#x418;`" horiz-adv-x="1525" 
d="M193 0v1434h204v-977l-6 -178h10q45 90 129 225l574 930h229v-1434h-205v977l7 178h-11q-19 -40 -37.5 -74.5t-30 -53t-31.5 -49.5t-30 -48l-573 -930h-229zM739 1782h267l-234 -246h-197z" />
    <glyph glyph-name="uni041E.var.accented" unicode="&#x41e;`" horiz-adv-x="1593" 
d="M797 1454q324 0 512 -217q82 -94 129 -227.5t47 -292.5q0 -161 -48 -295.5t-128 -226.5q-186 -215 -512 -215t-512 215q-80 92 -128 226.5t-48 295.5q0 159 47 292.5t129 227.5q188 217 512 217zM797 1274q-117 0 -206 -46.5t-145 -117.5q-55 -70 -87.5 -176.5
t-32.5 -216.5q0 -101 29.5 -207.5t90.5 -185.5q128 -164 351 -164q222 0 350 164q62 79 91.5 185.5t29.5 207.5q0 110 -32.5 216t-88.5 177t-144.5 117.5t-205.5 46.5zM754 1782h266l-234 -246h-196z" />
    <glyph glyph-name="uni0423.var.accented" unicode="&#x423;`" horiz-adv-x="1189" 
d="M31 1434h231l373 -807h14l350 807h199l-545 -1227q-51 -116 -123 -170q-73 -57 -180 -57q-80 0 -170 28l23 178q65 -26 123 -26q57 0 96 28q15 11 36.5 38.5t28.5 47.5l48 117zM655 1782h267l-234 -246h-196z" />
    <glyph glyph-name="uni042B.var.accented" unicode="&#x42b;`" horiz-adv-x="1701" 
d="M193 0v1434h204v-578h111h84t84 -4.5t98.5 -13t85 -27t84.5 -45.5q73 -54 117.5 -143t44.5 -199q0 -107 -36 -184.5t-89 -124.5q-78 -69 -182 -92t-238 -23h-368zM397 676v-496h142q56 0 93.5 2t93 17t89.5 43q74 64 74 184q0 112 -72 180q-19 18 -41 31t-51 20
t-45.5 11.5t-52.5 6t-42 1.5h-42h-146zM1305 0v1434h204v-1434h-204zM807 1782h266l-233 -246h-197z" />
    <glyph glyph-name="uni042D.var.accented" unicode="&#x42d;`" horiz-adv-x="1294" 
d="M127 1194l-16 199q133 61 327 61q294 0 490 -154q258 -205 258 -581q0 -302 -178 -504q-65 -74 -142 -123.5t-159 -72.5t-150 -31t-149 -8q-164 0 -299 51l12 198q151 -69 293 -69q133 0 241 41.5t176 113.5q58 63 95 155t43 183h-582v181h582q-15 102 -64 187.5
t-121 141.5q-73 57 -171.5 84t-196.5 27q-154 0 -289 -80zM584 1782h266l-234 -246h-196z" />
    <glyph glyph-name="uni042E.var.accented" unicode="&#x42e;`" horiz-adv-x="2109" 
d="M397 834h246q11 108 53 214t113 189q185 217 504 217q321 0 512 -217q82 -94 129 -227.5t47 -292.5q0 -161 -48 -295.5t-128 -226.5q-186 -215 -512 -215q-318 0 -504 215q-76 89 -121 211t-51 247h-240v-653h-204v1434h204v-600zM1313 1274q-117 0 -205.5 -46.5
t-144.5 -117.5t-88.5 -177t-32.5 -216q0 -101 29.5 -207.5t91.5 -185.5q128 -164 350 -164t350 164q62 79 91.5 185.5t29.5 207.5q0 110 -32.5 216t-88.5 177t-144.5 117.5t-205.5 46.5zM1012 1782h266l-234 -246h-196z" />
    <glyph glyph-name="uni042F.var.accented" unicode="&#x42f;`" horiz-adv-x="1284" 
d="M1092 1434v-1434h-205v573h-232l-299 -573h-245l344 614q-42 14 -79.5 34t-62 40.5t-36 32t-19.5 20.5q-88 109 -88 265q0 204 143 321q79 66 167.5 86.5t197.5 20.5h414zM887 741v512h-221q-131 0 -201 -61q-78 -68 -78 -191q0 -108 68 -176q51 -51 118.5 -67.5
t153.5 -16.5h160zM721 1782h266l-233 -246h-197z" />
    <glyph glyph-name="uni0401.var.accented" unicode="&#x401;`" horiz-adv-x="1134" 
d="M193 0v1434h800v-181h-596v-419h543v-181h-543v-473h596v-180h-800zM258 1755h221v-215h-221v215zM707 1755h221v-215h-221v215zM516 1753l182 295h224l-269 -295h-137z" />
    <glyph glyph-name="uni0430.var.accented" unicode="&#x430;`" 
d="M223 803l-12 168q150 90 360 90q205 0 308 -103q62 -62 80 -138.5t18 -184.5v-424q0 -160 8 -211h-180v141h-4q-60 -82 -151.5 -119.5t-190.5 -37.5q-70 0 -137 19.5t-113 53.5q-115 85 -115 238q0 31 6.5 63.5t23 72t51 77t83.5 65.5q118 70 395 70q61 0 131 -4v57
q0 101 -61 154q-64 55 -191 55q-166 0 -309 -102zM784 408v90q-74 4 -110 4q-214 0 -299 -58q-76 -51 -76 -139q0 -80 55 -121q57 -45 150 -45q60 0 117 21.5t94 60.5q69 73 69 187zM434 1249l160 267h246l-242 -267h-164z" />
    <glyph glyph-name="uni0435.var.accented" unicode="&#x435;`" 
d="M1044 479h-745q3 -139 88 -231q98 -109 262 -109q79 0 166.5 30.5t149.5 74.5v-193l-29 -10l-34 -13q-34 -13 -49.5 -16.5t-51.5 -12.5t-76.5 -12t-89.5 -3q-266 0 -406 149q-135 146 -135 393q0 271 162 416q132 119 328 119q228 0 346 -148q56 -69 85 -171t29 -207v-56
zM299 623h541q3 108 -60 188q-76 94 -207 94q-130 0 -208 -104q-56 -77 -66 -178zM434 1249l160 267h246l-242 -267h-164z" />
    <glyph glyph-name="uni0438.var.accented" unicode="&#x438;`" horiz-adv-x="1273" 
d="M356 1044v-788l562 788h192v-1044h-192v788l-562 -788h-192v1044h192zM502 1249l160 267h245l-241 -267h-164z" />
    <glyph glyph-name="uni043E.var.accented" unicode="&#x43e;`" horiz-adv-x="1249" 
d="M625 1061q248 0 395 -164q67 -74 101 -172.5t34 -202.5t-34 -202.5t-101 -172.5q-146 -163 -395 -163q-136 0 -235 47t-161 116q-67 74 -101 172.5t-34 202.5t34 202.5t101 172.5q62 70 161 117t235 47zM625 905q-74 0 -138.5 -34t-107.5 -89q-80 -105 -80 -260
q0 -157 80 -260q91 -123 246 -123q154 0 245 123q80 103 80 260t-80 260q-46 61 -110.5 92t-134.5 31zM489 1249l160 267h246l-242 -267h-164z" />
    <glyph glyph-name="uni0443.var.accented" unicode="&#x443;`" horiz-adv-x="999" 
d="M74 -444l12 157q56 -16 92 -16q76 0 131 55q53 53 84 162l13 45l-25 78l-367 1007h211l287 -858h4l281 858h194l-391 -1083q-82 -227 -137 -295q-98 -125 -268 -125q-53 0 -111 13zM395 1249l160 267h246l-242 -267h-164z" />
    <glyph glyph-name="uni044B.var.accented" unicode="&#x44b;`" horiz-adv-x="1519" 
d="M164 1044h192v-399h215q206 0 312 -80q116 -88 116 -248q0 -143 -98 -231q-97 -86 -291 -86h-446v1044zM356 489v-333h250q113 0 162 53q39 41 39 113q0 78 -49 120q-53 47 -183 47h-219zM1163 0v1044h193v-1044h-193zM625 1249l159 267h246l-242 -267h-163z" />
    <glyph glyph-name="uni044D.var.accented" unicode="&#x44d;`" horiz-adv-x="997" 
d="M117 864l-17 156q129 41 267 41q227 0 368 -123q76 -67 122 -173.5t46 -234.5q0 -109 -33 -213t-98 -176q-143 -157 -418 -157q-133 0 -262 43l14 170q121 -58 248 -58q182 0 271 107q34 40 53.5 99t19.5 122h-419v151h411q-6 111 -72 187q-89 100 -264 100q-28 0 -55 -2
t-49 -5.5t-40.5 -7t-35 -8t-26 -7.5t-20.5 -7zM322 1249l159 267h246l-242 -267h-163z" />
    <glyph glyph-name="uni044E.var.accented" unicode="&#x44e;`" horiz-adv-x="1683" 
d="M356 621h187q25 194 168 319q137 121 348 121q247 0 395 -164q67 -74 101 -172.5t34 -202.5t-34 -202.5t-101 -172.5q-150 -163 -395 -163q-256 0 -402 172q-104 122 -120 309h-181v-465h-192v1044h192v-423zM1059 905q-74 0 -138.5 -34t-107.5 -89q-80 -105 -80 -260
q0 -157 80 -260q91 -123 246 -123t246 123q79 102 79 260t-79 260q-46 61 -111 92t-135 31zM707 1249l159 267h246l-242 -267h-163z" />
    <glyph glyph-name="uni044F.var.accented" unicode="&#x44f;`" horiz-adv-x="1077" 
d="M913 1044v-1044h-192v412h-191l-211 -412h-227l246 446q-102 20 -162 95q-63 75 -63 194q0 69 29.5 127.5t76.5 98.5q45 37 109 60t131 23h454zM721 899h-215q-90 0 -141 -51q-48 -48 -48 -121q0 -71 48 -119q51 -53 141 -53h215v344zM444 1249l160 267h246l-242 -267
h-164z" />
    <glyph glyph-name="uni0451.var.accented" unicode="&#x451;`" 
d="M1044 479h-745q3 -139 88 -231q98 -109 262 -109q79 0 166.5 30.5t149.5 74.5v-193l-29 -10l-34 -13q-34 -13 -49.5 -16.5t-51.5 -12.5t-76.5 -12t-89.5 -3q-266 0 -406 149q-135 146 -135 393q0 271 162 416q132 119 328 119q228 0 346 -148q56 -69 85 -171t29 -207v-56
zM299 623h541q3 108 -60 188q-76 94 -207 94q-130 0 -208 -104q-56 -77 -66 -178zM221 1434h223v-215h-223v215zM709 1434h221v-215h-221v215zM498 1434l182 295h223l-268 -295h-137z" />
    <glyph glyph-name="fi" unicode="fi" horiz-adv-x="1314" 
d="M262 0v889h-227v155h227v97q0 42 1 68.5t6 69.5t15 74t30 66.5t48 61.5q85 80 244 80q49 0 135 -13l-8 -155q-48 12 -92 12q-90 0 -135 -45q-23 -23 -35 -61.5t-14 -67.5t-2 -74v-113h288v-155h-288v-889h-193zM958 0v1044h193v-1044h-193zM1163 1475v-218h-217v218h217z
" />
    <glyph glyph-name="fl" unicode="fl" horiz-adv-x="1316" 
d="M262 0v889h-227v155h227v97q0 42 1 68.5t6 69.5t15 74t30 66.5t48 61.5q85 80 244 80q49 0 135 -13l-8 -155q-48 12 -92 12q-90 0 -135 -45q-23 -23 -35 -61.5t-14 -67.5t-2 -74v-113h288v-155h-288v-889h-193zM961 0v1561h192v-1561h-192z" />
    <glyph glyph-name=".notdef" horiz-adv-x="1024" 
d="M119 16h786v1016h-786v-1016zM102 0v1049h820v-1049h-820z" />
    <glyph glyph-name="uni0000" horiz-adv-x="0" 
 />
    <glyph glyph-name="uni0000" horiz-adv-x="0" 
 />
    <glyph glyph-name="uni000D" unicode="&#xd;" horiz-adv-x="477" 
 />
    <glyph glyph-name="space" unicode=" " horiz-adv-x="477" 
 />
    <glyph glyph-name="exclam" unicode="!" horiz-adv-x="796" 
d="M514 1434l-33 -1033h-164l-32 1033h229zM285 0v229h229v-229h-229z" />
    <glyph glyph-name="quotedbl" unicode="&#x22;" 
d="M633 932v502h180v-502h-180zM326 932v502h180v-502h-180z" />
    <glyph glyph-name="numbersign" unicode="#" 
d="M193 0l59 426h-195v156h217l37 266h-196v156h219l59 426h156l-60 -426h242l60 426h155l-59 -426h194v-156h-217l-37 -266h195v-156h-217l-60 -426h-155l59 426h-241l-60 -426h-155zM672 582l37 266h-242l-37 -266h242z" />
    <glyph glyph-name="dollar" unicode="$" 
d="M506 891v369q-66 -11 -107 -52q-49 -49 -49 -137q0 -62 40 -102t116 -78zM625 594v-422q76 16 125 86q38 56 38 137q0 71 -51 125q-42 49 -112 74zM506 -217v192h-25q-168 0 -311 60l25 196q124 -75 282 -75h29v497l-72 35q-145 71 -215 146q-86 90 -86 231
q0 160 115 272q108 104 258 111v203h119v-197q161 -2 293 -51l-29 -189q-102 60 -244 60h-20v-445l118 -65q136 -76 187 -139q76 -93 76 -226q0 -169 -113 -290q-109 -114 -268 -125v-201h-119z" />
    <glyph glyph-name="percent" unicode="%" horiz-adv-x="2048" 
d="M532 635q-69 0 -122.5 23t-87.5 61t-56.5 92t-31.5 111t-9 122q0 89 13.5 157.5t46 128.5t95 92t152.5 32q72 0 127 -22t89 -59t55 -91t29 -111.5t8 -126.5q0 -82 -15.5 -152t-49.5 -129.5t-96 -93.5t-147 -34zM532 778q127 0 127 266q0 119 -12 166q-27 101 -115 101
q-26 0 -47 -11t-34 -26t-22 -41.5t-13.5 -46.5t-7 -52t-2.5 -47.5v-42.5q0 -29 1 -50t4.5 -55.5t11.5 -59.5t21.5 -50t36 -38t51.5 -13zM506 -45l887 1520h147l-887 -1520h-147zM1516 -25q-69 0 -122.5 23t-88 61.5t-57 92t-31.5 111t-9 122.5q0 70 8 127t29 111.5t54.5 91
t88.5 58.5t128 22q72 0 127 -22.5t88.5 -59t54.5 -91t29 -111.5t8 -126q0 -65 -9 -122.5t-31.5 -111t-56.5 -92t-87.5 -61.5t-122.5 -23zM1516 119q29 0 51.5 13t36 38t21.5 50t11.5 59.5t4.5 55.5t1 50v16q0 34 -0.5 53t-3.5 53.5t-11 55.5t-21.5 43.5t-36 33.5t-53.5 11
q-30 0 -53 -13t-36.5 -38t-21.5 -48.5t-11.5 -60t-4 -56t-0.5 -50.5q0 -266 127 -266z" />
    <glyph glyph-name="ampersand" unicode="&#x26;" horiz-adv-x="1478" 
d="M1135 772h192q-12 -160 -53 -271t-111 -218l250 -283h-256l-117 139q-76 -84 -173.5 -121.5t-235.5 -37.5q-211 0 -336 108.5t-125 286.5q0 155 82.5 255.5t236.5 162.5q-71 86 -109 159.5t-38 165.5q0 164 105 250t268 86q151 0 252.5 -82.5t101.5 -241.5
q0 -65 -27 -124.5t-73.5 -105t-99 -80.5t-113.5 -62l291 -332q41 66 60.5 144t27.5 202zM932 268l-344 404q-50 -34 -79 -57t-61 -58t-46.5 -76t-14.5 -92q0 -112 83.5 -183t197.5 -71q147 0 264 133zM662 872q37 17 71 40t68 54.5t55 72t21 83.5q0 176 -170 176
q-74 0 -123 -48t-49 -136q0 -45 21 -92t44 -76.5t62 -73.5z" />
    <glyph glyph-name="quotesingle" unicode="'" horiz-adv-x="569" 
d="M195 932v502h180v-502h-180z" />
    <glyph glyph-name="parenleft" unicode="(" horiz-adv-x="681" 
d="M653 -287h-184q-89 123 -154.5 249.5t-99.5 221.5t-53.5 191t-24 149.5t-4.5 106.5q0 433 336 917h184q-58 -94 -107.5 -192t-99.5 -220t-79 -253.5t-29 -251.5q0 -122 28.5 -253.5t78 -252.5t99.5 -219.5t109 -192.5z" />
    <glyph glyph-name="parenright" unicode=")" horiz-adv-x="681" 
d="M29 1548h184q89 -123 154.5 -249.5t99.5 -221.5t53.5 -190.5t24 -149t4.5 -106.5q0 -434 -336 -918h-184q58 94 107.5 192t99.5 220t79 254t29 252q0 122 -28.5 253.5t-78 252.5t-99.5 219t-109 192z" />
    <glyph glyph-name="asterisk" unicode="*" 
d="M735 635l-166 283l-168 -283l-151 102l225 252l-328 68l58 174l309 -127l-33 326h187l-31 -326l299 127l55 -174l-321 -68l219 -252z" />
    <glyph glyph-name="plus" unicode="+" horiz-adv-x="1228" 
d="M96 571v181h428v428h181v-428h428v-181h-428v-428h-181v428h-428z" />
    <glyph glyph-name="comma" unicode="," horiz-adv-x="569" 
d="M109 -272l129 501h227l-174 -501h-182z" />
    <glyph glyph-name="hyphen" unicode="-" horiz-adv-x="860" 
d="M164 684h532v-205h-532v205z" />
    <glyph glyph-name="period" unicode="." horiz-adv-x="569" 
d="M170 0v229h229v-229h-229z" />
    <glyph glyph-name="slash" unicode="/" horiz-adv-x="569" 
d="M-51 -25l491 1479h181l-492 -1479h-180z" />
    <glyph glyph-name="zero" unicode="0" 
d="M569 1454q48 0 95 -10t100 -34.5t102.5 -73t85.5 -117.5q51 -96 77 -229.5t26 -272.5q0 -140 -26 -275.5t-77 -228.5q-33 -61 -77.5 -106.5t-85 -69t-87 -37t-75.5 -17t-58 -3.5t-58 3.5t-75.5 17t-87 37t-85 69t-77.5 106.5q-51 93 -76.5 228.5t-25.5 275.5t25.5 273
t76.5 229q36 69 85.5 117.5t102.5 73t100 34.5t95 10zM569 1286q-126 0 -194 -143q-36 -75 -55 -194.5t-19 -231.5t19 -231.5t55 -194.5q69 -144 194 -144q126 0 195 144q36 75 55 194.5t19 231.5t-19 231.5t-55 194.5q-68 143 -195 143z" />
    <glyph glyph-name="one" unicode="1" 
d="M551 0v1198l-219 -190l-109 139l350 287h183v-1434h-205z" />
    <glyph glyph-name="two" unicode="2" 
d="M102 0v219l269 242q81 72 136 131.5t122 144.5q31 41 47.5 64.5t42.5 67.5t38.5 89t12.5 91q0 100 -68 168q-69 69 -206 69q-158 0 -328 -92l-21 176q179 84 375 84q181 0 297 -78q168 -114 168 -325q0 -37 -6.5 -73.5t-13.5 -63t-25 -61t-26.5 -50t-33.5 -49
t-30.5 -40.5t-32.5 -40l-44 -56t-47.5 -59t-54 -59.5t-95.5 -96.5q-91 -91 -189 -176l-67 -59h686v-168h-906z" />
    <glyph glyph-name="three" unicode="3" 
d="M297 662v167h115q72 0 145 17t117 47q92 61 92 170q0 104 -74 164q-76 59 -207 59q-157 0 -317 -78l-12 183q186 63 358 63q205 0 328 -92q59 -44 100 -118t41 -169q0 -137 -86 -223q-84 -87 -221 -111v-4q65 -12 127.5 -42.5t101.5 -69.5q90 -94 90 -244
q0 -190 -137 -295q-141 -106 -401 -106q-180 0 -353 55l13 188q158 -76 313 -76q66 0 139 17t119 51q90 65 90 180q0 78 -33 131t-81 82q-89 54 -242 54h-125z" />
    <glyph glyph-name="four" unicode="4" 
d="M705 494v772h-5l-454 -772h459zM705 0v326h-666v170l577 938h293v-940h181v-168h-181v-326h-204z" />
    <glyph glyph-name="five" unicode="5" 
d="M979 1434v-168h-594l-12 -381q103 20 153 20q215 0 348 -119q146 -132 146 -323q0 -211 -139 -340q-75 -69 -182.5 -106t-233.5 -37q-160 0 -299 47l6 192q138 -72 287 -72q164 0 262 93q82 79 82 192q0 148 -107 234q-92 71 -252 71q-142 0 -264 -53l13 750h786z" />
    <glyph glyph-name="six" unicode="6" 
d="M981 1409l-29 -182q-118 59 -254 59q-163 0 -272 -123q-60 -70 -94.5 -179.5t-32.5 -215.5h6q113 131 311 131q191 0 308 -117q123 -123 123 -329q0 -211 -125 -340q-133 -133 -334 -133q-285 0 -404 241q-78 160 -78 443q0 329 121 536q23 39 47 70.5t65.5 67.5t90 60
t120 40t155.5 16q146 0 276 -45zM829 449q0 104 -55 184q-66 98 -184 98q-115 0 -187 -72q-79 -79 -79 -210q0 -123 63 -205q72 -97 188 -97q129 0 201 105q53 82 53 197z" />
    <glyph glyph-name="seven" unicode="7" 
d="M1006 1434v-168l-529 -1266h-225l545 1266h-697v168h906z" />
    <glyph glyph-name="eight" unicode="8" 
d="M381 754v4q-133 50 -197 133q-71 87 -71 223q0 72 40.5 145.5t129.5 126.5q116 68 280 68q208 0 334 -98q121 -95 121 -232t-84 -231q-58 -65 -174 -127q124 -43 203 -125q98 -104 98 -252q0 -192 -133 -299q-136 -110 -353 -110q-211 0 -356 112q-141 112 -141 287
q0 82 33.5 153.5t89.5 120.5q71 62 180 101zM551 852l61 -27q103 71 146 132.5t43 134.5q0 52 -17.5 87t-60.5 64q-62 43 -164 43q-104 0 -176 -59q-66 -54 -66 -142q0 -74 70 -133q26 -23 75 -53t89 -47zM532 678l-63 -41q-33 -21 -49 -31.5t-44.5 -35.5t-42.5 -47t-26 -57
t-12 -75q0 -109 82 -176q40 -32 96.5 -50t110.5 -18q116 0 186 64q74 69 74 180q0 43 -14 78.5t-26.5 55.5t-52.5 45.5t-54.5 33t-71.5 32.5q-12 6 -19 9z" />
    <glyph glyph-name="nine" unicode="9" 
d="M158 25l28 180q111 -58 244 -58q202 0 307 156q49 71 76 167.5t27 195.5h-6q-125 -134 -308 -134q-204 0 -321 130q-113 126 -113 315q0 225 139 358q127 119 320 119q274 0 391 -221q90 -170 90 -463q0 -304 -94 -494q-146 -296 -494 -296q-156 0 -286 45zM309 985
q0 -108 58 -188q70 -97 188 -97q54 0 105.5 22t87.5 64q67 76 67 197q0 128 -74 217q-73 86 -178 86q-112 0 -180 -80q-74 -83 -74 -221z" />
    <glyph glyph-name="colon" unicode=":" horiz-adv-x="569" 
d="M399 1044v-229h-229v229h229zM170 0v229h229v-229h-229z" />
    <glyph glyph-name="semicolon" unicode=";" horiz-adv-x="569" 
d="M41 -272l129 501h229l-174 -501h-184zM399 1044v-229h-229v229h229z" />
    <glyph glyph-name="less" unicode="&#x3c;" horiz-adv-x="1228" 
d="M1135 1196v-180l-807 -354l807 -355v-180l-1041 457v155z" />
    <glyph glyph-name="equal" unicode="=" horiz-adv-x="1228" 
d="M96 786v181h1037v-181h-1037zM96 356v181h1037v-181h-1037z" />
    <glyph glyph-name="greater" unicode="&#x3e;" horiz-adv-x="1228" 
d="M94 1196l1041 -457v-155l-1041 -457v180l807 355l-807 354v180z" />
    <glyph glyph-name="question" unicode="?" horiz-adv-x="1024" 
d="M418 397v43q0 97 28 158q30 66 99 145l22 27l45 52.5t37 49t37.5 60.5t20 58.5t10.5 72.5q0 104 -74 168q-65 55 -174 55q-162 0 -303 -88l-14 188q155 68 340 68q187 0 299 -84q64 -47 103.5 -125.5t39.5 -167.5q0 -42 -10.5 -82.5t-21 -66.5t-39 -65.5t-40.5 -54.5
t-49 -58l-51 -62q-68 -87 -96 -156q-17 -42 -17 -98v-37h-192zM399 0v229h230v-229h-230z" />
    <glyph glyph-name="at" unicode="@" horiz-adv-x="1638" 
d="M750 444q72 0 134 54t95 130.5t33 149.5t-46 122.5t-112 49.5q-77 0 -141.5 -51t-97.5 -123.5t-33 -144.5q0 -83 45.5 -135t122.5 -52zM1260 1090l-138 -521q-16 -58 -16 -86q2 -26 9.5 -38.5t27.5 -12.5q92 0 171 115.5t79 267.5q0 155 -74 269t-195.5 170.5
t-273.5 56.5q-169 0 -302.5 -80t-205.5 -216.5t-72 -303.5q0 -283 166 -437.5t434 -154.5q129 0 247 48.5t198 133.5h155q-100 -154 -261 -240t-347 -86q-159 0 -297 50.5t-241 143t-162.5 233.5t-59.5 313q0 163 59.5 303t161.5 234.5t239 148t290 53.5q134 0 258.5 -44.5
t218.5 -123t150.5 -193.5t56.5 -247q0 -111 -35.5 -208t-90.5 -161.5t-121 -111.5t-127.5 -68t-110.5 -21q-48 0 -82 30t-37 85h-4q-47 -49 -106 -82t-117 -33q-127 0 -215.5 97t-88.5 231q0 96 32 188.5t88 164.5t140 116.5t181 44.5q150 0 233 -135l31 107h154z" />
    <glyph glyph-name="A" unicode="A" horiz-adv-x="1478" 
d="M25 0l610 1434h215l604 -1434h-223l-146 362h-700l-145 -362h-215zM1020 530l-285 711l-284 -711h569z" />
    <glyph glyph-name="B" unicode="B" horiz-adv-x="1232" 
d="M193 0v1434h387q257 0 385 -99q116 -89 116 -262q0 -135 -71 -219q-38 -45 -100 -77.5t-124 -45.5v-4q69 -4 131.5 -30.5t104.5 -67.5q96 -93 96 -246q0 -176 -110 -270q-132 -113 -435 -113h-380zM397 653v-485h154q217 0 295 80q55 59 55 158q0 144 -123 206
q-82 41 -248 41h-133zM397 1266v-445h113q49 0 79 1.5t79.5 7.5t88 22t64.5 41q56 54 56 151q0 113 -74 168q-71 54 -191 54h-215z" />
    <glyph glyph-name="C" unicode="C" horiz-adv-x="1280" 
d="M1186 1393l-17 -199q-136 80 -295 80q-205 0 -350 -115q-91 -71 -144.5 -184.5t-53.5 -257.5q0 -227 135 -381q150 -176 434 -176q138 0 281 67l12 -196q-135 -51 -299 -51q-379 0 -584 210q-86 90 -141 227t-55 302q0 52 5.5 102t22.5 116t45 125t77.5 122.5
t115.5 113.5q203 156 499 156q182 0 312 -61z" />
    <glyph glyph-name="D" unicode="D" horiz-adv-x="1501" 
d="M193 0v1434h421q345 0 555 -201q207 -195 207 -520q0 -121 -32.5 -236t-92.5 -201q-195 -276 -637 -276h-421zM397 1253v-1073h215q90 0 160 11t149.5 52t135.5 113q102 127 102 340q0 142 -42 246.5t-107 169.5q-146 141 -373 141h-240z" />
    <glyph glyph-name="E" unicode="E" horiz-adv-x="1134" 
d="M193 0v1434h800v-181h-596v-419h543v-181h-543v-473h596v-180h-800z" />
    <glyph glyph-name="F" unicode="F" horiz-adv-x="1046" 
d="M193 0v1434h759v-181h-555v-419h531v-181h-531v-653h-204z" />
    <glyph glyph-name="G" unicode="G" horiz-adv-x="1478" 
d="M1284 1382l-16 -204q-66 45 -162 69q-104 27 -217 27q-230 0 -375 -123q-81 -69 -134.5 -181t-53.5 -259q0 -227 147 -387q153 -164 410 -164q26 0 91.5 6t90.5 10l29 6v434h-301v168h505v-741q-192 -63 -415 -63q-341 0 -547 184q-227 204 -227 559q0 338 235 547
q207 184 528 184q31 0 63.5 -1.5t57.5 -4t50 -5.5t40 -5.5t28.5 -5t14.5 -2.5q67 -15 158 -48z" />
    <glyph glyph-name="H" unicode="H" horiz-adv-x="1478" 
d="M193 0v1434h204v-600h684v600h205v-1434h-205v653h-684v-653h-204z" />
    <glyph glyph-name="I" unicode="I" horiz-adv-x="589" 
d="M193 0v1434h204v-1434h-204z" />
    <glyph glyph-name="J" unicode="J" horiz-adv-x="796" 
d="M43 4v176q73 -20 129 -20q126 0 180 65q54 61 54 215v994h204v-1059q0 -202 -112 -303q-103 -92 -295 -92q-95 0 -160 24z" />
    <glyph glyph-name="K" unicode="K" horiz-adv-x="1366" 
d="M193 0v1434h204v-631l611 631h272l-672 -678l725 -756h-299l-637 702v-702h-204z" />
    <glyph glyph-name="L" unicode="L" horiz-adv-x="1036" 
d="M193 0v1434h204v-1254h598v-180h-802z" />
    <glyph glyph-name="M" unicode="M" horiz-adv-x="1949" 
d="M193 0v1434h337l449 -1192l440 1192h338v-1434h-205v1241h-4l-473 -1241h-201l-473 1241h-4v-1241h-204z" />
    <glyph glyph-name="N" unicode="N" horiz-adv-x="1503" 
d="M193 0v1434h278l631 -1155h4v1155h205v-1434h-262l-648 1180h-4v-1180h-204z" />
    <glyph glyph-name="O" unicode="O" horiz-adv-x="1593" 
d="M797 1454q324 0 512 -217q82 -94 129 -227.5t47 -292.5q0 -161 -48 -295.5t-128 -226.5q-186 -215 -512 -215t-512 215q-80 92 -128 226.5t-48 295.5q0 159 47 292.5t129 227.5q188 217 512 217zM797 1274q-117 0 -206 -46.5t-145 -117.5q-55 -70 -87.5 -176.5
t-32.5 -216.5q0 -101 29.5 -207.5t90.5 -185.5q128 -164 351 -164q222 0 350 164q62 79 91.5 185.5t29.5 207.5q0 110 -32.5 216t-88.5 177t-144.5 117.5t-205.5 46.5z" />
    <glyph glyph-name="P" unicode="P" horiz-adv-x="1161" 
d="M397 1253v-499h203q61 0 120.5 18.5t96.5 52.5q70 66 70 176q0 124 -92 193q-82 59 -224 59h-174zM193 0v1434h374q258 0 394 -105q143 -108 143 -319q0 -174 -96 -285q-23 -27 -54 -50.5t-80 -48t-120.5 -39t-155.5 -14.5h-201v-573h-204z" />
    <glyph glyph-name="Q" unicode="Q" horiz-adv-x="1593" 
d="M1178 -258l-267 246l-39 -4q-24 -4 -34 -4h-41q-152 5 -279.5 50.5t-232.5 164.5q-81 93 -128.5 226.5t-47.5 295.5q0 316 176 520q188 217 512 217t512 -217q81 -95 128.5 -228.5t47.5 -291.5q0 -34 -3.5 -73.5t-14 -106t-38.5 -139.5t-69 -136q-95 -146 -260 -221
l332 -299h-254zM797 1274q-117 0 -206 -46.5t-145 -117.5q-55 -70 -87.5 -176.5t-32.5 -216.5q0 -101 29.5 -207.5t90.5 -185.5q128 -164 351 -164q222 0 350 164q62 79 91.5 185.5t29.5 207.5q0 110 -32.5 216t-88.5 177t-144.5 117.5t-205.5 46.5z" />
    <glyph glyph-name="R" unicode="R" horiz-adv-x="1273" 
d="M193 0v1434h350q86 0 146.5 -4t142 -25.5t135.5 -61.5q131 -94 131 -284q0 -150 -94 -240q-82 -82 -201 -100v-4q52 -19 78 -49q34 -40 61 -95l270 -571h-233l-219 498q-41 91 -94 116q-45 23 -146 23h-123v-637h-204zM397 1253v-436h174q158 0 240 70q70 60 70 153
q0 119 -95 174q-69 39 -192 39h-197z" />
    <glyph glyph-name="S" unicode="S" horiz-adv-x="1024" 
d="M860 1403l-29 -189q-133 60 -268 60q-104 0 -164 -35q-86 -49 -86 -154q0 -61 45 -112q22 -25 52.5 -46.5t49.5 -31.5t57 -27.5t46 -21.5l53 -27q90 -44 149.5 -86.5t98.5 -103.5q64 -97 64 -230q0 -192 -140 -309q-131 -110 -362 -110q-151 0 -313 59l20 188
q151 -67 297 -67q133 0 209 71q72 66 72 162q0 98 -76 162q-12 10 -25 19t-34.5 21t-34.5 19t-47.5 24t-51.5 26l-88 45q-145 76 -200 155q-58 84 -58 203q0 197 152 303q61 42 143.5 63t163.5 21q168 0 305 -51z" />
    <glyph glyph-name="T" unicode="T" 
d="M467 0v1253h-444v181h1093v-181h-444v-1253h-205z" />
    <glyph glyph-name="U" unicode="U" horiz-adv-x="1478" 
d="M1294 1434v-840q0 -301 -149 -461q-21 -23 -50.5 -45t-78.5 -49t-121 -43t-156 -16t-156 16t-121 43t-77.5 49t-50.5 45q-150 162 -150 461v840h205v-813q0 -227 76 -334q53 -75 122 -101t152 -26q84 0 153 26t122 101q76 107 76 334v813h204z" />
    <glyph glyph-name="V" unicode="V" horiz-adv-x="1366" 
d="M1354 1434l-547 -1434h-256l-539 1434h230l440 -1254h4l453 1254h215z" />
    <glyph glyph-name="W" unicode="W" horiz-adv-x="2048" 
d="M436 0l-432 1434h225l342 -1229h4l306 1229h290l310 -1229h4l342 1229h217l-440 -1434h-265l-311 1253h-4l-313 -1253h-275z" />
    <glyph glyph-name="X" unicode="X" horiz-adv-x="1366" 
d="M16 0l527 745l-480 689h246l381 -551l379 551h234l-482 -684l529 -750h-258l-422 608l-408 -608h-246z" />
    <glyph glyph-name="Y" unicode="Y" horiz-adv-x="1366" 
d="M582 0v600l-559 834h239l426 -643l416 643h239l-557 -834v-600h-204z" />
    <glyph glyph-name="Z" unicode="Z" 
d="M66 0v184l741 1069h-717v181h952v-185l-739 -1069h752v-180h-989z" />
    <glyph glyph-name="bracketleft" unicode="[" horiz-adv-x="681" 
d="M195 -287v1835h387v-143h-207v-1548h207v-144h-387z" />
    <glyph glyph-name="backslash" unicode="\" horiz-adv-x="569" 
d="M440 -25l-491 1479h180l492 -1479h-181z" />
    <glyph glyph-name="bracketright" unicode="]" horiz-adv-x="681" 
d="M487 1548v-1835h-387v144h207v1548h-207v143h387z" />
    <glyph glyph-name="asciicircum" unicode="^" horiz-adv-x="1228" 
d="M123 604l407 830h168l408 -830h-184l-308 641l-307 -641h-184z" />
    <glyph glyph-name="underscore" unicode="_" horiz-adv-x="1024" 
d="M0 -256v102h1024v-102h-1024z" />
    <glyph glyph-name="grave" unicode="`" horiz-adv-x="569" 
d="M260 1516l160 -267h-164l-242 267h246z" />
    <glyph glyph-name="a" unicode="a" 
d="M223 803l-12 168q150 90 360 90q205 0 308 -103q62 -62 80 -138.5t18 -184.5v-424q0 -160 8 -211h-180v141h-4q-60 -82 -151.5 -119.5t-190.5 -37.5q-70 0 -137 19.5t-113 53.5q-115 85 -115 238q0 31 6.5 63.5t23 72t51 77t83.5 65.5q118 70 395 70q61 0 131 -4v57
q0 101 -61 154q-64 55 -191 55q-166 0 -309 -102zM784 408v90q-74 4 -110 4q-214 0 -299 -58q-76 -51 -76 -139q0 -80 55 -121q57 -45 150 -45q60 0 117 21.5t94 60.5q69 73 69 187z" />
    <glyph glyph-name="b" unicode="b" horiz-adv-x="1251" 
d="M164 0v1561h192v-660h4q51 72 121 109q97 51 215 51q229 0 353 -162q108 -139 108 -358q0 -99 -24 -200t-76 -177q-51 -75 -136.5 -127.5t-211.5 -52.5q-125 0 -230 55q-79 42 -127 108h-4v-147h-184zM356 520q0 -152 76 -260q85 -121 232 -121q128 0 210 113
q78 108 78 287q0 155 -69 254q-79 112 -217 112q-135 0 -220 -102q-90 -109 -90 -283z" />
    <glyph glyph-name="c" unicode="c" horiz-adv-x="909" 
d="M844 1020l-17 -160q-102 45 -209 45q-122 0 -215 -80q-56 -50 -88 -131t-32 -172q0 -161 79 -262q44 -54 114.5 -87.5t154.5 -33.5q116 0 207 60l14 -172q-97 -43 -242 -43q-240 0 -393 168q-56 60 -97.5 155t-41.5 223q0 114 43 222.5t137 187.5q146 121 352 121
q121 0 234 -41z" />
    <glyph glyph-name="d" unicode="d" horiz-adv-x="1251" 
d="M895 1561h192v-1561h-184v147h-4q-45 -61 -121 -104q-106 -59 -231 -59q-211 0 -334 153q-119 146 -119 398q0 249 139 395q123 131 312 131q135 0 229 -55q73 -42 117 -105h4v660zM895 520q0 152 -76 262q-88 123 -233 123q-132 0 -209 -100q-78 -102 -78 -279
q0 -150 66 -256q82 -131 223 -131q135 0 219 105q42 53 65 127.5t23 148.5z" />
    <glyph glyph-name="e" unicode="e" 
d="M1044 479h-745q3 -139 88 -231q98 -109 262 -109q79 0 166.5 30.5t149.5 74.5v-193l-29 -10l-34 -13q-34 -13 -49.5 -16.5t-51.5 -12.5t-76.5 -12t-89.5 -3q-266 0 -406 149q-135 146 -135 393q0 271 162 416q132 119 328 119q228 0 346 -148q56 -69 85 -171t29 -207v-56
zM299 623h541q3 108 -60 188q-76 94 -207 94q-130 0 -208 -104q-56 -77 -66 -178z" />
    <glyph glyph-name="f" unicode="f" horiz-adv-x="763" 
d="M262 0v889h-227v155h227v97q0 42 1 68.5t6 69.5t15 74t30 66.5t48 61.5q85 80 244 80q49 0 135 -13l-8 -155q-48 12 -92 12q-90 0 -135 -45q-23 -23 -35 -61.5t-14 -67.5t-2 -74v-113h288v-155h-288v-889h-193z" />
    <glyph glyph-name="g" unicode="g" horiz-adv-x="1251" 
d="M1087 1044v-1003q0 -245 -129 -369q-135 -131 -409 -131q-176 0 -375 72l21 178q183 -94 364 -94q175 0 262 110q74 96 74 248v107h-4q-60 -81 -150 -121q-91 -41 -200 -41q-203 0 -326 143q-59 71 -90 170t-31 201q0 233 125 385q133 162 356 162q52 0 102 -12t71 -21
t32 -16q76 -40 125 -123h4v155h178zM590 156q148 0 231 114q74 102 74 250q0 165 -78 273q-79 112 -223 112q-134 0 -219 -112q-12 -17 -25 -40.5t-32 -90t-19 -138.5t21 -142.5t57 -117.5q37 -48 94 -78t119 -30z" />
    <glyph glyph-name="h" unicode="h" horiz-adv-x="1236" 
d="M164 0v1561h192v-666h4q51 74 138 121q86 45 198 45q196 0 295 -115q96 -112 96 -325v-621h-192v541q0 213 -66 295q-57 69 -170 69q-121 0 -204 -90q-99 -110 -99 -332v-483h-192z" />
    <glyph glyph-name="i" unicode="i" horiz-adv-x="520" 
d="M164 0v1044h192v-1044h-192zM369 1475v-218h-217v218h217z" />
    <glyph glyph-name="j" unicode="j" horiz-adv-x="520" 
d="M-57 -451l6 166q34 -6 57 -6h21q67 3 100 55q37 58 37 166v1114h192v-1085q0 -68 -3 -113t-19 -105.5t-47 -100.5q-46 -60 -109 -79.5t-145 -19.5q-49 0 -90 8zM369 1475v-218h-217v218h217z" />
    <glyph glyph-name="k" unicode="k" horiz-adv-x="1118" 
d="M164 0v1561h192v-940l426 423h250l-481 -452l541 -592h-261l-475 537v-537h-192z" />
    <glyph glyph-name="l" unicode="l" horiz-adv-x="520" 
d="M164 0v1561h192v-1561h-192z" />
    <glyph glyph-name="m" unicode="m" horiz-adv-x="1812" 
d="M164 0v1044h180v-151h4q51 86 139 127q84 41 185 41q108 0 182 -49q83 -56 123 -154q56 104 151 158q80 45 191 45q170 0 260 -111q84 -104 84 -280v-670h-193v623q0 151 -51 217q-45 65 -141 65q-120 0 -193 -100q-75 -100 -75 -279v-526h-193v623q0 146 -49 213
q-52 69 -143 69q-119 0 -193 -100q-76 -102 -76 -279v-526h-192z" />
    <glyph glyph-name="n" unicode="n" horiz-adv-x="1236" 
d="M164 0v1044h192v-149h4q51 74 138 121q86 45 198 45q196 0 295 -115q96 -112 96 -325v-621h-192v541q0 215 -66 295q-21 26 -63.5 47.5t-106.5 21.5q-121 0 -204 -90q-99 -110 -99 -332v-483h-192z" />
    <glyph glyph-name="o" unicode="o" horiz-adv-x="1249" 
d="M625 1061q248 0 395 -164q67 -74 101 -172.5t34 -202.5t-34 -202.5t-101 -172.5q-146 -163 -395 -163q-136 0 -235 47t-161 116q-67 74 -101 172.5t-34 202.5t34 202.5t101 172.5q62 70 161 117t235 47zM625 905q-74 0 -138.5 -34t-107.5 -89q-80 -105 -80 -260
q0 -157 80 -260q91 -123 246 -123q154 0 245 123q80 103 80 260t-80 260q-46 61 -110.5 92t-134.5 31z" />
    <glyph glyph-name="p" unicode="p" horiz-adv-x="1251" 
d="M164 1044h184v-149h4q117 166 346 166q210 0 332 -139q59 -68 93 -169.5t34 -222.5q0 -108 -31 -213.5t-90 -179.5q-120 -153 -327 -153q-134 0 -230 51q-76 40 -119 102h-4v-596h-192v1503zM356 520q0 -160 80 -268q37 -50 94.5 -81.5t128.5 -31.5q117 0 197 88
q96 106 96 310q0 180 -86 278q-77 90 -200 90q-148 0 -234 -123q-76 -107 -76 -262z" />
    <glyph glyph-name="q" unicode="q" horiz-adv-x="1251" 
d="M1087 1044v-1503h-192v596h-4q-43 -62 -119 -102q-96 -51 -229 -51q-208 0 -328 153q-59 74 -90 179.5t-31 213.5q0 121 34 222.5t93 169.5q122 139 332 139q229 0 346 -166h4v149h184zM895 520q0 155 -76 262q-86 123 -233 123q-124 0 -201 -90q-86 -98 -86 -278
q0 -204 96 -310q80 -88 197 -88q71 0 128.5 31.5t94.5 81.5q80 108 80 268z" />
    <glyph glyph-name="r" unicode="r" horiz-adv-x="776" 
d="M164 1044h180v-170h4q42 85 117 136t162 51q45 0 102 -10l19 -4v-173q-53 19 -107 19q-112 0 -184 -86q-101 -116 -101 -340v-467h-192v1044z" />
    <glyph glyph-name="s" unicode="s" horiz-adv-x="831" 
d="M98 41l11 170q129 -72 243 -72q100 0 154 51q39 35 39 95q0 53 -51 94q-52 41 -140 82l-41 18q-55 24 -107 63t-79 79q-35 54 -35 127q0 139 92 223q100 90 277 90q120 0 239 -41l-16 -164q-44 24 -88 35q-61 14 -113 14q-79 0 -127 -26q-59 -35 -59 -97q0 -16 3 -30.5
t11.5 -27.5t15.5 -23t21.5 -21t23 -17.5t27.5 -16l28 -14t30 -14t28 -12.5l31 -14q46 -22 71 -35t61 -40t57 -58q45 -68 45 -162q0 -140 -107 -229q-102 -84 -272 -84q-148 0 -273 57z" />
    <glyph glyph-name="t" unicode="t" horiz-adv-x="768" 
d="M242 1286l192 62v-304h289v-155h-289v-563q0 -86 45 -136q47 -51 125 -51q65 0 123 37v-164q-82 -28 -170 -28q-145 0 -225 69q-90 76 -90 234v602h-228v155h228v242z" />
    <glyph glyph-name="u" unicode="u" horiz-adv-x="1236" 
d="M1073 1044v-1044h-192v150h-4q-51 -74 -138 -121q-86 -45 -198 -45q-197 0 -295 114q-96 112 -96 326v620h192v-540q0 -215 66 -295q21 -26 63.5 -48t106.5 -22q121 0 204 90q99 110 99 332v483h192z" />
    <glyph glyph-name="v" unicode="v" horiz-adv-x="1024" 
d="M1001 1044l-374 -1044h-230l-374 1044h210l283 -851h4l289 851h192z" />
    <glyph glyph-name="w" unicode="w" horiz-adv-x="1705" 
d="M1681 1044l-335 -1044h-224l-270 877h-4l-264 -877h-224l-335 1044h211l239 -864h4l266 864h228l262 -864h4l254 864h188z" />
    <glyph glyph-name="x" unicode="x" horiz-adv-x="1024" 
d="M20 0l377 547l-340 497h240l227 -372l232 372h215l-336 -497l369 -547h-238l-258 410l-258 -410h-230z" />
    <glyph glyph-name="y" unicode="y" horiz-adv-x="999" 
d="M74 -444l12 157q43 -16 84 -16q83 0 139 59q57 60 84 158l13 45l-25 78l-367 1007h211l287 -858h4l281 858h194l-391 -1083q-77 -213 -137 -291q-101 -129 -268 -129q-53 0 -111 13z" />
    <glyph glyph-name="z" unicode="z" horiz-adv-x="1024" 
d="M88 0v168l602 721h-573v155h796v-167l-602 -721h625v-156h-848z" />
    <glyph glyph-name="braceleft" unicode="{" horiz-adv-x="649" 
d="M428 1249v-370q0 -122 -78 -193q-46 -43 -104 -53q55 -9 104 -53q78 -71 78 -193v-371q0 -30 0.5 -43t9 -37t25.5 -42q31 -33 84 -33q23 0 47 6l16 -141q-45 -9 -92 -9q-122 0 -190 64q-76 72 -76 221v356q0 187 -176 205v139q176 18 176 205v357q0 149 76 221
q67 63 190 63q52 0 92 -8l-16 -141q-24 6 -47 6q-53 0 -84 -33q-17 -18 -25.5 -42t-9 -37.5t-0.5 -43.5z" />
    <glyph glyph-name="bar" unicode="|" horiz-adv-x="454" 
d="M137 -283v1831h180v-1831h-180z" />
    <glyph glyph-name="braceright" unicode="}" horiz-adv-x="649" 
d="M221 879v370q0 30 -0.5 43.5t-9 37.5t-25.5 42q-31 33 -84 33q-23 0 -47 -6l-16 141q40 8 92 8q124 0 191 -63q75 -71 75 -221v-357q0 -187 176 -205v-139q-176 -18 -176 -205v-356q0 -150 -75 -221q-68 -64 -191 -64q-47 0 -92 9l16 141q24 -6 47 -6q53 0 84 33
q17 18 25.5 42t9 37t0.5 43v371q0 122 78 193q45 43 102 53q-60 11 -102 53q-78 71 -78 193z" />
    <glyph glyph-name="asciitilde" unicode="~" horiz-adv-x="1228" 
d="M1014 682l73 -143q-83 -174 -256 -174q-80 0 -227 63l-51 23q-3 2 -18 8.5t-18.5 8t-16 7.5t-17 7.5t-15 6t-16 5.5t-14.5 4t-15 3.5t-13.5 1.5t-14.5 1q-95 0 -180 -150l-74 144q83 174 256 174q79 0 228 -64l51 -22q5 -2 25.5 -11.5t26 -12t21.5 -9.5t23.5 -9t20 -6
t22 -5t19.5 -1q95 0 180 150z" />
    <glyph glyph-name="uni00A0" unicode="&#xa0;" horiz-adv-x="477" 
 />
    <glyph glyph-name="exclamdown" unicode="&#xa1;" horiz-adv-x="796" 
d="M514 -410h-229l32 1033h164zM285 1024h229v-229h-229v229z" />
    <glyph glyph-name="cent" unicode="&#xa2;" 
d="M944 1028l-16 -160q-102 45 -209 45q-127 0 -215 -82q-56 -51 -88.5 -133.5t-32.5 -175.5q0 -72 20.5 -144t59.5 -124q43 -56 112.5 -89.5t155.5 -33.5q118 0 207 59l14 -172q-93 -40 -200 -43v-192h-119v199q-192 26 -316 163q-139 153 -139 385q0 116 43 226t137 190
q113 98 275 119v201h119v-199q105 -7 192 -39z" />
    <glyph glyph-name="sterling" unicode="&#xa3;" 
d="M121 0v180h186v533h-162v118h162v119q0 287 189 422q120 86 307 86q143 0 241 -39l-16 -190q-115 49 -205 49q-113 0 -182 -45q-129 -85 -129 -297v-105h330v-118h-330v-533h506v-180h-897z" />
    <glyph glyph-name="currency" unicode="&#xa4;" 
d="M49 299l115 117q-103 122 -103 299q0 183 103 303l-115 110l105 107l112 -113q136 101 303 101q171 0 308 -101l110 113l103 -107l-111 -110q98 -123 98 -303q0 -176 -98 -299l111 -117l-103 -104l-110 116q-121 -104 -308 -104q-182 0 -303 104l-112 -116zM242 715
q0 -141 96 -240.5t231 -99.5q139 0 233.5 100.5t94.5 239.5q0 138 -94.5 239t-233.5 101q-136 0 -231.5 -100.5t-95.5 -239.5z" />
    <glyph glyph-name="yen" unicode="&#xa5;" 
d="M469 0v332h-289v119h289v147l-16 33h-273v119h207l-375 680h228l335 -642l324 642h227l-370 -680h207v-119h-273l-16 -33v-147h289v-119h-289v-332h-205z" />
    <glyph glyph-name="brokenbar" unicode="&#xa6;" horiz-adv-x="454" 
d="M137 -283v738h180v-738h-180zM137 811v737h180v-737h-180z" />
    <glyph glyph-name="section" unicode="&#xa7;" 
d="M182 -193l19 187q141 -72 338 -72q95 0 163 45q80 51 80 142q0 65 -67 104q-15 9 -33.5 17.5t-34.5 14t-49 17.5t-57 21l-127 49q-130 53 -185 127q-57 77 -57 170q0 97 53 172q39 53 97 80q-53 29 -91 80q-51 67 -51 163q0 26 6 54t20.5 64.5t46.5 73t77 64.5
q119 74 293 74q138 0 282 -39l-18 -186q-135 57 -250 57q-102 0 -170 -29q-94 -40 -94 -129q0 -46 35 -86q25 -28 74 -50.5t151 -57.5l63 -23q160 -57 224 -131q69 -77 69 -190q0 -145 -145 -244q61 -40 96 -101t35 -130q0 -73 -32 -142t-97 -118q-54 -40 -130 -64
t-122 -29.5t-82 -5.5q-186 0 -330 51zM643 444l92 -32q33 30 53.5 72.5t20.5 78.5q0 50 -33 96q-33 48 -106 74l-84 31q-122 44 -158 63q-37 -27 -56.5 -65t-19.5 -76q0 -73 45 -121q9 -10 21 -19.5t22 -16.5t28.5 -16t28 -14t34.5 -14.5t34 -12.5t39 -14t39 -14z" />
    <glyph glyph-name="dieresis" unicode="&#xa8;" horiz-adv-x="569" 
d="M20 1270v205h193v-205h-193zM356 1270v205h193v-205h-193z" />
    <glyph glyph-name="copyright" unicode="&#xa9;" horiz-adv-x="1800" 
d="M164 717q0 150 58 286.5t157 235.5t235.5 157t286.5 58t286.5 -58t234.5 -157t156 -235.5t58 -286.5q0 -147 -58.5 -283t-156.5 -235.5t-234.5 -159t-285.5 -59.5q-200 0 -370 100t-268.5 269.5t-98.5 367.5zM297 717q0 -123 48 -234.5t129 -192t193 -128t234 -47.5
q164 0 302.5 80.5t219 219t80.5 302.5q0 123 -47.5 235t-128.5 192.5t-192.5 128.5t-233.5 48t-233.5 -48t-192.5 -128.5t-129.5 -192.5t-48.5 -235zM1110 1096l-6 -123q-70 31 -180 31q-112 0 -176 -79t-64 -200q0 -135 71 -211t173 -76q94 0 178 35l10 -125
q-90 -37 -201 -37q-83 0 -150.5 24.5t-112.5 64.5t-76 94t-44.5 112t-13.5 119q0 177 108 289t277 112q115 0 207 -30z" />
    <glyph glyph-name="ordfeminine" unicode="&#xaa;" horiz-adv-x="737" 
d="M135 1282l-6 129q127 43 254 43q138 0 213 -51q54 -36 71 -85t17 -124v-262l6 -121h-172v78h-4q-25 -46 -78 -70q-56 -24 -123 -24q-123 0 -184 43q-36 25 -59 66.5t-23 86.5q0 119 115 172q50 24 113 30.5t165 6.5q41 0 76 -2v16q0 57 -41 91q-17 15 -38.5 22t-37.5 8.5
t-43 1.5q-109 0 -221 -55zM516 1036v58q-35 2 -106 2q-112 0 -154 -29q-41 -27 -41 -82q0 -31 33 -53q31 -19 88 -19q93 0 137 35q43 32 43 88z" />
    <glyph glyph-name="guillemotleft" unicode="&#xab;" 
d="M397 137l-293 414l293 414h181l-267 -414l267 -414h-181zM811 137l-293 414l293 414h180l-266 -414l266 -414h-180z" />
    <glyph glyph-name="logicalnot" unicode="&#xac;" horiz-adv-x="1228" 
d="M96 643v180h1037v-610h-181v430h-856z" />
    <glyph glyph-name="uni00AD" unicode="&#xad;" horiz-adv-x="860" 
d="M164 684h532v-205h-532v205z" />
    <glyph glyph-name="registered" unicode="&#xae;" horiz-adv-x="1800" 
d="M164 717q0 150 58 286.5t157 235.5t235.5 157t286.5 58t286.5 -58t234.5 -157t156 -235.5t58 -286.5q0 -147 -58.5 -283t-156.5 -235.5t-234.5 -159t-285.5 -59.5q-200 0 -370 100t-268.5 269.5t-98.5 367.5zM297 717q0 -123 48 -234.5t129 -192t193 -128t234 -47.5
q164 0 302.5 80.5t219 219t80.5 302.5q0 123 -47.5 235t-128.5 192.5t-192.5 128.5t-233.5 48t-233.5 -48t-192.5 -128.5t-129.5 -192.5t-48.5 -235zM629 1120h289q112 0 182 -49q43 -31 61.5 -71.5t18.5 -100.5q0 -74 -54 -125q-49 -45 -112 -57v-4q35 -11 57 -35.5
t31 -46.5l135 -322h-160l-121 283q-10 22 -21.5 36t-27 19.5t-25.5 6.5t-28 1h-76v-346h-149v811zM778 1001v-223h92q77 0 117 33q39 31 39 80q0 58 -39 86q-14 12 -33.5 17.5t-31.5 6t-39 0.5h-105z" />
    <glyph glyph-name="macron" unicode="&#xaf;" horiz-adv-x="569" 
d="M-18 1335v144h606v-144h-606z" />
    <glyph glyph-name="degree" unicode="&#xb0;" horiz-adv-x="819" 
d="M117 1161q0 121 85.5 207t207.5 86q121 0 206.5 -85.5t85.5 -207.5t-85.5 -207.5t-206.5 -85.5q-122 0 -207.5 86t-85.5 207zM248 1161q0 -66 48 -114t114 -48t113.5 48t47.5 114t-47.5 114t-113.5 48t-114 -48t-48 -114z" />
    <glyph glyph-name="plusminus" unicode="&#xb1;" horiz-adv-x="1228" 
d="M96 698v181h428v301h181v-301h428v-181h-428v-301h-181v301h-428zM96 143v181h1037v-181h-1037z" />
    <glyph glyph-name="twosuperior" unicode="&#xb2;" horiz-adv-x="739" 
d="M63 578v155q8 7 58.5 47.5t88.5 71.5t92.5 82t90 92.5t62 88.5t26.5 83q0 56 -51.5 84.5t-112.5 28.5q-114 0 -213 -60l-12 152q119 51 256 51q62 0 116 -14t99.5 -42t72 -77.5t26.5 -114.5q0 -59 -47.5 -138.5t-114 -147.5t-130 -121.5t-102.5 -73.5v-4h408v-143h-613z
" />
    <glyph glyph-name="threesuperior" unicode="&#xb3;" horiz-adv-x="739" 
d="M190 954v144h95q42 0 86.5 11t80 39t35.5 66q0 35 -32.5 58.5t-70.5 31t-79 7.5q-96 0 -199 -45l-8 147q109 41 252 41q85 0 154.5 -22.5t116.5 -76.5t47 -132q0 -80 -60 -130t-145 -65v-4q95 -13 154 -68t59 -147q0 -244 -379 -244q-109 0 -231 33l20 156
q17 -17 75.5 -31t117.5 -14q33 0 67 5t69.5 16t58 33.5t22.5 53.5q0 65 -64.5 101t-140.5 36h-101z" />
    <glyph glyph-name="acute" unicode="&#xb4;" horiz-adv-x="569" 
d="M150 1249l159 267h246l-242 -267h-163z" />
    <glyph glyph-name="mu" unicode="&#xb5;" horiz-adv-x="1251" 
d="M1087 1044v-1044h-186v166h-4q-50 -88 -129 -137q-88 -54 -213 -54q-67 0 -125 23q-41 16 -74 49v-506h-192v1503h192v-540q0 -70 1.5 -104.5t13 -87t35.5 -89.5q57 -92 172 -92q160 0 243 123q74 110 74 307v483h192z" />
    <glyph glyph-name="paragraph" unicode="&#xb6;" horiz-adv-x="1228" 
d="M483 -229v911q-190 -10 -316 97t-126 270q0 61 13.5 113t35 88.5t54 66.5t64 48.5t72.5 32.5t72 20.5t69.5 10.5t58 4.5t44.5 0.5h555v-1663h-180v1515h-235v-1515h-181z" />
    <glyph glyph-name="periodcentered" unicode="&#xb7;" horiz-adv-x="569" 
d="M170 506v229h229v-229h-229z" />
    <glyph glyph-name="cedilla" unicode="&#xb8;" horiz-adv-x="583" 
d="M205 18h117l-11 -81q74 -3 121 -50q49 -49 49 -137q0 -79 -63 -139q-57 -51 -166 -51q-78 0 -150 51l52 94q47 -35 92 -35q44 0 69 25t25 55q0 44 -25 66q-24 24 -75 24q-40 0 -60 -4z" />
    <glyph glyph-name="onesuperior" unicode="&#xb9;" horiz-adv-x="739" 
d="M315 578v708l-143 -112l-70 94l228 174h166v-864h-181z" />
    <glyph glyph-name="ordmasculine" unicode="&#xba;" horiz-adv-x="813" 
d="M406 795q-151 0 -252 92t-101 237q0 60 20.5 116.5t61.5 105t111 78.5t160 30q158 0 255 -92t97 -238q0 -145 -99 -237t-253 -92zM221 1124q0 -97 46 -154t139 -57q49 0 85 16.5t54.5 39.5t29 55t13 54t2.5 46q0 109 -53 160t-131 51q-76 0 -130.5 -52t-54.5 -159z" />
    <glyph glyph-name="guillemotright" unicode="&#xbb;" 
d="M328 965l293 -414l-293 -414h-181l267 414l-267 414h181zM741 965l293 -414l-293 -414h-180l266 414l-266 414h180z" />
    <glyph glyph-name="onequarter" unicode="&#xbc;" horiz-adv-x="1708" 
d="M293 -45l887 1520h147l-887 -1520h-147zM281 569v709l-144 -113l-69 95l227 174h166v-865h-180zM1354 313v408h-4l-263 -408h267zM1354 0v170h-434v125l376 569h238v-551h106v-143h-106v-170h-180z" />
    <glyph glyph-name="onehalf" unicode="&#xbd;" horiz-adv-x="1708" 
d="M229 -45l887 1520h148l-887 -1520h-148zM281 571v709l-144 -113l-69 95l227 172h166v-863h-180zM1028 0v156q8 7 58.5 47.5t88.5 71.5t92.5 82t90 92.5t62 88.5t26.5 83q0 56 -51.5 84t-112.5 28q-116 0 -213 -59l-12 151q122 52 256 52q84 0 152 -23.5t114.5 -81
t46.5 -143.5q0 -59 -47.5 -138.5t-113.5 -148t-130 -122t-102 -73.5v-4h407v-143h-612z" />
    <glyph glyph-name="threequarters" unicode="&#xbe;" horiz-adv-x="1708" 
d="M381 -45l887 1520h147l-887 -1520h-147zM190 954v144h95q42 0 86.5 11t80 39t35.5 66q0 35 -32.5 58.5t-70.5 31t-79 7.5q-96 0 -199 -45l-8 147q109 41 252 41q85 0 154.5 -22.5t116.5 -76.5t47 -132q0 -80 -60 -130t-145 -65v-4q95 -13 154 -68t59 -147
q0 -244 -379 -244q-109 0 -231 33l20 156q17 -17 75.5 -31t117.5 -14q33 0 67 5t69.5 16t58 33.5t22.5 53.5q0 65 -64.5 101t-140.5 36h-101zM1354 313v408h-4l-263 -408h267zM1354 0v170h-434v125l376 569h238v-551h106v-143h-106v-170h-180z" />
    <glyph glyph-name="questiondown" unicode="&#xbf;" horiz-adv-x="1024" 
d="M606 627v-43q0 -97 -28 -158q-30 -66 -99 -145l-22 -27l-45 -52.5t-37 -49t-37.5 -60.5t-20 -58.5t-10.5 -72.5q0 -104 74 -168q65 -55 174 -55q162 0 303 88l14 -188q-155 -68 -340 -68q-187 0 -299 84q-64 47 -103.5 125.5t-39.5 167.5q0 42 10.5 82.5t21 66.5t39 65.5
t40.5 54.5t49 58l51 62q68 87 96 156q17 42 17 98v37h192zM625 1024v-229h-230v229h230z" />
    <glyph glyph-name="Agrave" unicode="&#xc0;" horiz-adv-x="1478" 
d="M25 0l610 1434h215l604 -1434h-223l-146 362h-700l-145 -362h-215zM1020 530l-285 711l-284 -711h569zM502 1782h266l164 -246h-197z" />
    <glyph glyph-name="Aacute" unicode="&#xc1;" horiz-adv-x="1478" 
d="M25 0l610 1434h215l604 -1434h-223l-146 362h-700l-145 -362h-215zM1020 530l-285 711l-284 -711h569zM696 1782h267l-234 -246h-197z" />
    <glyph glyph-name="Acircumflex" unicode="&#xc2;" horiz-adv-x="1478" 
d="M25 0l610 1434h215l604 -1434h-223l-146 362h-700l-145 -362h-215zM1020 530l-285 711l-284 -711h569zM627 1782h225l213 -246h-184l-142 143l-141 -143h-184z" />
    <glyph glyph-name="Atilde" unicode="&#xc3;" horiz-adv-x="1478" 
d="M25 0l610 1434h215l604 -1434h-223l-146 362h-700l-145 -362h-215zM1020 530l-285 711l-284 -711h569zM485 1532h-94q6 84 49 149q53 80 148 80q47 0 108 -26l60 -25q8 -3 35 -14.5t38.5 -15.5t32 -8.5t37.5 -4.5q52 0 74 37q13 23 20 57h94q-12 -85 -38 -135
q-25 -47 -67 -70.5t-89 -23.5q-41 0 -111 27l-59 24q-8 3 -35 14.5t-38.5 15.5t-32 8.5t-37.5 4.5q-45 0 -70 -31q-17 -23 -25 -63z" />
    <glyph glyph-name="Adieresis" unicode="&#xc4;" horiz-adv-x="1478" 
d="M25 0l610 1434h215l604 -1434h-223l-146 362h-700l-145 -362h-215zM1020 530l-285 711l-284 -711h569zM408 1745h217v-205h-217v205zM850 1745h217v-205h-217v205z" />
    <glyph glyph-name="Aring" unicode="&#xc5;" horiz-adv-x="1478" 
d="M25 0l610 1434h215l604 -1434h-223l-146 362h-700l-145 -362h-215zM1020 530l-285 711l-284 -711h569zM532 1694q0 85 61 146t146 61t146 -61t61 -146t-61 -146t-146 -61t-146 61t-61 146zM627 1694q0 -50 31.5 -81.5t80.5 -31.5t81 31.5t32 81.5q0 49 -31.5 80.5
t-81.5 31.5q-49 0 -80.5 -31t-31.5 -81z" />
    <glyph glyph-name="AE" unicode="&#xc6;" horiz-adv-x="1933" 
d="M4 0l864 1434h899v-181h-567l27 -422h504v-180h-494l29 -471h522v-180h-711l-22 360h-609l-215 -360h-227zM1044 528l-45 758h-4l-450 -758h499z" />
    <glyph glyph-name="Ccedilla" unicode="&#xc7;" horiz-adv-x="1280" 
d="M1186 1393l-17 -199q-136 80 -295 80q-205 0 -350 -115q-91 -71 -144.5 -184.5t-53.5 -257.5q0 -227 135 -381q150 -176 434 -176q138 0 281 67l12 -196q-139 -51 -293 -51l-6 -48q76 0 127 -51q53 -53 53 -143q0 -39 -19 -79t-49 -67q-60 -55 -174 -55q-81 0 -157 55
l55 99q45 -37 96 -37q43 0 74 27q25 25 25 57q0 47 -25 69q-25 25 -80 25q-43 0 -63 -4l22 158q-142 9 -264 64t-205 140q-86 90 -141 227t-55 302q0 371 266 577q206 158 499 158q182 0 312 -61z" />
    <glyph glyph-name="Egrave" unicode="&#xc8;" horiz-adv-x="1134" 
d="M193 0v1434h800v-181h-596v-419h543v-181h-543v-473h596v-180h-800zM348 1782h266l164 -246h-196z" />
    <glyph glyph-name="Eacute" unicode="&#xc9;" horiz-adv-x="1134" 
d="M193 0v1434h800v-181h-596v-419h543v-181h-543v-473h596v-180h-800zM655 1782h267l-234 -246h-196z" />
    <glyph glyph-name="Ecircumflex" unicode="&#xca;" horiz-adv-x="1134" 
d="M193 0v1434h800v-181h-596v-419h543v-181h-543v-473h596v-180h-800zM479 1782h226l213 -246h-185l-141 143l-141 -143h-185z" />
    <glyph glyph-name="Edieresis" unicode="&#xcb;" horiz-adv-x="1134" 
d="M193 0v1434h800v-181h-596v-419h543v-181h-543v-473h596v-180h-800zM266 1745h217v-205h-217v205zM709 1745h217v-205h-217v205z" />
    <glyph glyph-name="Igrave" unicode="&#xcc;" horiz-adv-x="589" 
d="M193 0v1434h204v-1434h-204zM57 1782h267l163 -246h-196z" />
    <glyph glyph-name="Iacute" unicode="&#xcd;" horiz-adv-x="589" 
d="M193 0v1434h204v-1434h-204zM252 1782h266l-233 -246h-197z" />
    <glyph glyph-name="Icircumflex" unicode="&#xce;" horiz-adv-x="589" 
d="M193 0v1434h204v-1434h-204zM182 1782h226l213 -246h-185l-141 143l-141 -143h-185z" />
    <glyph glyph-name="Idieresis" unicode="&#xcf;" horiz-adv-x="589" 
d="M193 0v1434h204v-1434h-204zM-37 1745h217v-205h-217v205zM406 1745h217v-205h-217v205z" />
    <glyph glyph-name="Eth" unicode="&#xd0;" horiz-adv-x="1501" 
d="M395 1253v-419h375v-132h-375v-522h215q549 0 549 541q0 232 -147 382t-381 150h-236zM190 0v702h-139v132h139v600h422q159 0 298 -48.5t243 -137.5t163.5 -223t59.5 -296q0 -355 -201.5 -542t-562.5 -187h-422z" />
    <glyph glyph-name="Ntilde" unicode="&#xd1;" horiz-adv-x="1503" 
d="M193 0v1434h278l631 -1155h4v1155h205v-1434h-262l-648 1180h-4v-1180h-204zM516 1532h-94q6 84 49 149q53 80 147 80q48 0 109 -26l59 -25q10 -4 29 -12t30 -12t27 -9t30 -7.5t28 -2.5q52 0 74 37q13 23 20 57h94q-12 -83 -39 -135q-25 -47 -66.5 -70.5t-88.5 -23.5
q-41 0 -111 27l-59 24q-10 4 -29 12t-30 12t-27 9t-30 7.5t-28 2.5q-44 0 -69 -31q-17 -23 -25 -63z" />
    <glyph glyph-name="Ograve" unicode="&#xd2;" horiz-adv-x="1593" 
d="M797 1454q324 0 512 -217q82 -94 129 -227.5t47 -292.5q0 -161 -48 -295.5t-128 -226.5q-186 -215 -512 -215t-512 215q-80 92 -128 226.5t-48 295.5q0 159 47 292.5t129 227.5q188 217 512 217zM797 1274q-117 0 -206 -46.5t-145 -117.5q-55 -70 -87.5 -176.5
t-32.5 -216.5q0 -101 29.5 -207.5t90.5 -185.5q128 -164 351 -164q222 0 350 164q62 79 91.5 185.5t29.5 207.5q0 110 -32.5 216t-88.5 177t-144.5 117.5t-205.5 46.5zM559 1782h266l164 -246h-196z" />
    <glyph glyph-name="Oacute" unicode="&#xd3;" horiz-adv-x="1593" 
d="M797 1454q324 0 512 -217q82 -94 129 -227.5t47 -292.5q0 -161 -48 -295.5t-128 -226.5q-186 -215 -512 -215t-512 215q-80 92 -128 226.5t-48 295.5q0 159 47 292.5t129 227.5q188 217 512 217zM797 1274q-117 0 -206 -46.5t-145 -117.5q-55 -70 -87.5 -176.5
t-32.5 -216.5q0 -101 29.5 -207.5t90.5 -185.5q128 -164 351 -164q222 0 350 164q62 79 91.5 185.5t29.5 207.5q0 110 -32.5 216t-88.5 177t-144.5 117.5t-205.5 46.5zM754 1782h266l-234 -246h-196z" />
    <glyph glyph-name="Ocircumflex" unicode="&#xd4;" horiz-adv-x="1593" 
d="M797 1454q324 0 512 -217q82 -94 129 -227.5t47 -292.5q0 -161 -48 -295.5t-128 -226.5q-186 -215 -512 -215t-512 215q-80 92 -128 226.5t-48 295.5q0 159 47 292.5t129 227.5q188 217 512 217zM797 1274q-117 0 -206 -46.5t-145 -117.5q-55 -70 -87.5 -176.5
t-32.5 -216.5q0 -101 29.5 -207.5t90.5 -185.5q128 -164 351 -164q222 0 350 164q62 79 91.5 185.5t29.5 207.5q0 110 -32.5 216t-88.5 177t-144.5 117.5t-205.5 46.5zM684 1782h225l213 -246h-184l-141 143l-142 -143h-184z" />
    <glyph glyph-name="Otilde" unicode="&#xd5;" horiz-adv-x="1593" 
d="M797 1454q324 0 512 -217q82 -94 129 -227.5t47 -292.5q0 -161 -48 -295.5t-128 -226.5q-186 -215 -512 -215t-512 215q-80 92 -128 226.5t-48 295.5q0 159 47 292.5t129 227.5q188 217 512 217zM797 1274q-117 0 -206 -46.5t-145 -117.5q-55 -70 -87.5 -176.5
t-32.5 -216.5q0 -101 29.5 -207.5t90.5 -185.5q128 -164 351 -164q222 0 350 164q62 79 91.5 185.5t29.5 207.5q0 110 -32.5 216t-88.5 177t-144.5 117.5t-205.5 46.5zM543 1532h-94q6 84 49 149q53 80 147 80q48 0 109 -26l59 -25q8 -3 35 -14.5t38.5 -15.5t32 -8.5
t37.5 -4.5q52 0 74 37q15 26 21 57h94q-12 -83 -39 -135q-25 -47 -67 -70.5t-89 -23.5q-40 0 -110 27l-60 24q-8 3 -35 14.5t-38.5 15.5t-32 8.5t-37.5 4.5q-45 0 -70 -31q-16 -21 -24 -63z" />
    <glyph glyph-name="Odieresis" unicode="&#xd6;" horiz-adv-x="1593" 
d="M797 1454q324 0 512 -217q82 -94 129 -227.5t47 -292.5q0 -161 -48 -295.5t-128 -226.5q-186 -215 -512 -215t-512 215q-80 92 -128 226.5t-48 295.5q0 159 47 292.5t129 227.5q188 217 512 217zM797 1274q-117 0 -206 -46.5t-145 -117.5q-55 -70 -87.5 -176.5
t-32.5 -216.5q0 -101 29.5 -207.5t90.5 -185.5q128 -164 351 -164q222 0 350 164q62 79 91.5 185.5t29.5 207.5q0 110 -32.5 216t-88.5 177t-144.5 117.5t-205.5 46.5zM465 1745h217v-205h-217v205zM907 1745h217v-205h-217v205z" />
    <glyph glyph-name="multiply" unicode="&#xd7;" horiz-adv-x="1228" 
d="M487 662l-348 348l127 127l348 -351l349 351l127 -127l-351 -348l351 -349l-127 -127l-349 351l-348 -351l-127 127z" />
    <glyph glyph-name="Oslash" unicode="&#xd8;" horiz-adv-x="1593" 
d="M438 332l652 844q-123 105 -293 102q-114 1 -205.5 -45t-148.5 -125t-87 -178.5t-30 -210.5q0 -238 112 -387zM193 14l116 152q-200 200 -200 553q0 213 80.5 379.5t238 263t369.5 96.5q237 0 413 -127l109 142l74 -58l-111 -145q99 -101 151 -242t52 -309
q0 -218 -80 -384t-237 -260.5t-371 -94.5q-248 0 -416 124l-111 -143zM1153 1104l-649 -842q117 -102 293 -102q96 0 175.5 31t133.5 83.5t91 124.5t54 152.5t17 167.5q0 231 -115 385z" />
    <glyph glyph-name="Ugrave" unicode="&#xd9;" horiz-adv-x="1478" 
d="M1294 1434v-840q0 -301 -149 -461q-21 -23 -50.5 -45t-78.5 -49t-121 -43t-156 -16t-156 16t-121 43t-77.5 49t-50.5 45q-150 162 -150 461v840h205v-813q0 -227 76 -334q53 -75 122 -101t152 -26q84 0 153 26t122 101q76 107 76 334v813h204zM471 1782h266l164 -246
h-196z" />
    <glyph glyph-name="Uacute" unicode="&#xda;" horiz-adv-x="1478" 
d="M1294 1434v-840q0 -301 -149 -461q-21 -23 -50.5 -45t-78.5 -49t-121 -43t-156 -16t-156 16t-121 43t-77.5 49t-50.5 45q-150 162 -150 461v840h205v-813q0 -227 76 -334q53 -75 122 -101t152 -26q84 0 153 26t122 101q76 107 76 334v813h204zM778 1782h266l-233 -246
h-197z" />
    <glyph glyph-name="Ucircumflex" unicode="&#xdb;" horiz-adv-x="1478" 
d="M1294 1434v-840q0 -301 -149 -461q-21 -23 -50.5 -45t-78.5 -49t-121 -43t-156 -16t-156 16t-121 43t-77.5 49t-50.5 45q-150 162 -150 461v840h205v-813q0 -227 76 -334q53 -75 122 -101t152 -26q84 0 153 26t122 101q76 107 76 334v813h204zM627 1782h225l213 -246
h-184l-142 143l-141 -143h-184z" />
    <glyph glyph-name="Udieresis" unicode="&#xdc;" horiz-adv-x="1478" 
d="M1294 1434v-840q0 -301 -149 -461q-21 -23 -50.5 -45t-78.5 -49t-121 -43t-156 -16t-156 16t-121 43t-77.5 49t-50.5 45q-150 162 -150 461v840h205v-813q0 -227 76 -334q53 -75 122 -101t152 -26q84 0 153 26t122 101q76 107 76 334v813h204zM408 1745h217v-205h-217
v205zM850 1745h217v-205h-217v205z" />
    <glyph glyph-name="Yacute" unicode="&#xdd;" horiz-adv-x="1366" 
d="M582 0v600l-559 834h239l426 -643l416 643h239l-557 -834v-600h-204zM639 1782h266l-233 -246h-197z" />
    <glyph glyph-name="Thorn" unicode="&#xde;" 
d="M170 0v1434h205v-213h170q92 0 169 -13t146 -44t117 -79t76 -122.5t28 -169.5q0 -114 -42 -200t-115 -135t-160.5 -72.5t-188.5 -23.5h-200v-362h-205zM375 1040v-497h203q51 0 99 13.5t91 41.5t69.5 79t26.5 118q0 64 -31 113.5t-79.5 77t-101 41t-103.5 13.5h-174z" />
    <glyph glyph-name="germandbls" unicode="&#xdf;" horiz-adv-x="1251" 
d="M356 0h-192v971q0 291 117.5 440.5t384.5 149.5q76 0 148.5 -26t132.5 -74t97 -126.5t37 -175.5q0 -261 -239 -334v-4q140 -17 222.5 -126.5t82.5 -250.5q0 -196 -121.5 -326t-331.5 -130q-100 0 -198 28v162q78 -35 161 -35q122 0 203.5 78t81.5 215q0 87 -27.5 146
t-81.5 91t-120 45t-156 13v156q157 0 238.5 59t81.5 207q0 104 -62 178t-168 74q-67 0 -119 -24.5t-83.5 -64t-52 -94t-28.5 -108.5t-8 -113v-1001z" />
    <glyph glyph-name="agrave" unicode="&#xe0;" 
d="M223 803l-12 168q150 90 360 90q205 0 308 -103q62 -62 80 -138.5t18 -184.5v-424q0 -160 8 -211h-180v141h-4q-60 -82 -151.5 -119.5t-190.5 -37.5q-70 0 -137 19.5t-113 53.5q-115 85 -115 238q0 31 6.5 63.5t23 72t51 77t83.5 65.5q118 70 395 70q61 0 131 -4v57
q0 101 -61 154q-64 55 -191 55q-166 0 -309 -102zM784 408v90q-74 4 -110 4q-214 0 -299 -58q-76 -51 -76 -139q0 -80 55 -121q57 -45 150 -45q60 0 117 21.5t94 60.5q69 73 69 187zM545 1516l160 -267h-164l-242 267h246z" />
    <glyph glyph-name="aacute" unicode="&#xe1;" 
d="M223 803l-12 168q150 90 360 90q205 0 308 -103q62 -62 80 -138.5t18 -184.5v-424q0 -160 8 -211h-180v141h-4q-60 -82 -151.5 -119.5t-190.5 -37.5q-70 0 -137 19.5t-113 53.5q-115 85 -115 238q0 31 6.5 63.5t23 72t51 77t83.5 65.5q118 70 395 70q61 0 131 -4v57
q0 101 -61 154q-64 55 -191 55q-166 0 -309 -102zM784 408v90q-74 4 -110 4q-214 0 -299 -58q-76 -51 -76 -139q0 -80 55 -121q57 -45 150 -45q60 0 117 21.5t94 60.5q69 73 69 187zM434 1249l160 267h246l-242 -267h-164z" />
    <glyph glyph-name="acircumflex" unicode="&#xe2;" 
d="M223 803l-12 168q150 90 360 90q205 0 308 -103q62 -62 80 -138.5t18 -184.5v-424q0 -160 8 -211h-180v141h-4q-60 -82 -151.5 -119.5t-190.5 -37.5q-70 0 -137 19.5t-113 53.5q-115 85 -115 238q0 31 6.5 63.5t23 72t51 77t83.5 65.5q118 70 395 70q61 0 131 -4v57
q0 101 -61 154q-64 55 -191 55q-166 0 -309 -102zM784 408v90q-74 4 -110 4q-214 0 -299 -58q-76 -51 -76 -139q0 -80 55 -121q57 -45 150 -45q60 0 117 21.5t94 60.5q69 73 69 187zM272 1249l205 267h185l204 -267h-155l-142 172l-141 -172h-156z" />
    <glyph glyph-name="atilde" unicode="&#xe3;" 
d="M223 803l-12 168q150 90 360 90q205 0 308 -103q62 -62 80 -138.5t18 -184.5v-424q0 -160 8 -211h-180v141h-4q-60 -82 -151.5 -119.5t-190.5 -37.5q-70 0 -137 19.5t-113 53.5q-115 85 -115 238q0 31 6.5 63.5t23 72t51 77t83.5 65.5q118 70 395 70q61 0 131 -4v57
q0 101 -61 154q-64 55 -191 55q-166 0 -309 -102zM784 408v90q-74 4 -110 4q-214 0 -299 -58q-76 -51 -76 -139q0 -80 55 -121q57 -45 150 -45q60 0 117 21.5t94 60.5q69 73 69 187zM326 1200h-88q7 87 45 150q48 80 141 80q32 0 102 -27l58 -25q3 -1 34.5 -15.5t54 -21
t46.5 -6.5q50 0 69 37q16 27 21 58h90q-11 -78 -39 -136q-48 -94 -147 -94q-40 0 -105 27l-57 24q-3 1 -34.5 15.5t-54 21t-46.5 6.5q-46 0 -66 -30q-17 -26 -24 -64z" />
    <glyph glyph-name="adieresis" unicode="&#xe4;" 
d="M223 803l-12 168q150 90 360 90q205 0 308 -103q62 -62 80 -138.5t18 -184.5v-424q0 -160 8 -211h-180v141h-4q-60 -82 -151.5 -119.5t-190.5 -37.5q-70 0 -137 19.5t-113 53.5q-115 85 -115 238q0 31 6.5 63.5t23 72t51 77t83.5 65.5q118 70 395 70q61 0 131 -4v57
q0 101 -61 154q-64 55 -191 55q-166 0 -309 -102zM784 408v90q-74 4 -110 4q-214 0 -299 -58q-76 -51 -76 -139q0 -80 55 -121q57 -45 150 -45q60 0 117 21.5t94 60.5q69 73 69 187zM305 1270v205h193v-205h-193zM641 1270v205h193v-205h-193z" />
    <glyph glyph-name="aring" unicode="&#xe5;" 
d="M223 803l-12 168q150 90 360 90q205 0 308 -103q62 -62 80 -138.5t18 -184.5v-424q0 -160 8 -211h-180v141h-4q-60 -82 -151.5 -119.5t-190.5 -37.5q-70 0 -137 19.5t-113 53.5q-115 85 -115 238q0 31 6.5 63.5t23 72t51 77t83.5 65.5q118 70 395 70q61 0 131 -4v57
q0 101 -61 154q-64 55 -191 55q-166 0 -309 -102zM784 408v90q-74 4 -110 4q-214 0 -299 -58q-76 -51 -76 -139q0 -80 55 -121q57 -45 150 -45q60 0 117 21.5t94 60.5q69 73 69 187zM360 1389q0 86 61.5 147t147.5 61t147.5 -61t61.5 -147t-61.5 -147.5t-147.5 -61.5
t-147.5 61.5t-61.5 147.5zM442 1389q0 -54 36.5 -90.5t90.5 -36.5t90.5 36.5t36.5 90.5t-36.5 90.5t-90.5 36.5t-90.5 -36.5t-36.5 -90.5z" />
    <glyph glyph-name="ae" unicode="&#xe6;" horiz-adv-x="1820" 
d="M219 803l-10 160q160 98 346 98q113 0 211 -44.5t149 -135.5q53 92 149 136t214 44q103 0 183.5 -32t131.5 -85.5t84 -130t46.5 -158t13.5 -176.5h-740q0 -143 97.5 -242.5t244.5 -99.5q73 0 151.5 30.5t137.5 76.5v-191q-151 -69 -299 -69q-71 0 -136.5 12t-128.5 38.5
t-112 75t-73 113.5h-5q-31 -115 -141 -177t-246 -62q-100 0 -190.5 37t-151.5 114t-61 178q0 81 36 143t89 96.5t125 56t132 28t122 6.5q61 0 131 -5.5t86 -4.5q0 142 -81 208t-214 66q-71 0 -149 -29t-142 -75zM289 307q0 -81 61 -125.5t144 -44.5q135 0 223 106.5
t88 252.5q-8 0 -69 3t-115 3q-51 0 -99.5 -7t-105.5 -25.5t-92 -60.5t-35 -102zM997 621h535q0 109 -72 197.5t-184 88.5q-124 0 -201.5 -82t-77.5 -204z" />
    <glyph glyph-name="ccedilla" unicode="&#xe7;" horiz-adv-x="909" 
d="M844 1020l-17 -160q-102 45 -209 45q-122 0 -215 -80q-56 -50 -88 -131t-32 -172q0 -161 79 -262q44 -54 114.5 -87.5t154.5 -33.5q116 0 207 60l14 -172q-81 -37 -205 -43l-6 -47q74 -3 121 -50q49 -49 49 -137q0 -79 -63 -139q-57 -51 -166 -51q-78 0 -150 51l51 94
q47 -35 92 -35t70 25t25 55q0 44 -25 66q-24 24 -76 24q-39 0 -59 -4l20 154q-186 25 -313 162q-139 150 -139 378q0 114 43 222.5t137 187.5q146 121 352 121q121 0 234 -41z" />
    <glyph glyph-name="egrave" unicode="&#xe8;" 
d="M1044 479h-745q3 -139 88 -231q98 -109 262 -109q79 0 166.5 30.5t149.5 74.5v-193l-29 -10l-34 -13q-34 -13 -49.5 -16.5t-51.5 -12.5t-76.5 -12t-89.5 -3q-266 0 -406 149q-135 146 -135 393q0 271 162 416q132 119 328 119q228 0 346 -148q56 -69 85 -171t29 -207v-56
zM299 623h541q3 108 -60 188q-76 94 -207 94q-130 0 -208 -104q-56 -77 -66 -178zM588 1516l160 -267h-164l-242 267h246z" />
    <glyph glyph-name="eacute" unicode="&#xe9;" 
d="M1044 479h-745q3 -139 88 -231q98 -109 262 -109q79 0 166.5 30.5t149.5 74.5v-193l-29 -10l-34 -13q-34 -13 -49.5 -16.5t-51.5 -12.5t-76.5 -12t-89.5 -3q-266 0 -406 149q-135 146 -135 393q0 271 162 416q132 119 328 119q228 0 346 -148q56 -69 85 -171t29 -207v-56
zM299 623h541q3 108 -60 188q-76 94 -207 94q-130 0 -208 -104q-56 -77 -66 -178zM434 1249l160 267h246l-242 -267h-164z" />
    <glyph glyph-name="ecircumflex" unicode="&#xea;" 
d="M1044 479h-745q3 -139 88 -231q98 -109 262 -109q79 0 166.5 30.5t149.5 74.5v-193l-29 -10l-34 -13q-34 -13 -49.5 -16.5t-51.5 -12.5t-76.5 -12t-89.5 -3q-266 0 -406 149q-135 146 -135 393q0 271 162 416q132 119 328 119q228 0 346 -148q56 -69 85 -171t29 -207v-56
zM299 623h541q3 108 -60 188q-76 94 -207 94q-130 0 -208 -104q-56 -77 -66 -178zM272 1249l205 267h185l204 -267h-155l-142 172l-141 -172h-156z" />
    <glyph glyph-name="edieresis" unicode="&#xeb;" 
d="M1044 479h-745q3 -139 88 -231q98 -109 262 -109q79 0 166.5 30.5t149.5 74.5v-193l-29 -10l-34 -13q-34 -13 -49.5 -16.5t-51.5 -12.5t-76.5 -12t-89.5 -3q-266 0 -406 149q-135 146 -135 393q0 271 162 416q132 119 328 119q228 0 346 -148q56 -69 85 -171t29 -207v-56
zM299 623h541q3 108 -60 188q-76 94 -207 94q-130 0 -208 -104q-56 -77 -66 -178zM305 1270v205h193v-205h-193zM641 1270v205h193v-205h-193z" />
    <glyph glyph-name="igrave" unicode="&#xec;" horiz-adv-x="520" 
d="M164 0v1044h192v-1044h-192zM236 1516l159 -267h-164l-241 267h246z" />
    <glyph glyph-name="iacute" unicode="&#xed;" horiz-adv-x="520" 
d="M164 0v1044h192v-1044h-192zM125 1249l160 267h245l-241 -267h-164z" />
    <glyph glyph-name="icircumflex" unicode="&#xee;" horiz-adv-x="520" 
d="M164 0v1044h192v-1044h-192zM-37 1249l205 267h184l205 -267h-156l-141 172l-141 -172h-156z" />
    <glyph glyph-name="idieresis" unicode="&#xef;" horiz-adv-x="520" 
d="M164 0v1044h192v-1044h-192zM-4 1270v205h192v-205h-192zM332 1270v205h192v-205h-192z" />
    <glyph glyph-name="eth" unicode="&#xf0;" horiz-adv-x="1251" 
d="M299 522q0 -148 72 -252q44 -64 114.5 -98.5t145.5 -34.5q72 0 136.5 32t106.5 91q36 50 57 122t21 140q0 163 -92 275q-91 110 -233 110q-136 0 -224 -98q-104 -116 -104 -287zM221 1202l225 119q-125 74 -256 117l148 108q174 -66 280 -133l250 133l95 -108l-213 -113
q165 -119 270 -299q64 -109 100.5 -236t36.5 -251q0 -231 -135 -385q-152 -170 -395 -170q-253 0 -408 186q-125 154 -125 352q0 242 160 398q146 141 373 141q91 0 172 -43h4q-80 111 -223 217l-265 -139z" />
    <glyph glyph-name="ntilde" unicode="&#xf1;" horiz-adv-x="1236" 
d="M164 0v1044h192v-149h4q51 74 138 121q86 45 198 45q196 0 295 -115q96 -112 96 -325v-621h-192v541q0 215 -66 295q-21 26 -63.5 47.5t-106.5 21.5q-121 0 -204 -90q-99 -110 -99 -332v-483h-192zM416 1200h-88q7 87 45 150q48 80 141 80q32 0 102 -27l58 -25
q3 -1 34.5 -15.5t54 -21t46.5 -6.5q51 0 70 37q14 25 20 58h90q-11 -78 -39 -136q-48 -94 -147 -94q-40 0 -105 27l-57 24q-3 1 -34.5 15.5t-54 21t-46.5 6.5q-46 0 -66 -30q-17 -26 -24 -64z" />
    <glyph glyph-name="ograve" unicode="&#xf2;" horiz-adv-x="1249" 
d="M625 1061q248 0 395 -164q67 -74 101 -172.5t34 -202.5t-34 -202.5t-101 -172.5q-146 -163 -395 -163q-136 0 -235 47t-161 116q-67 74 -101 172.5t-34 202.5t34 202.5t101 172.5q62 70 161 117t235 47zM625 905q-74 0 -138.5 -34t-107.5 -89q-80 -105 -80 -260
q0 -157 80 -260q91 -123 246 -123q154 0 245 123q80 103 80 260t-80 260q-46 61 -110.5 92t-134.5 31zM600 1516l160 -267h-164l-242 267h246z" />
    <glyph glyph-name="oacute" unicode="&#xf3;" horiz-adv-x="1249" 
d="M625 1061q248 0 395 -164q67 -74 101 -172.5t34 -202.5t-34 -202.5t-101 -172.5q-146 -163 -395 -163q-136 0 -235 47t-161 116q-67 74 -101 172.5t-34 202.5t34 202.5t101 172.5q62 70 161 117t235 47zM625 905q-74 0 -138.5 -34t-107.5 -89q-80 -105 -80 -260
q0 -157 80 -260q91 -123 246 -123q154 0 245 123q80 103 80 260t-80 260q-46 61 -110.5 92t-134.5 31zM489 1249l160 267h246l-242 -267h-164z" />
    <glyph glyph-name="ocircumflex" unicode="&#xf4;" horiz-adv-x="1249" 
d="M625 1061q248 0 395 -164q67 -74 101 -172.5t34 -202.5t-34 -202.5t-101 -172.5q-146 -163 -395 -163q-136 0 -235 47t-161 116q-67 74 -101 172.5t-34 202.5t34 202.5t101 172.5q62 70 161 117t235 47zM625 905q-74 0 -138.5 -34t-107.5 -89q-80 -105 -80 -260
q0 -157 80 -260q91 -123 246 -123q154 0 245 123q80 103 80 260t-80 260q-46 61 -110.5 92t-134.5 31zM328 1249l204 267h185l205 -267h-156l-141 172l-142 -172h-155z" />
    <glyph glyph-name="otilde" unicode="&#xf5;" horiz-adv-x="1249" 
d="M625 1061q248 0 395 -164q67 -74 101 -172.5t34 -202.5t-34 -202.5t-101 -172.5q-146 -163 -395 -163q-136 0 -235 47t-161 116q-67 74 -101 172.5t-34 202.5t34 202.5t101 172.5q62 70 161 117t235 47zM625 905q-74 0 -138.5 -34t-107.5 -89q-80 -105 -80 -260
q0 -157 80 -260q91 -123 246 -123q154 0 245 123q80 103 80 260t-80 260q-46 61 -110.5 92t-134.5 31zM381 1200h-88q7 87 45 150q48 80 141 80q33 0 103 -27l57 -25q3 -1 34.5 -15.5t54 -21t46.5 -6.5q51 0 70 37q14 25 20 58h90q-11 -78 -39 -136q-48 -94 -147 -94
q-39 0 -104 27l-58 24q-3 1 -34.5 15.5t-54 21t-46.5 6.5q-45 0 -65 -30q-19 -28 -25 -64z" />
    <glyph glyph-name="odieresis" unicode="&#xf6;" horiz-adv-x="1249" 
d="M625 1061q248 0 395 -164q67 -74 101 -172.5t34 -202.5t-34 -202.5t-101 -172.5q-146 -163 -395 -163q-136 0 -235 47t-161 116q-67 74 -101 172.5t-34 202.5t34 202.5t101 172.5q62 70 161 117t235 47zM625 905q-74 0 -138.5 -34t-107.5 -89q-80 -105 -80 -260
q0 -157 80 -260q91 -123 246 -123q154 0 245 123q80 103 80 260t-80 260q-46 61 -110.5 92t-134.5 31zM360 1270v205h193v-205h-193zM696 1270v205h193v-205h-193z" />
    <glyph glyph-name="divide" unicode="&#xf7;" horiz-adv-x="1228" 
d="M96 571v181h1037v-181h-1037zM459 1047q0 63 47 110t110 47q61 0 108.5 -47.5t47.5 -109.5q0 -60 -47 -108t-107 -48q-65 0 -112 47.5t-47 108.5zM459 276q0 64 47 110t110 46q61 0 108.5 -47t47.5 -109q0 -60 -47 -108.5t-107 -48.5q-64 0 -111.5 47.5t-47.5 109.5z" />
    <glyph glyph-name="oslash" unicode="&#xf8;" horiz-adv-x="1251" 
d="M367 281l458 550q-79 76 -198 76q-100 0 -176 -55.5t-114 -142.5t-38 -187q0 -140 68 -241zM879 770l-461 -555q85 -78 209 -78q81 0 145 34t102.5 90.5t58 123t19.5 137.5q0 142 -73 248zM131 -4l117 143q-154 154 -154 383q0 236 147.5 387.5t385.5 151.5
q182 0 313 -92l109 131l61 -51l-109 -131q156 -150 156 -396q0 -147 -66.5 -269.5t-188.5 -195.5t-275 -73q-180 0 -318 100l-116 -139z" />
    <glyph glyph-name="ugrave" unicode="&#xf9;" horiz-adv-x="1236" 
d="M1073 1044v-1044h-192v150h-4q-51 -74 -138 -121q-86 -45 -198 -45q-197 0 -295 114q-96 112 -96 326v620h192v-540q0 -215 66 -295q21 -26 63.5 -48t106.5 -22q121 0 204 90q99 110 99 332v483h192zM594 1516l160 -267h-164l-242 267h246z" />
    <glyph glyph-name="uacute" unicode="&#xfa;" horiz-adv-x="1236" 
d="M1073 1044v-1044h-192v150h-4q-51 -74 -138 -121q-86 -45 -198 -45q-197 0 -295 114q-96 112 -96 326v620h192v-540q0 -215 66 -295q21 -26 63.5 -48t106.5 -22q121 0 204 90q99 110 99 332v483h192zM483 1249l160 267h246l-242 -267h-164z" />
    <glyph glyph-name="ucircumflex" unicode="&#xfb;" horiz-adv-x="1236" 
d="M1073 1044v-1044h-192v150h-4q-51 -74 -138 -121q-86 -45 -198 -45q-197 0 -295 114q-96 112 -96 326v620h192v-540q0 -215 66 -295q21 -26 63.5 -48t106.5 -22q121 0 204 90q99 110 99 332v483h192zM322 1249l204 267h185l204 -267h-155l-142 172l-141 -172h-155z" />
    <glyph glyph-name="udieresis" unicode="&#xfc;" horiz-adv-x="1236" 
d="M1073 1044v-1044h-192v150h-4q-51 -74 -138 -121q-86 -45 -198 -45q-197 0 -295 114q-96 112 -96 326v620h192v-540q0 -215 66 -295q21 -26 63.5 -48t106.5 -22q121 0 204 90q99 110 99 332v483h192zM354 1270v205h193v-205h-193zM690 1270v205h193v-205h-193z" />
    <glyph glyph-name="yacute" unicode="&#xfd;" horiz-adv-x="999" 
d="M74 -444l12 157q43 -16 84 -16q83 0 139 59q57 60 84 158l13 45l-25 78l-367 1007h211l287 -858h4l281 858h194l-391 -1083q-77 -213 -137 -291q-101 -129 -268 -129q-53 0 -111 13zM395 1249l160 267h246l-242 -267h-164z" />
    <glyph glyph-name="thorn" unicode="&#xfe;" horiz-adv-x="1251" 
d="M164 -416v1938h192v-627h4q102 166 347 166q110 0 197.5 -42t141.5 -114.5t82.5 -165.5t28.5 -198q0 -87 -16 -167t-51.5 -151.5t-86.5 -124t-126.5 -83.5t-167.5 -31q-245 0 -349 166h-4v-566h-192zM952 526q2 73 -14 138.5t-48.5 121t-90.5 88.5t-133 33
q-100 0 -172 -57.5t-105 -143.5t-33 -186q0 -67 18 -132.5t54 -123t97 -92.5t139 -35q74 0 132.5 37.5t91.5 97t49.5 125t14.5 129.5z" />
    <glyph glyph-name="ydieresis" unicode="&#xff;" horiz-adv-x="999" 
d="M74 -444l12 157q43 -16 84 -16q83 0 139 59q57 60 84 158l13 45l-25 78l-367 1007h211l287 -858h4l281 858h194l-391 -1083q-77 -213 -137 -291q-101 -129 -268 -129q-53 0 -111 13zM236 1270v205h192v-205h-192zM571 1270v205h193v-205h-193z" />
    <glyph glyph-name="Amacron" unicode="&#x100;" horiz-adv-x="1478" 
d="M25 0l610 1434h215l604 -1434h-223l-146 362h-700l-145 -362h-215zM1020 530l-285 711l-284 -711h569zM410 1720h655v-143h-655v143z" />
    <glyph glyph-name="amacron" unicode="&#x101;" 
d="M223 803l-12 168q150 90 360 90q205 0 308 -103q62 -62 80 -138.5t18 -184.5v-424q0 -160 8 -211h-180v141h-4q-60 -82 -151.5 -119.5t-190.5 -37.5q-70 0 -137 19.5t-113 53.5q-115 85 -115 238q0 31 6.5 63.5t23 72t51 77t83.5 65.5q118 70 395 70q61 0 131 -4v57
q0 101 -61 154q-64 55 -191 55q-166 0 -309 -102zM784 408v90q-74 4 -110 4q-214 0 -299 -58q-76 -51 -76 -139q0 -80 55 -121q57 -45 150 -45q60 0 117 21.5t94 60.5q69 73 69 187zM266 1335v144h606v-144h-606z" />
    <glyph glyph-name="Abreve" unicode="&#x102;" horiz-adv-x="1478" 
d="M25 0l610 1434h215l604 -1434h-223l-146 362h-700l-145 -362h-215zM1020 530l-285 711l-284 -711h569zM395 1782h144q39 -115 200 -115q162 0 201 115h143q-34 -128 -128 -193t-216 -65t-216 65t-128 193z" />
    <glyph glyph-name="abreve" unicode="&#x103;" 
d="M223 803l-12 168q150 90 360 90q205 0 308 -103q62 -62 80 -138.5t18 -184.5v-424q0 -160 8 -211h-180v141h-4q-60 -82 -151.5 -119.5t-190.5 -37.5q-70 0 -137 19.5t-113 53.5q-115 85 -115 238q0 31 6.5 63.5t23 72t51 77t83.5 65.5q118 70 395 70q61 0 131 -4v57
q0 101 -61 154q-64 55 -191 55q-166 0 -309 -102zM784 408v90q-74 4 -110 4q-214 0 -299 -58q-76 -51 -76 -139q0 -80 55 -121q57 -45 150 -45q60 0 117 21.5t94 60.5q69 73 69 187zM254 1516h123q13 -62 58 -105t134 -43t134.5 43t58.5 105h123q-10 -133 -97.5 -212
t-218.5 -79t-218 79t-97 212z" />
    <glyph glyph-name="Aogonek" unicode="&#x104;" horiz-adv-x="1478" 
d="M25 0l610 1434h215l604 -1434q-60 -44 -91 -73.5t-58 -71.5q-39 -59 -39 -123q0 -59 32 -86q30 -27 72 -27q77 0 139 41l37 -88q-95 -66 -213 -66q-111 0 -170 50q-67 52 -67 155q0 50 12.5 84.5t42.5 73.5q67 84 162 131h-82l-146 362h-700l-145 -362h-215zM1020 530
l-285 711l-284 -711h569z" />
    <glyph glyph-name="aogonek" unicode="&#x105;" 
d="M223 803l-12 168q150 90 360 90q205 0 308 -103q62 -62 80 -138.5t18 -184.5v-424q0 -160 8 -211q-108 -77 -145 -141q-37 -59 -37 -119q0 -57 31 -84q27 -27 69 -27q75 0 135 41l37 -86q-94 -63 -207 -63q-107 0 -166 47q-65 53 -65 135q0 103 53 170q66 84 158 127h-43
v141h-4q-60 -82 -151.5 -119.5t-190.5 -37.5q-70 0 -137 19.5t-113 53.5q-115 85 -115 238q0 31 6.5 63.5t23 72t51 77t83.5 65.5q118 70 395 70q61 0 131 -4v57q0 101 -59 154q-63 57 -193 57q-167 0 -309 -104zM784 408v90q-74 4 -110 4q-214 0 -299 -58q-76 -51 -76 -139
q0 -80 55 -121q56 -47 150 -47q60 0 118 24t93 60q69 73 69 187z" />
    <glyph glyph-name="Cacute" unicode="&#x106;" horiz-adv-x="1280" 
d="M1186 1393l-17 -199q-136 80 -295 80q-205 0 -350 -115q-91 -71 -144.5 -184.5t-53.5 -257.5q0 -227 135 -381q150 -176 434 -176q138 0 281 67l12 -196q-135 -51 -299 -51q-379 0 -584 210q-86 90 -141 227t-55 302q0 52 5.5 102t22.5 116t45 125t77.5 122.5
t115.5 113.5q203 156 499 156q182 0 312 -61zM860 1782h266l-233 -246h-197z" />
    <glyph glyph-name="cacute" unicode="&#x107;" horiz-adv-x="909" 
d="M844 1020l-17 -160q-102 45 -209 45q-122 0 -215 -80q-56 -50 -88 -131t-32 -172q0 -161 79 -262q44 -54 114.5 -87.5t154.5 -33.5q116 0 207 60l14 -172q-97 -43 -242 -43q-240 0 -393 168q-56 60 -97.5 155t-41.5 223q0 114 43 222.5t137 187.5q146 121 352 121
q121 0 234 -41zM395 1249l160 267h246l-242 -267h-164z" />
    <glyph glyph-name="Ccircumflex" unicode="&#x108;" horiz-adv-x="1280" 
d="M1186 1393l-17 -199q-136 80 -295 80q-205 0 -350 -115q-91 -71 -144.5 -184.5t-53.5 -257.5q0 -227 135 -381q150 -176 434 -176q138 0 281 67l12 -196q-135 -51 -299 -51q-379 0 -584 210q-86 90 -141 227t-55 302q0 52 5.5 102t22.5 116t45 125t77.5 122.5
t115.5 113.5q203 156 499 156q182 0 312 -61zM745 1782h226l213 -246h-185l-141 143l-141 -143h-185z" />
    <glyph glyph-name="ccircumflex" unicode="&#x109;" horiz-adv-x="909" 
d="M844 1020l-17 -160q-102 45 -209 45q-122 0 -215 -80q-56 -50 -88 -131t-32 -172q0 -161 79 -262q44 -54 114.5 -87.5t154.5 -33.5q116 0 207 60l14 -172q-97 -43 -242 -43q-240 0 -393 168q-56 60 -97.5 155t-41.5 223q0 114 43 222.5t137 187.5q146 121 352 121
q121 0 234 -41zM315 1249l205 267h185l204 -267h-155l-142 172l-141 -172h-156z" />
    <glyph glyph-name="Cdotaccent" unicode="&#x10a;" horiz-adv-x="1280" 
d="M1186 1393l-17 -199q-136 80 -295 80q-205 0 -350 -115q-91 -71 -144.5 -184.5t-53.5 -257.5q0 -227 135 -381q150 -176 434 -176q138 0 281 67l12 -196q-135 -51 -299 -51q-379 0 -584 210q-86 90 -141 227t-55 302q0 52 5.5 102t22.5 116t45 125t77.5 122.5
t115.5 113.5q203 156 499 156q182 0 312 -61zM967 1749v-209h-230v209h230z" />
    <glyph glyph-name="cdotaccent" unicode="&#x10b;" horiz-adv-x="909" 
d="M844 1020l-17 -160q-102 45 -209 45q-122 0 -215 -80q-56 -50 -88 -131t-32 -172q0 -161 79 -262q44 -54 114.5 -87.5t154.5 -33.5q116 0 207 60l14 -172q-97 -43 -242 -43q-240 0 -393 168q-56 60 -97.5 155t-41.5 223q0 114 43 222.5t137 187.5q146 121 352 121
q121 0 234 -41zM680 1475v-218h-217v218h217z" />
    <glyph glyph-name="Ccaron" unicode="&#x10c;" horiz-adv-x="1280" 
d="M1186 1393l-17 -199q-136 80 -295 80q-205 0 -350 -115q-91 -71 -144.5 -184.5t-53.5 -257.5q0 -227 135 -381q150 -176 434 -176q138 0 281 67l12 -196q-135 -51 -299 -51q-379 0 -584 210q-86 90 -141 227t-55 302q0 52 5.5 102t22.5 116t45 125t77.5 122.5
t115.5 113.5q203 156 499 156q182 0 312 -61zM965 1536h-226l-213 246h185l141 -144l141 144h185z" />
    <glyph glyph-name="ccaron" unicode="&#x10d;" horiz-adv-x="909" 
d="M844 1020l-17 -160q-102 45 -209 45q-122 0 -215 -80q-56 -50 -88 -131t-32 -172q0 -161 79 -262q44 -54 114.5 -87.5t154.5 -33.5q116 0 207 60l14 -172q-97 -43 -242 -43q-240 0 -393 168q-56 60 -97.5 155t-41.5 223q0 114 43 222.5t137 187.5q146 121 352 121
q121 0 234 -41zM844 1516l-205 -267h-184l-205 267h156l141 -173l141 173h156z" />
    <glyph glyph-name="Dcaron" unicode="&#x10e;" horiz-adv-x="1501" 
d="M193 0v1434h421q345 0 555 -201q207 -195 207 -520q0 -121 -32.5 -236t-92.5 -201q-195 -276 -637 -276h-421zM397 1253v-1073h215q90 0 160 11t149.5 52t135.5 113q102 127 102 340q0 142 -42 246.5t-107 169.5q-146 141 -373 141h-240zM766 1536h-225l-213 246h184
l141 -144l142 144h184z" />
    <glyph glyph-name="dcaron" unicode="&#x10f;" horiz-adv-x="1380" 
d="M895 1561h192v-1561h-184v147h-4q-45 -61 -121 -104q-106 -59 -231 -59q-211 0 -334 153q-119 146 -119 398q0 249 139 395q123 131 312 131q135 0 229 -55q73 -42 117 -105h4v660zM895 520q0 152 -76 262q-88 123 -233 123q-132 0 -209 -100q-78 -102 -78 -279
q0 -150 66 -256q82 -131 223 -131q135 0 219 105q42 53 65 127.5t23 148.5zM1176 1217l81 344h205l-143 -344h-143z" />
    <glyph glyph-name="Dcroat" unicode="&#x110;" horiz-adv-x="1501" 
d="M395 1253v-419h375v-132h-375v-522h215q549 0 549 541q0 232 -147 382t-381 150h-236zM190 0v702h-139v132h139v600h422q159 0 298 -48.5t243 -137.5t163.5 -223t59.5 -296q0 -355 -201.5 -542t-562.5 -187h-422z" />
    <glyph glyph-name="dcroat" unicode="&#x111;" horiz-adv-x="1251" 
d="M895 1561h192v-220h154v-110h-154v-1231h-184v147h-4q-45 -61 -121 -104q-106 -59 -231 -59q-211 0 -334 153q-119 146 -119 398q0 249 139 395q123 131 312 131q135 0 229 -55q73 -42 117 -105h4v330h-416v110h416v220zM895 520q0 152 -76 262q-88 123 -233 123
q-132 0 -209 -100q-78 -102 -78 -279q0 -150 66 -256q82 -131 223 -131q135 0 219 105q42 53 65 127.5t23 148.5z" />
    <glyph glyph-name="Emacron" unicode="&#x112;" horiz-adv-x="1134" 
d="M193 0v1434h800v-181h-596v-419h543v-181h-543v-473h596v-180h-800zM266 1720h656v-143h-656v143z" />
    <glyph glyph-name="emacron" unicode="&#x113;" 
d="M1044 479h-745q3 -139 88 -231q98 -109 262 -109q79 0 166.5 30.5t149.5 74.5v-193l-29 -10l-34 -13q-34 -13 -49.5 -16.5t-51.5 -12.5t-76.5 -12t-89.5 -3q-266 0 -406 149q-135 146 -135 393q0 271 162 416q132 119 328 119q228 0 346 -148q56 -69 85 -171t29 -207v-56
zM299 623h541q3 108 -60 188q-76 94 -207 94q-130 0 -208 -104q-56 -77 -66 -178zM266 1335v144h606v-144h-606z" />
    <glyph glyph-name="Edotaccent" unicode="&#x116;" horiz-adv-x="1134" 
d="M193 0v1434h800v-181h-596v-419h543v-181h-543v-473h596v-180h-800zM713 1749v-209h-230v209h230z" />
    <glyph glyph-name="edotaccent" unicode="&#x117;" 
d="M1044 479h-745q3 -139 88 -231q98 -109 262 -109q79 0 166.5 30.5t149.5 74.5v-193l-29 -10l-34 -13q-34 -13 -49.5 -16.5t-51.5 -12.5t-76.5 -12t-89.5 -3q-266 0 -406 149q-135 146 -135 393q0 271 162 416q132 119 328 119q228 0 346 -148q56 -69 85 -171t29 -207v-56
zM299 623h541q3 108 -60 188q-76 94 -207 94q-130 0 -208 -104q-56 -77 -66 -178zM678 1475v-218h-217v218h217z" />
    <glyph glyph-name="Eogonek" unicode="&#x118;" horiz-adv-x="1134" 
d="M193 0v1434h800v-181h-596v-419h543v-181h-543v-473h596v-180h-92q-60 -44 -91 -73.5t-58 -71.5q-39 -59 -39 -123q0 -59 32 -86q30 -27 72 -27q77 0 139 41l37 -88q-95 -66 -213 -66q-111 0 -170 50q-67 52 -67 155q0 50 12.5 84.5t42.5 73.5q67 84 162 131h-567z" />
    <glyph glyph-name="eogonek" unicode="&#x119;" 
d="M1044 479h-745q3 -139 88 -231q98 -109 262 -109q101 0 219 51q46 18 97 54v-193l-29 -10l-12 -4q-33 -14 -62 -37q-28 -20 -41 -33q-58 -48 -92 -108q-14 -23 -24 -52q-13 -37 -13 -67q0 -57 31 -84q27 -27 70 -27q75 0 135 41l37 -86q-93 -63 -207 -63q-108 0 -166 47
q-66 51 -66 135q0 101 54 170t131 115q-50 -4 -76 -4q-266 0 -406 149q-135 146 -135 393q0 271 162 416q132 119 328 119q228 0 346 -148q56 -69 85 -171t29 -207v-56zM299 623h541q3 108 -60 188q-38 47 -92 72q-48 22 -115 22q-130 0 -208 -104q-34 -43 -50 -99
q-14 -46 -16 -79z" />
    <glyph glyph-name="Ecaron" unicode="&#x11a;" horiz-adv-x="1134" 
d="M193 0v1434h800v-181h-596v-419h543v-181h-543v-473h596v-180h-800zM705 1536h-226l-213 246h185l141 -144l141 144h185z" />
    <glyph glyph-name="ecaron" unicode="&#x11b;" 
d="M1044 479h-745q3 -139 88 -231q98 -109 262 -109q79 0 166.5 30.5t149.5 74.5v-193l-29 -10l-34 -13q-34 -13 -49.5 -16.5t-51.5 -12.5t-76.5 -12t-89.5 -3q-266 0 -406 149q-135 146 -135 393q0 271 162 416q132 119 328 119q228 0 346 -148q56 -69 85 -171t29 -207v-56
zM299 623h541q3 108 -60 188q-76 94 -207 94q-130 0 -208 -104q-56 -77 -66 -178zM866 1516l-204 -267h-185l-205 267h156l141 -173l142 173h155z" />
    <glyph glyph-name="Gcircumflex" unicode="&#x11c;" horiz-adv-x="1478" 
d="M1284 1382l-16 -204q-66 45 -162 69q-104 27 -217 27q-230 0 -375 -123q-81 -69 -134.5 -181t-53.5 -259q0 -227 147 -387q153 -164 410 -164q26 0 91.5 6t90.5 10l29 6v434h-301v168h505v-741q-192 -63 -415 -63q-341 0 -547 184q-227 204 -227 559q0 338 235 547
q207 184 528 184q31 0 63.5 -1.5t57.5 -4t50 -5.5t40 -5.5t28.5 -5t14.5 -2.5q67 -15 158 -48zM745 1782h226l213 -246h-185l-141 143l-141 -143h-185z" />
    <glyph glyph-name="gcircumflex" unicode="&#x11d;" horiz-adv-x="1251" 
d="M1087 1044v-1003q0 -245 -129 -369q-135 -131 -409 -131q-176 0 -375 72l21 178q183 -94 364 -94q175 0 262 110q74 96 74 248v107h-4q-60 -81 -150 -121q-91 -41 -200 -41q-203 0 -326 143q-59 71 -90 170t-31 201q0 233 125 385q133 162 356 162q52 0 102 -12t71 -21
t32 -16q76 -40 125 -123h4v155h178zM590 156q148 0 231 114q74 102 74 250q0 165 -78 273q-79 112 -223 112q-134 0 -219 -112q-12 -17 -25 -40.5t-32 -90t-19 -138.5t21 -142.5t57 -117.5q37 -48 94 -78t119 -30zM274 1249l205 267h185l204 -267h-155l-142 172l-141 -172
h-156z" />
    <glyph glyph-name="Gbreve" unicode="&#x11e;" horiz-adv-x="1478" 
d="M1284 1382l-16 -204q-66 45 -162 69q-104 27 -217 27q-230 0 -375 -123q-81 -69 -134.5 -181t-53.5 -259q0 -227 147 -387q153 -164 410 -164q26 0 91.5 6t90.5 10l29 6v434h-301v168h505v-741q-192 -63 -415 -63q-341 0 -547 184q-227 204 -227 559q0 338 235 547
q207 184 528 184q31 0 63.5 -1.5t57.5 -4t50 -5.5t40 -5.5t28.5 -5t14.5 -2.5q67 -15 158 -48zM532 1782h144q39 -115 201 -115q161 0 200 115h144q-34 -128 -128 -193t-216 -65q-123 0 -217 65t-128 193z" />
    <glyph glyph-name="gbreve" unicode="&#x11f;" horiz-adv-x="1251" 
d="M1087 1044v-1003q0 -245 -129 -369q-135 -131 -409 -131q-176 0 -375 72l21 178q183 -94 364 -94q175 0 262 110q74 96 74 248v107h-4q-60 -81 -150 -121q-91 -41 -200 -41q-203 0 -326 143q-59 71 -90 170t-31 201q0 233 125 385q133 162 356 162q52 0 102 -12t71 -21
t32 -16q76 -40 125 -123h4v155h178zM590 156q148 0 231 114q74 102 74 250q0 165 -78 273q-79 112 -223 112q-134 0 -219 -112q-12 -17 -25 -40.5t-32 -90t-19 -138.5t21 -142.5t57 -117.5q37 -48 94 -78t119 -30zM256 1516h123q13 -62 58 -105t134 -43t134.5 43t58.5 105
h123q-10 -133 -97.5 -212t-218.5 -79t-218 79t-97 212z" />
    <glyph glyph-name="Gdotaccent" unicode="&#x120;" horiz-adv-x="1478" 
d="M1284 1382l-16 -204q-66 45 -162 69q-104 27 -217 27q-230 0 -375 -123q-81 -69 -134.5 -181t-53.5 -259q0 -227 147 -387q153 -164 410 -164q26 0 91.5 6t90.5 10l29 6v434h-301v168h505v-741q-192 -63 -415 -63q-341 0 -547 184q-227 204 -227 559q0 338 235 547
q207 184 528 184q31 0 63.5 -1.5t57.5 -4t50 -5.5t40 -5.5t28.5 -5t14.5 -2.5q67 -15 158 -48zM1008 1749v-209h-230v209h230z" />
    <glyph glyph-name="gdotaccent" unicode="&#x121;" horiz-adv-x="1251" 
d="M1087 1044v-1003q0 -245 -129 -369q-135 -131 -409 -131q-176 0 -375 72l21 178q183 -94 364 -94q175 0 262 110q74 96 74 248v107h-4q-60 -81 -150 -121q-91 -41 -200 -41q-203 0 -326 143q-59 71 -90 170t-31 201q0 233 125 385q133 162 356 162q52 0 102 -12t71 -21
t32 -16q76 -40 125 -123h4v155h178zM590 156q148 0 231 114q74 102 74 250q0 165 -78 273q-79 112 -223 112q-134 0 -219 -112q-12 -17 -25 -40.5t-32 -90t-19 -138.5t21 -142.5t57 -117.5q37 -48 94 -78t119 -30zM680 1475v-218h-217v218h217z" />
    <glyph glyph-name="uni0122" unicode="&#x122;" horiz-adv-x="1478" 
d="M1284 1382l-16 -204q-66 45 -162 69q-104 27 -217 27q-230 0 -375 -123q-81 -69 -134.5 -181t-53.5 -259q0 -227 147 -387q153 -164 410 -164q26 0 91.5 6t90.5 10l29 6v434h-301v168h505v-741q-192 -63 -415 -63q-341 0 -547 184q-227 204 -227 559q0 338 235 547
q207 184 528 184q31 0 63.5 -1.5t57.5 -4t50 -5.5t40 -5.5t28.5 -5t14.5 -2.5q67 -15 158 -48zM721 -508l82 406h225l-143 -406h-164z" />
    <glyph glyph-name="uni0123" unicode="&#x123;" horiz-adv-x="1251" 
d="M1087 1044v-1003q0 -245 -129 -369q-135 -131 -409 -131q-176 0 -375 72l21 178q183 -94 364 -94q175 0 262 110q74 96 74 248v107h-4q-60 -81 -150 -121q-91 -41 -200 -41q-203 0 -326 143q-59 71 -90 170t-31 201q0 233 125 385q133 162 356 162q52 0 102 -12t71 -21
t32 -16q76 -40 125 -123h4v155h178zM590 156q148 0 231 114q74 102 74 250q0 165 -78 273q-79 112 -223 112q-134 0 -219 -112q-12 -17 -25 -40.5t-32 -90t-19 -138.5t21 -142.5t57 -117.5q37 -48 94 -78t119 -30zM750 1561l-82 -349h-205l143 349h144z" />
    <glyph glyph-name="Hcircumflex" unicode="&#x124;" horiz-adv-x="1478" 
d="M193 0v1434h204v-600h684v600h205v-1434h-205v653h-684v-653h-204zM627 1782h225l213 -246h-184l-142 143l-141 -143h-184z" />
    <glyph glyph-name="hcircumflex" unicode="&#x125;" horiz-adv-x="1236" 
d="M164 0v1561h192v-666h4q51 74 138 121q86 45 198 45q196 0 295 -115q96 -112 96 -325v-621h-192v541q0 213 -66 295q-57 69 -170 69q-121 0 -204 -90q-99 -110 -99 -332v-483h-192zM-35 1638l205 267h184l205 -267h-156l-141 172l-141 -172h-156z" />
    <glyph glyph-name="Hbar" unicode="&#x126;" horiz-adv-x="1478" 
d="M193 0v1053h-144v131h144v250h204v-250h684v250h205v-250h144v-131h-144v-1053h-205v653h-684v-653h-204zM1081 1053h-684v-219h684v219z" />
    <glyph glyph-name="hbar" unicode="&#x127;" horiz-adv-x="1236" 
d="M1087 621v-621h-192v541q0 213 -66 295q-57 69 -170 69q-121 0 -204 -90q-99 -110 -99 -332v-483h-192v1231h-154v110h154v220h192v-220h416v-110h-416v-336h4q51 74 138 121q86 45 198 45q196 0 295 -115q96 -112 96 -325z" />
    <glyph glyph-name="Imacron" unicode="&#x12a;" horiz-adv-x="589" 
d="M193 0v1434h204v-1434h-204zM-33 1720h656v-143h-656v143z" />
    <glyph glyph-name="imacron" unicode="&#x12b;" horiz-adv-x="520" 
d="M164 0v1044h192v-1044h-192zM-43 1335v144h606v-144h-606z" />
    <glyph glyph-name="Iogonek" unicode="&#x12e;" horiz-adv-x="589" 
d="M193 0v1434h204v-1434q-60 -44 -91 -73.5t-58 -71.5q-39 -59 -39 -123q0 -58 33 -86q30 -27 71 -27q78 0 140 41l36 -88q-95 -66 -213 -66q-111 0 -170 50q-67 52 -67 155q0 50 12.5 84.5t42.5 73.5q67 84 162 131h-63z" />
    <glyph glyph-name="iogonek" unicode="&#x12f;" horiz-adv-x="520" 
d="M164 0v1044h192v-1044q-84 -59 -133 -122t-49 -138q0 -50 26.5 -80.5t73.5 -30.5q76 0 136 41l36 -86q-94 -63 -206 -63q-107 0 -169.5 48.5t-62.5 133.5q0 100 62 177.5t149 119.5h-55zM369 1475v-218h-217v218h217z" />
    <glyph glyph-name="Idotaccent" unicode="&#x130;" horiz-adv-x="589" 
d="M193 0v1434h204v-1434h-204zM410 1749v-209h-230v209h230z" />
    <glyph glyph-name="dotlessi" unicode="&#x131;" horiz-adv-x="520" 
d="M164 0v1044h192v-1044h-192z" />
    <glyph glyph-name="Jcircumflex" unicode="&#x134;" horiz-adv-x="796" 
d="M43 4v176q73 -20 129 -20q126 0 180 65q54 61 54 215v994h204v-1059q0 -202 -112 -303q-103 -92 -295 -92q-95 0 -160 24zM377 1782h225l213 -246h-184l-142 143l-141 -143h-184z" />
    <glyph glyph-name="jcircumflex" unicode="&#x135;" horiz-adv-x="520" 
d="M-57 -451l6 166q34 -6 57 -6h21q67 3 100 55q37 58 37 166v1114h192v-1085q0 -68 -3 -113t-19 -105.5t-47 -100.5q-46 -60 -109 -79.5t-145 -19.5q-49 0 -90 8zM-37 1249l205 267h184l205 -267h-156l-141 172l-141 -172h-156z" />
    <glyph glyph-name="uni0136" unicode="&#x136;" horiz-adv-x="1366" 
d="M193 0v1434h204v-631l611 631h272l-672 -678l725 -756h-299l-637 702v-702h-204zM516 -508l82 406h225l-143 -406h-164z" />
    <glyph glyph-name="uni0137" unicode="&#x137;" horiz-adv-x="1118" 
d="M164 0v1561h192v-940l426 423h250l-481 -452l541 -592h-261l-475 537v-537h-192zM414 -451l82 349h204l-143 -349h-143z" />
    <glyph glyph-name="Lacute" unicode="&#x139;" horiz-adv-x="1036" 
d="M193 0v1434h204v-1254h598v-180h-802zM399 1782h267l-234 -246h-196z" />
    <glyph glyph-name="lacute" unicode="&#x13a;" horiz-adv-x="520" 
d="M164 0v1561h192v-1561h-192zM150 1638l159 267h246l-242 -267h-163z" />
    <glyph glyph-name="uni013B" unicode="&#x13b;" horiz-adv-x="1036" 
d="M193 0v1434h204v-1254h598v-180h-802zM434 -508l82 406h225l-143 -406h-164z" />
    <glyph glyph-name="uni013C" unicode="&#x13c;" horiz-adv-x="520" 
d="M164 0v1561h192v-1561h-192zM117 -451l82 349h204l-143 -349h-143z" />
    <glyph glyph-name="Lcaron" unicode="&#x13d;" horiz-adv-x="1036" 
d="M193 0v1434h204v-1254h598v-180h-802zM680 1024l82 410h225l-151 -410h-156z" />
    <glyph glyph-name="lcaron" unicode="&#x13e;" horiz-adv-x="634" 
d="M164 0v1561h192v-1561h-192zM430 1217l82 344h205l-144 -344h-143z" />
    <glyph glyph-name="Ldot" unicode="&#x13f;" horiz-adv-x="1036" 
d="M193 0v1434h204v-1254h598v-180h-802zM694 655v230h230v-230h-230z" />
    <glyph glyph-name="ldot" unicode="&#x140;" horiz-adv-x="749" 
d="M164 0v1561h192v-1561h-192zM520 682v229h230v-229h-230z" />
    <glyph glyph-name="Lslash" unicode="&#x141;" horiz-adv-x="1036" 
d="M193 1434h204v-676l375 268l70 -115l-445 -309v-422h598v-180h-802v483l-123 -86l-70 115l193 123v799z" />
    <glyph glyph-name="lslash" unicode="&#x142;" horiz-adv-x="569" 
d="M188 0v696l-131 -104v145l131 105v719h193v-568l131 105v-146l-131 -104v-848h-193z" />
    <glyph glyph-name="Nacute" unicode="&#x143;" horiz-adv-x="1503" 
d="M193 0v1434h278l631 -1155h4v1155h205v-1434h-262l-648 1180h-4v-1180h-204zM791 1782h266l-234 -246h-196z" />
    <glyph glyph-name="nacute" unicode="&#x144;" horiz-adv-x="1236" 
d="M164 0v1044h192v-149h4q51 74 138 121q86 45 198 45q196 0 295 -115q96 -112 96 -325v-621h-192v541q0 215 -66 295q-21 26 -63.5 47.5t-106.5 21.5q-121 0 -204 -90q-99 -110 -99 -332v-483h-192zM559 1249l160 267h246l-242 -267h-164z" />
    <glyph glyph-name="uni0145" unicode="&#x145;" horiz-adv-x="1503" 
d="M193 0v1434h278l631 -1155h4v1155h205v-1434h-262l-648 1180h-4v-1180h-204zM528 -508l82 406h226l-144 -406h-164z" />
    <glyph glyph-name="uni0146" unicode="&#x146;" horiz-adv-x="1236" 
d="M164 0v1044h192v-149h4q51 74 138 121q86 45 198 45q196 0 295 -115q96 -112 96 -325v-621h-192v541q0 215 -66 295q-21 26 -63.5 47.5t-106.5 21.5q-121 0 -204 -90q-99 -110 -99 -332v-483h-192zM455 -451l82 349h204l-143 -349h-143z" />
    <glyph glyph-name="Ncaron" unicode="&#x147;" horiz-adv-x="1503" 
d="M193 0v1434h278l631 -1155h4v1155h205v-1434h-262l-648 1180h-4v-1180h-204zM901 1536h-225l-213 246h184l141 -144l142 144h184z" />
    <glyph glyph-name="ncaron" unicode="&#x148;" horiz-adv-x="1236" 
d="M164 0v1044h192v-149h4q51 74 138 121q86 45 198 45q196 0 295 -115q96 -112 96 -325v-621h-192v541q0 215 -66 295q-21 26 -63.5 47.5t-106.5 21.5q-121 0 -204 -90q-99 -110 -99 -332v-483h-192zM950 1516l-205 -267h-184l-205 267h156l141 -173l142 173h155z" />
    <glyph glyph-name="Omacron" unicode="&#x14c;" horiz-adv-x="1593" 
d="M797 1454q324 0 512 -217q82 -94 129 -227.5t47 -292.5q0 -161 -48 -295.5t-128 -226.5q-186 -215 -512 -215t-512 215q-80 92 -128 226.5t-48 295.5q0 159 47 292.5t129 227.5q188 217 512 217zM797 1274q-117 0 -206 -46.5t-145 -117.5q-55 -70 -87.5 -176.5
t-32.5 -216.5q0 -101 29.5 -207.5t90.5 -185.5q128 -164 351 -164q222 0 350 164q62 79 91.5 185.5t29.5 207.5q0 110 -32.5 216t-88.5 177t-144.5 117.5t-205.5 46.5zM471 1720h655v-143h-655v143z" />
    <glyph glyph-name="omacron" unicode="&#x14d;" horiz-adv-x="1249" 
d="M625 1061q248 0 395 -164q67 -74 101 -172.5t34 -202.5t-34 -202.5t-101 -172.5q-146 -163 -395 -163q-136 0 -235 47t-161 116q-67 74 -101 172.5t-34 202.5t34 202.5t101 172.5q62 70 161 117t235 47zM625 905q-74 0 -138.5 -34t-107.5 -89q-80 -105 -80 -260
q0 -157 80 -260q91 -123 246 -123q154 0 245 123q80 103 80 260t-80 260q-46 61 -110.5 92t-134.5 31zM322 1335v144h606v-144h-606z" />
    <glyph glyph-name="Obreve" unicode="&#x14e;" horiz-adv-x="1593" 
d="M797 1454q324 0 512 -217q82 -94 129 -227.5t47 -292.5q0 -161 -48 -295.5t-128 -226.5q-186 -215 -512 -215t-512 215q-80 92 -128 226.5t-48 295.5q0 159 47 292.5t129 227.5q188 217 512 217zM797 1274q-117 0 -206 -46.5t-145 -117.5q-55 -70 -87.5 -176.5
t-32.5 -216.5q0 -101 29.5 -207.5t90.5 -185.5q128 -164 351 -164q222 0 350 164q62 79 91.5 185.5t29.5 207.5q0 110 -32.5 216t-88.5 177t-144.5 117.5t-205.5 46.5zM453 1782h143q39 -115 201 -115q161 0 200 115h144q-34 -128 -128 -193t-216 -65t-216 65t-128 193z" />
    <glyph glyph-name="obreve" unicode="&#x14f;" horiz-adv-x="1249" 
d="M625 1061q248 0 395 -164q67 -74 101 -172.5t34 -202.5t-34 -202.5t-101 -172.5q-146 -163 -395 -163q-136 0 -235 47t-161 116q-67 74 -101 172.5t-34 202.5t34 202.5t101 172.5q62 70 161 117t235 47zM625 905q-74 0 -138.5 -34t-107.5 -89q-80 -105 -80 -260
q0 -157 80 -260q91 -123 246 -123q154 0 245 123q80 103 80 260t-80 260q-46 61 -110.5 92t-134.5 31zM309 1516h123q13 -62 58.5 -105t134.5 -43t134 43t58 105h123q-10 -133 -97 -212t-218 -79t-218.5 79t-97.5 212z" />
    <glyph glyph-name="Ohungarumlaut" unicode="&#x150;" horiz-adv-x="1593" 
d="M797 1454q324 0 512 -217q82 -94 129 -227.5t47 -292.5q0 -161 -48 -295.5t-128 -226.5q-186 -215 -512 -215t-512 215q-80 92 -128 226.5t-48 295.5q0 159 47 292.5t129 227.5q188 217 512 217zM797 1274q-117 0 -206 -46.5t-145 -117.5q-55 -70 -87.5 -176.5
t-32.5 -216.5q0 -101 29.5 -207.5t90.5 -185.5q128 -164 351 -164q222 0 350 164q62 79 91.5 185.5t29.5 207.5q0 110 -32.5 216t-88.5 177t-144.5 117.5t-205.5 46.5zM729 1782h246l-266 -246h-156zM1053 1782h245l-266 -246h-155z" />
    <glyph glyph-name="ohungarumlaut" unicode="&#x151;" horiz-adv-x="1249" 
d="M625 1061q248 0 395 -164q67 -74 101 -172.5t34 -202.5t-34 -202.5t-101 -172.5q-146 -163 -395 -163q-136 0 -235 47t-161 116q-67 74 -101 172.5t-34 202.5t34 202.5t101 172.5q62 70 161 117t235 47zM625 905q-74 0 -138.5 -34t-107.5 -89q-80 -105 -80 -260
q0 -157 80 -260q91 -123 246 -123q154 0 245 123q80 103 80 260t-80 260q-46 61 -110.5 92t-134.5 31zM375 1249l180 267h225l-262 -267h-143zM745 1249l181 267h225l-262 -267h-144z" />
    <glyph glyph-name="OE" unicode="&#x152;" horiz-adv-x="1933" 
d="M1010 180v1069q-89 13 -125 13q-261 0 -410 -137.5t-149 -391.5q0 -265 154 -415t407 -150q74 0 123 12zM1792 1434v-181h-578v-422h537v-180h-537v-471h592v-180h-594q-53 0 -159.5 -6t-159.5 -6q-228 0 -404.5 87t-278 257t-101.5 401q0 214 99.5 375.5t278 247.5
t410.5 86q45 0 145.5 -4.5t153.5 -3.5h596z" />
    <glyph glyph-name="oe" unicode="&#x153;" horiz-adv-x="1933" 
d="M1741 244v-191q-151 -69 -299 -69q-154 0 -265.5 55.5t-164.5 167.5q-36 -77 -106.5 -129t-146.5 -73t-157 -21q-237 0 -377.5 151t-140.5 387q0 140 61 261.5t181.5 199.5t275.5 78q145 0 253 -51.5t163 -149.5q48 99 146 150t227 51q103 0 183.5 -32t131 -85.5
t83.5 -130t46.5 -158t13.5 -176.5h-739q0 -143 97.5 -242.5t244.5 -99.5q73 0 151.5 30.5t137.5 76.5zM289 522q-1 -77 17 -144.5t54.5 -122.5t99 -86.5t144.5 -31.5q97 0 170.5 59t108.5 145.5t35 180.5q0 66 -19 132t-56 123.5t-99 93.5t-140 36t-141 -36t-100 -93.5
t-56 -123.5t-18 -132zM1110 621h535q0 109 -72 197.5t-184 88.5q-124 0 -201.5 -82t-77.5 -204z" />
    <glyph glyph-name="Racute" unicode="&#x154;" horiz-adv-x="1273" 
d="M193 0v1434h350q86 0 146.5 -4t142 -25.5t135.5 -61.5q131 -94 131 -284q0 -150 -94 -240q-82 -82 -201 -100v-4q52 -19 78 -49q34 -40 61 -95l270 -571h-233l-219 498q-41 91 -94 116q-45 23 -146 23h-123v-637h-204zM397 1253v-436h174q158 0 240 70q70 60 70 153
q0 119 -95 174q-69 39 -192 39h-197zM604 1782h266l-233 -246h-197z" />
    <glyph glyph-name="racute" unicode="&#x155;" horiz-adv-x="776" 
d="M164 1044h180v-170h4q42 85 117 136t162 51q45 0 102 -10l19 -4v-173q-53 19 -107 19q-112 0 -184 -86q-101 -116 -101 -340v-467h-192v1044zM354 1249l160 267h246l-242 -267h-164z" />
    <glyph glyph-name="uni0156" unicode="&#x156;" horiz-adv-x="1273" 
d="M193 0v1434h350q86 0 146.5 -4t142 -25.5t135.5 -61.5q131 -94 131 -284q0 -150 -94 -240q-82 -82 -201 -100v-4q52 -19 78 -49q34 -40 61 -95l270 -571h-233l-219 498q-41 91 -94 116q-45 23 -146 23h-123v-637h-204zM397 1253v-436h174q158 0 240 70q70 60 70 153
q0 119 -95 174q-69 39 -192 39h-197zM498 -508l82 406h225l-143 -406h-164z" />
    <glyph glyph-name="uni0157" unicode="&#x157;" horiz-adv-x="776" 
d="M164 1044h180v-170h4q42 85 117 136t162 51q45 0 102 -10l19 -4v-173q-53 19 -107 19q-112 0 -184 -86q-101 -116 -101 -340v-467h-192v1044zM168 -451l82 349h205l-144 -349h-143z" />
    <glyph glyph-name="Rcaron" unicode="&#x158;" horiz-adv-x="1273" 
d="M193 0v1434h350q86 0 146.5 -4t142 -25.5t135.5 -61.5q131 -94 131 -284q0 -150 -94 -240q-82 -82 -201 -100v-4q52 -19 78 -49q34 -40 61 -95l270 -571h-233l-219 498q-41 91 -94 116q-45 23 -146 23h-123v-637h-204zM397 1253v-436h174q158 0 240 70q70 60 70 153
q0 119 -95 174q-69 39 -192 39h-197zM727 1536h-225l-213 246h184l141 -144l142 144h184z" />
    <glyph glyph-name="rcaron" unicode="&#x159;" horiz-adv-x="776" 
d="M164 1044h180v-170h4q42 85 117 136t162 51q45 0 102 -10l19 -4v-173q-53 19 -107 19q-112 0 -184 -86q-101 -116 -101 -340v-467h-192v1044zM745 1516l-204 -267h-185l-204 267h155l142 -173l141 173h155z" />
    <glyph glyph-name="Sacute" unicode="&#x15a;" horiz-adv-x="1024" 
d="M860 1403l-29 -189q-133 60 -268 60q-104 0 -164 -35q-86 -49 -86 -154q0 -61 45 -112q22 -25 52.5 -46.5t49.5 -31.5t57 -27.5t46 -21.5l53 -27q90 -44 149.5 -86.5t98.5 -103.5q64 -97 64 -230q0 -192 -140 -309q-131 -110 -362 -110q-151 0 -313 59l20 188
q151 -67 297 -67q133 0 209 71q72 66 72 162q0 98 -76 162q-12 10 -25 19t-34.5 21t-34.5 19t-47.5 24t-51.5 26l-88 45q-145 76 -200 155q-58 84 -58 203q0 197 152 303q61 42 143.5 63t163.5 21q168 0 305 -51zM532 1782h267l-234 -246h-196z" />
    <glyph glyph-name="sacute" unicode="&#x15b;" horiz-adv-x="831" 
d="M98 41l11 170q129 -72 243 -72q100 0 154 51q39 35 39 95q0 53 -51 94q-52 41 -140 82l-41 18q-55 24 -107 63t-79 79q-35 54 -35 127q0 139 92 223q100 90 277 90q120 0 239 -41l-16 -164q-44 24 -88 35q-61 14 -113 14q-79 0 -127 -26q-59 -35 -59 -97q0 -16 3 -30.5
t11.5 -27.5t15.5 -23t21.5 -21t23 -17.5t27.5 -16l28 -14t30 -14t28 -12.5l31 -14q46 -22 71 -35t61 -40t57 -58q45 -68 45 -162q0 -140 -107 -229q-102 -84 -272 -84q-148 0 -273 57zM281 1249l159 267h246l-242 -267h-163z" />
    <glyph glyph-name="Scircumflex" unicode="&#x15c;" horiz-adv-x="1024" 
d="M860 1403l-29 -189q-133 60 -268 60q-104 0 -164 -35q-86 -49 -86 -154q0 -61 45 -112q22 -25 52.5 -46.5t49.5 -31.5t57 -27.5t46 -21.5l53 -27q90 -44 149.5 -86.5t98.5 -103.5q64 -97 64 -230q0 -192 -140 -309q-131 -110 -362 -110q-151 0 -313 59l20 188
q151 -67 297 -67q133 0 209 71q72 66 72 162q0 98 -76 162q-12 10 -25 19t-34.5 21t-34.5 19t-47.5 24t-51.5 26l-88 45q-145 76 -200 155q-58 84 -58 203q0 197 152 303q61 42 143.5 63t163.5 21q168 0 305 -51zM438 1782h226l213 -246h-185l-141 143l-141 -143h-185z" />
    <glyph glyph-name="scircumflex" unicode="&#x15d;" horiz-adv-x="831" 
d="M98 41l11 170q129 -72 243 -72q100 0 154 51q39 35 39 95q0 53 -51 94q-52 41 -140 82l-41 18q-55 24 -107 63t-79 79q-35 54 -35 127q0 139 92 223q100 90 277 90q120 0 239 -41l-16 -164q-44 24 -88 35q-61 14 -113 14q-79 0 -127 -26q-59 -35 -59 -97q0 -16 3 -30.5
t11.5 -27.5t15.5 -23t21.5 -21t23 -17.5t27.5 -16l28 -14t30 -14t28 -12.5l31 -14q46 -22 71 -35t61 -40t57 -58q45 -68 45 -162q0 -140 -107 -229q-102 -84 -272 -84q-148 0 -273 57zM119 1249l205 267h184l205 -267h-156l-141 172l-142 -172h-155z" />
    <glyph glyph-name="Scedilla" unicode="&#x15e;" horiz-adv-x="1024" 
d="M860 1403l-29 -189q-133 60 -268 60q-104 0 -164 -35q-86 -49 -86 -154q0 -61 45 -112q22 -25 52.5 -46.5t49.5 -31.5t57 -27.5t46 -21.5l53 -27q90 -44 149.5 -86.5t98.5 -103.5q64 -97 64 -230q0 -192 -140 -309q-118 -98 -276 -106l-8 -52q76 0 127 -51
q53 -53 53 -143q0 -39 -19 -79t-49 -67q-60 -55 -174 -55q-81 0 -157 55l55 99q45 -37 96 -37q43 0 74 27q25 25 25 57q0 47 -25 69q-25 25 -80 25q-43 0 -63 -4l20 154q-128 5 -274 57l20 188q151 -67 297 -67q133 0 209 71q72 66 72 162q0 98 -76 162q-12 10 -25 19
t-34.5 21t-34.5 19t-47.5 24t-51.5 26l-88 45q-145 76 -200 155q-58 84 -58 203q0 197 152 303q61 42 143.5 63t163.5 21q168 0 305 -51z" />
    <glyph glyph-name="scedilla" unicode="&#x15f;" horiz-adv-x="831" 
d="M700 1020l-16 -164q-39 22 -88 35q-59 16 -123 16q-71 0 -117 -26q-59 -34 -59 -99q0 -15 3.5 -28.5t7.5 -24.5t14 -22t16 -18.5t21 -17.5t22 -15t25.5 -14t25.5 -12t27.5 -12.5t25.5 -11.5l31 -14q46 -22 71 -35t61 -40t57 -58q45 -68 45 -162q0 -140 -107 -229
q-87 -72 -201 -80l-6 -51q74 -3 121 -50q49 -46 49 -137q0 -85 -63 -139q-57 -51 -166 -51q-78 0 -150 51l52 94q47 -35 92 -35q44 0 69 25t25 55q0 44 -25 66q-24 24 -75 24q-40 0 -60 -4l21 150q-119 5 -228 55l11 170q126 -74 243 -74q97 0 154 53q39 39 39 95
q0 53 -51 94q-52 41 -140 82l-41 18q-55 24 -107 63t-79 79q-35 54 -35 127q0 139 92 223q100 90 277 90q120 0 239 -41z" />
    <glyph glyph-name="Scaron" unicode="&#x160;" horiz-adv-x="1024" 
d="M860 1403l-29 -189q-133 60 -268 60q-104 0 -164 -35q-86 -49 -86 -154q0 -61 45 -112q22 -25 52.5 -46.5t49.5 -31.5t57 -27.5t46 -21.5l53 -27q90 -44 149.5 -86.5t98.5 -103.5q64 -97 64 -230q0 -192 -140 -309q-131 -110 -362 -110q-151 0 -313 59l20 188
q151 -67 297 -67q133 0 209 71q72 66 72 162q0 98 -76 162q-12 10 -25 19t-34.5 21t-34.5 19t-47.5 24t-51.5 26l-88 45q-145 76 -200 155q-58 84 -58 203q0 197 152 303q61 42 143.5 63t163.5 21q168 0 305 -51zM664 1536h-226l-213 246h185l141 -144l141 144h185z" />
    <glyph glyph-name="scaron" unicode="&#x161;" horiz-adv-x="831" 
d="M98 41l11 170q129 -72 243 -72q100 0 154 51q39 35 39 95q0 53 -51 94q-52 41 -140 82l-41 18q-55 24 -107 63t-79 79q-35 54 -35 127q0 139 92 223q100 90 277 90q120 0 239 -41l-16 -164q-44 24 -88 35q-61 14 -113 14q-79 0 -127 -26q-59 -35 -59 -97q0 -16 3 -30.5
t11.5 -27.5t15.5 -23t21.5 -21t23 -17.5t27.5 -16l28 -14t30 -14t28 -12.5l31 -14q46 -22 71 -35t61 -40t57 -58q45 -68 45 -162q0 -140 -107 -229q-102 -84 -272 -84q-148 0 -273 57zM713 1516l-205 -267h-184l-205 267h155l142 -173l141 173h156z" />
    <glyph glyph-name="uni0162" unicode="&#x162;" 
d="M467 0v1253h-444v181h1093v-181h-444v-1253h-47l-11 -68q76 0 127 -51q54 -54 54 -143q0 -39 -19 -79t-49 -67q-60 -55 -174 -55q-82 0 -158 55l56 99q45 -37 96 -37q43 0 74 27q24 24 24 57q0 48 -24 69q-25 25 -80 25q-44 0 -64 -4l25 172h-35z" />
    <glyph glyph-name="uni0163" unicode="&#x163;" horiz-adv-x="768" 
d="M242 1286l192 62v-304h289v-155h-289v-563q0 -86 45 -136q47 -51 125 -51q65 0 123 37v-164q-86 -28 -180 -28h-19l-6 -47q74 -3 121 -50q49 -49 49 -137q0 -79 -63 -139q-57 -51 -166 -51q-78 0 -150 51l52 94q47 -35 92 -35q44 0 69 25t25 55q0 44 -25 66
q-24 24 -75 24q-40 0 -60 -4l23 172q-85 27 -128.5 99.5t-43.5 179.5v602h-228v155h228v242z" />
    <glyph glyph-name="Tcaron" unicode="&#x164;" 
d="M467 0v1253h-444v181h1093v-181h-444v-1253h-205zM682 1536h-225l-213 246h184l141 -144l142 144h184z" />
    <glyph glyph-name="tcaron" unicode="&#x165;" horiz-adv-x="768" 
d="M242 1286l192 62v-304h289v-155h-289v-563q0 -86 45 -136q47 -51 125 -51q65 0 123 37v-164q-82 -28 -170 -28q-145 0 -225 69q-90 76 -90 234v602h-228v155h228v242zM532 1217l82 344h205l-143 -344h-144z" />
    <glyph glyph-name="Umacron" unicode="&#x16a;" horiz-adv-x="1478" 
d="M1294 1434v-840q0 -301 -149 -461q-21 -23 -50.5 -45t-78.5 -49t-121 -43t-156 -16t-156 16t-121 43t-77.5 49t-50.5 45q-150 162 -150 461v840h205v-813q0 -227 76 -334q53 -75 122 -101t152 -26q84 0 153 26t122 101q76 107 76 334v813h204zM410 1720h655v-143h-655
v143z" />
    <glyph glyph-name="umacron" unicode="&#x16b;" horiz-adv-x="1236" 
d="M1073 1044v-1044h-192v150h-4q-51 -74 -138 -121q-86 -45 -198 -45q-197 0 -295 114q-96 112 -96 326v620h192v-540q0 -215 66 -295q21 -26 63.5 -48t106.5 -22q121 0 204 90q99 110 99 332v483h192zM315 1335v144h607v-144h-607z" />
    <glyph glyph-name="Ubreve" unicode="&#x16c;" horiz-adv-x="1478" 
d="M1294 1434v-840q0 -301 -149 -461q-21 -23 -50.5 -45t-78.5 -49t-121 -43t-156 -16t-156 16t-121 43t-77.5 49t-50.5 45q-150 162 -150 461v840h205v-813q0 -227 76 -334q53 -75 122 -101t152 -26q84 0 153 26t122 101q76 107 76 334v813h204zM395 1782h144
q39 -115 200 -115q162 0 201 115h143q-34 -128 -128 -193t-216 -65t-216 65t-128 193z" />
    <glyph glyph-name="ubreve" unicode="&#x16d;" horiz-adv-x="1236" 
d="M1073 1044v-1044h-192v150h-4q-51 -74 -138 -121q-86 -45 -198 -45q-197 0 -295 114q-96 112 -96 326v620h192v-540q0 -215 66 -295q21 -26 63.5 -48t106.5 -22q121 0 204 90q99 110 99 332v483h192zM303 1516h123q13 -62 58 -105t134 -43t134.5 43t58.5 105h123
q-10 -133 -97.5 -212t-218.5 -79t-218 79t-97 212z" />
    <glyph glyph-name="Uring" unicode="&#x16e;" horiz-adv-x="1478" 
d="M1294 1434v-840q0 -301 -149 -461q-21 -23 -50.5 -45t-78.5 -49t-121 -43t-156 -16t-156 16t-121 43t-77.5 49t-50.5 45q-150 162 -150 461v840h205v-813q0 -227 76 -334q53 -75 122 -101t152 -26q84 0 153 26t122 101q76 107 76 334v813h204zM532 1694q0 85 61 146
t146 61t146 -61t61 -146t-61 -146t-146 -61t-146 61t-61 146zM627 1694q0 -50 31.5 -81.5t80.5 -31.5t81 31.5t32 81.5q0 49 -31.5 80.5t-81.5 31.5q-49 0 -80.5 -31t-31.5 -81z" />
    <glyph glyph-name="uring" unicode="&#x16f;" horiz-adv-x="1236" 
d="M1073 1044v-1044h-192v150h-4q-51 -74 -138 -121q-86 -45 -198 -45q-197 0 -295 114q-96 112 -96 326v620h192v-540q0 -215 66 -295q21 -26 63.5 -48t106.5 -22q121 0 204 90q99 110 99 332v483h192zM410 1389q0 86 61 147t147 61t147.5 -61t61.5 -147t-61.5 -147.5
t-147.5 -61.5t-147 61.5t-61 147.5zM492 1389q0 -54 36 -90.5t90 -36.5t90.5 36.5t36.5 90.5t-36.5 90.5t-90.5 36.5t-90 -36.5t-36 -90.5z" />
    <glyph glyph-name="Uhungarumlaut" unicode="&#x170;" horiz-adv-x="1478" 
d="M1294 1434v-840q0 -301 -149 -461q-21 -23 -50.5 -45t-78.5 -49t-121 -43t-156 -16t-156 16t-121 43t-77.5 49t-50.5 45q-150 162 -150 461v840h205v-813q0 -227 76 -334q53 -75 122 -101t152 -26q84 0 153 26t122 101q76 107 76 334v813h204zM668 1782h245l-266 -246
h-155zM991 1782h246l-266 -246h-156z" />
    <glyph glyph-name="uhungarumlaut" unicode="&#x171;" horiz-adv-x="1236" 
d="M1073 1044v-1044h-192v150h-4q-51 -74 -138 -121q-86 -45 -198 -45q-197 0 -295 114q-96 112 -96 326v620h192v-540q0 -215 66 -295q21 -26 63.5 -48t106.5 -22q121 0 204 90q99 110 99 332v483h192zM334 1249l180 267h225l-262 -267h-143zM705 1249l180 267h225
l-262 -267h-143z" />
    <glyph glyph-name="Uogonek" unicode="&#x172;" horiz-adv-x="1478" 
d="M1294 1434v-840q0 -279 -123 -430q-70 -87 -188 -139q-22 -19 -57.5 -49t-48.5 -41.5t-32 -33t-34 -46.5q-39 -59 -39 -123q0 -58 33 -86q30 -27 72 -27q77 0 139 41l37 -88q-95 -66 -213 -66q-111 0 -170 50q-68 53 -68 155q0 50 12.5 84.5t42.5 73.5q53 66 127 113
q-14 -2 -45 -2q-131 0 -234.5 41.5t-170.5 111.5q-150 162 -150 461v840h205v-813q0 -227 76 -334q53 -75 122 -101t152 -26q84 0 153 26t122 101q76 107 76 334v813h204z" />
    <glyph glyph-name="uogonek" unicode="&#x173;" horiz-adv-x="1236" 
d="M1073 1044v-1044q-84 -59 -133 -122t-49 -138q0 -50 26.5 -80.5t73.5 -30.5q75 0 135 41l37 -86q-94 -63 -207 -63q-107 0 -169 48t-62 134q0 100 62 177.5t149 119.5h-55v150h-4q-51 -74 -138 -121q-86 -45 -198 -45q-197 0 -295 114q-96 112 -96 326v620h192v-540
q0 -215 66 -295q21 -26 63.5 -48t106.5 -22q121 0 204 90q99 110 99 332v483h192z" />
    <glyph glyph-name="Ydieresis" unicode="&#x178;" horiz-adv-x="1366" 
d="M582 0v600l-559 834h239l426 -643l416 643h239l-557 -834v-600h-204zM350 1745h217v-205h-217v205zM793 1745h217v-205h-217v205z" />
    <glyph glyph-name="Zacute" unicode="&#x179;" 
d="M66 0v184l741 1069h-717v181h952v-185l-739 -1069h752v-180h-989zM573 1782h267l-234 -246h-196z" />
    <glyph glyph-name="zacute" unicode="&#x17a;" horiz-adv-x="1024" 
d="M88 0v168l602 721h-573v155h796v-167l-602 -721h625v-156h-848zM377 1249l160 267h245l-241 -267h-164z" />
    <glyph glyph-name="Zdotaccent" unicode="&#x17b;" 
d="M66 0v184l741 1069h-717v181h952v-185l-739 -1069h752v-180h-989zM680 1749v-209h-229v209h229z" />
    <glyph glyph-name="zdotaccent" unicode="&#x17c;" horiz-adv-x="1024" 
d="M88 0v168l602 721h-573v155h796v-167l-602 -721h625v-156h-848zM621 1475v-218h-218v218h218z" />
    <glyph glyph-name="Zcaron" unicode="&#x17d;" 
d="M66 0v184l741 1069h-717v181h952v-185l-739 -1069h752v-180h-989zM682 1536h-225l-213 246h184l141 -144l142 144h184z" />
    <glyph glyph-name="zcaron" unicode="&#x17e;" horiz-adv-x="1024" 
d="M88 0v168l602 721h-573v155h796v-167l-602 -721h625v-156h-848zM809 1516l-205 -267h-184l-205 267h156l141 -173l141 173h156z" />
    <glyph glyph-name="uni018F" unicode="&#x18f;" horiz-adv-x="1363" 
d="M109 768h929q0 23 -2 48t-10.5 80.5t-34 114t-63.5 105.5q-58 71 -144.5 114.5t-191.5 43.5q-101 0 -201.5 -40t-183.5 -104v232l35 14q108 45 167 58q88 20 199 20q91 0 166 -13.5t164 -61.5t156 -130q161 -196 161 -538q0 -373 -192 -570q-158 -161 -391 -161
q-275 0 -422 202q-141 193 -141 518v68zM1038 588h-704q0 -75 21.5 -153.5t60.5 -135.5q95 -139 268 -139q170 0 270 155q74 114 84 273z" />
    <glyph glyph-name="florin" unicode="&#x192;" 
d="M973 848l-29 -143h-258l-141 -754q-41 -222 -107 -301q-86 -105 -260 -105q-60 0 -110 11l32 165q33 -8 62 -8q85 0 125 58q34 50 53 159l145 775h-229l27 143h229l43 223q41 209 123 293q83 90 244 90q45 0 112 -10l37 -6l-29 -164l-16 4q-48 8 -76 8q-68 0 -106 -29
q-56 -43 -86 -196l-43 -213h258z" />
    <glyph glyph-name="uni01CF" unicode="&#x1cf;" horiz-adv-x="589" 
d="M193 0v1434h204v-1434h-204zM408 1536h-226l-213 246h185l141 -144l141 144h185z" />
    <glyph glyph-name="uni01D0" unicode="&#x1d0;" horiz-adv-x="520" 
d="M164 0v1044h192v-1044h-192zM557 1516l-205 -267h-184l-205 267h156l141 -173l141 173h156z" />
    <glyph glyph-name="uni01DD" unicode="&#x1dd;" 
d="M94 565h746q-3 140 -88 232q-44 49 -111.5 78.5t-151.5 29.5q-79 0 -166 -30t-149 -74v192l29 11l34 13q34 13 49.5 16.5t51.5 12.5t76.5 12t89.5 3q264 0 405 -150q135 -146 135 -393q0 -272 -161 -416q-130 -118 -328 -118q-229 0 -346 147q-56 69 -85.5 171.5
t-29.5 207.5v55zM840 422h-541q-3 -110 59 -189q76 -94 207 -94q130 0 209 105q56 77 66 178z" />
    <glyph glyph-name="Gcaron" unicode="&#x1e6;" horiz-adv-x="1478" 
d="M1284 1382l-16 -204q-66 45 -162 69q-104 27 -217 27q-230 0 -375 -123q-81 -69 -134.5 -181t-53.5 -259q0 -227 147 -387q153 -164 410 -164q26 0 91.5 6t90.5 10l29 6v434h-301v168h505v-741q-192 -63 -415 -63q-341 0 -547 184q-227 204 -227 559q0 338 235 547
q207 184 528 184q31 0 63.5 -1.5t57.5 -4t50 -5.5t40 -5.5t28.5 -5t14.5 -2.5q67 -15 158 -48zM971 1536h-226l-213 246h185l141 -144l141 144h185z" />
    <glyph glyph-name="gcaron" unicode="&#x1e7;" horiz-adv-x="1251" 
d="M1087 1044v-1003q0 -245 -129 -369q-135 -131 -409 -131q-176 0 -375 72l21 178q183 -94 364 -94q175 0 262 110q74 96 74 248v107h-4q-60 -81 -150 -121q-91 -41 -200 -41q-203 0 -326 143q-59 71 -90 170t-31 201q0 233 125 385q133 162 356 162q52 0 102 -12t71 -21
t32 -16q76 -40 125 -123h4v155h178zM590 156q148 0 231 114q74 102 74 250q0 165 -78 273q-79 112 -223 112q-134 0 -219 -112q-12 -17 -25 -40.5t-32 -90t-19 -138.5t21 -142.5t57 -117.5q37 -48 94 -78t119 -30zM868 1516l-204 -267h-185l-205 267h156l141 -173l142 173
h155z" />
    <glyph glyph-name="uni0218" unicode="&#x218;" horiz-adv-x="1024" 
d="M860 1403l-29 -189q-133 60 -268 60q-104 0 -164 -35q-86 -49 -86 -154q0 -61 45 -112q22 -25 52.5 -46.5t49.5 -31.5t57 -27.5t46 -21.5l53 -27q90 -44 149.5 -86.5t98.5 -103.5q64 -97 64 -230q0 -192 -140 -309q-131 -110 -362 -110q-151 0 -313 59l20 188
q151 -67 297 -67q133 0 209 71q72 66 72 162q0 98 -76 162q-12 10 -25 19t-34.5 21t-34.5 19t-47.5 24t-51.5 26l-88 45q-145 76 -200 155q-58 84 -58 203q0 197 152 303q61 42 143.5 63t163.5 21q168 0 305 -51zM311 -508l82 406h225l-143 -406h-164z" />
    <glyph glyph-name="uni0219" unicode="&#x219;" horiz-adv-x="831" 
d="M98 41l11 170q129 -72 243 -72q100 0 154 51q39 35 39 95q0 53 -51 94q-52 41 -140 82l-41 18q-55 24 -107 63t-79 79q-35 54 -35 127q0 139 92 223q100 90 277 90q120 0 239 -41l-16 -164q-44 24 -88 35q-61 14 -113 14q-79 0 -127 -26q-59 -35 -59 -97q0 -16 3 -30.5
t11.5 -27.5t15.5 -23t21.5 -21t23 -17.5t27.5 -16l28 -14t30 -14t28 -12.5l31 -14q46 -22 71 -35t61 -40t57 -58q45 -68 45 -162q0 -140 -107 -229q-102 -84 -272 -84q-148 0 -273 57zM229 -451l82 349h205l-143 -349h-144z" />
    <glyph glyph-name="uni021A" unicode="&#x21a;" 
d="M467 0v1253h-444v181h1093v-181h-444v-1253h-205zM455 -508l82 406h225l-144 -406h-163z" />
    <glyph glyph-name="uni021B" unicode="&#x21b;" horiz-adv-x="768" 
d="M242 1286l192 62v-304h289v-155h-289v-563q0 -86 45 -136q47 -51 125 -51q65 0 123 37v-164q-82 -28 -170 -28q-145 0 -225 69q-90 76 -90 234v602h-228v155h228v242zM274 -451l82 349h205l-143 -349h-144z" />
    <glyph glyph-name="uni0259" unicode="&#x259;" 
d="M94 565h746q-3 140 -88 232q-44 49 -111.5 78.5t-151.5 29.5q-79 0 -166 -30t-149 -74v192l29 11l34 13q34 13 49.5 16.5t51.5 12.5t76.5 12t89.5 3q264 0 405 -150q135 -146 135 -393q0 -272 -161 -416q-130 -118 -328 -118q-229 0 -346 147q-56 69 -85.5 171.5
t-29.5 207.5v55zM840 422h-541q-3 -110 59 -189q76 -94 207 -94q130 0 209 105q56 77 66 178z" />
    <glyph glyph-name="uni02BC" unicode="&#x2bc;" horiz-adv-x="368" 
d="M0 1217l82 344h205l-144 -344h-143z" />
    <glyph glyph-name="circumflex" unicode="&#x2c6;" horiz-adv-x="569" 
d="M-12 1249l205 267h184l205 -267h-156l-141 172l-142 -172h-155z" />
    <glyph glyph-name="caron" unicode="&#x2c7;" horiz-adv-x="569" 
d="M582 1516l-205 -267h-184l-205 267h155l142 -173l141 173h156z" />
    <glyph glyph-name="breve" unicode="&#x2d8;" horiz-adv-x="569" 
d="M-31 1516h123q13 -62 58.5 -105t134.5 -43t134 43t58 105h123q-10 -133 -97 -212t-218 -79t-218.5 79t-97.5 212z" />
    <glyph glyph-name="dotaccent" unicode="&#x2d9;" horiz-adv-x="569" 
d="M393 1475v-218h-217v218h217z" />
    <glyph glyph-name="ring" unicode="&#x2da;" horiz-adv-x="569" 
d="M76 1389q0 86 61.5 147t147.5 61t147.5 -61t61.5 -147t-61.5 -147.5t-147.5 -61.5t-147.5 61.5t-61.5 147.5zM158 1389q0 -54 36.5 -90.5t90.5 -36.5t90.5 36.5t36.5 90.5t-36.5 90.5t-90.5 36.5t-90.5 -36.5t-36.5 -90.5z" />
    <glyph glyph-name="ogonek" unicode="&#x2db;" horiz-adv-x="438" 
d="M211 0h137q-84 -59 -133 -122t-49 -138q0 -50 26.5 -80.5t73.5 -30.5q75 0 135 41l37 -86q-94 -63 -207 -63q-107 0 -169 48t-62 134q0 100 62 177.5t149 119.5z" />
    <glyph glyph-name="tilde" unicode="&#x2dc;" horiz-adv-x="1071" 
d="M293 1200h-88q7 87 45 150q48 80 141 80q33 0 103 -27l57 -25q3 -1 34.5 -15.5t54 -21t46.5 -6.5q51 0 70 37q14 25 20 58h90q-11 -78 -39 -136q-48 -94 -147 -94q-40 0 -105 27l-57 24q-3 1 -34.5 15.5t-54 21t-46.5 6.5q-46 0 -66 -30q-17 -26 -24 -64z" />
    <glyph glyph-name="hungarumlaut" unicode="&#x2dd;" horiz-adv-x="569" 
d="M-35 1249l180 267h226l-262 -267h-144zM336 1249l180 267h225l-262 -267h-143z" />
    <glyph glyph-name="gravecomb" unicode="&#x300;" horiz-adv-x="0" 
d="M-539 1516l160 -267h-164l-241 267h245z" />
    <glyph glyph-name="acutecomb" unicode="&#x301;" horiz-adv-x="0" 
d="M-670 1249l160 267h246l-242 -267h-164z" />
    <glyph glyph-name="pi" unicode="&#x3c0;" horiz-adv-x="1370" 
d="M526 889v-889h-192v889h-19q-128 0 -192 -111l-92 121q59 88 143 116.5t215 28.5h950v-155h-143v-889h-192v889h-478z" />
    <glyph glyph-name="uni0401" unicode="&#x401;" horiz-adv-x="1134" 
d="M193 0v1434h800v-181h-596v-419h543v-181h-543v-473h596v-180h-800zM266 1745h217v-205h-217v205zM709 1745h217v-205h-217v205z" />
    <glyph glyph-name="uni0402" unicode="&#x402;" horiz-adv-x="1636" 
d="M449 0v1253h-418v181h1093v-181h-471v-426q71 49 156 76q101 35 227 35q203 0 324 -125q113 -120 113 -324q0 -220 -70 -335q-105 -174 -361 -174q-89 0 -174 26l15 168q71 -29 153 -29q118 0 176 88q48 74 48 252q0 56 -17 113t-49 96q-65 80 -203 80q-119 0 -205 -37
q-68 -27 -133 -75v-662h-204z" />
    <glyph glyph-name="uni0403" unicode="&#x403;" horiz-adv-x="972" 
d="M193 0v1434h759v-181h-555v-1253h-204zM573 1782h267l-234 -246h-196z" />
    <glyph glyph-name="uni0404" unicode="&#x404;" horiz-adv-x="1296" 
d="M1186 1393l-17 -199q-138 80 -295 80q-97 0 -190 -29.5t-162 -85.5q-65 -52 -116.5 -135.5t-71.5 -189.5h549v-181h-555q17 -183 131 -317q150 -176 405 -176q160 0 312 69l12 -198q-135 -51 -299 -51q-383 0 -586 210q-94 97 -144 237t-50 292q0 166 62.5 317.5
t201.5 259.5q103 81 234.5 119.5t266.5 38.5q182 0 312 -61z" />
    <glyph glyph-name="uni0405" unicode="&#x405;" horiz-adv-x="1024" 
d="M860 1403l-29 -189q-133 60 -268 60q-104 0 -164 -35q-86 -49 -86 -154q0 -61 45 -112q22 -25 52.5 -46.5t49.5 -31.5t57 -27.5t46 -21.5l53 -27q90 -44 149.5 -86.5t98.5 -103.5q64 -97 64 -230q0 -192 -140 -309q-131 -110 -362 -110q-151 0 -313 59l20 188
q151 -67 297 -67q133 0 209 71q72 66 72 162q0 98 -76 162q-12 10 -25 19t-34.5 21t-34.5 19t-47.5 24t-51.5 26l-88 45q-145 76 -200 155q-58 84 -58 203q0 197 152 303q61 42 143.5 63t163.5 21q168 0 305 -51z" />
    <glyph glyph-name="uni0406" unicode="&#x406;" horiz-adv-x="589" 
d="M193 0v1434h204v-1434h-204z" />
    <glyph glyph-name="uni0407" unicode="&#x407;" horiz-adv-x="589" 
d="M193 0v1434h204v-1434h-204zM51 1745h185v-205h-185v205zM354 1745h185v-205h-185v205z" />
    <glyph glyph-name="uni0408" unicode="&#x408;" horiz-adv-x="796" 
d="M43 4v176q73 -20 129 -20q126 0 180 65q54 61 54 215v994h204v-1059q0 -202 -112 -303q-103 -92 -295 -92q-95 0 -160 24z" />
    <glyph glyph-name="uni0409" unicode="&#x409;" horiz-adv-x="1925" 
d="M940 0v1253h-432l-8 -352q-2 -148 -15 -375q-10 -158 -30.5 -261.5t-75.5 -174.5q-84 -110 -246 -110q-59 0 -113 16l7 178q46 -12 71 -12q75 0 112.5 35.5t55.5 95.5q24 85 37 336q12 222 12 334l7 471h823v-578h110h84t84.5 -4.5t98.5 -13t85 -27t85 -45.5
q72 -53 116.5 -142.5t44.5 -199.5q0 -107 -36 -184.5t-88 -124.5q-78 -69 -182 -92t-238 -23h-369zM1145 676v-496h141q57 0 94 2t93 17t90 43q73 63 73 184q0 113 -71 180q-23 21 -54.5 35.5t-53.5 21t-63 10t-52.5 3.5h-51.5h-145z" />
    <glyph glyph-name="uni040A" unicode="&#x40a;" horiz-adv-x="2045" 
d="M1061 0v676h-664v-676h-204v1434h204v-578h664v578h205v-578h110h84t84 -4.5t98.5 -13t85 -27t84.5 -45.5q73 -54 117.5 -143t44.5 -199q0 -107 -36 -184.5t-89 -124.5q-78 -69 -181.5 -92t-237.5 -23h-369zM1266 676v-496h141q56 0 93.5 2t93 17t89.5 43q74 64 74 184
q0 113 -71 180q-23 21 -54.5 35.5t-53.5 21t-63 10t-52.5 3.5h-51.5h-145z" />
    <glyph glyph-name="uni040B" unicode="&#x40b;" horiz-adv-x="1630" 
d="M449 0v1253h-418v181h1093v-181h-471v-426q79 44 168 72q65 22 110.5 30.5t112.5 8.5q195 0 299 -84q73 -58 98 -132t25 -161v-561h-204v504q0 41 -1 59t-6.5 49t-20 54t-38.5 45q-69 63 -195 63q-79 0 -190 -39q-90 -32 -158 -73v-662h-204z" />
    <glyph glyph-name="uni040C" unicode="&#x40c;" horiz-adv-x="1366" 
d="M193 0v1434h204v-631l611 631h272l-672 -678l725 -756h-299l-637 702v-702h-204zM737 1782h267l-234 -246h-197z" />
    <glyph glyph-name="uni040E" unicode="&#x40e;" horiz-adv-x="1189" 
d="M31 1434h231l373 -807h14l350 807h199l-545 -1227q-51 -116 -123 -170q-73 -57 -180 -57q-80 0 -170 28l23 178q65 -26 123 -26q57 0 96 28q15 11 36.5 38.5t28.5 47.5l48 117zM799 1829l137 -17q-4 -68 -34 -121t-73 -85q-38 -28 -100 -45t-121 -17t-121 17t-100 45
q-43 32 -72.5 85t-33.5 121l137 17q11 -52 51 -92q45 -41 139 -41q95 0 140 41q40 40 51 92z" />
    <glyph glyph-name="uni040F" unicode="&#x40f;" horiz-adv-x="1449" 
d="M193 1434h204v-1254h656v1254h204v-1434h-432v-319h-200v319h-432v1434z" />
    <glyph glyph-name="uni0410" unicode="&#x410;" horiz-adv-x="1478" 
d="M25 0l610 1434h215l604 -1434h-223l-146 362h-700l-145 -362h-215zM1020 530l-285 711l-284 -711h569z" />
    <glyph glyph-name="uni0411" unicode="&#x411;" horiz-adv-x="1220" 
d="M193 0v1434h823v-181h-619v-409h187q244 0 372 -90q162 -116 162 -330q0 -200 -125 -309q-78 -69 -182 -92t-238 -23h-380zM397 676v-496h154q56 0 93.5 2t93 17t89.5 43q74 64 74 184q0 112 -72 180q-19 18 -41 31t-51 20t-45.5 11.5t-52.5 6t-42 1.5h-42h-158z" />
    <glyph glyph-name="uni0412" unicode="&#x412;" horiz-adv-x="1232" 
d="M193 0v1434h387q257 0 385 -99q116 -89 116 -262q0 -135 -71 -219q-38 -45 -100 -77.5t-124 -45.5v-4q69 -4 131.5 -30.5t104.5 -67.5q96 -93 96 -246q0 -176 -110 -270q-132 -113 -435 -113h-380zM397 653v-485h154q217 0 295 80q55 59 55 158q0 144 -123 206
q-82 41 -248 41h-133zM397 1266v-445h113q49 0 79 1.5t79.5 7.5t88 22t64.5 41q56 54 56 151q0 113 -74 168q-71 54 -191 54h-215z" />
    <glyph glyph-name="uni0413" unicode="&#x413;" horiz-adv-x="972" 
d="M193 0v1434h759v-181h-555v-1253h-204z" />
    <glyph glyph-name="uni0414" unicode="&#x414;" horiz-adv-x="1382" 
d="M20 180h121q113 193 154 395q35 173 45 492l10 367h828v-1254h163v-499h-200v319h-920v-319h-201v499zM973 1253h-441l-12 -303q-4 -98 -6.5 -142t-12.5 -124t-26 -156q-44 -201 -133 -348h631v1073z" />
    <glyph glyph-name="uni0415" unicode="&#x415;" horiz-adv-x="1134" 
d="M193 0v1434h800v-181h-596v-419h543v-181h-543v-473h596v-180h-800z" />
    <glyph glyph-name="uni0416" unicode="&#x416;" horiz-adv-x="1908" 
d="M1055 1434v-631h14l514 631h242l-559 -678l610 -756h-266l-541 702h-14v-702h-205v702h-14l-541 -702h-266l610 756l-559 678h242l514 -631h14v631h205z" />
    <glyph glyph-name="uni0417" unicode="&#x417;" horiz-adv-x="1173" 
d="M379 821h92q160 0 240 60q84 61 84 178q0 97 -72 155q-72 60 -207 60q-176 0 -350 -78l-21 188q194 70 390 70q63 0 109 -4.5t112 -26.5t118 -63q138 -108 138 -293q0 -132 -74 -215q-31 -34 -82.5 -60t-99.5 -38v-9q66 -9 124 -38.5t95 -69.5q84 -91 84 -238
q0 -197 -164 -317q-137 -102 -385 -102q-214 0 -408 90l23 186q188 -96 381 -96q152 0 237 59q99 67 99 187q0 117 -80 180q-83 67 -254 67h-129v168z" />
    <glyph glyph-name="uni0418" unicode="&#x418;" horiz-adv-x="1525" 
d="M193 0v1434h204v-977l-6 -178h10q45 90 129 225l574 930h229v-1434h-205v977l7 178h-11q-19 -40 -37.5 -74.5t-30 -53t-31.5 -49.5t-30 -48l-573 -930h-229z" />
    <glyph glyph-name="uni0419" unicode="&#x419;" horiz-adv-x="1525" 
d="M193 0v1434h204v-977l-6 -178h10q45 90 129 225l574 930h229v-1434h-205v977l7 178h-11q-19 -40 -37.5 -74.5t-30 -53t-31.5 -49.5t-30 -48l-573 -930h-229zM956 1829l138 -17q-4 -68 -34 -121t-73 -85q-38 -28 -100 -45t-121 -17t-121 17t-100 45q-43 32 -73 85t-34 121
l137 17q11 -51 52 -92q45 -41 139 -41t139 41q40 40 51 92z" />
    <glyph glyph-name="uni041A" unicode="&#x41a;" horiz-adv-x="1366" 
d="M193 0v1434h204v-631l611 631h272l-672 -678l725 -756h-299l-637 702v-702h-204z" />
    <glyph glyph-name="uni041B" unicode="&#x41b;" horiz-adv-x="1357" 
d="M322 1434h843v-1434h-204v1253h-453l-8 -352q-2 -148 -15 -375q-10 -158 -30.5 -261.5t-75.5 -174.5q-84 -110 -246 -110q-59 0 -113 16l7 178q46 -12 71 -12q75 0 112.5 35.5t55.5 95.5q24 85 37 336q12 222 12 334z" />
    <glyph glyph-name="uni041C" unicode="&#x41c;" horiz-adv-x="1949" 
d="M193 0v1434h337l449 -1192l440 1192h338v-1434h-205v1241h-4l-473 -1241h-201l-473 1241h-4v-1241h-204z" />
    <glyph glyph-name="uni041D" unicode="&#x41d;" horiz-adv-x="1478" 
d="M193 0v1434h204v-600h684v600h205v-1434h-205v653h-684v-653h-204z" />
    <glyph glyph-name="uni041E" unicode="&#x41e;" horiz-adv-x="1593" 
d="M797 1454q324 0 512 -217q82 -94 129 -227.5t47 -292.5q0 -161 -48 -295.5t-128 -226.5q-186 -215 -512 -215t-512 215q-80 92 -128 226.5t-48 295.5q0 159 47 292.5t129 227.5q188 217 512 217zM797 1274q-117 0 -206 -46.5t-145 -117.5q-55 -70 -87.5 -176.5
t-32.5 -216.5q0 -101 29.5 -207.5t90.5 -185.5q128 -164 351 -164q222 0 350 164q62 79 91.5 185.5t29.5 207.5q0 110 -32.5 216t-88.5 177t-144.5 117.5t-205.5 46.5z" />
    <glyph glyph-name="uni041F" unicode="&#x41f;" horiz-adv-x="1452" 
d="M193 0v1434h1067v-1434h-205v1253h-658v-1253h-204z" />
    <glyph glyph-name="uni0420" unicode="&#x420;" horiz-adv-x="1161" 
d="M397 1253v-499h203q61 0 120.5 18.5t96.5 52.5q70 66 70 176q0 122 -94 191q-85 61 -222 61h-174zM193 0v1434h374q258 0 394 -105q143 -108 143 -319q0 -174 -96 -285q-131 -152 -410 -152h-201v-573h-204z" />
    <glyph glyph-name="uni0421" unicode="&#x421;" horiz-adv-x="1280" 
d="M1186 1393l-17 -199q-136 80 -295 80q-205 0 -350 -115q-91 -71 -144.5 -184.5t-53.5 -257.5q0 -227 135 -381q150 -176 434 -176q138 0 281 67l12 -196q-135 -51 -299 -51q-379 0 -584 210q-86 90 -141 227t-55 302q0 51 5.5 101t22.5 116t45 124.5t77.5 122
t115.5 113.5q206 158 499 158q182 0 312 -61z" />
    <glyph glyph-name="uni0422" unicode="&#x422;" 
d="M467 0v1253h-444v181h1093v-181h-444v-1253h-205z" />
    <glyph glyph-name="uni0423" unicode="&#x423;" horiz-adv-x="1189" 
d="M31 1434h231l373 -807h14l350 807h199l-545 -1227q-51 -116 -123 -170q-73 -57 -180 -57q-80 0 -170 28l23 178q65 -26 123 -26q57 0 96 28q15 11 36.5 38.5t28.5 47.5l48 117z" />
    <glyph glyph-name="uni0424" unicode="&#x424;" horiz-adv-x="1744" 
d="M975 1491v-184h53q230 0 391 -123q96 -73 156.5 -188.5t60.5 -258.5q0 -132 -53 -249t-145 -191q-160 -129 -410 -129h-53v-188h-205v188h-53q-250 0 -410 129q-92 74 -145 191t-53 249q0 143 60.5 258.5t156.5 188.5q161 123 391 123h53v184h205zM975 1139v-803h57
q181 0 283 104q104 104 104 297q0 197 -119 307q-102 95 -268 95h-57zM770 1139h-57q-167 0 -269 -95q-118 -109 -118 -307q0 -193 104 -297q102 -104 283 -104h57v803z" />
    <glyph glyph-name="uni0425" unicode="&#x425;" horiz-adv-x="1366" 
d="M16 0l527 745l-480 689h246l381 -551l379 551h234l-482 -684l529 -750h-258l-422 608l-408 -608h-246z" />
    <glyph glyph-name="uni0426" unicode="&#x426;" horiz-adv-x="1439" 
d="M193 1434h204v-1254h633v1254h205v-1254h164v-499h-201v319h-1005v1434z" />
    <glyph glyph-name="uni0427" unicode="&#x427;" horiz-adv-x="1337" 
d="M940 0v600q-186 -49 -365 -49q-294 0 -403 137q-70 87 -70 246v500h205v-430q0 -34 1 -52t7 -51t22 -59.5t42 -48.5q71 -62 233 -62q174 0 328 47v656h205v-1434h-205z" />
    <glyph glyph-name="uni0428" unicode="&#x428;" horiz-adv-x="1851" 
d="M193 1434h204v-1254h426v1254h205v-1254h426v1254h205v-1434h-1466v1434z" />
    <glyph glyph-name="uni0429" unicode="&#x429;" horiz-adv-x="1863" 
d="M193 1434h204v-1254h426v1254h205v-1254h426v1254h205v-1254h164v-499h-201v319h-1429v1434z" />
    <glyph glyph-name="uni042A" unicode="&#x42a;" horiz-adv-x="1339" 
d="M559 856h111h84t84 -4.5t98.5 -13t85 -27t84.5 -45.5q73 -54 117.5 -143t44.5 -199q0 -107 -36 -184.5t-89 -124.5q-78 -69 -182 -92t-238 -23h-369v1253h-364v181h569v-578zM559 676v-496h141q57 0 94 2t93 17t90 43q74 64 74 184q0 112 -72 180q-19 18 -41 31t-51 20
t-45.5 11.5t-52.5 6t-42 1.5h-42h-146z" />
    <glyph glyph-name="uni042B" unicode="&#x42b;" horiz-adv-x="1701" 
d="M193 0v1434h204v-578h111h84t84 -4.5t98.5 -13t85 -27t84.5 -45.5q73 -54 117.5 -143t44.5 -199q0 -107 -36 -184.5t-89 -124.5q-78 -69 -182 -92t-238 -23h-368zM397 676v-496h142q56 0 93.5 2t93 17t89.5 43q74 64 74 184q0 112 -72 180q-19 18 -41 31t-51 20
t-45.5 11.5t-52.5 6t-42 1.5h-42h-146zM1305 0v1434h204v-1434h-204z" />
    <glyph glyph-name="uni042C" unicode="&#x42c;" horiz-adv-x="1177" 
d="M193 0v1434h204v-578h111h84t84 -4.5t98.5 -13t85 -27t84.5 -45.5q73 -54 117.5 -143t44.5 -199q0 -107 -36 -184.5t-89 -124.5q-78 -69 -182 -92t-238 -23h-368zM397 676v-496h142q56 0 93.5 2t93 17t89.5 43q74 64 74 184q0 112 -72 180q-19 18 -41 31t-51 20
t-45.5 11.5t-52.5 6t-42 1.5h-42h-146z" />
    <glyph glyph-name="uni042D" unicode="&#x42d;" horiz-adv-x="1294" 
d="M127 1194l-16 199q133 61 327 61q294 0 490 -154q258 -205 258 -581q0 -302 -178 -504q-65 -74 -142 -123.5t-159 -72.5t-150 -31t-149 -8q-164 0 -299 51l12 198q151 -69 293 -69q133 0 241 41.5t176 113.5q58 63 95 155t43 183h-582v181h582q-15 102 -64 187.5
t-121 141.5q-73 57 -171.5 84t-196.5 27q-154 0 -289 -80z" />
    <glyph glyph-name="uni042E" unicode="&#x42e;" horiz-adv-x="2109" 
d="M397 834h246q11 108 53 214t113 189q185 217 504 217q321 0 512 -217q82 -94 129 -227.5t47 -292.5q0 -161 -48 -295.5t-128 -226.5q-186 -215 -512 -215q-318 0 -504 215q-76 89 -121 211t-51 247h-240v-653h-204v1434h204v-600zM1313 1274q-117 0 -205.5 -46.5
t-144.5 -117.5t-88.5 -177t-32.5 -216q0 -101 29.5 -207.5t91.5 -185.5q128 -164 350 -164t350 164q62 79 91.5 185.5t29.5 207.5q0 110 -32.5 216t-88.5 177t-144.5 117.5t-205.5 46.5z" />
    <glyph glyph-name="uni042F" unicode="&#x42f;" horiz-adv-x="1284" 
d="M1092 1434v-1434h-205v573h-232l-299 -573h-245l344 614q-42 14 -79.5 34t-62 40.5t-36 32t-19.5 20.5q-88 109 -88 265q0 204 143 321q79 66 167.5 86.5t197.5 20.5h414zM887 741v512h-221q-131 0 -201 -61q-78 -68 -78 -191q0 -108 68 -176q51 -51 118.5 -67.5
t153.5 -16.5h160z" />
    <glyph glyph-name="uni0430" unicode="&#x430;" 
d="M223 803l-12 168q150 90 360 90q205 0 308 -103q62 -62 80 -138.5t18 -184.5v-424q0 -160 8 -211h-180v141h-4q-60 -82 -151.5 -119.5t-190.5 -37.5q-70 0 -137 19.5t-113 53.5q-115 85 -115 238q0 31 6.5 63.5t23 72t51 77t83.5 65.5q118 70 395 70q61 0 131 -4v57
q0 101 -61 154q-64 55 -191 55q-166 0 -309 -102zM784 408v90q-74 4 -110 4q-214 0 -299 -58q-76 -51 -76 -139q0 -80 55 -121q57 -45 150 -45q60 0 117 21.5t94 60.5q69 73 69 187z" />
    <glyph glyph-name="uni0431" unicode="&#x431;" horiz-adv-x="1277" 
d="M1081 1587v-170q-32 -8 -57.5 -12t-61 -7.5t-44.5 -4.5q-44 -5 -150.5 -9.5t-161.5 -13.5q-135 -22 -215 -106q-33 -36 -55.5 -80.5t-32.5 -97.5t-14 -92.5t-6 -96.5l-2 -51h10q29 46 69.5 91.5t79.5 68.5q91 55 234 55q223 0 366.5 -151t143.5 -388q0 -226 -135 -375
q-62 -69 -161 -116t-235 -47q-123 0 -227 44t-168 119q-156 181 -156 625q0 219 42.5 378t144.5 253q93 86 231 119q42 11 93 18t86 9t100 5t94 5q103 7 188 28zM653 905q-152 0 -245 -123q-80 -108 -80 -260t80 -260q46 -61 110.5 -92t134.5 -31t135 31t111 92
q80 108 80 260q0 149 -80 260q-90 123 -246 123z" />
    <glyph glyph-name="uni0432" unicode="&#x432;" horiz-adv-x="1130" 
d="M164 1044h416q190 0 282 -61q111 -73 111 -203q0 -88 -53 -155q-52 -62 -129 -82v-6q96 -14 153 -68q72 -62 72 -176q0 -149 -119 -227q-98 -66 -274 -66h-459v1044zM356 889v-275h193q118 0 168 29q61 36 61 111q0 70 -61 106q-50 29 -148 29h-213zM356 471v-315h244
q115 0 168 51q43 39 43 100q0 86 -74 131q-58 33 -182 33h-199z" />
    <glyph glyph-name="uni0433" unicode="&#x433;" horiz-adv-x="860" 
d="M164 1044h686v-163h-494v-881h-192v1044z" />
    <glyph glyph-name="uni0434" unicode="&#x434;" horiz-adv-x="1161" 
d="M285 1044h704v-888h148v-451h-185v295h-743v-295h-184v451h106q87 119 115.5 265t34.5 447zM301 156h496v733h-344l-2 -82q-7 -253 -35 -393.5t-115 -257.5z" />
    <glyph glyph-name="uni0435" unicode="&#x435;" 
d="M1044 479h-745q3 -139 88 -231q98 -109 262 -109q79 0 166.5 30.5t149.5 74.5v-193l-29 -10l-34 -13q-34 -13 -49.5 -16.5t-51.5 -12.5t-76.5 -12t-89.5 -3q-266 0 -406 149q-135 146 -135 393q0 271 162 416q132 119 328 119q228 0 346 -148q56 -69 85 -171t29 -207v-56
zM299 623h541q3 108 -60 188q-76 94 -207 94q-130 0 -208 -104q-56 -77 -66 -178z" />
    <glyph glyph-name="uni0436" unicode="&#x436;" horiz-adv-x="1548" 
d="M870 1044v-458h15l344 458h233l-395 -497l455 -547h-246l-391 502h-15v-502h-192v502h-14l-392 -502h-245l454 547l-395 497h233l345 -458h14v458h192z" />
    <glyph glyph-name="uni0437" unicode="&#x437;" horiz-adv-x="987" 
d="M307 471v143h135q92 0 156 43q47 37 47 105q0 70 -61 106q-60 37 -166 37q-144 0 -283 -63l-4 159q171 60 318 60q193 0 296 -70q51 -35 80 -90.5t29 -124.5q0 -86 -51 -147q-26 -29 -64.5 -50.5t-76.5 -29.5v-4q104 -15 163 -74q68 -68 68 -172q0 -167 -156 -254
q-112 -61 -284 -61q-193 0 -371 77l20 158q78 -35 169.5 -57.5t166.5 -22.5q123 0 187 51q55 44 55 115q0 98 -76 137q-52 29 -172 29h-125z" />
    <glyph glyph-name="uni0438" unicode="&#x438;" horiz-adv-x="1273" 
d="M356 1044v-788l562 788h192v-1044h-192v788l-562 -788h-192v1044h192z" />
    <glyph glyph-name="uni0439" unicode="&#x439;" horiz-adv-x="1273" 
d="M356 1044v-788l562 788h192v-1044h-192v788l-562 -788h-192v1044h192zM836 1552l133 -16q-3 -69 -32 -124t-71 -87q-39 -30 -97.5 -46.5t-117.5 -16.5t-117.5 16.5t-97.5 46.5q-42 32 -70.5 87t-31.5 124l133 16q9 -61 49 -94q45 -41 135 -41t135 41q41 34 50 94z" />
    <glyph glyph-name="uni043A" unicode="&#x43a;" horiz-adv-x="1136" 
d="M164 0v1044h192v-458l420 458h262l-485 -497l545 -547h-273l-469 502v-502h-192z" />
    <glyph glyph-name="uni043B" unicode="&#x43b;" horiz-adv-x="1124" 
d="M244 1044h717v-1044h-193v889h-340l-6 -271q-4 -221 -15.5 -322t-37.5 -163q-33 -80 -88.5 -114.5t-145.5 -34.5q-57 0 -119 16l25 154q44 -11 59 -11q33 0 56.5 13t35.5 37t17.5 42t9.5 44q16 98 19 339z" />
    <glyph glyph-name="uni043C" unicode="&#x43c;" horiz-adv-x="1521" 
d="M846 0h-170l-320 848v-848h-192v1044h293l299 -747h10l297 747h295v-1044h-193v848z" />
    <glyph glyph-name="uni043D" unicode="&#x43d;" horiz-adv-x="1245" 
d="M356 1044v-423h533v423h192v-1044h-192v465h-533v-465h-192v1044h192z" />
    <glyph glyph-name="uni043E" unicode="&#x43e;" horiz-adv-x="1249" 
d="M625 1061q248 0 395 -164q67 -74 101 -172.5t34 -202.5t-34 -202.5t-101 -172.5q-146 -163 -395 -163q-136 0 -235 47t-161 116q-67 74 -101 172.5t-34 202.5t34 202.5t101 172.5q62 70 161 117t235 47zM625 905q-74 0 -138.5 -34t-107.5 -89q-80 -105 -80 -260
q0 -157 80 -260q91 -123 246 -123q154 0 245 123q80 103 80 260t-80 260q-46 61 -110.5 92t-134.5 31z" />
    <glyph glyph-name="uni043F" unicode="&#x43f;" horiz-adv-x="1230" 
d="M164 1044h903v-1044h-193v889h-518v-889h-192v1044z" />
    <glyph glyph-name="uni0440" unicode="&#x440;" horiz-adv-x="1251" 
d="M164 1044h184v-149h4q117 166 346 166q210 0 332 -139q59 -68 93 -169.5t34 -222.5q0 -108 -31 -213.5t-90 -179.5q-120 -153 -327 -153q-134 0 -230 51q-76 40 -119 102h-4v-596h-192v1503zM356 520q0 -160 80 -268q37 -50 94.5 -81.5t128.5 -31.5q117 0 197 88
q96 106 96 310q0 180 -86 278q-77 90 -200 90q-148 0 -234 -123q-76 -107 -76 -262z" />
    <glyph glyph-name="uni0441" unicode="&#x441;" horiz-adv-x="909" 
d="M844 1020l-17 -160q-102 45 -209 45q-122 0 -215 -80q-56 -50 -88 -131t-32 -172q0 -161 79 -262q44 -54 114.5 -87.5t154.5 -33.5q116 0 207 60l14 -172q-97 -43 -242 -43q-240 0 -393 168q-56 60 -97.5 155t-41.5 223q0 114 43 222.5t137 187.5q146 121 352 121
q121 0 234 -41z" />
    <glyph glyph-name="uni0442" unicode="&#x442;" horiz-adv-x="958" 
d="M20 1044h918v-155h-363v-889h-192v889h-363v155z" />
    <glyph glyph-name="uni0443" unicode="&#x443;" horiz-adv-x="999" 
d="M74 -444l12 157q56 -16 92 -16q76 0 131 55q53 53 84 162l13 45l-25 78l-367 1007h211l287 -858h4l281 858h194l-391 -1083q-82 -227 -137 -295q-98 -125 -268 -125q-53 0 -111 13z" />
    <glyph glyph-name="uni0444" unicode="&#x444;" horiz-adv-x="1572" 
d="M883 1434v-418q103 45 186 45q106 0 201.5 -56.5t150.5 -173.5q58 -124 58 -309t-58 -309q-31 -66 -75.5 -113.5t-94.5 -71.5t-96 -34t-94 -10q-96 0 -178 45v-488h-193v488q-82 -45 -178 -45q-48 0 -94 10t-96 34t-94.5 71.5t-75.5 113.5q-58 124 -58 309t58 309
q55 117 150.5 173.5t201.5 56.5q82 0 186 -45v418h193zM883 874v-702q70 -35 137 -35q135 0 201 127q53 101 53 258q0 155 -53 258q-63 127 -207 127q-63 0 -131 -33zM690 172v702q-68 33 -133 33q-138 0 -205 -127q-53 -103 -53 -258q0 -157 53 -258q66 -127 201 -127
q67 0 137 35z" />
    <glyph glyph-name="uni0445" unicode="&#x445;" horiz-adv-x="1024" 
d="M20 0l377 547l-340 497h240l227 -372l232 372h215l-336 -497l369 -547h-238l-258 410l-258 -410h-230z" />
    <glyph glyph-name="uni0446" unicode="&#x446;" horiz-adv-x="1222" 
d="M848 1044h192v-888h158v-451h-184v295h-850v1044h192v-888h492v888z" />
    <glyph glyph-name="uni0447" unicode="&#x447;" horiz-adv-x="1097" 
d="M741 0v412q-139 -31 -272 -31q-184 0 -279 78q-98 81 -98 221v364h193v-307q0 -24 1.5 -41.5t6.5 -42t17.5 -45t31.5 -35.5q49 -36 172 -36q107 0 227 26v481h193v-1044h-193z" />
    <glyph glyph-name="uni0448" unicode="&#x448;" horiz-adv-x="1646" 
d="M164 0v1044h192v-888h371v888h193v-888h370v888h193v-1044h-1319z" />
    <glyph glyph-name="uni0449" unicode="&#x449;" horiz-adv-x="1665" 
d="M164 0v1044h192v-888h371v888h193v-888h370v888h193v-888h157v-451h-184v295h-1292z" />
    <glyph glyph-name="uni044A" unicode="&#x44a;" horiz-adv-x="1181" 
d="M481 645h215q206 0 312 -80q116 -88 116 -248q0 -143 -98 -231q-97 -86 -291 -86h-446v889h-299v155h491v-399zM481 489v-333h250q113 0 162 53q39 41 39 113q0 78 -49 120q-53 47 -183 47h-219z" />
    <glyph glyph-name="uni044B" unicode="&#x44b;" horiz-adv-x="1519" 
d="M164 1044h192v-399h215q206 0 312 -80q116 -88 116 -248q0 -143 -98 -231q-97 -86 -291 -86h-446v1044zM356 489v-333h250q113 0 162 53q39 41 39 113q0 78 -49 120q-53 47 -183 47h-219zM1163 0v1044h193v-1044h-193z" />
    <glyph glyph-name="uni044C" unicode="&#x44c;" horiz-adv-x="1056" 
d="M164 1044h192v-399h215q206 0 312 -80q116 -88 116 -248q0 -143 -98 -231q-97 -86 -291 -86h-446v1044zM356 489v-333h250q113 0 162 53q39 41 39 113q0 78 -49 120q-53 47 -183 47h-219z" />
    <glyph glyph-name="uni044D" unicode="&#x44d;" horiz-adv-x="997" 
d="M117 864l-17 156q129 41 267 41q227 0 368 -123q76 -67 122 -173.5t46 -234.5q0 -109 -33 -213t-98 -176q-143 -157 -418 -157q-133 0 -262 43l14 170q121 -58 248 -58q182 0 271 107q34 40 53.5 99t19.5 122h-419v151h411q-6 111 -72 187q-89 100 -264 100q-28 0 -55 -2
t-49 -5.5t-40.5 -7t-35 -8t-26 -7.5t-20.5 -7z" />
    <glyph glyph-name="uni044E" unicode="&#x44e;" horiz-adv-x="1683" 
d="M356 621h187q25 194 168 319q137 121 348 121q247 0 395 -164q67 -74 101 -172.5t34 -202.5t-34 -202.5t-101 -172.5q-150 -163 -395 -163q-256 0 -402 172q-104 122 -120 309h-181v-465h-192v1044h192v-423zM1059 905q-74 0 -138.5 -34t-107.5 -89q-80 -105 -80 -260
q0 -157 80 -260q91 -123 246 -123t246 123q79 102 79 260t-79 260q-46 61 -111 92t-135 31z" />
    <glyph glyph-name="uni044F" unicode="&#x44f;" horiz-adv-x="1077" 
d="M913 1044v-1044h-192v412h-191l-211 -412h-227l246 446q-102 20 -162 95q-63 75 -63 194q0 69 29.5 127.5t76.5 98.5q45 37 109 60t131 23h454zM721 899h-215q-90 0 -141 -51q-48 -48 -48 -121q0 -71 48 -119q51 -53 141 -53h215v344z" />
    <glyph glyph-name="uni0451" unicode="&#x451;" 
d="M1044 479h-745q3 -139 88 -231q98 -109 262 -109q79 0 166.5 30.5t149.5 74.5v-193l-29 -10l-34 -13q-34 -13 -49.5 -16.5t-51.5 -12.5t-76.5 -12t-89.5 -3q-266 0 -406 149q-135 146 -135 393q0 271 162 416q132 119 328 119q228 0 346 -148q56 -69 85 -171t29 -207v-56
zM299 623h541q3 108 -60 188q-76 94 -207 94q-130 0 -208 -104q-56 -77 -66 -178zM305 1270v205h193v-205h-193zM641 1270v205h193v-205h-193z" />
    <glyph glyph-name="uni0452" unicode="&#x452;" horiz-adv-x="1236" 
d="M356 1341h416v-110h-416v-336h4q51 74 138 121q86 45 198 45q196 0 295 -115q96 -112 96 -325v-140q0 -276 -34 -399q-43 -156 -133 -264q-88 -107 -211 -172l-111 104q111 60 184 156q64 86 90 209q23 105 23 362v64q0 213 -66 295q-57 69 -170 69q-121 0 -204 -90
q-99 -110 -99 -332v-483h-192v1231h-154v110h154v220h192v-220z" />
    <glyph glyph-name="uni0453" unicode="&#x453;" horiz-adv-x="860" 
d="M164 1044h686v-163h-494v-881h-192v1044zM395 1249l160 267h246l-242 -267h-164z" />
    <glyph glyph-name="uni0454" unicode="&#x454;" horiz-adv-x="1001" 
d="M899 1020l-16 -156q-111 43 -238 43q-178 0 -264 -102q-66 -76 -72 -187h406v-151h-414q0 -17 2.5 -42.5t20 -80t47.5 -92.5q40 -52 110.5 -83.5t163.5 -31.5q136 0 248 60l14 -170q-129 -43 -262 -43q-284 0 -430 172q-123 145 -123 374q0 257 172 408q145 123 361 123
q141 0 274 -41z" />
    <glyph glyph-name="uni0455" unicode="&#x455;" horiz-adv-x="831" 
d="M98 41l11 170q126 -74 243 -74q97 0 154 53q39 39 39 95q0 53 -51 94q-52 41 -140 82l-41 18q-55 24 -107 63t-79 79q-35 54 -35 127q0 139 92 223q97 90 277 90q118 0 239 -41l-16 -164q-44 24 -88 35q-61 14 -113 14q-83 0 -127 -24q-59 -32 -59 -99q0 -15 3.5 -28.5
t7.5 -24.5t14 -22t16 -18.5t21 -17.5t22 -15t25.5 -14t25.5 -12t27.5 -12.5t25.5 -11.5l31 -14q46 -22 71 -35t61 -40t57 -58q45 -68 45 -162q0 -140 -107 -229q-102 -84 -272 -84q-148 0 -273 57z" />
    <glyph glyph-name="uni0456" unicode="&#x456;" horiz-adv-x="520" 
d="M164 0v1044h192v-1044h-192zM369 1475v-218h-217v218h217z" />
    <glyph glyph-name="uni0457" unicode="&#x457;" horiz-adv-x="520" 
d="M164 0v1044h192v-1044h-192zM45 1270v205h164v-205h-164zM311 1270v205h164v-205h-164z" />
    <glyph glyph-name="uni0458" unicode="&#x458;" horiz-adv-x="520" 
d="M-57 -451l6 166q34 -6 57 -6h21q67 3 100 55q37 58 37 166v1114h192v-1085q0 -68 -3 -113t-19 -105.5t-47 -100.5q-46 -60 -109 -79.5t-145 -19.5q-49 0 -90 8zM369 1475v-218h-217v218h217z" />
    <glyph glyph-name="uni0459" unicode="&#x459;" horiz-adv-x="1638" 
d="M948 645h205q205 0 311 -80q117 -88 117 -248q0 -143 -98 -231q-97 -86 -291 -86h-436v889h-328l-6 -271q-4 -221 -15.5 -322t-37.5 -163q-33 -80 -88.5 -114.5t-145.5 -34.5q-57 0 -119 16l25 154q44 -11 59 -11q33 0 56.5 13t35.5 37t17.5 42t9.5 44q6 36 9.5 81.5
t4.5 70.5t2.5 95.5t2.5 91.5l10 426h700v-399zM948 489v-333h240q113 0 162 53q39 41 39 113q0 77 -50 120q-53 47 -182 47h-209z" />
    <glyph glyph-name="uni045A" unicode="&#x45a;" horiz-adv-x="1748" 
d="M1059 645h205q205 0 311 -80q117 -88 117 -248q0 -142 -99 -231q-97 -86 -290 -86h-437v489h-510v-489h-192v1044h192v-399h510v399h193v-399zM1059 489v-333h239q113 0 162 53q39 41 39 113q0 78 -49 120q-53 47 -182 47h-209z" />
    <glyph glyph-name="uni045B" unicode="&#x45b;" horiz-adv-x="1236" 
d="M1087 621v-621h-192v541q0 213 -66 295q-57 69 -170 69q-121 0 -204 -90q-99 -110 -99 -332v-483h-192v1231h-154v110h154v220h192v-220h416v-110h-416v-336h4q51 74 138 121q86 45 198 45q196 0 295 -115q96 -112 96 -325z" />
    <glyph glyph-name="uni045C" unicode="&#x45c;" horiz-adv-x="1136" 
d="M164 0v1044h192v-458l420 458h262l-485 -497l545 -547h-273l-469 502v-502h-192zM477 1249l160 267h246l-242 -267h-164z" />
    <glyph glyph-name="uni045E" unicode="&#x45e;" horiz-adv-x="999" 
d="M74 -444l12 157q56 -16 92 -16q76 0 131 55q53 53 84 162l13 45l-25 78l-367 1007h211l287 -858h4l281 858h194l-391 -1083q-82 -227 -137 -295q-98 -125 -268 -125q-53 0 -111 13zM688 1552l133 -16q-3 -69 -31.5 -124t-70.5 -87q-39 -30 -97.5 -46.5t-117.5 -16.5
t-117.5 16.5t-97.5 46.5q-42 32 -71 87t-32 124l133 16q9 -60 50 -94q45 -41 135 -41t135 41q40 33 49 94z" />
    <glyph glyph-name="uni045F" unicode="&#x45f;" horiz-adv-x="1224" 
d="M868 1044h193v-1044h-356v-295h-185v295h-356v1044h192v-888h512v888z" />
    <glyph glyph-name="uni0462" unicode="&#x462;" horiz-adv-x="1339" 
d="M-10 1307h364v184h205v-184h410v-181h-410v-270h111h84t84 -4.5t98.5 -13t85 -27t84.5 -45.5q73 -54 117.5 -143t44.5 -199q0 -107 -36 -184.5t-89 -124.5q-55 -49 -125 -74q-108 -41 -295 -41h-369v1126h-364v181zM559 676v-496h141q57 0 94 2t93 17t90 43q47 38 63 100
q11 37 11 84q0 57 -21 106q-19 46 -51 74q-19 18 -41 31t-51 20t-45.5 11.5t-52.5 6t-42 1.5h-42h-146z" />
    <glyph glyph-name="uni0463" unicode="&#x463;" horiz-adv-x="1181" 
d="M-10 1044h299v390h192v-390h348v-163h-348v-236h215q206 0 312 -80q116 -88 116 -248q0 -143 -98 -231q-47 -42 -121 -66q-66 -20 -170 -20h-446v889h-299v155zM481 489v-333h250q113 0 162 53q22 22 31 53q8 24 8 60q0 41 -14 73q-12 27 -35 47q-53 47 -183 47h-219z
" />
    <glyph glyph-name="uni0472" unicode="&#x472;" horiz-adv-x="1593" 
d="M797 1454q324 0 512 -217q82 -94 129 -227.5t47 -292.5q0 -161 -48 -295.5t-128 -226.5q-186 -215 -512 -215t-512 215q-80 92 -128 226.5t-48 295.5q0 159 47 292.5t129 227.5q188 217 512 217zM336 834h921q-9 72 -38 146.5t-72 129.5q-56 71 -144.5 117.5t-205.5 46.5
t-206 -46.5t-145 -117.5q-43 -55 -72 -129.5t-38 -146.5zM1266 653h-938q8 -90 39 -178t79 -151q128 -164 351 -164q222 0 350 164q49 63 80 151.5t39 177.5z" />
    <glyph glyph-name="uni0473" unicode="&#x473;" horiz-adv-x="1249" 
d="M625 1061q248 0 395 -164q67 -74 101 -172.5t34 -202.5t-34 -202.5t-101 -172.5q-146 -163 -395 -163q-136 0 -235 47t-161 116q-67 74 -101 172.5t-34 202.5t34 202.5t101 172.5q62 70 161 117t235 47zM307 614h635q-17 97 -72 168q-46 61 -110.5 92t-134.5 31
q-74 0 -139.5 -34t-106.5 -89q-55 -71 -72 -168zM948 471h-647q10 -118 78 -209q46 -61 111 -92t135 -31t134.5 31t110.5 92q68 91 78 209z" />
    <glyph glyph-name="uni0474" unicode="&#x474;" horiz-adv-x="1495" 
d="M12 1434h230l448 -1254h4l369 1045q17 47 38 83.5t56 71.5t88.5 54.5t122.5 19.5q62 0 115 -20l-6 -179q-38 17 -80 17q-121 0 -168 -131l-422 -1141h-256z" />
    <glyph glyph-name="uni0475" unicode="&#x475;" horiz-adv-x="1130" 
d="M23 1044h210l283 -851h4l217 665q9 29 17.5 50t29 52t45.5 51t67 35t93 15q53 0 119 -17l-25 -155q-35 12 -59 12q-34 0 -58.5 -10.5t-39.5 -32t-21.5 -35.5t-15.5 -39l-271 -784h-221z" />
    <glyph glyph-name="uni0490" unicode="&#x490;" horiz-adv-x="972" 
d="M193 1434h567v286h192v-467h-555v-1253h-204v1434z" />
    <glyph glyph-name="uni0491" unicode="&#x491;" horiz-adv-x="860" 
d="M164 1044h502v246h184v-409h-494v-881h-192v1044z" />
    <glyph glyph-name="uni0492" unicode="&#x492;" horiz-adv-x="972" 
d="M193 0v702h-140v132h140v600h759v-181h-555v-419h369v-132h-369v-702h-204z" />
    <glyph glyph-name="uni0493" unicode="&#x493;" horiz-adv-x="860" 
d="M164 1044h686v-163h-494v-308h314v-110h-314v-463h-192v463h-154v110h154v471z" />
    <glyph glyph-name="uni0494" unicode="&#x494;" horiz-adv-x="1339" 
d="M193 0v1434h759v-181h-555v-426q30 21 62 37q49 25 94 39q106 35 203 35q125 0 213 -35q79 -31 135 -90q113 -118 113 -352q0 -190 -70 -307q-105 -174 -361 -174q-89 0 -174 26l15 168q71 -29 153 -29q58 0 103 23q45 20 73 65q24 38 36 100.5t12 121.5q0 157 -66 239
q-36 42 -82 60q-51 20 -133 20q-55 0 -96 -8q-42 -8 -97 -29q-68 -27 -133 -75v-662h-204z" />
    <glyph glyph-name="uni0495" unicode="&#x495;" horiz-adv-x="1024" 
d="M164 1044h686v-163h-494v-273h80q219 0 340 -98q84 -68 115 -163.5t31 -213.5q0 -107 -25 -192q-38 -122 -125 -197q-126 -113 -350 -113v156q27 0 41 2q119 12 182 90q40 48 57 121q15 64 15 133q0 88 -21 152q-19 55 -53 92q-41 41 -94 59q-52 17 -117 17h-76v-453
h-192v1044z" />
    <glyph glyph-name="uni0496" unicode="&#x496;" horiz-adv-x="1933" 
d="M1055 1434v-631h14l514 631h242l-559 -678l463 -576h163v-499h-200v319h-82l-541 702h-14v-702h-205v702h-14l-541 -702h-266l610 756l-559 678h242l514 -631h14v631h205z" />
    <glyph glyph-name="uni0497" unicode="&#x497;" horiz-adv-x="1576" 
d="M870 1044v-458h15l344 458h233l-395 -497l326 -391h159v-451h-184v295h-90l-393 502h-15v-502h-192v502h-14l-392 -502h-245l454 547l-395 497h233l345 -458h14v458h192z" />
    <glyph glyph-name="uni0498" unicode="&#x498;" horiz-adv-x="1173" 
d="M379 821h92q75 0 139 17q66 15 101 43q38 25 61 73q23 47 23 105q0 43 -19 86q-19 42 -53 69q-46 37 -105 50q-41 10 -102 10q-176 0 -350 -78l-21 188q194 70 390 70q63 0 109 -4.5t112 -26.5t118 -63q75 -59 109 -141q29 -68 29 -152q0 -132 -74 -215q-36 -39 -88 -64
q-54 -24 -94 -34v-9q66 -9 124 -38.5t95 -69.5q38 -41 61 -102q23 -62 23 -136q0 -197 -164 -317q-61 -45 -125 -68q-68 -24 -143 -30v-303h-201v303q-164 11 -324 86l23 186q188 -96 381 -96q152 0 237 59q99 67 99 187q0 117 -80 180q-83 67 -254 67h-129v168z" />
    <glyph glyph-name="uni0499" unicode="&#x499;" horiz-adv-x="987" 
d="M307 471v143h135q43 0 93 13q37 10 63 30q22 17 37 50q10 20 10 55q0 34 -16 63q-14 26 -45 43q-36 19 -70 27q-39 10 -96 10q-144 0 -283 -63l-4 159q171 60 318 60q193 0 296 -70q53 -37 78 -86q31 -60 31 -129q0 -86 -51 -147q-31 -34 -66 -51q-48 -23 -75 -29v-4
q104 -15 163 -74q39 -36 54 -82q14 -41 14 -90q0 -167 -156 -254q-49 -25 -94 -39q-48 -13 -90 -16v-285h-184v285q-154 12 -287 71l20 158q78 -35 169.5 -57.5t166.5 -22.5q123 0 187 51q55 44 55 115q0 98 -76 137q-52 29 -172 29h-125z" />
    <glyph glyph-name="uni049A" unicode="&#x49a;" horiz-adv-x="1368" 
d="M193 0v1434h204v-631l611 631h272l-672 -678l555 -576h164v-499h-201v319h-90l-639 702v-702h-204z" />
    <glyph glyph-name="uni049B" unicode="&#x49b;" horiz-adv-x="1126" 
d="M164 0v1044h192v-458l420 458h262l-485 -497l393 -391h156v-451h-184v295h-91l-471 502v-502h-192z" />
    <glyph glyph-name="uni049C" unicode="&#x49c;" horiz-adv-x="1523" 
d="M193 0v1434h204v-592h181v264h143v-264l479 592h250l-567 -678l608 -756h-266l-504 662v-293h-143v293h-181v-662h-204z" />
    <glyph glyph-name="uni049D" unicode="&#x49d;" horiz-adv-x="1228" 
d="M164 1044h192v-421h115v176h123v-176l342 421h225l-424 -497l471 -547h-245l-369 467v-180h-123v180h-115v-467h-192v1044z" />
    <glyph glyph-name="uni04A0" unicode="&#x4a0;" horiz-adv-x="1527" 
d="M-10 1434h569v-631l610 631h273l-672 -678l725 -756h-299l-637 702v-702h-205v1253h-364v181z" />
    <glyph glyph-name="uni04A1" unicode="&#x4a1;" horiz-adv-x="1261" 
d="M-10 1044h491v-458l420 458h262l-485 -497l545 -547h-273l-469 502v-502h-192v889h-299v155z" />
    <glyph glyph-name="uni04A2" unicode="&#x4a2;" horiz-adv-x="1490" 
d="M193 0v1434h204v-600h684v600h205v-1254h164v-499h-201v319h-168v653h-684v-653h-204z" />
    <glyph glyph-name="uni04A3" unicode="&#x4a3;" horiz-adv-x="1253" 
d="M356 1044v-423h533v423h192v-888h148v-451h-185v295h-155v465h-533v-465h-192v1044h192z" />
    <glyph glyph-name="uni04A4" unicode="&#x4a4;" horiz-adv-x="1843" 
d="M193 1434h204v-600h664v600h762v-181h-557v-1253h-205v653h-664v-653h-204v1434z" />
    <glyph glyph-name="uni04A5" unicode="&#x4a5;" horiz-adv-x="1585" 
d="M356 1044v-423h533v423h686v-163h-494v-881h-192v465h-533v-465h-192v1044h192z" />
    <glyph glyph-name="uni04AA" unicode="&#x4aa;" horiz-adv-x="1280" 
d="M1186 1393l-17 -199q-136 80 -295 80q-205 0 -350 -115q-91 -71 -144.5 -184.5t-53.5 -257.5q0 -227 135 -381q150 -176 434 -176q92 0 192 33q56 18 89 34l12 -196q-106 -37 -195 -47v-303h-200v303q-147 6 -275 62t-213 144q-87 89 -141.5 226t-54.5 303q0 52 5.5 102
t22.5 116t45 125t77.5 122.5t115.5 113.5q203 156 499 156q182 0 312 -61z" />
    <glyph glyph-name="uni04AB" unicode="&#x4ab;" horiz-adv-x="909" 
d="M844 1020l-17 -160q-102 45 -209 45q-122 0 -215 -80q-56 -50 -88 -131t-32 -172q0 -161 79 -262q44 -54 114.5 -87.5t154.5 -33.5q73 0 147 29q34 14 60 31l14 -172q-66 -34 -133 -37v-285h-184v285q-196 26 -318 162q-139 150 -139 378q0 114 43 222.5t137 187.5
q146 121 352 121q121 0 234 -41z" />
    <glyph glyph-name="uni04AE" unicode="&#x4ae;" horiz-adv-x="1366" 
d="M582 0v600l-559 834h239l426 -643l416 643h239l-557 -834v-600h-204z" />
    <glyph glyph-name="uni04AF" unicode="&#x4af;" horiz-adv-x="1007" 
d="M225 1044l287 -833h4l281 833h194l-391 -1044v-459h-192v459l-394 1044h211z" />
    <glyph glyph-name="uni04B0" unicode="&#x4b0;" horiz-adv-x="1366" 
d="M582 0v469h-369v131h369l-559 834h239l426 -643l416 643h239l-557 -834h369v-131h-369v-469h-204z" />
    <glyph glyph-name="uni04B1" unicode="&#x4b1;" horiz-adv-x="1007" 
d="M225 1044l287 -833h4l281 833h194l-391 -1044h287v-111h-287v-348h-192v348h-287v111h287l-394 1044h211z" />
    <glyph glyph-name="uni04B2" unicode="&#x4b2;" horiz-adv-x="1429" 
d="M16 0l527 745l-480 689h246l381 -551l379 551h234l-482 -684l404 -570h164v-499h-201v319h-94l-424 608l-408 -608h-246z" />
    <glyph glyph-name="uni04B3" unicode="&#x4b3;" horiz-adv-x="1081" 
d="M20 0l377 547l-340 497h240l227 -372l232 372h215l-336 -497l262 -391h160v-451h-185v295h-106l-258 410l-258 -410h-230z" />
    <glyph glyph-name="uni04B6" unicode="&#x4b6;" horiz-adv-x="1349" 
d="M102 1434h205v-430q0 -34 1 -52t7 -51t22 -59.5t42 -48.5q42 -37 106 -50q49 -12 127 -12q94 0 160 10q79 11 168 37v656h205v-1254h164v-499h-201v319h-168v600q-186 -49 -365 -49q-294 0 -403 137q-70 87 -70 246v500z" />
    <glyph glyph-name="uni04B7" unicode="&#x4b7;" horiz-adv-x="1105" 
d="M92 1044h193v-307q0 -53 6 -80q15 -57 51 -84q34 -25 96 -32q25 -4 76 -4q54 0 107 6q63 6 120 20v481h193v-888h147v-451h-184v295h-156v412q-61 -12 -123 -21q-82 -10 -149 -10q-184 0 -279 78q-98 81 -98 221v364z" />
    <glyph glyph-name="uni04B8" unicode="&#x4b8;" horiz-adv-x="1337" 
d="M102 1434h205v-430q0 -35 1 -52.5t7 -51t22 -59.5t42 -48q42 -37 106 -50q45 -10 80 -10v250h144v-250q129 10 231 45v656h205v-1434h-205v600q-53 -15 -133 -29q-50 -9 -98 -12v-252h-144v252q-111 -3 -220 28.5t-169 100.5q-74 84 -74 246v500z" />
    <glyph glyph-name="uni04B9" unicode="&#x4b9;" horiz-adv-x="1097" 
d="M741 0v412q-79 -21 -163 -27v-180h-123v180q-50 -2 -121 12q-89 17 -144 62q-65 52 -86 127q-12 46 -12 94v364h193v-307q0 -53 6 -80q15 -57 51 -84q23 -18 61 -28q24 -6 52 -6v198h123v-198q81 3 163 24v481h193v-1044h-193z" />
    <glyph glyph-name="uni04BA" unicode="&#x4ba;" horiz-adv-x="1374" 
d="M193 0v1434h204v-607q79 44 168 72q65 22 110.5 30.5t112.5 8.5q195 0 299 -84q73 -58 98 -132t25 -161v-561h-204v504q0 76 -11.5 122t-54.5 85q-69 63 -195 63q-79 0 -190 -39q-90 -32 -158 -73v-662h-204z" />
    <glyph glyph-name="uni04BB" unicode="&#x4bb;" horiz-adv-x="1236" 
d="M164 0v1561h192v-666h4q51 74 138 121q86 45 198 45q196 0 295 -115q96 -112 96 -325v-621h-192v541q0 213 -66 295q-57 69 -170 69q-121 0 -204 -90q-99 -110 -99 -332v-483h-192z" />
    <glyph glyph-name="uni04C0" unicode="&#x4c0;" horiz-adv-x="589" 
d="M193 0v1434h204v-1434h-204z" />
    <glyph glyph-name="uni04C3" unicode="&#x4c3;" horiz-adv-x="1351" 
d="M193 0v1434h204v-631l609 631h272l-625 -633q102 3 223.5 -23.5t202.5 -81.5q61 -41 102.5 -96t61.5 -119t27.5 -122t7.5 -128q0 -318 -186 -491q-167 -154 -437 -150v181q104 0 183 32q71 27 125 91q98 118 98 337q0 204 -107 299q-102 91 -313 91h-244v-621h-204z" />
    <glyph glyph-name="uni04C4" unicode="&#x4c4;" horiz-adv-x="1126" 
d="M164 0v1044h192v-458l420 458h262l-430 -436q63 0 135 -20q95 -28 156 -78q71 -58 105 -137q40 -90 40 -240q0 -111 -24 -192q-38 -122 -125 -197q-71 -65 -166 -90q-65 -18 -131 -21q-18 -2 -53 -2v156q70 0 133 25q49 20 90 67q72 89 72 254q0 166 -74 244
q-74 76 -231 76h-179v-453h-192z" />
    <glyph glyph-name="uni04C7" unicode="&#x4c7;" horiz-adv-x="1478" 
d="M193 0v1434h204v-600h684v600h205v-1414q0 -110 -21.5 -192.5t-90.5 -144.5q-107 -93 -295 -93q-92 0 -160 25v176q70 -20 135 -20q61 0 111 20q40 16 63 45q32 37 45 92q8 41 8 92v633h-684v-653h-204z" />
    <glyph glyph-name="uni04C8" unicode="&#x4c8;" horiz-adv-x="1245" 
d="M356 1044v-423h533v423h192v-1064q0 -203 -69 -291q-46 -60 -109 -79.5t-145 -19.5q-44 0 -90 9l6 165l31 -4q10 -2 32 -2q43 0 76 17q24 15 39 39q13 20 25 59q12 52 12 107v485h-533v-465h-192v1044h192z" />
    <glyph glyph-name="uni04CF" unicode="&#x4cf;" horiz-adv-x="520" 
d="M164 0v1434h192v-1434h-192z" />
    <glyph glyph-name="uni04D0" unicode="&#x4d0;" horiz-adv-x="1478" 
d="M25 0l610 1434h215l604 -1434h-223l-146 362h-700l-145 -362h-215zM1020 530l-285 711l-284 -711h569zM944 1829l137 -17q-4 -68 -33.5 -121t-72.5 -85q-38 -28 -100 -45t-121 -17t-121.5 17.5t-100.5 44.5q-43 32 -72.5 85t-33.5 121l137 17q11 -52 51 -92
q45 -41 140 -41q94 0 139 41q40 40 51 92z" />
    <glyph glyph-name="uni04D1" unicode="&#x4d1;" 
d="M223 803l-12 168q150 90 360 90q205 0 308 -103q62 -62 80 -138.5t18 -184.5v-424q0 -160 8 -211h-180v141h-4q-60 -82 -151.5 -119.5t-190.5 -37.5q-70 0 -137 19.5t-113 53.5q-115 85 -115 238q0 31 6.5 63.5t23 72t51 77t83.5 65.5q118 70 395 70q61 0 131 -4v57
q0 101 -61 154q-64 55 -191 55q-166 0 -309 -102zM784 408v90q-74 4 -110 4q-214 0 -299 -58q-76 -51 -76 -139q0 -80 55 -121q57 -45 150 -45q60 0 117 21.5t94 60.5q69 73 69 187zM754 1552l133 -16q-3 -69 -32 -124t-71 -87q-39 -30 -97.5 -46.5t-117.5 -16.5
t-117.5 16.5t-97.5 46.5q-42 32 -70.5 87t-31.5 124l133 16q9 -61 49 -94q45 -41 135 -41q91 0 136 41q40 33 49 94z" />
    <glyph glyph-name="uni04D2" unicode="&#x4d2;" horiz-adv-x="1478" 
d="M25 0l610 1434h215l604 -1434h-223l-146 362h-700l-145 -362h-215zM1020 530l-285 711l-284 -711h569zM408 1745h217v-205h-217v205zM850 1745h217v-205h-217v205z" />
    <glyph glyph-name="uni04D3" unicode="&#x4d3;" 
d="M223 803l-12 168q150 90 360 90q205 0 308 -103q62 -62 80 -138.5t18 -184.5v-424q0 -160 8 -211h-180v141h-4q-60 -82 -151.5 -119.5t-190.5 -37.5q-70 0 -137 19.5t-113 53.5q-115 85 -115 238q0 31 6.5 63.5t23 72t51 77t83.5 65.5q118 70 395 70q61 0 131 -4v57
q0 101 -61 154q-64 55 -191 55q-166 0 -309 -102zM784 408v90q-74 4 -110 4q-214 0 -299 -58q-76 -51 -76 -139q0 -80 55 -121q57 -45 150 -45q60 0 117 21.5t94 60.5q69 73 69 187zM305 1270v205h193v-205h-193zM641 1270v205h193v-205h-193z" />
    <glyph glyph-name="uni04D4" unicode="&#x4d4;" horiz-adv-x="1933" 
d="M4 0l864 1434h899v-181h-567l27 -422h504v-180h-494l29 -471h522v-180h-711l-22 360h-609l-215 -360h-227zM1044 528l-45 758h-4l-450 -758h499z" />
    <glyph glyph-name="uni04D5" unicode="&#x4d5;" horiz-adv-x="1820" 
d="M219 803l-10 160q160 98 346 98q113 0 211 -44.5t149 -135.5q53 92 149 136t214 44q103 0 183.5 -32t131.5 -85.5t84 -130t46.5 -158t13.5 -176.5h-740q0 -143 97.5 -242.5t244.5 -99.5q73 0 151.5 30.5t137.5 76.5v-191q-151 -69 -299 -69q-71 0 -136.5 12t-128.5 38.5
t-112 75t-73 113.5h-5q-31 -115 -141 -177t-246 -62q-100 0 -190.5 37t-151.5 114t-61 178q0 81 36 143t89 96.5t125 56t132 28t122 6.5q61 0 131 -5.5t86 -4.5q0 142 -81 208t-214 66q-71 0 -149 -29t-142 -75zM289 307q0 -81 61 -125.5t144 -44.5q135 0 223 106.5
t88 252.5q-8 0 -69 3t-115 3q-51 0 -99.5 -7t-105.5 -25.5t-92 -60.5t-35 -102zM997 621h535q0 109 -72 197.5t-184 88.5q-124 0 -201.5 -82t-77.5 -204z" />
    <glyph glyph-name="uni04D6" unicode="&#x4d6;" horiz-adv-x="1134" 
d="M193 0v1434h800v-181h-596v-419h543v-181h-543v-473h596v-180h-800zM774 1829l137 -17q-4 -68 -33.5 -121t-72.5 -85q-38 -28 -100 -45t-121 -17t-121.5 17.5t-100.5 44.5q-43 32 -72.5 85t-33.5 121l137 17q11 -52 51 -92q45 -41 140 -41q94 0 139 41q40 40 51 92z" />
    <glyph glyph-name="uni04D7" unicode="&#x4d7;" 
d="M1044 479h-745q3 -139 88 -231q98 -109 262 -109q79 0 166.5 30.5t149.5 74.5v-193l-29 -10l-34 -13q-34 -13 -49.5 -16.5t-51.5 -12.5t-76.5 -12t-89.5 -3q-266 0 -406 149q-135 146 -135 393q0 271 162 416q132 119 328 119q228 0 346 -148q56 -69 85 -171t29 -207v-56
zM299 623h541q3 108 -60 188q-76 94 -207 94q-130 0 -208 -104q-56 -77 -66 -178zM754 1552l133 -16q-3 -69 -32 -124t-71 -87q-39 -30 -97.5 -46.5t-117.5 -16.5t-117.5 16.5t-97.5 46.5q-42 32 -70.5 87t-31.5 124l133 16q9 -61 49 -94q45 -41 135 -41q91 0 136 41
q40 33 49 94z" />
    <glyph glyph-name="uni04D8" unicode="&#x4d8;" horiz-adv-x="1363" 
d="M109 768h929q0 23 -2 48t-10.5 80.5t-34 114t-63.5 105.5q-58 71 -144.5 114.5t-191.5 43.5q-101 0 -201.5 -40t-183.5 -104v232l35 14q108 45 167 58q88 20 199 20q91 0 166 -13.5t164 -61.5t156 -130q161 -196 161 -538q0 -373 -192 -570q-158 -161 -391 -161
q-275 0 -422 202q-141 193 -141 518v68zM1038 588h-704q0 -75 21.5 -153.5t60.5 -135.5q95 -139 268 -139q170 0 270 155q74 114 84 273z" />
    <glyph glyph-name="uni04D9" unicode="&#x4d9;" 
d="M94 565h746q-3 140 -88 232q-44 49 -111.5 78.5t-151.5 29.5q-79 0 -166 -30t-149 -74v192l29 11l34 13q34 13 49.5 16.5t51.5 12.5t76.5 12t89.5 3q264 0 405 -150q135 -146 135 -393q0 -272 -161 -416q-130 -118 -328 -118q-229 0 -346 147q-56 69 -85.5 171.5
t-29.5 207.5v55zM840 422h-541q-3 -110 59 -189q76 -94 207 -94q130 0 209 105q56 77 66 178z" />
    <glyph glyph-name="uni04DA" unicode="&#x4da;" horiz-adv-x="1363" 
d="M109 768h929q0 23 -2 48t-10.5 80.5t-34 114t-63.5 105.5q-58 71 -144.5 114.5t-191.5 43.5q-101 0 -201.5 -40t-183.5 -104v232l35 14q108 45 167 58q88 20 199 20q91 0 166 -13.5t164 -61.5t156 -130q161 -196 161 -538q0 -373 -192 -570q-158 -161 -391 -161
q-275 0 -422 202q-141 193 -141 518v68zM1038 588h-704q0 -75 21.5 -153.5t60.5 -135.5q95 -139 268 -139q170 0 270 155q74 114 84 273zM350 1745h217v-205h-217v205zM793 1745h217v-205h-217v205z" />
    <glyph glyph-name="uni04DB" unicode="&#x4db;" 
d="M94 565h746q-3 140 -88 232q-44 49 -111.5 78.5t-151.5 29.5q-79 0 -166 -30t-149 -74v192l29 11l34 13q34 13 49.5 16.5t51.5 12.5t76.5 12t89.5 3q264 0 405 -150q135 -146 135 -393q0 -272 -161 -416q-130 -118 -328 -118q-229 0 -346 147q-56 69 -85.5 171.5
t-29.5 207.5v55zM840 422h-541q-3 -110 59 -189q76 -94 207 -94q130 0 209 105q56 77 66 178zM305 1270v205h193v-205h-193zM641 1270v205h193v-205h-193z" />
    <glyph glyph-name="uni04DC" unicode="&#x4dc;" horiz-adv-x="1908" 
d="M1055 1434v-631h14l514 631h242l-559 -678l610 -756h-266l-541 702h-14v-702h-205v702h-14l-541 -702h-266l610 756l-559 678h242l514 -631h14v631h205zM623 1745h217v-205h-217v205zM1065 1745h217v-205h-217v205z" />
    <glyph glyph-name="uni04DD" unicode="&#x4dd;" horiz-adv-x="1548" 
d="M870 1044v-458h15l344 458h233l-395 -497l455 -547h-246l-391 502h-15v-502h-192v502h-14l-392 -502h-245l454 547l-395 497h233l345 -458h14v458h192zM510 1270v205h192v-205h-192zM846 1270v205h192v-205h-192z" />
    <glyph glyph-name="uni04DE" unicode="&#x4de;" horiz-adv-x="1173" 
d="M379 821h92q160 0 240 60q84 61 84 178q0 97 -72 155q-72 60 -207 60q-176 0 -350 -78l-21 188q194 70 390 70q63 0 109 -4.5t112 -26.5t118 -63q138 -108 138 -293q0 -132 -74 -215q-31 -34 -82.5 -60t-99.5 -38v-9q66 -9 124 -38.5t95 -69.5q84 -91 84 -238
q0 -197 -164 -317q-137 -102 -385 -102q-214 0 -408 90l23 186q188 -96 381 -96q152 0 237 59q99 67 99 187q0 117 -80 180q-83 67 -254 67h-129v168zM254 1745h217v-205h-217v205zM696 1745h217v-205h-217v205z" />
    <glyph glyph-name="uni04DF" unicode="&#x4df;" horiz-adv-x="987" 
d="M307 471v143h135q92 0 156 43q47 37 47 105q0 70 -61 106q-60 37 -166 37q-144 0 -283 -63l-4 159q171 60 318 60q193 0 296 -70q51 -35 80 -90.5t29 -124.5q0 -86 -51 -147q-26 -29 -64.5 -50.5t-76.5 -29.5v-4q104 -15 163 -74q68 -68 68 -172q0 -167 -156 -254
q-112 -61 -284 -61q-193 0 -371 77l20 158q78 -35 169.5 -57.5t166.5 -22.5q123 0 187 51q55 44 55 115q0 98 -76 137q-52 29 -172 29h-125zM229 1270v205h193v-205h-193zM565 1270v205h193v-205h-193z" />
    <glyph glyph-name="uni04E2" unicode="&#x4e2;" horiz-adv-x="1525" 
d="M193 0v1434h204v-977l-6 -178h10q45 90 129 225l574 930h229v-1434h-205v977l7 178h-11q-19 -40 -37.5 -74.5t-30 -53t-31.5 -49.5t-30 -48l-573 -930h-229zM434 1720h656v-143h-656v143z" />
    <glyph glyph-name="uni04E3" unicode="&#x4e3;" horiz-adv-x="1273" 
d="M356 1044v-788l562 788h192v-1044h-192v788l-562 -788h-192v1044h192zM334 1335v144h606v-144h-606z" />
    <glyph glyph-name="uni04E4" unicode="&#x4e4;" horiz-adv-x="1525" 
d="M193 0v1434h204v-977l-6 -178h10q45 90 129 225l574 930h229v-1434h-205v977l7 178h-11q-19 -40 -37.5 -74.5t-30 -53t-31.5 -49.5t-30 -48l-573 -930h-229zM430 1745h217v-205h-217v205zM872 1745h218v-205h-218v205z" />
    <glyph glyph-name="uni04E5" unicode="&#x4e5;" horiz-adv-x="1273" 
d="M356 1044v-788l562 788h192v-1044h-192v788l-562 -788h-192v1044h192zM373 1270v205h192v-205h-192zM709 1270v205h192v-205h-192z" />
    <glyph glyph-name="uni04E6" unicode="&#x4e6;" horiz-adv-x="1593" 
d="M797 1454q324 0 512 -217q82 -94 129 -227.5t47 -292.5q0 -161 -48 -295.5t-128 -226.5q-186 -215 -512 -215t-512 215q-80 92 -128 226.5t-48 295.5q0 159 47 292.5t129 227.5q188 217 512 217zM797 1274q-117 0 -206 -46.5t-145 -117.5q-55 -70 -87.5 -176.5
t-32.5 -216.5q0 -101 29.5 -207.5t90.5 -185.5q128 -164 351 -164q222 0 350 164q62 79 91.5 185.5t29.5 207.5q0 110 -32.5 216t-88.5 177t-144.5 117.5t-205.5 46.5zM465 1745h217v-205h-217v205zM907 1745h217v-205h-217v205z" />
    <glyph glyph-name="uni04E7" unicode="&#x4e7;" horiz-adv-x="1249" 
d="M625 1061q248 0 395 -164q67 -74 101 -172.5t34 -202.5t-34 -202.5t-101 -172.5q-146 -163 -395 -163q-136 0 -235 47t-161 116q-67 74 -101 172.5t-34 202.5t34 202.5t101 172.5q62 70 161 117t235 47zM625 905q-74 0 -138.5 -34t-107.5 -89q-80 -105 -80 -260
q0 -157 80 -260q91 -123 246 -123q154 0 245 123q80 103 80 260t-80 260q-46 61 -110.5 92t-134.5 31zM360 1270v205h193v-205h-193zM696 1270v205h193v-205h-193z" />
    <glyph glyph-name="uni04E8" unicode="&#x4e8;" horiz-adv-x="1593" 
d="M797 1454q324 0 512 -217q82 -94 129 -227.5t47 -292.5q0 -161 -48 -295.5t-128 -226.5q-186 -215 -512 -215t-512 215q-80 92 -128 226.5t-48 295.5q0 159 47 292.5t129 227.5q188 217 512 217zM336 834h921q-9 72 -38 146.5t-72 129.5q-56 71 -144.5 117.5t-205.5 46.5
t-206 -46.5t-145 -117.5q-43 -55 -72 -129.5t-38 -146.5zM1266 653h-938q8 -90 39 -178t79 -151q128 -164 351 -164q222 0 350 164q49 63 80 151.5t39 177.5z" />
    <glyph glyph-name="uni04E9" unicode="&#x4e9;" horiz-adv-x="1249" 
d="M625 1061q248 0 395 -164q67 -74 101 -172.5t34 -202.5t-34 -202.5t-101 -172.5q-146 -163 -395 -163q-136 0 -235 47t-161 116q-67 74 -101 172.5t-34 202.5t34 202.5t101 172.5q62 70 161 117t235 47zM307 614h635q-17 97 -72 168q-46 61 -110.5 92t-134.5 31
q-74 0 -139.5 -34t-106.5 -89q-55 -71 -72 -168zM948 471h-647q10 -118 78 -209q46 -61 111 -92t135 -31t134.5 31t110.5 92q68 91 78 209z" />
    <glyph glyph-name="uni04EA" unicode="&#x4ea;" horiz-adv-x="1593" 
d="M797 1454q324 0 512 -217q82 -94 129 -227.5t47 -292.5q0 -161 -48 -295.5t-128 -226.5q-186 -215 -512 -215t-512 215q-80 92 -128 226.5t-48 295.5q0 159 47 292.5t129 227.5q188 217 512 217zM336 834h921q-9 72 -38 146.5t-72 129.5q-56 71 -144.5 117.5t-205.5 46.5
t-206 -46.5t-145 -117.5q-43 -55 -72 -129.5t-38 -146.5zM1266 653h-938q8 -90 39 -178t79 -151q128 -164 351 -164q222 0 350 164q49 63 80 151.5t39 177.5zM465 1745h217v-205h-217v205zM907 1745h217v-205h-217v205z" />
    <glyph glyph-name="uni04EB" unicode="&#x4eb;" horiz-adv-x="1249" 
d="M625 1061q248 0 395 -164q67 -74 101 -172.5t34 -202.5t-34 -202.5t-101 -172.5q-146 -163 -395 -163q-136 0 -235 47t-161 116q-67 74 -101 172.5t-34 202.5t34 202.5t101 172.5q62 70 161 117t235 47zM307 614h635q-17 97 -72 168q-46 61 -110.5 92t-134.5 31
q-74 0 -139.5 -34t-106.5 -89q-55 -71 -72 -168zM948 471h-647q10 -118 78 -209q46 -61 111 -92t135 -31t134.5 31t110.5 92q68 91 78 209zM360 1270v205h193v-205h-193zM696 1270v205h193v-205h-193z" />
    <glyph glyph-name="uni04EE" unicode="&#x4ee;" horiz-adv-x="1189" 
d="M31 1434h231l373 -807h14l350 807h199l-545 -1227q-51 -116 -123 -170q-73 -57 -180 -57q-80 0 -170 28l23 178q65 -26 123 -26q57 0 96 28q15 11 36.5 38.5t28.5 47.5l48 117zM274 1720h656v-143h-656v143z" />
    <glyph glyph-name="uni04EF" unicode="&#x4ef;" horiz-adv-x="999" 
d="M74 -444l12 157q56 -16 92 -16q76 0 131 55q53 53 84 162l13 45l-25 78l-367 1007h211l287 -858h4l281 858h194l-391 -1083q-82 -227 -137 -295q-98 -125 -268 -125q-53 0 -111 13zM201 1335v144h606v-144h-606z" />
    <glyph glyph-name="uni04F0" unicode="&#x4f0;" horiz-adv-x="1189" 
d="M31 1434h231l373 -807h14l350 807h199l-545 -1227q-51 -116 -123 -170q-73 -57 -180 -57q-80 0 -170 28l23 178q65 -26 123 -26q57 0 96 28q15 11 36.5 38.5t28.5 47.5l48 117zM262 1745h217v-205h-217v205zM705 1745h217v-205h-217v205z" />
    <glyph glyph-name="uni04F1" unicode="&#x4f1;" horiz-adv-x="999" 
d="M74 -444l12 157q56 -16 92 -16q76 0 131 55q53 53 84 162l13 45l-25 78l-367 1007h211l287 -858h4l281 858h194l-391 -1083q-82 -227 -137 -295q-98 -125 -268 -125q-53 0 -111 13zM240 1270v205h192v-205h-192zM575 1270v205h193v-205h-193z" />
    <glyph glyph-name="uni04F2" unicode="&#x4f2;" horiz-adv-x="1189" 
d="M31 1434h231l373 -807h14l350 807h199l-545 -1227q-51 -116 -123 -170q-73 -57 -180 -57q-80 0 -170 28l23 178q65 -26 123 -26q57 0 96 28q15 11 36.5 38.5t28.5 47.5l48 117zM565 1782h246l-266 -246h-156zM889 1782h246l-267 -246h-155z" />
    <glyph glyph-name="uni04F3" unicode="&#x4f3;" horiz-adv-x="999" 
d="M74 -444l12 157q56 -16 92 -16q76 0 131 55q53 53 84 162l13 45l-25 78l-367 1007h211l287 -858h4l281 858h194l-391 -1083q-82 -227 -137 -295q-98 -125 -268 -125q-53 0 -111 13zM252 1249l180 267h225l-262 -267h-143zM623 1249l180 267h225l-262 -267h-143z" />
    <glyph glyph-name="uni04F4" unicode="&#x4f4;" horiz-adv-x="1337" 
d="M940 0v600q-186 -49 -365 -49q-294 0 -403 137q-70 87 -70 246v500h205v-430q0 -34 1 -52t7 -51t22 -59.5t42 -48.5q71 -62 233 -62q174 0 328 47v656h205v-1434h-205zM295 1745h217v-205h-217v205zM737 1745h217v-205h-217v205z" />
    <glyph glyph-name="uni04F5" unicode="&#x4f5;" horiz-adv-x="1097" 
d="M741 0v412q-139 -31 -272 -31q-184 0 -279 78q-98 81 -98 221v364h193v-307q0 -24 1.5 -41.5t6.5 -42t17.5 -45t31.5 -35.5q49 -36 172 -36q107 0 227 26v481h193v-1044h-193zM246 1270v205h192v-205h-192zM582 1270v205h192v-205h-192z" />
    <glyph glyph-name="uni04F8" unicode="&#x4f8;" horiz-adv-x="1701" 
d="M193 0v1434h204v-578h111h84t84 -4.5t98.5 -13t85 -27t84.5 -45.5q73 -54 117.5 -143t44.5 -199q0 -107 -36 -184.5t-89 -124.5q-78 -69 -182 -92t-238 -23h-368zM397 676v-496h142q56 0 93.5 2t93 17t89.5 43q74 64 74 184q0 112 -72 180q-19 18 -41 31t-51 20
t-45.5 11.5t-52.5 6t-42 1.5h-42h-146zM1305 0v1434h204v-1434h-204zM518 1745h217v-205h-217v205zM961 1745h217v-205h-217v205z" />
    <glyph glyph-name="uni04F9" unicode="&#x4f9;" horiz-adv-x="1519" 
d="M164 1044h192v-399h215q206 0 312 -80q116 -88 116 -248q0 -143 -98 -231q-97 -86 -291 -86h-446v1044zM356 489v-333h250q113 0 162 53q39 41 39 113q0 78 -49 120q-53 47 -183 47h-219zM1163 0v1044h193v-1044h-193zM496 1270v205h192v-205h-192zM831 1270v205h193
v-205h-193z" />
    <glyph glyph-name="uni1E9E" unicode="&#x1e9e;" horiz-adv-x="1380" 
d="M193 0v985q0 109 26.5 196.5t106.5 157.5q42 36 97 61t108.5 35.5t90 14.5t68.5 4q293 0 486 -174l-306 -416q71 -3 142.5 -26.5t120.5 -61.5q76 -57 104.5 -133.5t28.5 -175.5q0 -107 -31 -192.5t-115 -161.5q-149 -133 -377 -133q-97 0 -198 32l18 181q84 -33 172 -33
q148 0 232 84q82 78 82 213q0 142 -105 207q-85 53 -268 53h-62v100l283 393q-53 42 -127 56q-54 8 -78 8q-70 0 -130.5 -19t-96.5 -55q-68 -68 -68 -213v-987h-204z" />
    <glyph glyph-name="uni2010" unicode="&#x2010;" horiz-adv-x="860" 
d="M164 684h532v-205h-532v205z" />
    <glyph glyph-name="uni2011" unicode="&#x2011;" horiz-adv-x="860" 
d="M164 684h532v-205h-532v205z" />
    <glyph glyph-name="figuredash" unicode="&#x2012;" horiz-adv-x="1331" 
d="M143 655v144h1045v-144h-1045z" />
    <glyph glyph-name="endash" unicode="&#x2013;" horiz-adv-x="1331" 
d="M143 479v144h1045v-144h-1045z" />
    <glyph glyph-name="emdash" unicode="&#x2014;" horiz-adv-x="1884" 
d="M143 479v144h1598v-144h-1598z" />
    <glyph glyph-name="quoteleft" unicode="&#x2018;" horiz-adv-x="569" 
d="M463 1434l-127 -504h-230l177 504h180z" />
    <glyph glyph-name="quoteright" unicode="&#x2019;" horiz-adv-x="569" 
d="M106 930l127 504h230l-180 -504h-177z" />
    <glyph glyph-name="quotesinglbase" unicode="&#x201a;" horiz-adv-x="569" 
d="M106 -272l130 501h227l-174 -501h-183z" />
    <glyph glyph-name="quotedblleft" unicode="&#x201c;" 
d="M553 1434l-127 -504h-229l176 504h180zM942 1434l-131 -504h-225l172 504h184z" />
    <glyph glyph-name="quotedblright" unicode="&#x201d;" 
d="M197 930l129 504h227l-174 -504h-182zM586 930l129 504h227l-174 -504h-182z" />
    <glyph glyph-name="quotedblbase" unicode="&#x201e;" 
d="M197 -272l129 501h227l-174 -501h-182zM586 -272l129 501h227l-174 -501h-182z" />
    <glyph glyph-name="dagger" unicode="&#x2020;" 
d="M479 0v928h-342v143h342v359h180v-359h342v-143h-342v-928h-180z" />
    <glyph glyph-name="daggerdbl" unicode="&#x2021;" 
d="M1001 332h-342v-332h-180v332h-342v143h342v479h-342v144h342v332h180v-332h342v-144h-342v-479h342v-143z" />
    <glyph glyph-name="bullet" unicode="&#x2022;" horiz-adv-x="1024" 
d="M156 715q0 149 103.5 252.5t252.5 103.5q151 0 254.5 -103.5t103.5 -252.5q0 -151 -103.5 -255t-254.5 -104q-149 0 -252.5 104t-103.5 255z" />
    <glyph glyph-name="ellipsis" unicode="&#x2026;" horiz-adv-x="2048" 
d="M227 0v229h230v-229h-230zM909 0v229h230v-229h-230zM1591 0v229h230v-229h-230z" />
    <glyph glyph-name="perthousand" unicode="&#x2030;" horiz-adv-x="2240" 
d="M410 635q-85 0 -147 34t-96 93.5t-49.5 129.5t-15.5 152q0 70 8 127t29 111.5t54.5 91t88.5 58.5t128 22q72 0 127 -22.5t88.5 -59t54.5 -91t29 -111.5t8 -126q0 -65 -9 -122t-31.5 -111t-56.5 -92t-87.5 -61t-122.5 -23zM410 778q127 0 127 266q0 119 -12 166
q-27 101 -115 101q-30 0 -53 -13t-36.5 -38.5t-21.5 -49t-11.5 -60t-4 -56t-0.5 -50.5q0 -266 127 -266zM256 -45l887 1520h147l-887 -1520h-147zM1139 -25q-69 0 -122.5 23t-88 61.5t-57 92t-31.5 111t-9 122.5q0 70 8 127t29 111.5t54.5 91t88.5 58.5t128 22
q72 0 127 -22.5t88.5 -59t54.5 -91t29 -111.5t8 -126q0 -65 -9 -122.5t-31.5 -111t-56.5 -92t-87.5 -61.5t-122.5 -23zM1139 119q127 0 127 266q0 118 -12 165q-26 101 -115 101q-30 0 -53 -13t-36.5 -38t-21.5 -48.5t-11.5 -60t-4 -56t-0.5 -50.5q0 -266 127 -266z
M1831 -25q-69 0 -122.5 23t-87.5 61.5t-56.5 92t-31.5 111t-9 122.5q0 89 13.5 157.5t46 128.5t95 92t152.5 32q72 0 127 -22.5t88.5 -59t54.5 -91t29 -111.5t8 -126q0 -65 -9 -122.5t-31.5 -111t-56.5 -92t-87.5 -61.5t-122.5 -23zM1831 119q127 0 127 266q0 118 -12 165
q-26 101 -115 101q-30 0 -53 -13t-36.5 -38t-21.5 -48.5t-11.5 -60t-4 -56t-0.5 -50.5q0 -266 127 -266z" />
    <glyph glyph-name="guilsinglleft" unicode="&#x2039;" horiz-adv-x="724" 
d="M397 137l-293 414l293 414h181l-267 -414l267 -414h-181z" />
    <glyph glyph-name="guilsinglright" unicode="&#x203a;" horiz-adv-x="724" 
d="M328 965l293 -414l-293 -414h-181l267 414l-267 414h181z" />
    <glyph glyph-name="fraction" unicode="&#x2044;" horiz-adv-x="342" 
d="M-346 -45l887 1520h147l-887 -1520h-147z" />
    <glyph glyph-name="Euro" unicode="&#x20ac;" 
d="M-31 809l29 119h108q52 222 230 368q90 72 217 115t262 43q185 0 322 -74l-41 -182q-121 76 -281 76q-192 0 -328 -115q-113 -96 -155 -231h702l-28 -119h-701q-6 -47 -6 -92q0 -22 4 -68h666l-29 -119h-614q23 -99 102 -194q81 -97 179.5 -136.5t228.5 -39.5
q129 0 266 67l12 -196q-132 -51 -299 -51q-354 0 -547 210q-123 136 -168 340h-131l29 119h86q-2 23 -2 70q0 43 6 90h-119z" />
    <glyph glyph-name="uni20B4" unicode="&#x20b4;" 
d="M221 1403q163 51 346 51q103 0 180.5 -20t121.5 -50t71.5 -72.5t36 -80.5t8.5 -82q0 -62 -31 -129q-23 -50 -65 -92h168v-119h-293l-191 -160h484v-119h-600q-86 -80 -86 -198q0 -84 72 -128t167 -44q75 0 168 19t170 48l21 -188q-180 -59 -355 -59q-119 0 -209.5 27
t-144 73.5t-80 104t-26.5 124.5q0 127 86 221h-158v119h246l190 160h-436v119h569q117 90 117 186q0 50 -23 86q-49 74 -206 74q-64 0 -113 -8q-91 -16 -176 -52z" />
    <glyph glyph-name="uni20B8" unicode="&#x20b8;" 
d="M82 1151h975v-139h-385v-1012h-205v1012h-385v139zM82 1434h975v-140h-975v140z" />
    <glyph glyph-name="uni20BD" unicode="&#x20bd;" 
d="M414 1253v-499h180q62 0 122 18.5t95 52.5q70 66 70 176q0 130 -93 195q-82 57 -223 57h-151zM209 0v332h-164v139h164v143h-164v140h164v680h352q254 0 385 -101q73 -57 107 -135q32 -74 32 -168q0 -92 -34.5 -172.5t-92.5 -132.5q-43 -38 -101 -63t-117 -34t-90 -11.5
t-58 -2.5h-178v-143h286v-139h-286v-332h-205z" />
    <glyph glyph-name="uni2116" unicode="&#x2116;" horiz-adv-x="2048" 
d="M180 0v1434h264l598 -1155h5v1155h194v-1434h-248l-614 1180h-4v-1180h-195zM1378 936q0 140 70 227q74 92 207 92q134 0 209 -92q69 -82 69 -227q0 -142 -69 -227q-76 -95 -209 -95q-131 0 -207 95q-70 89 -70 227zM1526 936q0 -113 26 -162q34 -65 103 -65q72 0 104 65
q27 50 27 162q0 109 -27 160q-35 65 -104 65q-70 0 -103 -65q-13 -23 -19 -53.5t-6.5 -49t-0.5 -57.5zM1399 276v123h522v-123h-522z" />
    <glyph glyph-name="uni2117" unicode="&#x2117;" horiz-adv-x="1800" 
d="M164 717q0 150 58 286.5t157 235.5t235.5 157t286.5 58t286.5 -58t234.5 -157t156 -235.5t58 -286.5q0 -147 -58.5 -283t-156.5 -235.5t-234.5 -159t-285.5 -59.5q-200 0 -370 100t-268.5 269.5t-98.5 367.5zM297 717q0 -123 48 -234.5t129 -192t193 -128t234 -47.5
q164 0 302.5 80.5t219 219t80.5 302.5q0 123 -47.5 235t-128.5 192.5t-192.5 128.5t-233.5 48t-233.5 -48t-192.5 -128.5t-129.5 -192.5t-48.5 -235zM696 1122h289q111 0 180 -53q82 -63 82 -178q0 -122 -76 -191q-70 -61 -186 -61h-141v-328h-148v811zM844 1001v-241h94
q75 0 115 31q41 32 41 88q0 64 -41 96q-15 13 -35.5 19t-32 6.5t-35.5 0.5h-106z" />
    <glyph glyph-name="trademark" unicode="&#x2122;" horiz-adv-x="2027" 
d="M373 580v710h-262v144h680v-144h-263v-710h-155zM991 580v854h242l223 -578l219 578h242v-854h-156v653h-4l-239 -653h-127l-240 653h-4v-653h-156z" />
    <glyph glyph-name="Omega" unicode="&#x2126;" horiz-adv-x="1558" 
d="M868 0v336q150 21 248 135q105 125 105 336q0 209 -115 334q-121 133 -326 133q-185 0 -301 -105q-82 -72 -110.5 -163.5t-28.5 -198.5q0 -216 102 -336q98 -114 250 -135v-336h-557l-24 301l161 10l13 -147h237v90q-155 38 -256 154q-143 160 -143 407q0 305 203 485
q99 89 206.5 121.5t247.5 32.5q142 0 250.5 -34t204.5 -120q203 -180 203 -485q0 -121 -39 -225.5t-107 -181.5q-105 -120 -256 -154v-90h240l10 147l164 -10l-27 -301h-555z" />
    <glyph glyph-name="partialdiff" unicode="&#x2202;" horiz-adv-x="1251" 
d="M299 522q0 -68 19 -137t53 -119q40 -60 108 -97.5t152 -37.5q153 0 243 125q36 52 57 124.5t21 141.5q0 165 -92 279q-93 112 -233 112q-134 0 -224 -100q-104 -113 -104 -291zM231 1452l148 109q221 -86 377 -209q171 -136 282 -346q119 -223 119 -467q0 -236 -135 -392
q-150 -172 -395 -172q-253 0 -408 189q-125 158 -125 358q0 249 160 404q150 143 364 143q123 0 222 -68q-43 75 -111.5 145t-193.5 152q-74 48 -137 79.5t-167 74.5z" />
    <glyph glyph-name="Delta" unicode="&#x2206;" horiz-adv-x="1458" 
d="M25 0l600 1434h215l594 -1434h-1409zM1145 168l-420 1073l-418 -1073h838z" />
    <glyph glyph-name="product" unicode="&#x220f;" horiz-adv-x="1482" 
d="M94 -430v180h111v1503h-111v181h1295v-181h-117v-1503h117v-180h-433v180h111v1503h-657v-1503h110v-180h-426z" />
    <glyph glyph-name="summation" unicode="&#x2211;" horiz-adv-x="1173" 
d="M92 -430v184l518 795l-518 700v185h952v-181h-716l520 -702l-518 -801h751v-180h-989z" />
    <glyph glyph-name="minus" unicode="&#x2212;" horiz-adv-x="1228" 
d="M96 571v181h1037v-181h-1037z" />
    <glyph glyph-name="uni2215" unicode="&#x2215;" horiz-adv-x="569" 
d="M-51 -25l491 1479h181l-492 -1479h-180z" />
    <glyph glyph-name="radical" unicode="&#x221a;" horiz-adv-x="1320" 
d="M41 1024h324l253 -891l236 1565h348v-123h-207l-288 -1780h-195l-324 1092h-147v137z" />
    <glyph glyph-name="infinity" unicode="&#x221e;" horiz-adv-x="1433" 
d="M721 649q-49 -72 -113 -131q-114 -102 -246 -102q-131 0 -221 86q-90 90 -90 231q0 158 107 244q86 70 198 70q139 0 250 -103q64 -60 107 -131q53 88 114 139q48 41 113 68t133 27q155 0 242 -111q67 -83 67 -207q0 -128 -73 -211q-41 -48 -104.5 -75t-133.5 -27
q-144 0 -254 110q-46 44 -96 123zM778 731q71 -97 103 -128q77 -77 170 -77q87 0 143 64q49 54 49 141q0 99 -59 152q-58 53 -135 53q-27 0 -52 -7t-43.5 -14.5t-42 -28t-35 -30.5t-35.5 -41t-30.5 -39.5t-32.5 -44.5zM655 731q-50 67 -88 111q-41 44 -82 69t-102 25
q-73 0 -129 -49q-64 -59 -64 -162q0 -85 50 -139q57 -60 145 -60q99 0 182 90q29 30 88 115z" />
    <glyph glyph-name="integral" unicode="&#x222b;" 
d="M1071 1438l-29 -164l-16 4q-48 8 -76 8q-68 0 -106 -29q-60 -49 -86 -196l-213 -1110q-23 -115 -47.5 -186t-59.5 -115q-86 -105 -260 -105q-60 0 -110 11l32 165q33 -8 62 -8q85 0 125 58q34 50 53 159l215 1141q35 203 123 293q83 90 244 90q45 0 112 -10z" />
    <glyph glyph-name="approxequal" unicode="&#x2248;" horiz-adv-x="1228" 
d="M1014 688l73 -143q-83 -174 -256 -174q-80 0 -227 63l-51 23q-3 2 -18 8.5t-18.5 8t-16 7.5t-17 7.5t-15 6t-16 5.5t-14.5 4t-15 3.5t-13.5 1.5t-14.5 1q-95 0 -180 -150l-74 144q83 174 256 174q79 0 228 -64l51 -22q3 -2 18 -8.5t18.5 -8t16 -7.5t17 -7.5t15 -6
t16 -5.5t14.5 -4t15 -3.5t13.5 -1.5t14.5 -1q96 0 180 149zM1014 1073l73 -143q-83 -174 -256 -174q-80 0 -227 63l-51 23q-3 2 -18 8.5t-18.5 8t-16 7.5t-17 7.5t-15 6t-16 5.5t-14.5 4t-15 3.5t-13.5 1.5t-14.5 1q-95 0 -180 -150l-74 144q83 174 256 174q79 0 228 -64
l51 -22q3 -2 18 -8.5t18.5 -8t16 -7.5t17 -7.5t15 -6t16 -5.5t14.5 -4t15 -3.5t13.5 -1.5t14.5 -1q96 0 180 149z" />
    <glyph glyph-name="notequal" unicode="&#x2260;" horiz-adv-x="1228" 
d="M96 786v181h623l123 213h147l-123 -213h267v-181h-373l-144 -249h517v-181h-623l-123 -213h-147l122 213h-266v181h373l143 249h-516z" />
    <glyph glyph-name="lessequal" unicode="&#x2264;" horiz-adv-x="1228" 
d="M1135 1182v-181l-705 -247l705 -248v-180l-1041 366v125zM94 143v181h1041v-181h-1041z" />
    <glyph glyph-name="greaterequal" unicode="&#x2265;" horiz-adv-x="1228" 
d="M94 1182l1041 -365v-125l-1041 -366v180l705 248l-705 247v181zM1135 143h-1041v181h1041v-181z" />
    <glyph glyph-name="lozenge" unicode="&#x25ca;" horiz-adv-x="1437" 
d="M184 717l535 737l534 -737l-534 -737zM1040 717l-321 440l-322 -440l322 -445z" />
    <glyph glyph-name="uniF400" unicode="&#xf400;" horiz-adv-x="0" 
d="M-670 1249l160 267h246l-242 -267h-164z" />
    <glyph glyph-name="uniF401" unicode="&#xf401;" horiz-adv-x="0" 
d="M-674 1782h266l-233 -246h-197z" />
    <glyph glyph-name="uniF406" unicode="&#xf406;" horiz-adv-x="1097" 
d="M205 1782h143q39 -115 201 -115t201 115h143q-34 -128 -128 -193t-216 -65t-216 65t-128 193z" />
    <glyph glyph-name="uniF407" unicode="&#xf407;" horiz-adv-x="604" 
d="M211 18h123l-12 -86q76 0 127 -51q53 -53 53 -143q0 -39 -19 -79t-49 -67q-60 -55 -174 -55q-82 0 -158 55l56 99q45 -37 96 -37q43 0 74 27q24 24 24 57q0 48 -24 69q-25 25 -80 25q-44 0 -64 -4z" />
    <glyph glyph-name="uniF408" unicode="&#xf408;" horiz-adv-x="1060" 
d="M418 1782h225l213 -246h-184l-142 143l-141 -143h-184z" />
    <glyph glyph-name="uniF409" unicode="&#xf409;" horiz-adv-x="520" 
d="M106 -508l82 406h226l-144 -406h-164z" />
    <glyph glyph-name="uniF40A" unicode="&#xf40a;" horiz-adv-x="368" 
d="M-16 1024l82 410h225l-152 -410h-155z" />
    <glyph glyph-name="uniF40B" unicode="&#xf40b;" horiz-adv-x="434" 
d="M332 1749v-209h-230v209h230z" />
    <glyph glyph-name="uniF40C" unicode="&#xf40c;" horiz-adv-x="823" 
d="M205 1694q0 85 61 146t146 61t145.5 -61t60.5 -146t-60.5 -146t-145.5 -61t-146 61t-61 146zM299 1694q0 -50 31.5 -81.5t81.5 -31.5q49 0 80.5 31.5t31.5 81.5t-31 81t-81 31t-81.5 -31.5t-31.5 -80.5z" />
    <glyph glyph-name="uniF40D" unicode="&#xf40d;" horiz-adv-x="1105" 
d="M299 1532h-94q6 84 49 149q53 80 147 80q48 0 109 -26l59 -25q10 -4 29 -12t30 -12t27 -9t30 -7.5t28 -2.5q51 0 73 37q15 26 21 57h94q-12 -83 -39 -135q-25 -47 -66.5 -70.5t-88.5 -23.5q-41 0 -111 27l-59 24q-10 4 -29 12t-30 12t-27 9t-30 7.5t-28 2.5
q-44 0 -69 -31q-17 -23 -25 -63z" />
    <glyph glyph-name="uniF40E" unicode="&#xf40e;" horiz-adv-x="552" 
d="M319 0h142q-61 -45 -92 -74.5t-58 -70.5q-39 -59 -39 -123q0 -58 33 -86q30 -27 72 -27q77 0 139 41l37 -88q-95 -66 -213 -66q-111 0 -170 50q-68 53 -68 155q0 49 13 83.5t43 74.5q68 85 161 131z" />
    <glyph glyph-name="uniF410" unicode="&#xf410;" horiz-adv-x="0" 
d="M-983 1782h266l164 -246h-197z" />
    <glyph glyph-name="uniF47E" unicode="&#xf47e;" horiz-adv-x="1478" 
d="M1294 1434v-840q0 -301 -149 -461q-21 -23 -50.5 -45t-78.5 -49t-121 -43t-156 -16t-156 16t-121 43t-77.5 49t-50.5 45q-150 162 -150 461v840h205v-813q0 -227 76 -334q53 -75 122 -101t152 -26q84 0 153 26t122 101q76 107 76 334v813h204zM852 1749v-209h-229v209
h229z" />
    <glyph glyph-name="uniF47F" unicode="&#xf47f;" horiz-adv-x="1236" 
d="M1073 1044v-1044h-192v150h-4q-51 -74 -138 -121q-86 -45 -198 -45q-197 0 -295 114q-96 112 -96 326v620h192v-540q0 -215 66 -295q21 -26 63.5 -48t106.5 -22q121 0 204 90q99 110 99 332v483h192zM727 1475v-218h-217v218h217z" />
    <glyph glyph-name="uniF4C6" unicode="&#xf4c6;" horiz-adv-x="1337" 
d="M102 1434h205v-430q0 -34 1 -52t7 -51t22 -59.5t42 -48.5q71 -62 233 -62q174 0 328 47v656h205v-1414q0 -109 -22 -192t-91 -145q-107 -93 -295 -93q-56 0 -125 15q-8 1 -34 10v176q70 -20 135 -20q60 0 110 20q41 16 64 45q32 37 45 92q8 41 8 92v580
q-186 -49 -365 -49q-294 0 -403 137q-70 87 -70 246v500z" />
    <glyph glyph-name="uniF4C7" unicode="&#xf4c7;" horiz-adv-x="1097" 
d="M92 1044h193v-307q0 -24 1.5 -41.5t6.5 -42t17.5 -45t31.5 -35.5q49 -36 172 -36q107 0 227 26v481h193v-1064q0 -202 -70 -291q-46 -60 -109 -79.5t-145 -19.5q-42 0 -65 4l-25 5l6 165q40 -6 64 -6q79 0 115 56q36 57 36 166v432q-61 -12 -123 -21q-82 -10 -149 -10
q-184 0 -279 78q-98 81 -98 221v364z" />
    <glyph glyph-name="uniF4C8" unicode="&#xf4c8;" horiz-adv-x="1280" 
d="M1186 1393l-17 -199q-136 80 -295 80q-205 0 -350 -115q-91 -71 -144.5 -184.5t-53.5 -257.5q0 -227 135 -381q150 -176 434 -176q138 0 281 67l12 -196q-139 -51 -293 -51l-6 -48q76 0 127 -51q53 -53 53 -143q0 -39 -19 -79t-49 -67q-60 -55 -174 -55q-81 0 -157 55
l55 99q45 -37 96 -37q43 0 74 27q25 25 25 57q0 47 -25 69q-25 25 -80 25q-43 0 -63 -4l22 158q-142 9 -264 64t-205 140q-86 90 -141 227t-55 302q0 371 266 577q206 158 499 158q182 0 312 -61z" />
    <glyph glyph-name="uniF4C9" unicode="&#xf4c9;" horiz-adv-x="909" 
d="M844 1020l-17 -160q-102 45 -209 45q-122 0 -215 -80q-56 -50 -88 -131t-32 -172q0 -161 79 -262q44 -54 114.5 -87.5t154.5 -33.5q116 0 207 60l14 -172q-81 -37 -205 -43l-6 -47q74 -3 121 -50q49 -49 49 -137q0 -79 -63 -139q-57 -51 -166 -51q-78 0 -150 51l51 94
q47 -35 92 -35t70 25t25 55q0 44 -25 66q-24 24 -76 24q-39 0 -59 -4l20 154q-186 25 -313 162q-139 150 -139 378q0 114 43 222.5t137 187.5q146 121 352 121q121 0 234 -41z" />
    <glyph glyph-name="uniF4CC" unicode="&#xf4cc;" horiz-adv-x="1189" 
d="M31 1434h231l373 -807h14l350 807h199l-545 -1227q-51 -116 -123 -170q-73 -57 -180 -57q-80 0 -170 28l23 178q65 -26 123 -26q57 0 96 28q15 11 36.5 38.5t28.5 47.5l48 117zM655 1782h267l-234 -246h-196z" />
    <glyph glyph-name="uniF4CD" unicode="&#xf4cd;" horiz-adv-x="999" 
d="M74 -444l12 157q56 -16 92 -16q76 0 131 55q53 53 84 162l13 45l-25 78l-367 1007h211l287 -858h4l281 858h194l-391 -1083q-82 -227 -137 -295q-98 -125 -268 -125q-53 0 -111 13zM395 1249l160 267h246l-242 -267h-164z" />
    <glyph glyph-name="dollar.fitted" unicode="&#xf5f5;" horiz-adv-x="927" 
d="M401 891v369q-64 -10 -106 -52q-49 -49 -49 -137q0 -62 39.5 -102t115.5 -78zM520 594v-422q76 16 125 86q39 58 39 137q0 71 -51 125q-42 48 -113 74zM401 -217v192h-24q-168 0 -311 60l24 196q124 -75 283 -75h28v497l-71 35q-145 71 -215 146q-86 90 -86 231
q0 161 114 272q108 104 258 111v203h119v-197q161 -2 293 -51l-29 -189q-102 60 -243 60h-21v-445l119 -65q134 -75 186 -139q76 -93 76 -226q0 -169 -113 -290q-109 -114 -268 -125v-201h-119z" />
    <glyph glyph-name="Euro.fitted" unicode="&#xf5f6;" horiz-adv-x="1255" 
d="M29 809l28 119h109q52 224 229 368q90 72 217 115t262 43q185 0 322 -74l-41 -182q-121 76 -281 76q-191 0 -327 -115q-47 -39 -83 -90t-50.5 -82.5t-22.5 -58.5h703l-29 -119h-700q-7 -54 -7 -92q0 -22 4 -68h666l-29 -119h-614q23 -99 102 -194q81 -97 179.5 -136.5
t228.5 -39.5q129 0 266 67l13 -196q-132 -51 -300 -51q-353 0 -546 210q-123 136 -168 340h-131l28 119h86q-2 23 -2 70q0 43 6 90h-118z" />
    <glyph glyph-name="cent.fitted" unicode="&#xf5f7;" horiz-adv-x="827" 
d="M786 1028l-16 -160q-102 45 -209 45q-127 0 -215 -82q-56 -51 -88.5 -133.5t-32.5 -175.5q0 -72 20.5 -144t59.5 -124q43 -56 112.5 -89.5t155.5 -33.5q118 0 207 59l15 -172q-93 -40 -201 -43v-192h-119v199q-191 26 -315 163q-140 154 -140 385q0 115 43 225t138 191
q113 98 274 119v201h119v-199q105 -7 192 -39z" />
    <glyph glyph-name="sterling.fitted" unicode="&#xf5f8;" horiz-adv-x="1032" 
d="M43 0v180h186v533h-161v118h161v119q0 287 189 422q120 86 307 86q145 0 242 -39l-17 -190q-115 49 -205 49q-113 0 -182 -45q-129 -85 -129 -297v-105h330v-118h-330v-533h506v-180h-897z" />
    <glyph glyph-name="yen.fitted" unicode="&#xf5f9;" horiz-adv-x="1183" 
d="M492 0v332h-289v119h289v147l-17 33h-272v119h207l-375 680h227l336 -642l324 642h227l-371 -680h207v-119h-272l-17 -33v-147h289v-119h-289v-332h-204z" />
    <glyph glyph-name="florin.fitted" unicode="&#xf5fa;" 
d="M973 848l-29 -143h-258l-141 -754q-41 -222 -107 -301q-86 -105 -260 -105q-60 0 -110 11l32 165q33 -8 62 -8q85 0 125 58q34 50 53 159l145 775h-229l27 143h229l43 223q41 209 123 293q83 90 244 90q45 0 112 -10l37 -6l-29 -164l-16 4q-48 8 -76 8q-68 0 -106 -29
q-56 -43 -86 -196l-43 -213h258z" />
    <glyph glyph-name="uni20B4.fitted" unicode="&#xf5fb;" 
d="M221 1403q163 51 346 51q103 0 180.5 -20t121.5 -50t71.5 -72.5t36 -80.5t8.5 -82q0 -62 -31 -129q-23 -50 -65 -92h168v-119h-293l-191 -160h484v-119h-600q-86 -80 -86 -198q0 -84 72 -128t167 -44q75 0 168 19t170 48l21 -188q-180 -59 -355 -59q-119 0 -209.5 27
t-144 73.5t-80 104t-26.5 124.5q0 127 86 221h-158v119h246l190 160h-436v119h569q117 90 117 186q0 50 -23 86q-49 74 -206 74q-64 0 -113 -8q-91 -16 -176 -52z" />
    <glyph glyph-name="uni20BD.fitted" unicode="&#xf5fc;" 
d="M414 1253v-499h180q62 0 122 18.5t95 52.5q70 66 70 176q0 130 -93 195q-82 57 -223 57h-151zM209 0v332h-164v139h164v143h-164v140h164v680h352q254 0 385 -101q73 -57 107 -135q32 -74 32 -168q0 -92 -34.5 -172.5t-92.5 -132.5q-43 -38 -101 -63t-117 -34t-90 -11.5
t-58 -2.5h-178v-143h286v-139h-286v-332h-205z" />
    <glyph glyph-name="uni20B8.fitted" unicode="&#xf5fd;" horiz-adv-x="1056" 
d="M41 1151h975v-139h-385v-1012h-205v1012h-385v139zM41 1434h975v-140h-975v140z" />
    <glyph glyph-name="currency.fitted" unicode="&#xf5fe;" horiz-adv-x="1163" 
d="M61 299l115 117q-102 121 -102 299q0 184 102 303l-115 110l105 107l113 -113q136 101 303 101q170 0 307 -101l110 113l103 -107l-111 -110q99 -125 99 -303q0 -175 -99 -299l111 -117l-103 -104l-110 116q-121 -104 -307 -104q-182 0 -303 104l-113 -116zM254 715
q0 -141 96.5 -240.5t231.5 -99.5q139 0 233 100.5t94 239.5q0 138 -94.5 239t-232.5 101q-136 0 -232 -100.5t-96 -239.5z" />
    <glyph glyph-name="numbersign.fitted" unicode="&#xf5ff;" horiz-adv-x="1103" 
d="M176 0l60 426h-195v156h217l37 266h-197v156h219l60 426h155l-59 -426h242l59 426h156l-60 -426h195v-156h-217l-37 -266h195v-156h-218l-59 -426h-156l60 426h-242l-59 -426h-156zM655 582l37 266h-241l-37 -266h241z" />
    <glyph glyph-name="uniF639" unicode="&#xf639;" horiz-adv-x="1101" 
d="M551 1454q48 0 95 -10t100 -34.5t102.5 -73t85.5 -117.5q51 -96 76.5 -229t25.5 -273t-25.5 -275.5t-76.5 -228.5q-33 -61 -77.5 -106.5t-85 -69t-87 -37t-75.5 -17t-58 -3.5t-58 3.5t-75.5 17t-87 37t-85 69t-77.5 106.5q-51 93 -76.5 228.5t-25.5 275.5t25.5 273
t76.5 229q36 69 85.5 117.5t102.5 73t100 34.5t95 10zM551 1286q-127 0 -195 -143q-36 -74 -54.5 -193.5t-18.5 -232.5t18.5 -232.5t54.5 -193.5q69 -144 195 -144q125 0 194 144q36 75 55 194.5t19 231.5t-19 231.5t-55 194.5q-68 143 -194 143z" />
    <glyph glyph-name="uniF63A" unicode="&#xf63a;" horiz-adv-x="1034" 
d="M74 0v219l268 242q81 72 136 131.5t122 144.5q31 41 47.5 64.5t42.5 67.5t38.5 89t12.5 91q0 101 -67 168q-69 69 -207 69q-158 0 -328 -92l-20 176q179 84 375 84q181 0 297 -78q167 -113 167 -325q0 -51 -12 -101t-25 -82.5t-42 -76.5t-42 -60.5t-46 -56.5
q-13 -16 -36.5 -46.5t-36 -45.5t-36.5 -42.5t-56 -60t-77 -76.5q-91 -91 -189 -176l-67 -59h686v-168h-905z" />
    <glyph glyph-name="uniF63B" unicode="&#xf63b;" horiz-adv-x="1028" 
d="M264 662v167h115q72 0 145 17t117 47q92 61 92 170q0 104 -74 164q-76 59 -206 59q-158 0 -318 -78l-12 183q186 63 358 63q205 0 328 -92q59 -44 100 -118t41 -169q0 -137 -86 -223q-84 -87 -221 -111v-4q65 -12 127.5 -42.5t101.5 -69.5q91 -95 91 -244
q0 -189 -138 -295q-141 -106 -401 -106q-179 0 -352 55l12 188q158 -76 313 -76q66 0 139 17t119 51q90 65 90 180q0 78 -33 131t-81 82q-89 54 -242 54h-125z" />
    <glyph glyph-name="uniF63C" unicode="&#xf63c;" horiz-adv-x="1114" 
d="M682 494v772h-4l-455 -772h459zM682 0v326h-666v170l578 938h293v-940h180v-168h-180v-326h-205z" />
    <glyph glyph-name="uniF63D" unicode="&#xf63d;" horiz-adv-x="987" 
d="M895 1434v-168h-594l-12 -381q103 20 153 20q216 0 349 -119q145 -131 145 -323q0 -211 -139 -340q-75 -69 -182.5 -106t-233.5 -37q-160 0 -299 47l6 192q138 -72 287 -72q164 0 262 93q82 79 82 192q0 148 -107 234q-92 71 -252 71q-142 0 -264 -53l13 750h786z" />
    <glyph glyph-name="uniF63E" unicode="&#xf63e;" horiz-adv-x="1067" 
d="M938 1409l-29 -182q-118 59 -254 59q-163 0 -272 -123q-60 -70 -94.5 -179.5t-32.5 -215.5h6q113 131 311 131q191 0 308 -117q123 -123 123 -329q0 -211 -125 -340q-133 -133 -334 -133q-285 0 -404 241q-78 160 -78 443q0 329 121 536q23 39 47 70.5t65.5 67.5t90 60
t120 40t155.5 16q146 0 276 -45zM786 449q0 104 -55 184q-66 98 -184 98q-115 0 -187 -72q-79 -79 -79 -210q0 -123 63 -205q72 -97 188 -97q129 0 201 105q53 82 53 197z" />
    <glyph glyph-name="uniF63F" unicode="&#xf63f;" horiz-adv-x="970" 
d="M944 1434v-168l-528 -1266h-226l545 1266h-696v168h905z" />
    <glyph glyph-name="uniF640" unicode="&#xf640;" horiz-adv-x="1110" 
d="M367 754v4q-133 50 -197 133q-72 88 -72 223q0 72 40.5 145.5t129.5 126.5q116 68 281 68q208 0 334 -98q121 -95 121 -232t-84 -231q-57 -64 -175 -127q124 -43 203 -125q99 -105 99 -252q0 -191 -134 -299q-136 -110 -352 -110q-211 0 -356 112q-142 112 -142 287
q0 82 33.5 153.5t89.5 120.5q70 62 181 101zM537 852l61 -27q103 71 145.5 132.5t42.5 134.5q0 53 -17 88t-60 63q-62 43 -164 43q-104 0 -176 -59q-66 -54 -66 -142q0 -74 70 -133q26 -23 75 -53t89 -47zM518 678l-63 -41q-33 -21 -49 -31.5t-44.5 -35.5t-42.5 -47t-26 -57
t-12 -75q0 -109 81 -176q40 -32 96.5 -50t110.5 -18q117 0 187 64q73 68 73 180q0 43 -12.5 78t-29 57t-50 44.5t-57 34t-70.5 32.5q-12 5 -18 8z" />
    <glyph glyph-name="uniF641" unicode="&#xf641;" horiz-adv-x="1064" 
d="M127 25l29 180q111 -58 243 -58q203 0 308 156q49 71 75.5 167t26.5 196h-6q-125 -134 -307 -134q-205 0 -322 130q-113 126 -113 315q0 224 140 358q127 119 319 119q274 0 391 -221q90 -170 90 -463q0 -304 -94 -494q-146 -296 -493 -296q-65 0 -146 12t-141 33z
M279 985q0 -110 57 -188q70 -97 188 -97q54 0 105.5 22t87.5 64q67 76 67 197q0 129 -73 217q-73 86 -179 86q-112 0 -180 -80q-73 -82 -73 -221z" />
    <glyph glyph-name="uniF643" unicode="&#xf643;" 
d="M569 1061q107 0 210.5 -38.5t172.5 -133.5q51 -71 77 -169t26 -200q0 -100 -26.5 -199.5t-76.5 -168.5q-41 -55 -96.5 -92.5t-113 -53t-97 -21t-76.5 -5.5t-77 5.5t-97.5 21t-113 53t-95.5 92.5q-51 68 -76.5 167t-25.5 201q0 103 25.5 200.5t76.5 168.5
q69 95 172.5 133.5t210.5 38.5zM569 893q-124 0 -194 -96q-36 -48 -55 -127.5t-19 -153.5q0 -71 19 -148.5t55 -125.5q69 -95 194 -95q126 0 195 95q36 48 55 125.5t19 148.5q0 74 -19 153.5t-55 127.5q-70 96 -195 96z" />
    <glyph glyph-name="uniF644" unicode="&#xf644;" 
d="M553 0v809l-219 -191l-109 140l350 286h183v-1044h-205z" />
    <glyph glyph-name="uniF645" unicode="&#xf645;" 
d="M102 0v205l340 203q190 114 259 179.5t69 157.5q0 148 -233 148q-178 0 -369 -90l-21 174q179 84 424 84q103 0 181 -21.5t121.5 -52.5t70.5 -72.5t35 -75t8 -67.5q0 -65 -19.5 -119.5t-51 -98t-93 -92.5t-125 -89t-166.5 -99l-184 -106h660v-168h-906z" />
    <glyph glyph-name="uniF646" unicode="&#xf646;" 
d="M276 268v168h115q72 0 145 17t117 47q92 61 92 170q0 105 -73 164q-76 59 -207 59q-158 0 -318 -78l-12 182q189 64 359 64q204 0 327 -92q59 -44 100.5 -118.5t41.5 -168.5q0 -137 -86 -223q-84 -87 -222 -111v-4q65 -12 128 -43t102 -70q90 -94 90 -243
q0 -190 -137 -295q-142 -107 -402 -107q-176 0 -352 56l12 188q158 -76 314 -76q66 0 139 17t119 51q90 65 90 180q0 78 -33 131t-82 82q-87 53 -242 53h-125z" />
    <glyph glyph-name="uniF647" unicode="&#xf647;" 
d="M705 168v709h-5l-454 -709h459zM705 -389v389h-666v170l577 874h293v-876h181v-168h-181v-389h-204z" />
    <glyph glyph-name="uniF648" unicode="&#xf648;" 
d="M979 1044v-167h-594l-12 -381q103 20 153 20q215 0 348 -119q146 -132 146 -323q0 -211 -139 -340q-75 -69 -182.5 -106.5t-233.5 -37.5q-157 0 -299 48l6 192q138 -72 287 -72q165 0 262 92q82 79 82 193q0 147 -107 233q-93 72 -252 72q-142 0 -264 -53l13 749h786z
" />
    <glyph glyph-name="uniF649" unicode="&#xf649;" 
d="M981 1409l-29 -182q-118 59 -254 59q-163 0 -272 -123q-60 -70 -94.5 -179.5t-32.5 -215.5h6q113 131 311 131q191 0 308 -117q123 -123 123 -329q0 -211 -125 -340q-133 -133 -334 -133q-285 0 -404 241q-78 160 -78 443q0 329 121 536q23 39 47 70.5t65.5 67.5t90 60
t120 40t155.5 16q146 0 276 -45zM829 449q0 104 -55 184q-66 98 -184 98q-115 0 -187 -72q-79 -79 -79 -210q0 -123 63 -205q72 -97 188 -97q129 0 201 105q53 82 53 197z" />
    <glyph glyph-name="uniF64A" unicode="&#xf64a;" 
d="M1006 1044v-167l-529 -1266h-225l545 1266h-697v167h906z" />
    <glyph glyph-name="uniF64B" unicode="&#xf64b;" 
d="M381 754v4q-133 50 -197 133q-71 87 -71 223q0 72 40.5 145.5t129.5 126.5q116 68 280 68q208 0 334 -98q121 -95 121 -232t-84 -231q-58 -65 -174 -127q124 -43 203 -125q98 -104 98 -252q0 -192 -133 -299q-136 -110 -353 -110q-211 0 -356 112q-141 112 -141 287
q0 82 33.5 153.5t89.5 120.5q71 62 180 101zM551 852l61 -27q103 71 146 132.5t43 134.5q0 52 -17.5 87t-60.5 64q-62 43 -164 43q-104 0 -176 -59q-66 -54 -66 -142q0 -74 70 -133q26 -23 75 -53t89 -47zM532 678l-63 -41q-33 -21 -49 -31.5t-44.5 -35.5t-42.5 -47t-26 -57
t-12 -75q0 -109 82 -176q40 -32 96.5 -50t110.5 -18q116 0 186 64q74 69 74 180q0 43 -14 78.5t-26.5 55.5t-52.5 45.5t-54.5 33t-71.5 32.5q-12 6 -19 9z" />
    <glyph glyph-name="uniF64C" unicode="&#xf64c;" 
d="M147 -369l29 181q111 -58 244 -58q202 0 307 156q49 71 75.5 166.5t26.5 195.5h-6q-124 -133 -307 -133q-205 0 -321 129q-113 126 -113 316q0 225 139 358q127 119 320 119q274 0 391 -221q90 -170 90 -463q0 -304 -94 -494q-147 -297 -494 -297q-65 0 -146 12t-141 33z
M299 592q0 -111 57 -189q69 -96 189 -96q54 0 105 22t87 64q68 77 68 197q0 128 -74 217q-73 86 -178 86q-112 0 -180 -80q-74 -83 -74 -221z" />
    <glyph glyph-name="uniF6BA" unicode="&#xf6ba;" horiz-adv-x="860" 
d="M164 860h532v-205h-532v205z" />
    <glyph glyph-name="uniF6BB" unicode="&#xf6bb;" horiz-adv-x="1331" 
d="M143 655v144h1045v-144h-1045z" />
    <glyph glyph-name="uniF6BC" unicode="&#xf6bc;" horiz-adv-x="1884" 
d="M143 655v144h1598v-144h-1598z" />
    <glyph glyph-name="uniF6C3" unicode="&#xf6c3;" horiz-adv-x="499" 
d="M106 -451l82 349h205l-143 -349h-144z" />
    <glyph glyph-name="uniF6C9" unicode="&#xf6c9;" horiz-adv-x="839" 
d="M369 1782h266l-234 -246h-196z" />
    <glyph glyph-name="uniF6CA" unicode="&#xf6ca;" horiz-adv-x="1060" 
d="M643 1536h-225l-213 246h184l141 -144l142 144h184z" />
    <glyph glyph-name="uniF6CB" unicode="&#xf6cb;" horiz-adv-x="1069" 
d="M205 1745h217v-205h-217v205zM647 1745h217v-205h-217v205z" />
    <glyph glyph-name="uniF6CC" unicode="&#xf6cc;" horiz-adv-x="1087" 
d="M258 1755h221v-215h-221v215zM707 1755h221v-215h-221v215zM516 1753l182 295h224l-269 -295h-137z" />
    <glyph glyph-name="uniF6CE" unicode="&#xf6ce;" horiz-adv-x="778" 
d="M143 1782h267l163 -246h-196z" />
    <glyph glyph-name="uniF6CF" unicode="&#xf6cf;" horiz-adv-x="950" 
d="M279 1782h245l-266 -246h-156zM602 1782h246l-266 -246h-156z" />
    <glyph glyph-name="uniF6D0" unicode="&#xf6d0;" horiz-adv-x="1064" 
d="M205 1720h655v-143h-655v143z" />
    <glyph glyph-name="uniF6D1" unicode="&#xf6d1;" horiz-adv-x="1011" 
d="M711 1829l137 -17q-4 -68 -34 -121t-73 -85q-38 -28 -100 -45t-121 -17t-121 17t-100 45q-43 32 -72.5 85t-33.5 121l137 17q11 -52 51 -92q45 -41 139 -41t139 41q41 41 52 92z" />
    <glyph glyph-name="uniF6D4" unicode="&#xf6d4;" horiz-adv-x="962" 
d="M666 1552l133 -16q-3 -69 -32 -124t-71 -87q-39 -30 -97.5 -46.5t-117.5 -16.5t-117.5 16.5t-97.5 46.5q-42 32 -70.5 87t-31.5 124l133 16q9 -61 49 -94q45 -41 135 -41t135 41q41 34 50 94z" />
    <glyph glyph-name="uniF6D7" unicode="&#xf6d7;" 
d="M221 1434h223v-215h-223v215zM709 1434h221v-215h-221v215zM498 1434l182 295h223l-268 -295h-137z" />
    <glyph glyph-name="uniF6DC" unicode="&#xf6dc;" horiz-adv-x="626" 
d="M332 0v1198l-219 -190l-109 139l350 287h183v-1434h-205z" />
    <glyph glyph-name="zerooldstyle" unicode="&#xf730;" horiz-adv-x="1114" 
d="M557 1061q107 0 210.5 -38.5t172.5 -133.5q51 -71 76.5 -168.5t25.5 -200.5q0 -101 -26 -200t-76 -168q-41 -55 -96.5 -92.5t-113 -53t-97 -21t-76.5 -5.5t-77 5.5t-97.5 21t-113 53t-95.5 92.5q-51 68 -76.5 167t-25.5 201q0 103 25.5 200.5t76.5 168.5
q69 95 172.5 133.5t210.5 38.5zM557 893q-125 0 -195 -96q-36 -48 -54.5 -127t-18.5 -154q0 -72 18.5 -149t54.5 -125q69 -95 195 -95t195 95q36 48 54.5 125t18.5 149q0 75 -18.5 154t-54.5 127q-70 96 -195 96z" />
    <glyph glyph-name="oneoldstyle" unicode="&#xf731;" horiz-adv-x="870" 
d="M399 0v809l-219 -191l-108 140l350 286h182v-1044h-205z" />
    <glyph glyph-name="twooldstyle" unicode="&#xf732;" 
d="M102 0v205l340 203q190 114 259 179.5t69 157.5q0 148 -233 148q-178 0 -369 -90l-21 174q179 84 424 84q103 0 181 -21.5t121.5 -52.5t70.5 -72.5t35 -75t8 -67.5q0 -65 -19.5 -119.5t-51 -98t-93 -92.5t-125 -89t-166.5 -99l-184 -106h660v-168h-906z" />
    <glyph glyph-name="threeoldstyle" unicode="&#xf733;" horiz-adv-x="1054" 
d="M233 268v168h115q72 0 145 17t117 47q92 61 92 170q0 105 -73 164q-76 59 -207 59q-158 0 -318 -78l-12 182q189 64 359 64q204 0 327 -92q59 -44 100.5 -118.5t41.5 -168.5q0 -137 -86 -223q-84 -87 -222 -111v-4q65 -12 128 -43t102 -70q90 -94 90 -243
q0 -190 -137 -295q-142 -107 -402 -107q-176 0 -352 56l12 188q158 -76 314 -76q66 0 139 17t119 51q90 65 90 180q0 78 -33.5 131t-81.5 82q-87 53 -242 53h-125z" />
    <glyph glyph-name="fouroldstyle" unicode="&#xf734;" horiz-adv-x="1163" 
d="M737 168v709h-4l-454 -709h458zM737 -389v389h-665v170l577 874h293v-876h180v-168h-180v-389h-205z" />
    <glyph glyph-name="fiveoldstyle" unicode="&#xf735;" horiz-adv-x="1048" 
d="M934 1044v-167h-594l-12 -381q103 20 153 20q215 0 348 -119q146 -132 146 -323q0 -211 -139 -340q-75 -69 -182.5 -106.5t-233.5 -37.5q-157 0 -299 48l6 192q138 -72 287 -72q165 0 262 92q82 79 82 193q0 147 -107 233q-93 72 -252 72q-142 0 -264 -53l12 749h787z
" />
    <glyph glyph-name="sixoldstyle" unicode="&#xf736;" horiz-adv-x="1116" 
d="M977 1409l-29 -182q-118 59 -254 59q-163 0 -272 -123q-60 -70 -94.5 -179.5t-32.5 -215.5h6q113 131 311 131q191 0 308 -117q122 -122 122 -329q0 -212 -124 -340q-133 -133 -334 -133q-285 0 -404 241q-78 160 -78 443q0 329 121 536q29 50 62.5 88.5t89 79.5
t138.5 63.5t187 22.5q147 0 277 -45zM825 449q0 104 -55 184q-66 98 -184 98q-115 0 -187 -72q-80 -80 -80 -210q0 -121 64 -205q72 -97 188 -97q129 0 201 105q53 82 53 197z" />
    <glyph glyph-name="sevenoldstyle" unicode="&#xf737;" horiz-adv-x="1015" 
d="M944 1044v-167l-528 -1266h-226l545 1266h-696v167h905z" />
    <glyph glyph-name="eightoldstyle" unicode="&#xf738;" 
d="M381 754v4q-133 50 -197 133q-71 87 -71 223q0 72 40.5 145.5t129.5 126.5q116 68 280 68q208 0 334 -98q121 -95 121 -232t-84 -231q-58 -65 -174 -127q124 -43 203 -125q98 -104 98 -252q0 -192 -133 -299q-136 -110 -353 -110q-211 0 -356 112q-141 112 -141 287
q0 82 33.5 153.5t89.5 120.5q71 62 180 101zM551 852l61 -27q103 71 146 132.5t43 134.5q0 52 -17.5 87t-60.5 64q-62 43 -164 43q-104 0 -176 -59q-66 -54 -66 -142q0 -74 70 -133q26 -23 75 -53t89 -47zM532 678l-63 -41q-33 -21 -49 -31.5t-44.5 -35.5t-42.5 -47t-26 -57
t-12 -75q0 -109 82 -176q40 -32 96.5 -50t110.5 -18q116 0 186 64q74 69 74 180q0 43 -14 78.5t-26.5 55.5t-52.5 45.5t-54.5 33t-71.5 32.5q-12 6 -19 9z" />
    <glyph glyph-name="nineoldstyle" unicode="&#xf739;" horiz-adv-x="1116" 
d="M131 -369l29 181q111 -58 243 -58q203 0 308 156q49 71 75.5 166.5t26.5 195.5h-6q-124 -133 -307 -133q-113 0 -193.5 37.5t-128.5 91.5q-112 125 -112 316q0 225 139 358q127 119 319 119q274 0 391 -221q91 -172 91 -463q0 -301 -95 -494q-147 -297 -493 -297
q-65 0 -146 12t-141 33zM283 592q0 -111 57 -189q69 -96 188 -96q54 0 105.5 22t87.5 64q67 76 67 197q0 129 -73 217q-73 86 -178 86q-113 0 -181 -80q-73 -82 -73 -221z" />
    <glyph glyph-name="uniFEFF" unicode="&#xfeff;" horiz-adv-x="0" 
 />
    </font>
</defs>
</svg>
