<svg width="24" height="24" viewBox="0 0 24 24" fill="none" xmlns="http://www.w3.org/2000/svg">
<path d="M20.3496 12C20.3496 7.38842 16.6116 3.65039 12 3.65039C7.38842 3.65039 3.65039 7.38842 3.65039 12C3.65039 16.6116 7.38842 20.3496 12 20.3496V22C6.47715 22 2 17.5228 2 12C2 6.47715 6.47715 2 12 2C17.5228 2 22 6.47715 22 12C22 17.5228 17.5228 22 12 22V20.3496C16.6116 20.3496 20.3496 16.6116 20.3496 12Z" fill="#3366C1"/>
<path d="M12.8252 7.05744V11.4071L14.5049 10.1473L15.4951 11.4676L11.1748 14.7078V7.05744H12.8252Z" fill="#3366C1"/>
</svg>
