<svg width="50" height="49" viewBox="0 0 50 49" fill="none" xmlns="http://www.w3.org/2000/svg">
<path d="M48.8913 33.1211C48.4446 34.0139 47.75 35.116 47.1859 35.9386C47.0076 36.1994 46.9956 36.0085 46.8693 36.1842C46.6262 36.5217 46.471 36.8916 46.2193 37.2247C46.1347 37.336 46.0769 37.1023 45.9917 37.2206C45.5282 37.8651 45.1853 38.5292 44.7412 39.1998C44.1082 40.1548 43.4852 41.094 42.8324 42.0398C42.5048 42.5132 42.1784 42.9767 41.8181 43.4559C41.6433 43.6873 41.4528 43.9333 41.2455 44.1771C41.1439 44.2959 41.034 44.4211 40.8968 44.5604C40.7463 44.7004 40.6586 44.8289 40.2597 45.0579C38.4395 45.8876 36.8709 46.1755 35.1875 46.5906C34.5697 46.7332 33.8827 46.8562 33.187 46.9854C32.4217 47.1282 31.6491 47.2629 30.9495 47.4289C30.7931 47.4661 30.9141 47.5934 30.8862 47.611C30.445 47.8808 30.5495 47.5591 30.2347 47.5742C28.9814 47.6342 27.6216 47.8075 26.4408 47.9928C25.9406 48.0713 26.4763 48.3091 25.95 48.1986C25.9136 48.1911 26.0256 48.0224 25.8858 48.0198C25.5696 48.0147 24.976 48.097 24.7323 48.1044C24.2609 48.1186 24.1855 48.1258 23.7407 48.1559C23.1339 48.1949 22.4091 48.1585 21.7605 48.222C21.6224 48.2359 21.8124 48.3885 21.5931 48.425C21.3703 48.4621 20.7818 48.4689 20.5842 48.4361C20.3834 48.4038 20.4653 48.2753 20.4293 48.2474C20.1395 48.0119 19.4638 48.362 19.3779 48.3709C18.5292 48.4583 17.7398 48.437 16.9698 48.3913C16.1505 48.3446 15.4395 48.1145 14.7345 47.8693C13.5916 47.4654 12.4624 46.9301 11.5191 46.3765C10.3978 45.7133 9.53122 45.0517 8.47897 44.4121C8.36777 44.3443 8.39709 44.585 8.26143 44.5028C7.69536 44.1601 7.1349 43.8182 6.58317 43.4931C5.63778 42.9438 4.73051 42.213 4.03591 41.334C3.92159 41.1892 4.20261 41.2525 4.09794 41.1026C4.03534 41.0126 3.97212 40.9166 3.908 40.8154C3.23064 39.7328 3.10046 38.3611 2.29622 37.9855C2.11659 37.274 1.9436 36.4174 1.95188 35.7662C1.95766 35.3463 2.21539 35.6935 2.03823 35.2223C1.99857 35.1146 1.87352 35.2915 1.8257 35.1265C1.62524 34.4334 1.53519 33.6613 1.33423 32.9801C1.29304 32.8418 1.16017 32.9042 1.1281 32.8683C0.866017 32.5653 1.11008 31.9484 1.11493 31.8226C1.14629 30.8623 0.970888 30.1957 0.846673 29.3302C0.818253 29.1306 0.665027 29.3945 0.630895 29.203C0.573216 28.8736 0.521002 28.5445 0.47378 28.207C0.376027 27.5093 0.31906 26.8037 0.314174 26.1223C0.313302 25.8967 0.493008 26.088 0.500998 25.98C0.536211 25.5059 0.22353 25.425 0.261275 24.9636C0.269221 24.867 0.410847 24.913 0.425042 24.8947C0.648354 24.6133 0.300019 24.3902 0.289749 24.3203C0.154576 23.4316 0.505543 22.8609 0.481841 22.0058C0.479221 21.9021 0.295164 22.1295 0.298976 21.838C0.327765 19.9079 0.656273 17.8364 1.42591 16.0349C1.54816 15.7536 1.59944 16.0041 1.62128 15.9908C1.96203 15.7914 1.72091 15.4857 1.74793 15.3871C1.79818 15.2113 1.87235 15.0437 1.95367 14.8902C2.21591 14.3961 2.53104 13.9916 2.43913 13.4982C3.94029 10.9296 5.52803 8.17263 8.11999 6.49347C8.28745 6.38297 8.45644 6.27422 8.6273 6.16763C8.66116 6.14604 8.70961 6.32167 8.77666 6.27807C9.58693 5.7559 9.2801 5.66712 9.59227 5.02329C9.67187 4.86057 10.2962 4.87114 10.3472 4.86889C10.5356 4.8579 10.5537 5.15542 10.6079 5.14004C11.0502 5.00903 10.5028 4.38617 10.9863 4.03821C11.0022 4.02859 11.0272 4.19719 11.0763 4.18064C11.2293 4.12958 11.3197 3.99183 11.4732 3.94829C11.827 3.84963 12.1504 4.11173 12.4563 3.62717C12.4953 3.56561 12.1497 3.23081 12.607 2.95922C12.723 2.89065 13.0843 2.65764 13.3955 2.47313C13.5831 2.3611 13.7553 2.27177 13.8493 2.23311C14.1079 2.12892 14.0102 2.35218 14.031 2.3483C14.7709 2.19704 14.5612 2.39964 14.9973 2.52761C15.4237 2.66973 15.0779 2.0559 15.1892 1.9292C15.3013 1.80003 15.8577 1.79167 15.9949 1.81549C16.1332 1.83567 16.0068 1.97092 16.1237 1.97164C16.8909 1.98937 16.3555 1.55238 16.5747 1.38469C17.1088 0.995624 17.6597 1.43718 18.1843 1.42266C18.3282 1.41899 18.1978 1.31542 18.3237 1.28935C18.5947 1.23475 18.8128 1.25063 19.0436 1.24421C19.2416 1.23879 19.4508 1.22253 19.7203 1.14922C19.8091 1.12109 20.305 0.810254 20.6014 1.05815C20.6432 1.09366 20.513 1.21571 20.7305 1.2575C21.0508 1.31871 21.6247 1.40521 21.9742 1.41017C22.2317 1.41317 21.9689 1.16065 22.2826 1.27247C22.4202 1.32287 22.1409 1.4073 22.3977 1.4917C22.6574 1.57478 23.324 1.68877 23.5802 1.7379C23.8332 1.78464 23.728 1.5982 23.7504 1.59156C23.8885 1.55496 24.3919 1.58499 24.4365 1.59617C26.6166 2.07618 28.4796 2.9591 30.5275 3.60402C30.6883 3.65534 30.6414 3.45648 30.6665 3.46265C31.2341 3.59514 30.6498 3.86346 30.9736 4.14588C31.0403 3.80109 31.2412 3.9421 31.6344 4.05196C31.8239 4.10475 31.7725 3.94136 31.7941 3.93492C32.1396 3.84952 32.2331 4.16929 32.2616 4.23832C32.3679 4.49294 32.6486 4.35288 32.721 4.52462C32.793 4.69527 32.4423 4.76392 32.803 4.90673C32.9402 4.83799 32.8236 4.4803 33.0419 4.47968C33.0592 4.47986 33.0786 4.48221 33.1002 4.48704C34.2703 4.69919 36.0006 6.09743 36.6284 6.75752C37.2913 7.39196 37.4976 7.60208 37.8223 8.01959C38.3922 8.78211 38.3407 8.36714 38.8062 8.73306C38.9056 8.811 38.955 8.8806 38.9695 8.94208C39.0403 9.18965 38.6302 9.30471 38.5993 9.42207C38.5538 9.56556 38.7109 9.55219 38.7163 9.67604C38.7189 9.79723 38.5247 9.6783 38.6378 9.87816C38.7534 10.0664 39.2568 10.5114 39.4108 10.5414C39.741 10.5887 39.8926 10.177 40.0615 10.8464C40.07 10.8844 39.8796 10.8263 39.9189 10.9685C40.227 12.0929 40.4313 13.2432 40.4947 14.3646C40.5027 14.5183 40.3113 14.4082 40.3139 14.4978C40.3345 15.43 40.5757 15.0619 40.9638 15.5268C40.5213 15.4686 40.2957 15.7799 40.3796 16.4789C40.4302 16.8995 40.6082 16.8037 40.7743 17.0587C40.8242 17.1349 40.7344 17.4486 40.8295 17.4908C41.0082 17.571 41.1783 17.4984 41.2843 17.5621C41.3626 17.6108 41.4074 17.7395 41.3917 18.0529C41.3896 18.0852 41.2197 18.0047 41.2238 18.1147C41.2477 18.8317 41.5597 18.8846 41.6726 19.651C41.7627 20.2627 41.6574 21.3538 41.6496 22.0499C41.1657 22.0588 41.2962 22.6993 41.6304 22.9609C41.6202 23.4163 41.6301 23.9046 41.5619 24.3394C41.5383 24.491 41.4032 24.3833 41.3871 24.4018C41.1345 24.6688 41.4428 24.8909 41.4475 24.9892C41.465 25.5253 41.3711 26.0019 41.2751 26.4649C41.2272 26.6981 41.1778 26.9267 41.1515 27.1543C41.123 27.3744 41.1367 27.6294 41.2275 27.6665C41.2313 27.6686 41.2677 27.6583 41.3059 27.6432C41.4021 27.6438 41.504 27.635 41.4283 27.809C41.4288 27.8333 41.1583 27.7512 41.3535 27.9956C41.4447 28.088 41.5708 28.1893 41.8775 28.061C42.1637 27.9377 42.4398 27.6771 42.5914 27.3961C42.6681 27.2591 42.6963 26.8018 43.0508 26.6833C43.0985 26.6682 43.1488 26.7622 43.2276 26.7467C43.4822 26.6913 43.2682 26.406 43.6372 26.3828C44.0062 26.3596 44.4678 26.0645 44.646 25.3982C44.6521 25.3774 44.5052 25.1025 44.6154 24.9299C44.7929 24.6528 45.0802 24.28 45.2535 23.9836C45.3368 23.841 45.1387 23.8466 45.1507 23.8204C45.4024 23.303 45.6597 22.8843 45.9862 22.4775C46.2906 22.1099 46.645 21.7819 47.0612 21.3938C47.162 21.2995 47.3128 21.0204 47.517 20.7881C47.5799 20.7166 47.6467 20.6487 47.6858 20.615C47.6863 20.6152 47.6863 20.6141 47.6799 20.6273C47.686 20.632 47.6155 20.6981 47.7323 20.804C47.8968 20.8555 47.8507 20.8034 47.8659 20.8114C47.8649 20.8103 47.8583 20.8125 47.8507 20.8156C47.8337 20.8232 47.8143 20.8326 47.7974 20.8394C47.7586 20.8569 47.7215 20.8703 47.6815 20.8819C47.2028 21.0291 47.0192 20.0939 46.3431 20.953C46.0695 21.3027 46.3718 22.436 45.4424 22.5618C44.7577 23.3317 43.9785 23.9132 43.2984 24.6618C43.0294 24.9669 42.6457 25.1914 42.2453 25.4269C42.1901 25.4601 42.0982 25.8107 41.9435 25.8619C41.7166 25.9369 41.5504 25.8479 41.3885 25.892C41.2135 25.9384 41.0453 25.9919 40.8813 26.0508C40.4044 26.2293 39.8552 26.2203 39.3846 26.0003C39.3348 25.9775 39.302 25.9544 39.2785 25.9316C39.1898 25.8444 39.2357 25.7686 39.0217 25.6539C38.7561 25.5087 38.4844 25.5744 38.172 25.281C37.9366 25.0567 37.8918 24.5739 37.5961 24.3022C37.3635 24.5943 37.138 24.4242 36.6818 24.1804C36.5941 24.1337 36.5932 24.3008 36.5472 24.2837C36.3578 24.2157 36.2923 24.0205 36.1088 23.9623C36.0641 23.9479 35.9807 24.0445 35.9397 24.0384C35.5887 23.988 35.3944 23.4621 35.3554 23.3717C35.2133 23.0244 34.9912 23.0723 34.8266 22.8775C34.6554 22.6828 35.0236 22.8005 34.7954 22.6072C34.7036 22.5314 34.6018 22.4583 34.4912 22.3893C34.0576 22.0827 33.518 21.7975 33.0764 21.5602C32.8588 21.4444 32.9289 21.6736 32.896 21.6605C32.4265 21.4635 32.0402 21.0739 31.6412 21.2615C31.6928 20.3175 31.3294 21.2044 30.7408 20.755C30.6952 20.72 30.7897 20.3084 31.0188 20.3412C31.2472 20.374 31.5027 20.6306 31.8215 20.6755C31.897 20.6854 32.4447 20.5169 32.5087 20.5228C32.9981 20.5586 32.775 21.144 32.7797 21.184C32.8499 21.6314 33.4926 21.4987 33.6267 21.5396C34.0489 21.664 34.3774 21.8672 34.7039 22.0411L34.6784 22.0271C34.8364 22.1015 34.9892 22.1752 35.1479 22.2401C35.4849 22.3818 35.7483 22.0743 35.9782 22.2574C36.7128 22.8694 36.5483 23.5135 37.4782 23.623C37.6752 23.6422 37.8128 23.1968 38.0662 23.8183C38.0783 23.856 38.2535 24.37 38.5752 24.3309C38.6154 24.3261 38.683 24.2157 38.7226 24.2275C38.9883 24.3086 39.0925 24.4879 39.3768 24.5831C39.521 24.6307 39.6818 24.6765 39.846 24.7332C39.9571 24.7655 40.0524 24.7924 40.1267 24.8326C40.2097 24.8825 40.308 25.1269 40.3744 25.1803C40.4531 25.257 40.5342 25.2178 40.5965 25.1738C40.7331 25.1046 40.8529 25.0419 40.9769 25.1136C41.2191 25.2521 40.967 25.6663 41.4779 25.6383C41.3884 25.3137 41.317 24.9735 41.2338 24.6446C41.8481 24.4514 42.4203 24.2285 42.5881 24.0548C42.8963 23.7231 43.1824 23.452 43.465 23.1623C43.5636 23.0615 43.3344 23.0339 43.4366 22.9232C43.8684 22.4584 44.3528 22.1776 44.7909 21.7001C45.1293 21.3306 45.4053 20.8192 45.7657 20.4321C46.013 20.469 46.2618 20.3321 46.5092 20.1435C46.6358 20.0471 46.753 19.9443 46.8981 19.8244C46.9427 19.7884 46.9638 19.7697 47.0438 19.7107C47.0639 19.6961 47.0858 19.6806 47.1164 19.6607C47.1198 19.6591 47.1766 19.6187 47.2751 19.5717C47.3314 19.547 47.3977 19.511 47.5699 19.4745C47.658 19.4584 47.7775 19.4383 47.9692 19.4616C48.0606 19.4445 48.7054 19.6607 48.9005 20.1088C49.1132 20.5409 49.0373 20.8235 49.0105 20.9696C48.9729 21.122 48.9348 21.1941 48.9069 21.2513C48.8539 21.3544 48.8058 21.4158 48.8088 21.4126C48.7917 21.4367 48.7779 21.4547 48.7656 21.4703C48.7411 21.5012 48.7225 21.5229 48.7047 21.5431C48.6118 21.6464 48.5641 21.69 48.4974 21.7517C48.4954 21.7535 48.4934 21.7553 48.4914 21.757C48.3449 21.8844 48.2833 21.8029 48.1645 21.8751C47.7211 22.1471 48.1319 22.2161 48.0756 22.3502C47.8586 22.9141 47.2465 22.4264 46.8584 22.9565C46.8525 22.9649 46.8559 23.025 46.8665 23.1038C46.9013 23.2652 46.9502 23.5669 46.9466 23.6065C46.8851 24.0222 46.792 23.5837 46.6387 23.7765C46.3552 24.1385 46.1058 24.3724 45.926 24.9092C45.8752 25.0643 45.8913 25.5354 45.5556 25.7035C45.5115 25.7258 45.4082 25.635 45.3837 25.6596C44.9496 26.1087 45.2992 26.3486 45.2238 26.7295C45.1478 27.1121 44.5787 27.41 44.44 27.4528C44.0843 27.5669 44.5017 27.2098 44.4906 27.1852C44.3893 26.8837 44.1953 27.2406 43.9876 27.4759C43.6284 27.2615 43.383 27.6087 43.7699 27.7205C43.8157 27.7294 43.9338 27.5162 43.9876 27.4759C44.1493 27.9373 43.8666 28.3962 43.1545 28.5445C42.9883 28.5765 42.9228 28.503 42.8238 28.5025C42.7116 28.5017 42.6275 28.578 42.214 28.8438C42.0204 28.9561 41.9408 29.0536 41.8842 29.1562C41.8148 29.2523 41.7593 29.3882 41.3833 29.4019C41.0217 29.4078 40.6293 29.2285 40.3875 28.9982C40.1509 28.7791 40.0194 28.5486 39.9203 28.3218C39.6589 27.688 39.8186 27.3041 39.8608 27.061C39.9225 26.8113 39.9777 26.614 39.999 26.4212C40.0244 26.1901 39.83 26.3859 39.8417 26.2262C39.8686 25.8173 40.0341 25.4722 40.013 25.0564C40.0108 25.0193 39.8385 25.0931 39.8479 24.9676C39.9126 24.0036 40.0262 23.1488 39.9921 22.0929C39.9773 21.5896 39.8268 20.6863 39.7962 20.1603C39.756 19.4136 39.817 18.5079 39.7458 17.7678C39.7293 17.5962 39.7077 17.4351 39.678 17.2873C39.5742 16.766 39.4257 16.9024 39.2862 16.6916C39.0167 16.2846 39.3084 15.4828 39.3542 15.3745C39.3559 15.3702 39.4519 15.8091 39.5051 15.5612C39.6621 15.4006 39.3555 15.3793 39.3542 15.3745C39.3855 15.3009 39.2999 14.4223 39.2389 14.258C39.2071 14.1683 39.0612 14.2447 39.0474 14.1975C38.7232 13.08 38.4445 12.0165 38.0807 11.117C38.0759 11.1002 38.2441 11.046 38.2301 11.0064C38.0783 10.574 37.7938 10.3788 37.5118 10.231C37.4052 10.1587 37.2985 10.0847 37.1924 10.0047C36.7079 9.63805 36.4608 9.29242 36.4595 8.85211C36.1535 8.57524 35.8358 8.08109 35.6367 7.80319C35.4369 7.5231 35.1829 7.76011 35.1577 7.74723C34.3364 7.37028 34.0326 6.94279 33.2153 6.49003C33.016 6.38188 32.7002 6.24535 32.3724 6.13007C32.0361 6.0098 31.6951 5.89731 31.4512 5.82157C31.0545 5.69913 30.8497 5.53573 30.4749 5.4498C30.4243 5.43817 30.42 5.59821 30.4033 5.59818C29.9422 5.62009 30.2619 5.34418 30.2024 5.2516C29.9867 4.91646 29.8429 4.72685 29.2887 4.65202C29.1611 4.63453 28.6405 5.01856 28.4166 4.97628C28.1232 4.91959 28.2897 4.77358 27.9811 4.72063C27.9547 4.71602 27.923 4.82941 27.7431 4.76562C26.9089 4.47166 26.0043 4.1306 25.1182 3.91206C24.9975 3.8819 25.1044 4.10269 24.9302 4.06262C24.1124 3.87467 23.2258 3.67125 22.4555 3.45273C22.2673 3.39875 22.4087 3.28974 22.373 3.2444C22.1478 2.9681 21.7297 3.25523 21.6726 3.25496C20.7269 3.24221 19.9601 3.1058 19.2195 3.13348C18.7524 3.15745 18.2837 3.20489 17.804 3.33317C17.7203 3.35278 17.2228 3.81563 16.9103 3.57274C16.8911 3.55562 16.5575 3.30634 16.4042 3.58213C16.3959 3.59931 16.5886 3.71308 16.3288 3.77502C16.0654 3.83884 15.7183 4.08392 15.3208 4.07266C15.1988 4.06677 14.7925 3.90697 14.6241 4.30707C14.6219 4.31301 14.6125 4.35521 14.5962 4.41479C14.5133 4.6398 14.3189 5.09598 14.0073 4.92795C13.9422 4.89239 13.743 4.51619 13.4599 4.96134C13.4068 5.04684 13.597 5.03343 13.429 5.21566C13.1736 5.49456 12.707 5.67784 12.4478 6.09444C12.4022 6.16768 12.3 6.59396 11.9551 6.57887C11.9009 6.57662 11.8817 6.41548 11.7577 6.48778C11.166 6.83233 10.6577 7.34689 10.0454 7.70927C9.82843 7.8382 9.78671 7.58024 9.544 7.69595C9.45747 7.7373 9.34472 7.80011 9.22843 7.87557C9.0287 8.00312 8.82581 8.17288 8.74634 8.33098C8.62402 8.57701 9.06806 8.66718 8.81359 8.93495C7.73363 10.0844 6.59623 11.2377 5.67405 12.6708C5.5376 12.8848 5.75722 12.7723 5.56875 13.0904C5.13833 13.8172 4.59199 14.9301 4.07809 15.925C3.82191 16.4097 3.59256 16.9448 3.37371 17.3192C2.92007 18.13 3.05846 16.9821 2.78927 17.638C2.66071 17.9625 2.99565 18.4212 2.9936 18.4995C2.96873 19.3101 2.7087 19.8424 2.69274 20.5825C2.69041 20.7346 2.87444 20.6023 2.87091 20.7314C2.86105 21.1698 2.75693 21.6321 2.75616 22.055C2.75638 22.2476 2.88815 22.2133 2.87371 22.3879C2.84176 22.8066 2.78674 23.1737 2.67217 23.5907C2.66178 23.6286 2.49427 23.379 2.49457 23.6912C2.49623 24.2012 2.40613 24.8448 2.57618 25.4237C2.62767 25.598 2.92411 25.576 2.75269 25.9684C2.71746 26.0499 2.34981 25.9887 2.70219 26.3915C2.75984 26.4622 3.25747 27.1425 3.04072 27.5309C3.00537 27.5948 2.89432 27.7263 2.83268 27.8676C2.79451 27.9583 2.7752 28.0516 2.8048 28.1324C2.81633 28.1606 2.95801 28.0202 2.99944 28.1971C3.14288 28.8212 3.22363 29.4813 3.3729 30.1198C3.41303 30.2897 3.5372 30.007 3.59219 30.263C3.7427 30.9615 3.8433 31.845 3.91091 32.5356C3.93529 32.7889 3.76978 32.6398 3.75821 32.6606C3.57001 32.997 3.9252 33.1152 3.96122 33.2067C4.18398 33.7908 4.12064 34.278 4.27409 34.8188C4.31598 34.9668 4.44709 34.8283 4.46697 34.8553C4.66575 35.137 4.34187 34.9646 4.35365 35.1682C4.38632 35.7383 4.54059 36.3406 4.70505 36.8688C4.76606 37.0628 4.88092 36.7959 4.93335 36.9678C5.20717 37.8754 5.59361 38.9128 5.78429 39.2437C5.82394 39.3012 5.86341 39.3579 5.90298 39.414C6.00317 39.5551 5.82746 39.5681 5.82789 39.6164C5.83434 39.9599 6.31971 40.004 6.39763 40.0335C6.76484 40.1857 6.7974 40.3681 7.08491 40.5513C7.35668 40.7206 7.65149 40.8914 7.97116 41.0634C9.58932 41.9501 11.1367 43.0599 12.3904 43.8466C14.1357 44.9438 15.685 45.8676 17.0063 45.9217C17.2647 45.9257 17.5346 45.9267 17.8063 45.9241C17.9531 45.9228 17.8057 45.7361 17.9327 45.7325C19.5694 45.6936 21.1797 45.7248 22.8099 45.5742C22.944 45.5621 22.7411 45.3977 22.9537 45.3723C23.3922 45.3186 23.9461 45.2885 24.3956 45.3075C24.6131 45.3166 24.3366 45.4916 24.5559 45.4975C25.0702 45.5109 25.6141 45.4712 26.1319 45.3862C26.3515 45.3496 25.9986 45.2071 26.2852 45.1733C28.2377 44.9359 30.1236 44.6059 32.0988 44.4062C32.2227 44.3936 32.3987 44.6712 32.6331 44.6138C32.6551 44.6084 32.6776 44.6002 32.7004 44.5889C32.6991 44.4847 32.6706 44.3685 32.6554 44.2604C34.8179 43.6898 37.2836 43.2109 38.8996 42.5008C38.633 42.6693 38.7818 42.5916 38.8205 42.5381C38.8856 42.4718 38.9644 42.3822 39.0494 42.2787C39.2153 42.077 39.3866 41.8478 39.5579 41.6079C39.6253 41.513 39.3503 41.5675 39.4808 41.3813C40.2278 40.3035 40.8892 39.1294 41.7846 38.0254C41.8726 37.9163 42.1262 38.158 42.2977 37.7725C42.326 37.7076 42.6109 37.1423 42.6261 36.9709C42.6277 36.9464 42.4326 36.9625 42.5309 36.788C43.1086 35.7673 43.7541 34.731 44.4239 33.7638C44.5327 33.607 44.5787 33.8674 44.6576 33.7562C45.2121 32.9738 45.6147 32.0077 46.1997 31.2886C46.5915 30.8079 46.7382 31.1444 47.1476 31.0075C47.2053 30.9884 47.3973 30.6616 47.5537 30.7265C47.9467 30.8902 48.2589 31.2787 48.6886 31.4342C48.7806 31.4688 48.9428 30.9684 48.9971 31.3495C49.0001 31.3762 48.8853 31.7378 48.9103 31.8553C48.9271 31.9373 49.1319 31.9225 49.1299 32.0691C49.128 32.2153 48.9339 32.2674 48.899 32.4969C48.8659 32.7251 49.0808 32.7406 48.8913 33.1211ZM34.6496 6.60152C34.4683 6.29072 34.117 6.77706 34.4729 6.83456C34.4904 6.83685 34.6588 6.61711 34.6496 6.60152ZM43.0014 24.3217C43.5147 24.1409 43.4459 23.6673 43.0744 23.757C42.695 23.8586 42.8421 24.3843 43.0014 24.3217ZM39.4793 25.4667C39.4836 25.4714 39.4879 25.476 39.4922 25.4804C39.8432 25.8248 40.106 25.0342 39.7133 25.0588C39.7065 25.0586 39.6857 25.087 39.6587 25.1288C39.5819 25.2397 39.4636 25.4495 39.4793 25.4667ZM46.4739 32.3618C46.4829 32.362 46.6249 32.1281 46.6215 32.1182C46.5283 31.8977 46.2445 32.3656 46.4739 32.3618ZM35.7165 23.0995C35.7749 23.2893 36.2173 23.4837 36.153 23.2455C36.1015 23.0517 35.6421 22.8596 35.7165 23.0995ZM18.2341 1.71072C18.2279 1.70229 18.0332 1.71911 18.0439 1.76874C18.0782 1.92745 18.3392 1.84871 18.2341 1.71072ZM28.7602 19.6667C29.8125 20.0839 30.2434 20.9639 29.094 20.4825C28.8847 20.394 29.6281 20.4326 29.3772 20.2781C28.9212 19.9972 28.4405 20.288 28.0214 19.8756C27.9479 19.8018 28.7013 19.6425 28.7625 19.6665C28.7617 19.6666 28.761 19.6667 28.7602 19.6667ZM34.8793 5.89509C34.8792 5.88476 34.6502 5.73544 34.6413 5.74012C34.4207 5.8278 34.8707 6.121 34.8793 5.89509ZM8.16192 6.74998C8.13784 6.74448 7.63896 7.14361 7.63455 7.17196C7.58892 7.61675 8.57955 6.82281 8.16192 6.74998ZM41.6371 22.0616C41.8395 22.3597 41.8692 22.7225 41.6307 22.9596C41.6413 22.6649 41.6365 22.3672 41.6371 22.0616Z" fill="#5882E3"/>
<path d="M24.9684 12.8721C25.0145 13.0538 24.951 13.2858 24.8686 13.4592C24.8431 13.5136 24.738 13.4821 24.7156 13.5194C24.6719 13.5925 24.7215 13.6629 24.6699 13.735C24.6523 13.7595 24.4855 13.7226 24.4709 13.7484C24.3918 13.8896 24.4299 14.0262 24.3893 14.1688C24.189 14.8638 24.1012 15.5577 23.9982 16.2712C23.9643 16.5082 23.8015 16.784 23.8588 17.029C23.8657 17.0582 24.0136 17.0466 24.0255 17.0525C24.2081 17.1457 23.9118 17.1057 23.8702 17.1603C23.7057 17.3767 23.6827 17.6201 23.7313 17.8308C23.7524 17.9204 24.0485 17.8431 23.8808 17.9258C23.8694 17.9315 23.7139 17.9029 23.6963 17.9265C23.6567 17.9783 23.6803 18.0895 23.6661 18.1324C23.6381 18.2161 23.6391 18.2301 23.6341 18.3096C23.626 18.4182 23.5431 18.5435 23.5738 18.6599C23.5809 18.6847 23.7425 18.6588 23.7682 18.699C23.7938 18.7393 23.776 18.8419 23.7368 18.8749C23.6976 18.908 23.5722 18.8881 23.5431 18.893C23.2973 18.9317 23.6298 19.0703 23.6375 19.086C23.7678 19.3795 23.5653 19.6137 23.5547 19.8746C23.5467 20.0797 23.6007 20.3011 23.5835 20.4913C23.5626 20.7161 23.4669 20.9082 23.4716 21.1335C23.4719 21.1571 23.6616 21.1381 23.6624 21.167C23.6704 21.4724 23.6358 21.7717 23.4938 22.0722C23.4794 22.102 23.3159 22.0549 23.2916 22.0841C23.1467 22.2633 22.8058 22.5362 23.5204 22.687C23.4859 22.8133 23.4491 22.9647 23.2982 23.0685C23.2011 23.1353 23.0244 23.0566 23.0968 23.1482C23.1129 23.1689 23.2721 23.1513 23.2843 23.1817C23.3357 23.309 23.2767 23.4524 23.3516 23.5818C23.3672 23.6084 23.509 23.6089 23.534 23.6175C23.737 23.6898 23.3907 23.7723 23.3648 23.7927C23.1712 23.9471 23.237 24.077 23.2236 24.2356C23.2204 24.2723 23.4128 24.2395 23.4165 24.2751C23.4334 24.4621 23.407 24.6369 23.3119 24.8179C23.2903 24.8571 23.1308 24.8106 23.1122 24.8288C23.0322 24.9091 23.3366 24.9458 23.2658 25.0222C23.2513 25.0383 23.1134 25.0205 23.098 25.0227C22.8565 25.0566 23.1922 25.1183 23.1989 25.131C23.2916 25.2919 22.9325 25.3684 22.9728 25.5267C22.978 25.5455 23.1558 25.5151 23.1596 25.5671C23.1869 25.9065 23.1145 26.2711 22.9514 26.5893C22.926 26.6416 22.7972 26.5939 22.7808 26.5962C22.5236 26.6333 22.8605 26.6925 22.872 26.7108C22.9542 26.854 22.6606 26.9563 23.0581 27.075C22.8747 27.6376 23.054 28.2286 22.6337 28.7602C22.6288 28.7668 22.4635 28.7368 22.4544 28.75C22.3433 28.9049 22.605 28.9064 22.9085 29.0585C22.9846 29.0978 22.5924 29.1412 22.5636 29.1449C22.4572 29.1602 22.213 29.1025 22.1919 29.1093C22.0262 29.1649 22.8465 29.25 22.8327 29.3628C22.8309 29.366 22.6821 29.3326 22.666 29.34C22.6154 29.3626 22.6716 29.3983 22.6163 29.4187C22.488 29.467 22.0895 29.4262 22.3066 29.5569C22.3347 29.5734 22.8006 29.6207 22.7642 29.7172C22.7497 29.7543 22.7305 29.9274 22.6909 29.9755C22.6524 30.0196 22.5099 29.9593 22.5029 29.9619C22.2838 30.0535 22.2121 29.9856 21.9097 29.9952C21.6092 29.9981 22.299 30.123 22.3696 30.1671C22.4405 30.2101 22.2572 30.2715 22.1946 30.283C22.1329 30.2924 22.0482 30.2383 22.0115 30.2502C21.7735 30.3129 22.3295 30.4037 22.4165 30.4971C22.5134 30.6163 22.4286 30.6731 22.2621 30.7361C22.1969 30.7396 22.0491 30.8381 21.8642 30.8112C21.6488 30.7791 21.6106 30.6216 21.6006 30.5963C21.5809 30.5454 21.5086 30.6499 21.47 30.6093C21.4614 30.5997 21.454 30.5899 21.4476 30.58C21.3963 30.5221 21.4902 30.4112 21.3235 30.4016C21.2939 30.3985 20.9881 30.4947 21.1589 30.3346C21.1833 30.3112 21.3046 30.261 21.3101 30.2147C21.3188 30.1456 21.2881 30.0457 21.219 30.021C21.1681 30.003 21.0192 30.1636 21.0439 30.0822C21.0548 30.0457 21.1832 30.012 21.1944 29.9486C21.2057 29.885 21.1319 29.7917 21.1016 29.7586C21.0713 29.7253 20.9564 29.8421 20.9454 29.8456C20.8826 29.8657 20.7702 29.8473 20.766 29.8418C20.5278 29.5671 20.4929 29.1229 20.1642 28.9113C20.1388 28.8948 20.0295 29.0275 20.0244 29.0262C19.903 29.0036 20.2848 28.7452 20.3433 28.5874C20.1022 28.8365 20.118 28.7626 20.0407 28.7382C20.0032 28.7266 19.9208 28.8342 19.9088 28.8416C19.7279 28.9484 19.8899 28.7379 19.9217 28.6935C20.0385 28.53 19.8465 28.6689 19.9237 28.5589C20.0001 28.4494 20.1763 28.35 20.1247 28.302C20.0232 28.376 19.8309 28.642 19.7563 28.6418C19.4778 28.6443 19.3907 28.2038 19.2943 28.0735C19.1975 27.9427 19.1448 27.9235 19.1086 27.826C19.0446 27.6511 18.9208 27.8661 18.7687 27.872C18.6172 27.8783 19.0656 27.4889 19.1435 27.3872C19.2214 27.2856 19.1187 27.3683 19.1541 27.3052C19.1895 27.2423 19.2784 27.208 19.2656 27.159C19.2521 27.1094 19.0107 27.1901 18.9068 27.2746C18.6869 27.4538 18.5192 27.7034 18.5087 27.5481C18.5083 27.539 18.6324 27.4427 18.625 27.4136C18.5659 27.1887 18.4208 27.036 18.3533 26.8203C18.3442 26.7905 18.4833 26.6847 18.4794 26.6659C18.4389 26.47 18.2748 26.7182 17.982 26.8844C18.3006 26.5926 18.4517 26.3708 18.3638 26.2794C18.3106 26.2239 18.1871 26.3669 18.0586 26.426C18.0199 26.4439 18.0737 26.3147 18.004 26.3702C17.7758 26.5515 17.5821 26.8168 17.5802 26.6315C17.5804 26.623 17.7062 26.5246 17.6988 26.5035C17.6534 26.3683 17.4278 26.5711 17.3024 26.4959C17.2313 26.4535 17.2112 26.2994 17.1783 26.1746L17.2826 26.2567C17.2599 26.2163 17.2369 26.1805 17.2125 26.1568C17.4611 25.7402 17.3042 25.7767 17.094 26.0411C17.0321 25.9888 16.9483 25.9615 16.9052 25.8828C16.8903 25.8558 16.9762 25.7433 16.981 25.7285C17.0567 25.4971 16.8626 25.7606 16.8414 25.763C16.6184 25.7766 16.6097 25.4869 16.3365 25.609C16.3267 25.6134 16.152 25.9017 16.2322 25.6644C16.2378 25.6481 16.3641 25.5434 16.2974 25.4921C16.231 25.441 16.1811 25.2063 16.0043 25.2877C15.9614 25.307 15.7697 25.5141 15.8217 25.2993C15.8288 25.2702 15.8819 25.189 15.8978 25.1365C15.9476 24.9687 15.77 25.2599 15.8697 24.9851C15.9693 24.7104 15.9915 24.4767 15.7933 24.5987C15.7871 24.602 15.6382 24.8288 15.6075 24.8082C15.5584 24.775 15.5091 24.6868 15.4531 24.6607C15.4263 24.6482 15.3681 24.8066 15.3621 24.807C15.1445 24.8033 15.0848 24.6082 14.9193 24.4596C14.8887 24.4319 14.6933 24.5937 14.6991 24.3984C14.7041 24.1842 15.118 23.4669 14.8562 23.5664C14.7486 23.6052 14.2538 24.5289 14.3338 23.9768C14.035 23.9989 13.8993 23.6504 13.5778 23.7391C13.5633 23.7429 13.4305 24.005 13.4054 23.9921C13.3683 23.9723 13.3906 23.8359 13.3653 23.8177C13.2594 23.7381 13.1135 23.8126 13.0035 23.7586C12.9617 23.7384 13.0197 23.609 12.9693 23.585C12.9188 23.5612 12.8288 23.7274 12.784 23.6204C12.7506 23.539 12.8029 23.1592 12.7408 23.0952C12.6341 23.4536 12.5869 23.4317 12.4718 23.502C12.4497 23.5157 12.4329 23.6461 12.4206 23.6591C12.4022 23.6793 12.3904 23.6773 12.3803 23.6695C12.3783 23.6692 12.3724 23.6668 12.3704 23.6664C12.3523 23.6514 12.342 23.6197 12.3059 23.656C12.2922 23.6697 12.2484 23.7896 12.2344 23.8074C12.1109 23.963 12.1197 23.6566 12.1271 23.605C12.1453 23.4062 12.0524 23.546 12.041 23.4575C12.0325 23.3701 12.134 23.3158 12.108 23.2524C12.0569 23.1225 11.937 23.0756 11.8517 23.0115C11.8174 22.9868 11.7463 23.1442 11.7393 23.144C11.6377 23.1279 11.6725 22.9285 11.4279 23.1694C11.9059 22.4303 11.3317 23.2042 11.333 22.9816C11.3333 22.9637 11.5824 22.6315 11.6496 22.607C11.7164 22.5822 11.6821 22.72 11.7805 22.6751C11.8047 22.6656 12.0888 22.3919 12.108 22.3766C12.2663 22.2638 11.9184 22.7767 11.9028 22.8075C11.7315 23.1365 12.0374 22.8359 12.0668 22.8198C12.2146 22.7559 12.2355 22.8667 12.343 22.8141C12.4125 22.7798 12.5847 22.4114 12.6049 22.4341C12.6559 22.4902 12.5829 22.8184 12.668 22.7899L12.6274 22.7774C12.66 22.7683 12.7058 22.7219 12.7743 22.6178C12.8347 22.526 12.9254 22.0898 12.9447 22.4588C12.9464 22.4822 12.9417 22.8137 13.0482 22.6347C13.0617 22.6121 13.0986 22.4881 13.11 22.4801C13.1851 22.4293 13.1926 22.5393 13.2671 22.5107C13.3417 22.4821 13.4365 22.4349 13.4922 22.499C13.5258 22.5375 13.503 22.7838 13.5036 22.8462C13.5049 23.0257 13.6524 22.7813 13.6199 22.9878C13.5863 23.195 13.4205 23.4705 13.4626 23.6263C13.5755 23.3096 13.6957 22.986 13.8118 22.6683C14.0073 22.7486 14.1643 22.922 14.3649 22.9838C14.3901 22.9913 14.4305 22.8131 14.4594 22.8168C14.581 22.8334 14.6297 22.9918 14.7624 22.9911C14.866 22.9901 15.0371 22.8547 15.1495 22.8508C15.0526 23.228 15.2392 23.1675 15.3227 23.2442C15.3518 23.2708 15.3069 23.3632 15.3169 23.4047C15.3552 23.5588 15.4554 23.2306 15.503 23.1937C15.7084 23.0374 15.3897 23.7379 15.52 23.7792C15.5265 23.7815 15.7849 23.4508 15.8079 23.4336C15.952 23.3187 15.7569 23.5676 15.7875 23.6164C15.843 23.7055 15.8539 23.8204 16.0007 23.76C16.0434 23.7418 16.226 23.5479 16.1877 23.7508C16.1827 23.7773 16.1166 23.8958 16.1185 23.9057C16.1568 24.0747 16.3566 23.6985 16.4816 23.6013C16.607 23.5043 16.5575 23.8113 16.5347 23.8953C16.4773 24.1134 16.4549 23.9588 16.4422 23.9765C16.2921 24.1866 16.3758 24.1814 16.4137 24.2264C16.2224 24.5978 16.3001 24.6115 16.4536 24.2716C16.4702 24.2344 16.4143 24.2484 16.4137 24.2264C16.6505 23.8884 16.7521 23.8839 16.6487 24.2642C16.5999 24.4423 16.463 24.6056 16.6139 24.6018C16.6822 24.6004 16.8025 24.3381 16.8867 24.2954C17.0797 24.1984 17.0831 24.5089 17.2101 24.5332C17.2564 24.5422 17.2972 24.384 17.3317 24.3854C17.4233 24.3889 17.4259 24.5269 17.5262 24.5152C17.5354 24.514 17.6028 24.3625 17.6256 24.3734C17.8007 24.4532 17.8896 24.6279 18.0571 24.7301C18.0829 24.7457 18.1198 24.7572 18.1606 24.7676C18.2144 24.8092 18.3778 24.9163 18.4187 24.9707C18.4969 25.015 18.5924 25.058 18.6286 25.1127C18.7231 25.2532 18.6962 25.5668 18.8383 25.6268C18.9295 25.6655 19.0321 25.5348 19.1398 25.4837C19.3484 25.3845 19.1679 25.7549 19.1386 25.811C19.1372 25.8124 19.0541 25.7846 19.0243 25.8743C18.9173 26.0166 19.1375 25.8109 19.1386 25.811C19.12 25.8476 19.2078 25.9871 19.2521 25.9865C19.2763 25.9862 19.3792 25.8683 19.3898 25.8703C19.6412 25.922 19.8195 26.0408 19.9261 26.2464C19.9266 26.2514 19.8007 26.3726 19.8035 26.3826C19.8383 26.5248 20.0482 26.4307 20.2101 26.4109C20.3749 26.3941 20.4036 26.481 20.2402 26.7404C20.3245 26.7695 20.3127 26.9428 20.3049 27.0475C20.2963 27.1513 20.5398 26.9137 20.5487 26.913C20.8295 26.886 20.7701 27.1 20.8849 27.2558C20.9399 27.331 21.1043 27.4252 21.2015 27.4706C21.2799 27.5073 21.2563 27.597 21.3449 27.6149C21.3569 27.6175 21.4582 27.5045 21.4645 27.5026C21.6536 27.4373 21.3594 27.6657 21.324 27.7242C21.1947 27.9363 21.1276 28.0511 21.2832 28.0508C21.3184 28.0503 21.7565 27.738 21.8122 27.7523C21.883 27.7703 21.727 27.8831 21.804 27.8985C21.8106 27.9 21.8963 27.819 21.9198 27.8525C22.0284 28.0051 22.1133 28.206 22.2506 28.3546C22.2692 28.3754 22.391 28.229 22.4205 28.2576C22.5589 28.3918 22.6869 28.5699 22.7286 28.7806C22.7382 28.8325 22.6138 28.8833 22.588 28.9141C22.4308 29.0991 22.762 28.9788 22.7765 28.9888C23.0472 29.1573 23.0245 29.4572 23.1515 29.6972C23.1283 29.6527 23.0963 29.5932 23.0366 29.5105C23.0066 29.4692 22.9692 29.422 22.9196 29.369C22.8796 29.3268 22.7889 29.2319 22.6303 29.1316C22.3517 28.9173 21.6574 28.817 21.2854 28.9796C20.885 29.1175 20.6669 29.368 20.597 29.4413C20.5488 29.4853 20.3442 29.6351 20.2719 29.6798C20.195 29.7223 20.174 29.7495 20.3233 29.7977C20.3419 29.8081 20.6525 29.8923 20.4457 29.814C20.4327 29.8095 20.2692 29.7815 20.2911 29.7632C20.3129 29.7453 20.2164 29.6696 20.4058 29.6453C20.4651 29.6401 20.7891 29.6516 20.5479 29.5436C20.5318 29.532 19.9749 29.3548 20.3742 29.3798C20.44 29.3836 20.8564 29.4535 20.6541 29.3405C20.6148 29.3188 20.5176 29.3342 20.4653 29.2845C20.3844 29.2094 20.5063 29.15 20.3299 29.0463C20.2985 29.0297 20.0222 28.9306 20.2429 28.9156C20.2775 28.9128 20.4158 28.9428 20.4343 28.9211C20.5224 28.821 20.4445 28.6688 20.5531 28.5681C20.5915 28.5294 20.8158 28.5749 20.8811 28.5362C20.9465 28.4977 21.0143 28.4095 20.9157 28.3489C20.8169 28.2893 20.4507 28.3056 20.4284 28.2342C20.3321 27.9191 20.5713 27.6237 20.6276 27.311C20.6359 27.2655 20.5034 27.2934 20.5063 27.2252C20.5174 26.9658 20.4276 26.5229 20.7184 26.3166C20.951 26.157 21.1036 26.3891 21.2026 26.261C21.2499 26.1988 20.8337 26.0988 20.8215 26.082C20.6974 25.9173 20.8913 25.8159 20.8428 25.6774C20.8328 25.6482 20.6603 25.6651 20.6536 25.6404C20.6294 25.5557 20.7111 25.4723 20.7023 25.3901C20.6979 25.3532 20.5671 25.3518 20.5793 25.3187C20.6069 25.2389 20.6661 25.1711 20.7929 25.1037C20.8044 25.0975 20.9638 25.154 20.9733 25.0968C20.9883 25.004 21.1159 24.8936 20.9979 24.7754C20.9624 24.7403 20.6644 24.7217 20.8744 24.6625C20.9183 24.6501 21.275 24.6902 20.9707 24.5887C20.9203 24.569 20.5107 24.4143 20.7834 24.3626C20.8552 24.3492 21.1506 24.3211 21.1067 24.2795C21.0997 24.2738 20.9384 24.2859 20.9246 24.2527C20.8788 24.1359 20.9026 24.0158 20.8591 23.8927C20.8471 23.8598 20.6788 23.8986 20.6663 23.8499C20.6313 23.7221 20.682 23.5663 20.7406 23.4427C20.7625 23.3972 20.898 23.4367 20.9131 23.4341C21.159 23.3924 20.8328 23.3426 20.8146 23.3234C20.706 23.2047 20.8648 23.1222 20.8291 23.021C20.8197 22.9925 20.6623 23.0043 20.6487 22.998C20.5154 22.9332 20.794 22.9907 20.8269 22.9556C20.9198 22.8573 20.9131 22.7407 20.8985 22.6334C20.8928 22.594 20.7093 22.6288 20.7064 22.5935C20.6857 22.3811 20.7133 22.1727 20.8229 21.9771C20.8439 21.9402 20.9824 21.9707 21.0147 21.9644C21.2405 21.9208 20.9399 21.8259 20.9118 21.806C20.7834 21.7156 20.9085 21.6886 20.889 21.6124C20.791 21.2525 20.8935 20.8017 20.9589 20.47C21.0434 20.0333 21.1913 19.6886 21.1744 19.2677C21.1735 19.2407 20.9866 19.2601 20.9834 19.2367C20.9513 18.9311 21.0359 18.6438 20.9942 18.342C20.9912 18.3172 20.8136 18.3456 20.8027 18.3056C20.7792 18.2234 20.7929 18.1204 20.8524 18.0396C20.8811 18.0002 21.0302 18.0605 21.056 18.0207C21.1165 17.9272 21.133 17.8276 21.1084 17.7321C21.0976 17.6912 20.915 17.7451 20.915 17.6925C20.9111 17.3369 20.8943 16.9627 21.1411 16.6151C21.1581 16.5908 21.5251 16.5827 21.4569 16.527C21.3554 16.5191 21.2358 16.5149 21.1273 16.5091C21.0886 15.9765 21.2344 15.4641 21.2731 14.93C21.2747 14.9075 21.0792 14.9396 21.0813 14.8959C21.0933 14.6393 21.0476 14.4053 21.2495 14.1539C21.2692 14.1291 21.6102 14.154 21.5612 14.0771C21.5522 14.0636 21.5106 13.9486 21.4375 13.9166C21.4264 13.9123 21.2664 13.9275 21.263 13.8907C21.2462 13.6749 21.29 13.4576 21.3944 13.2517C21.4116 13.2184 21.5801 13.2602 21.5938 13.2365C21.6896 13.0685 21.5669 12.8768 21.7265 12.716C21.8339 12.6083 22.1259 12.6591 22.4167 12.6095C22.4577 12.6025 22.4664 12.5336 22.6345 12.5355C23.0573 12.5403 23.5189 12.5891 23.9696 12.5902C24.0667 12.5905 23.9653 12.4941 24.1979 12.5569C24.2135 12.5612 24.2891 12.6311 24.368 12.6503C24.4226 12.6636 24.5942 12.6485 24.6638 12.6743C24.7333 12.7002 24.5892 12.7212 24.6706 12.7629C24.753 12.8045 24.948 12.7939 24.9684 12.8721ZM20.2671 27.5127C20.1961 27.6717 20.6213 27.2509 20.4739 27.3069C20.4663 27.3101 20.2704 27.5048 20.2671 27.5127ZM14.0041 23.3452C13.9882 23.6209 14.1784 23.2784 14.196 23.0671C14.2121 22.8555 14.0081 23.2613 14.0041 23.3452ZM13.1381 23.2504C13.165 23.4772 13.4405 22.6748 13.2875 22.806C13.2787 22.8134 13.1365 23.2372 13.1381 23.2504ZM22.4898 12.886C22.4978 12.8854 22.5071 12.8364 22.4993 12.8349C22.3103 12.8024 22.2917 12.9004 22.4898 12.886ZM12.3159 23.2108C12.2974 23.3278 12.4188 23.2325 12.439 23.0874C12.4576 22.9719 12.3423 23.0672 12.3159 23.2108ZM21.8302 30.4159C21.8231 30.4223 21.8296 30.4395 21.855 30.3949C21.965 30.2737 21.9569 30.3334 21.8302 30.4159ZM11.2255 22.48C11.357 22.633 11.0136 23.257 10.8859 23.0485C10.8635 23.0112 11.0976 22.9341 11.0977 22.852C11.0992 22.7034 10.7663 22.9979 10.8451 22.7551C10.8603 22.7114 11.2189 22.4702 11.2264 22.4795C11.2261 22.4797 11.2258 22.4799 11.2255 22.48ZM19.7894 28.0505C19.7847 28.057 19.8146 28.0968 19.8209 28.092C19.973 27.9751 19.9126 27.8946 19.7894 28.0505ZM22.4844 28.6127C22.5015 28.6121 22.5288 28.4968 22.5137 28.491C22.2106 28.4002 22.1547 28.6316 22.4844 28.6127ZM17.2174 26.1446C17.0747 26.2823 17.0088 26.2696 17.0941 26.0414C17.133 26.0791 17.1777 26.1076 17.2174 26.1446Z" fill="#5882E3"/>
</svg>
