<svg width="49" height="49" viewBox="0 0 49 49" fill="none" xmlns="http://www.w3.org/2000/svg">
<path d="M4.01184 1.9452C4.20651 2.17684 4.34427 2.52533 4.42621 2.81903C4.45271 2.912 4.3372 2.92415 4.35128 2.99057C4.37884 3.12027 4.48224 3.19493 4.50123 3.32558C4.50706 3.36911 4.33645 3.40965 4.34588 3.45335C4.39862 3.69229 4.54389 3.85759 4.62849 4.07475C5.06491 5.17905 5.57916 6.19318 6.09794 7.24348C6.27902 7.60684 6.36637 8.06265 6.63407 8.39298C6.66452 8.42985 6.77811 8.3318 6.79311 8.33349C7.02428 8.3619 6.74326 8.47031 6.75442 8.56871C6.79394 8.94937 6.99216 9.32008 7.21027 9.58443C7.30369 9.69712 7.48523 9.42586 7.41508 9.63317C7.41046 9.64738 7.25673 9.69413 7.26186 9.73645C7.27672 9.83739 7.39006 9.97797 7.41492 10.046C7.4624 10.1778 7.475 10.1965 7.53732 10.3082C7.6182 10.4562 7.66228 10.6886 7.78744 10.8349C7.81467 10.8661 7.92693 10.7395 7.98285 10.7819C8.0389 10.8246 8.11114 10.9773 8.10611 11.0444C8.10109 11.1116 7.9804 11.1547 7.96034 11.1778C7.79278 11.3758 8.18617 11.3819 8.20598 11.3996C8.5573 11.7247 8.59108 12.1697 8.81243 12.554C8.97526 12.8358 9.21136 13.1195 9.35904 13.3944C9.53858 13.7295 9.61939 14.0453 9.81568 14.3578C9.83625 14.3909 9.97729 14.2575 10.0027 14.2976C10.2703 14.7204 10.4994 15.162 10.6369 15.6573C10.6504 15.7069 10.4749 15.7339 10.4797 15.7882C10.5135 16.1206 10.472 16.7034 11.186 16.4966C11.2633 16.6859 11.3648 16.917 11.3326 17.1475C11.3118 17.2957 11.0978 17.2891 11.239 17.3754C11.2705 17.3946 11.3844 17.2772 11.4212 17.3118C11.5517 17.435 11.623 17.6075 11.7482 17.7367C11.7711 17.7599 11.796 17.7817 11.8235 17.8012C11.8593 17.8262 11.9732 17.7414 12.0008 17.7373C12.2248 17.7057 12.0236 18.0228 12.0226 18.0664C12.0143 18.3912 12.187 18.5153 12.3269 18.7257C12.3595 18.7747 12.4764 18.6094 12.5131 18.6523C12.7019 18.8765 12.8656 19.1354 12.9661 19.4218C12.9879 19.4856 12.8215 19.5312 12.8252 19.5665C12.8435 19.7216 13.1102 19.5685 13.1329 19.7141C13.138 19.7447 13.016 19.8124 13.0065 19.8254C12.8577 20.0286 13.1736 19.8881 13.1916 19.9005C13.4249 20.052 13.2324 20.3917 13.4173 20.5679C13.4397 20.5888 13.5444 20.4325 13.5988 20.4977C13.962 20.9312 14.2625 21.4596 14.4448 22.0124C14.4732 22.0981 14.3282 22.1153 14.3175 22.1286C14.1497 22.339 14.4687 22.2078 14.4948 22.2257C14.6929 22.3704 14.5546 22.6958 14.9823 22.6251C15.0112 22.6971 15.0418 22.768 15.0736 22.8383C15.2649 23.2362 15.4284 23.6876 15.5319 24.0189C15.7232 24.5915 15.7104 25.2015 15.4642 25.6992C15.4585 25.7113 15.2947 25.6697 15.2842 25.6933C15.1517 25.9737 15.4153 25.956 15.6884 26.2233C15.7561 26.2941 15.3452 26.3652 15.3147 26.3695C15.202 26.393 14.972 26.2839 14.9486 26.295C14.7635 26.3825 15.5685 26.5667 15.5154 26.7538C15.5125 26.7591 15.3737 26.6929 15.3548 26.7038C15.2958 26.737 15.3395 26.8008 15.2753 26.831C15.126 26.9021 14.7375 26.8031 14.9056 27.0284C14.927 27.0578 15.3799 27.1833 15.3006 27.3346C15.2691 27.3958 15.17 27.6667 15.1087 27.7311C15.0488 27.7947 14.9322 27.6837 14.9239 27.6866C14.6563 27.8037 14.6129 27.6952 14.3017 27.6688C13.9923 27.6394 14.6414 27.9053 14.6941 27.9778C14.7466 28.0507 14.5307 28.1221 14.4633 28.1294C14.3956 28.138 14.3298 28.0544 14.2863 28.0698C14.0005 28.1715 14.5554 28.3107 14.6219 28.4267C14.7763 28.7059 14.2517 28.5865 14.133 28.699C14.1006 28.73 14.2213 28.7558 14.2128 28.7946C14.1765 28.9493 13.9922 28.9468 14.0363 29.1692C14.0439 29.2048 14.2431 29.4848 13.9995 29.4459C13.9646 29.4399 13.8713 29.3433 13.8139 29.3832C13.728 29.4429 13.6153 29.5747 13.5982 29.6849C13.5857 29.7664 13.813 29.8045 13.7064 29.8508C13.6589 29.8712 13.5941 29.7389 13.5139 29.7823C13.4342 29.8253 13.3313 29.9983 13.2933 30.0653C13.2556 30.1322 13.4145 30.1844 13.4203 30.1955C13.4528 30.2608 13.4378 30.4275 13.4304 30.4384C13.0848 31.0039 12.5153 31.3437 12.2199 31.9126C12.1963 31.9573 12.3546 32.0295 12.3524 32.0374C12.3108 32.2183 12.0204 31.8443 11.8277 31.8521C12.1191 32.0403 12.0273 32.0607 11.9881 32.1799C11.9691 32.2381 12.0964 32.2909 12.1044 32.3032C12.2189 32.4929 11.9704 32.3871 11.9178 32.3679C11.724 32.2978 11.8773 32.4851 11.7475 32.4384C11.6187 32.3921 11.5129 32.2063 11.4479 32.3C11.5294 32.3988 11.8414 32.521 11.8329 32.622C11.7972 33.0089 11.2322 33.3496 11.0541 33.5501C10.8805 33.7441 10.8456 33.8319 10.722 33.9271C10.4951 34.105 10.7487 34.1639 10.741 34.3652C10.7347 34.5653 10.2973 34.1587 10.1791 34.1056C10.0606 34.0532 10.1521 34.1507 10.0771 34.136C10.0022 34.1214 9.96944 34.0171 9.90634 34.0618C9.84207 34.1079 9.92103 34.3929 10.016 34.4902C10.2192 34.6928 10.5121 34.7869 10.3231 34.8821C10.3121 34.8875 10.2017 34.7726 10.1662 34.7976C9.88684 35.0018 9.70341 35.2763 9.45975 35.513C9.42688 35.5442 9.29085 35.4305 9.26976 35.4483C9.07586 35.6248 9.27427 35.6783 9.48631 35.8432C9.52278 35.8732 9.55965 35.9072 9.595 35.9466C9.21133 35.7462 8.93595 35.7196 8.85185 35.9089C8.80093 36.0229 8.98255 36.0775 9.07225 36.2047C9.09928 36.2431 8.94539 36.2727 9.02024 36.3228C9.26468 36.4869 9.5956 36.5398 9.3906 36.6863C9.38118 36.6925 9.24804 36.6012 9.22611 36.6273C9.08352 36.7956 9.35062 36.941 9.29039 37.1661C9.24319 37.3427 8.9425 37.5583 8.82917 37.7312C8.39063 37.5239 8.41105 37.7437 8.68029 37.957C8.61145 38.0714 8.5669 38.2093 8.46954 38.3051C8.43618 38.3381 8.32221 38.251 8.30612 38.2495C8.05485 38.2226 8.32269 38.4159 8.32155 38.4474C8.29656 38.7819 7.96326 38.8969 8.0415 39.2711C8.04442 39.2843 8.3357 39.4548 8.08045 39.4124C8.06307 39.409 7.97237 39.2513 7.89727 39.3697C7.82182 39.4889 7.53952 39.635 7.58301 39.8796C7.59364 39.9385 7.7745 40.1767 7.54094 40.1559C7.5094 40.1527 7.43199 40.0932 7.37617 40.0828C7.19801 40.0498 7.47806 40.2465 7.19236 40.1632C6.90645 40.0802 6.64983 40.0922 6.72353 40.3583C6.72544 40.3664 6.93362 40.5444 6.89829 40.5945C6.84176 40.6746 6.72141 40.7628 6.66888 40.8494C6.64385 40.8909 6.80214 40.9541 6.80024 40.9629C6.79946 40.9655 6.79868 40.9682 6.79788 40.9708C6.70961 41.2812 6.47748 41.4044 6.27676 41.6959C6.23864 41.7511 6.38077 42.003 6.1692 42.0515C5.93666 42.1089 5.21344 41.6849 5.28479 42.0701C5.31261 42.2298 6.25672 42.6991 5.67437 42.7557C5.67473 43.2181 5.30445 43.5395 5.3715 44.0153C5.37445 44.0365 5.63837 44.1753 5.62197 44.2194C5.59704 44.2847 5.45548 44.2849 5.43341 44.3299C5.33735 44.5183 5.39547 44.7338 5.31828 44.921C5.29767 44.9714 5.22791 44.952 5.17679 44.9665C5.15752 44.9627 5.13779 44.9707 5.12321 44.9927C5.07294 45.0689 5.2073 45.21 5.07057 45.2757C4.9669 45.3249 4.58797 45.2304 4.49054 45.3224C4.82031 45.4987 4.77386 45.5707 4.79456 45.7496C4.79878 45.7839 4.92898 45.8145 4.93701 45.8337C4.97254 45.9126 4.85328 45.9106 4.89612 45.9895C4.90635 46.0086 5.02098 46.0648 5.03592 46.0834C5.1676 46.2424 4.84832 46.248 4.79219 46.2509C4.57973 46.2593 4.71315 46.3684 4.61567 46.4054C4.51795 46.4436 4.47562 46.3049 4.39965 46.3673C4.25398 46.4878 4.18558 46.6933 4.12601 46.8622C4.12116 46.8759 4.11627 46.8893 4.11133 46.9025C4.08631 46.9718 4.26393 46.9785 4.26409 46.9896C4.25732 47.1426 4.03956 47.2463 4.34914 47.4091C3.47206 47.3023 4.40871 47.5152 4.19696 47.6798C4.18006 47.6927 3.76748 47.6396 3.7209 47.5596C3.67454 47.4794 3.82293 47.4042 3.75387 47.2878C3.7366 47.2624 3.39672 47.0269 3.38081 46.9987C3.24907 46.7924 3.84804 46.9622 3.88213 46.9661C4.09715 46.9854 4.07381 46.9057 4.01247 46.8236C3.96722 46.761 3.90165 46.696 3.89605 46.6749C3.83647 46.4474 3.97938 46.3266 3.95493 46.1429C3.94002 46.0229 3.57299 45.8487 3.61947 45.7754C3.77582 45.532 4.32435 45.7018 3.9995 45.2538C3.93078 45.158 3.51072 45.0028 3.91183 44.9874C3.93736 44.9858 4.28684 45.0068 4.14719 44.8395C4.1296 44.8183 4.01524 44.7577 4.01213 44.7404C3.99369 44.6256 4.11355 44.6205 4.11759 44.5096C4.11909 44.4698 4.11902 44.4266 4.1227 44.3836L4.02897 44.6033C4.01867 44.5324 4.01925 44.4619 4.06566 44.4062C4.1088 44.3546 4.36304 44.3456 4.42834 44.3328C4.61603 44.2976 4.37387 44.1307 4.58672 44.1352C4.80084 44.1389 5.0736 44.3293 5.24202 44.2253C4.91986 44.1288 4.591 44.0234 4.26775 43.9237C4.36361 43.6266 4.54994 43.3495 4.62462 43.0258C4.63363 42.9853 4.44812 42.9776 4.45336 42.9328C4.47651 42.7437 4.64618 42.6192 4.65584 42.4112C4.66266 42.2502 4.53395 42.0238 4.54523 41.8429C4.94282 41.8685 4.90504 41.5878 5.0104 41.4231C5.04674 41.366 5.14014 41.4093 5.18905 41.3791C5.37199 41.2656 5.0278 41.2068 4.99855 41.1395C4.88022 40.8452 5.58541 41.1519 5.67579 40.9317C5.6795 40.9219 5.39396 40.5855 5.38456 40.5507C5.31175 40.3398 5.52098 40.5988 5.59211 40.5351C5.6716 40.4647 5.75582 40.4211 5.81027 40.3469C5.83881 40.3095 5.85417 40.2594 5.84594 40.1833C5.83942 40.1264 5.67678 39.9025 5.89048 39.9308C5.91857 39.9343 6.03154 40.0096 6.04313 40.0057C6.24342 39.9286 5.87871 39.7075 5.80157 39.5536C5.72411 39.4002 6.05157 39.4196 6.14052 39.4344C6.37048 39.4732 6.19211 39.5335 6.20869 39.5477C6.40606 39.7186 6.4221 39.6017 6.48192 39.5392C6.85208 39.7334 6.88853 39.6165 6.54251 39.4733C6.50467 39.4578 6.50682 39.5339 6.48192 39.5392C6.16076 39.274 6.17484 39.1409 6.57926 39.1988C6.76875 39.2258 6.92317 39.3812 6.95259 39.1641C6.96585 39.0657 6.69506 38.9623 6.66356 38.8541C6.59145 38.6076 6.93995 38.5166 6.98886 38.3249C7.00647 38.2556 6.83526 38.2457 6.84233 38.1961C6.86038 38.0646 7.01565 38.0171 7.01709 37.8763C7.01701 37.8635 6.85663 37.8163 6.87196 37.7801C6.9851 37.5041 7.19209 37.3139 7.32668 37.0302C7.39175 36.8931 7.4215 36.6085 7.50248 36.4724C7.64222 36.2366 7.99741 36.024 8.0375 35.7847C8.06425 35.6291 7.89936 35.5949 7.82216 35.4902C7.70911 35.338 7.93452 35.2711 8.08144 35.2451C8.13326 35.2279 8.17559 35.2187 8.19321 35.2157C8.19432 35.2156 8.18667 35.256 8.19189 35.2921C8.20071 35.3238 8.2227 35.3529 8.27756 35.3364C8.2884 35.3384 8.29759 35.3397 8.30528 35.3404C8.42745 35.3439 8.19295 35.2182 8.19321 35.2157C8.23807 35.2037 8.4221 34.9163 8.42362 34.8529C8.42497 34.8144 8.27865 34.7565 8.28219 34.7375C8.36825 34.2921 8.55351 33.9375 8.83162 33.6572C8.83813 33.6533 8.97682 33.76 8.99017 33.7497C9.17422 33.6176 9.08484 33.3727 9.08153 33.1574C9.08132 32.938 9.20049 32.8448 9.50361 32.9371C9.55037 32.8074 9.77113 32.7288 9.89882 32.69C10.0276 32.6497 9.76193 32.4369 9.76213 32.4252C9.76452 32.0566 10.0238 32.0322 10.2271 31.805C10.3252 31.6962 10.4541 31.4354 10.5153 31.2872C10.5637 31.1693 10.6715 31.1561 10.6959 31.0348C10.6993 31.0185 10.5673 30.9426 10.5653 30.9354C10.4914 30.7277 10.757 30.9925 10.8259 31.0099C11.0761 31.0735 11.2158 31.0984 11.2165 30.902C11.217 30.8565 10.8442 30.4607 10.8572 30.3881C10.875 30.2939 11.0124 30.4307 11.0271 30.3291C11.0285 30.3205 10.931 30.2542 10.9673 30.2113C11.1346 30.011 11.3515 29.816 11.4903 29.5868C11.5096 29.5558 11.3281 29.4909 11.3533 29.4446C11.4716 29.227 11.6222 29.0076 11.8221 28.8537C11.8717 28.8162 11.9633 28.9166 12.003 28.9265C12.2441 28.9847 12.0117 28.7106 12.0154 28.692C12.0988 28.2409 12.5299 28.1138 12.5993 27.6671C12.6029 27.6422 12.3568 27.3207 12.6713 27.3931C12.692 27.3983 13.0153 27.4701 12.8469 27.3132C12.8362 27.3037 12.6671 27.2736 12.7175 27.2077C12.7689 27.1395 12.7231 26.9757 12.9332 26.9491C12.9988 26.9422 13.329 26.9873 13.133 26.7916C13.1209 26.7749 12.6395 26.4226 13.03 26.5155C13.0942 26.5308 13.4874 26.6863 13.3263 26.4957C13.2945 26.4599 13.1922 26.4671 13.1566 26.3914C13.1006 26.2778 13.2453 26.1991 13.0942 26.0455C13.0679 26.0171 12.8113 25.8729 13.0352 25.8741C13.0705 25.8735 13.2025 25.926 13.2257 25.8987C13.3367 25.7674 13.2723 25.6051 13.3853 25.4864C13.425 25.4434 13.6484 25.4953 13.7148 25.4472C13.7815 25.399 13.847 25.2898 13.7434 25.2355C13.6399 25.1832 13.2768 25.2295 13.2476 25.1676C13.1719 25.0182 13.1946 24.9151 13.2151 24.8065C13.1656 24.5376 13.1629 24.3796 13.1241 24.2545C13.1105 24.2107 13.0058 24.295 12.9782 24.2393C12.9539 24.1915 12.9189 24.1403 12.8769 24.0824C12.6724 23.7724 12.4139 23.3958 12.4469 23.0573C12.4804 22.7014 12.8144 22.9085 12.7722 22.6775C12.7506 22.5654 12.3354 22.7022 12.3107 22.689C12.0627 22.5589 12.121 22.3121 11.9461 22.1589C11.91 22.1274 11.795 22.2619 11.7658 22.2342C11.6652 22.1405 11.6465 21.9801 11.5603 21.8815C11.5213 21.8376 11.4207 21.9216 11.398 21.8718C11.3424 21.7535 11.3211 21.6284 11.3474 21.4541C11.3498 21.4381 11.5276 21.4079 11.4765 21.3256C11.3938 21.193 11.3784 20.9634 11.1711 20.8876C11.109 20.8652 10.8647 21.0368 10.9649 20.8221C10.9857 20.777 11.2958 20.5947 10.9644 20.6631C10.9095 20.6748 10.4347 20.7278 10.5885 20.4785C10.6291 20.4131 10.8246 20.1813 10.7487 20.1533C10.7375 20.1501 10.627 20.2719 10.5825 20.2356C10.4273 20.1053 10.3235 19.9253 10.1665 19.7831C10.1241 19.7449 10.033 19.9064 9.97401 19.8462C9.81186 19.6812 9.68752 19.4148 9.60854 19.1907C9.5797 19.108 9.72763 19.0853 9.73697 19.072C9.78183 19.0099 9.7875 18.9767 9.77202 18.9602C9.73576 18.9221 9.57416 18.9815 9.55098 18.9697C9.35164 18.8644 9.40565 18.6555 9.28017 18.5251C9.24543 18.4881 9.12898 18.5985 9.11192 18.5972C8.94218 18.5788 9.22288 18.5006 9.21705 18.4301C9.1993 18.2283 9.09191 18.07 8.98309 17.9228C8.9445 17.8716 8.8237 18.025 8.79068 17.9776C8.58924 17.6934 8.42651 17.3755 8.34664 17.0355C8.33231 16.972 8.47302 16.9363 8.49426 16.9092C8.64328 16.72 8.311 16.7532 8.27222 16.7439C8.09043 16.6934 8.16665 16.5777 8.08789 16.4867C7.69371 16.03 7.39819 15.3494 7.16324 14.8381C6.85659 14.1727 6.68549 13.6077 6.30843 13.0212C6.28387 12.9825 6.14565 13.1152 6.12238 13.0831C5.84171 12.6849 5.66294 12.2286 5.36403 11.8173C5.33972 11.7833 5.21637 11.9224 5.17306 11.8722C5.08541 11.7738 5.01046 11.6245 4.99139 11.4787C4.9818 11.4077 5.1573 11.4092 5.14492 11.3393C5.11697 11.1772 5.03959 11.0178 4.94003 10.9017C4.89621 10.8506 4.78991 11.0273 4.74508 10.9537C4.43044 10.4439 4.11156 9.95361 4.00975 9.31057C4.00331 9.26736 4.30285 9.0532 4.19835 9.01283C4.10699 9.05802 4.00358 9.11819 3.90801 9.17009C3.41257 8.4297 3.10198 7.63902 2.67846 6.86833C2.66034 6.83547 2.52479 6.98891 2.48883 6.92574C2.28031 6.55986 2.04337 6.25816 1.99222 5.78493C1.98706 5.73836 2.2938 5.58633 2.18548 5.50246C2.1654 5.48662 2.03612 5.35441 1.94796 5.35021C1.93507 5.35027 1.81382 5.45906 1.78029 5.41049C1.58824 5.12746 1.43372 4.78838 1.3407 4.43383C1.32716 4.37854 1.50324 4.34366 1.49486 4.30353C1.4343 4.01947 1.16898 3.81939 1.16485 3.5051C1.16249 3.29421 1.45045 3.20561 1.65113 2.97577C1.67944 2.94335 1.62738 2.84078 1.76975 2.75119C2.12768 2.52577 2.55599 2.34162 2.9342 2.09565C3.01577 2.04284 2.84774 1.96159 3.09654 1.92303C3.11335 1.92073 3.2368 1.97835 3.31934 1.96208C3.3765 1.95099 3.5071 1.83541 3.58755 1.83376C3.66794 1.83211 3.56544 1.94101 3.66921 1.955C3.7738 1.96836 3.92798 1.84656 4.01184 1.9452ZM10.4767 32.508C10.6676 32.5236 10.1934 32.1587 10.245 32.3305C10.2481 32.3393 10.4672 32.5074 10.4767 32.508ZM4.9864 43.4675C5.27538 43.4109 4.9253 43.2211 4.70415 43.2568C4.48313 43.293 4.89876 43.4848 4.9864 43.4675ZM4.80482 44.8035C5.04811 44.7219 4.24319 44.4532 4.36131 44.6513C4.36789 44.6627 4.7907 44.8082 4.80482 44.8035ZM1.94886 3.32491C1.95506 3.31976 1.92114 3.24588 1.91334 3.24813C1.72739 3.3062 1.79534 3.45388 1.94886 3.32491ZM4.41001 46.0371C4.53417 46.0413 4.47394 45.8593 4.31926 45.8525C4.19406 45.8481 4.25469 46.0332 4.41001 46.0371ZM13.8742 28.5638C13.8828 28.5667 13.9172 28.5197 13.8723 28.4969C13.7275 28.4236 13.7301 28.5152 13.8742 28.5638ZM3.78098 48.2888C3.85692 47.9479 4.58117 47.866 4.45151 48.2022C4.42831 48.2648 4.24974 48.0326 4.17558 48.1059C4.04 48.2433 4.46407 48.3976 4.21201 48.5245C4.16568 48.5482 3.77482 48.3085 3.78009 48.288C3.78039 48.2883 3.78069 48.2885 3.78098 48.2888ZM11.0908 32.8854C11.0984 32.8885 11.152 32.8279 11.1468 32.8216C11.0192 32.6743 10.9111 32.7965 11.0908 32.8854ZM15.3224 25.4514C15.3406 25.4478 15.3643 25.2494 15.3477 25.2423C15.0408 25.1424 14.9942 25.5118 15.3224 25.4514ZM8.81608 37.7286C8.95247 37.8889 8.92773 37.9951 8.68068 37.9567C8.72944 37.8828 8.76842 37.8036 8.81608 37.7286Z" fill="#5882E3"/>
<path d="M5.61891 45.5098C5.8424 45.3457 6.18651 45.2422 6.4619 45.1936C6.5481 45.1782 6.55596 45.2922 6.61756 45.2858C6.73801 45.2732 6.81045 45.1801 6.93277 45.175C6.97355 45.1737 7.00567 45.345 7.04677 45.3402C7.27052 45.3134 7.43608 45.1844 7.64926 45.1188C8.69598 44.7974 9.66646 44.3738 10.6678 43.9351C10.9943 43.7923 11.4555 43.7205 11.7539 43.4851C11.7886 43.4575 11.6961 43.3398 11.6977 43.3252C11.7242 43.0999 11.8268 43.3826 11.9202 43.3773C12.2905 43.3556 12.6246 43.1899 12.8782 42.9864C12.9861 42.8992 12.7246 42.7086 12.9254 42.786C12.9392 42.7911 12.9835 42.9453 13.025 42.9416C13.119 42.9329 13.2491 42.8294 13.3136 42.808C13.4382 42.7675 13.4561 42.7558 13.5633 42.6985C13.7103 42.6214 13.9203 42.5937 14.0576 42.4763C14.0867 42.4508 13.9648 42.3352 14.004 42.282C14.0433 42.2288 14.1886 42.1629 14.2537 42.1696C14.319 42.1764 14.3609 42.2975 14.3833 42.3181C14.5711 42.4924 14.5651 42.1078 14.5814 42.089C14.889 41.7516 15.312 41.7317 15.6637 41.5284C15.9319 41.3729 16.1795 41.1555 16.4404 41.0129C16.7515 40.8436 17.0527 40.7668 17.3373 40.5802C17.3674 40.5607 17.2349 40.42 17.2714 40.3958C17.6577 40.1405 18.0651 39.9194 18.5307 39.7853C18.5773 39.7721 18.612 39.9449 18.6637 39.9402C18.9788 39.908 19.5343 39.9507 19.298 39.249C19.4727 39.1743 19.6935 39.0716 19.917 39.1037C20.0616 39.1238 20.0647 39.3346 20.1409 39.1963C20.1581 39.1653 20.0402 39.0526 20.0724 39.0163C20.2078 38.8636 20.4154 38.794 20.5342 38.6227C20.5582 38.5875 20.4737 38.4734 20.4694 38.4459C20.4377 38.2218 20.75 38.4282 20.7917 38.4312C21.1042 38.4523 21.2302 38.2858 21.4358 38.1598C21.4837 38.1305 21.3253 38.006 21.3677 37.9721C21.5887 37.7983 21.8394 37.6564 22.1123 37.5802C22.1733 37.5637 22.2149 37.7297 22.2485 37.7288C22.3959 37.7228 22.2528 37.4508 22.3902 37.4403C22.419 37.4377 22.4826 37.5618 22.4948 37.5721C22.686 37.733 22.557 37.4126 22.5686 37.3961C22.7161 37.1779 23.0391 37.3891 23.2062 37.2193C23.226 37.1987 23.0771 37.0866 23.1385 37.0377C23.5455 36.7118 24.0255 36.4503 24.5353 36.2765C24.6139 36.2497 24.64 36.391 24.6533 36.4017C24.8634 36.5664 24.7174 36.2544 24.7319 36.2293C24.8508 36.0379 25.1691 36.1669 25.0559 35.7538C25.863 35.3758 26.4356 34.7037 27.3603 34.4986C27.3717 34.4957 27.4518 34.6443 27.4742 34.6379C27.7443 34.5632 27.5531 34.3792 27.5113 34.0191C27.5009 33.9286 27.8307 34.1665 27.8565 34.1828C27.9513 34.243 28.059 34.4722 28.0823 34.4804C28.2697 34.5413 27.7789 33.8787 27.912 33.7841C27.917 33.7823 27.9872 33.9185 28.0071 33.9229C28.0693 33.9369 28.0689 33.8632 28.1331 33.8817C28.2807 33.9252 28.5406 34.232 28.5237 33.9579C28.521 33.9227 28.2273 33.5578 28.3576 33.492C28.41 33.4661 28.6117 33.3122 28.6866 33.2957C28.7617 33.2793 28.81 33.43 28.8179 33.4324C29.0886 33.4836 29.078 33.5928 29.3274 33.777C29.5761 33.9603 29.1458 33.4062 29.1315 33.3201C29.1159 33.2353 29.3299 33.2839 29.3913 33.3101C29.4532 33.336 29.4737 33.4393 29.5179 33.4473C29.8093 33.4979 29.3881 33.112 29.3781 32.982C29.3534 32.675 29.7581 33.0239 29.9056 32.98C29.9454 32.9681 29.8501 32.891 29.8718 32.8615C29.9588 32.7463 30.1211 32.8289 30.1597 32.617C30.1661 32.5823 30.0835 32.2558 30.284 32.3935C30.3131 32.4132 30.3621 32.5378 30.4278 32.5258C30.5261 32.5081 30.6729 32.4359 30.7245 32.3445C30.7625 32.277 30.5712 32.1525 30.6819 32.1536C30.7312 32.1542 30.7461 32.2981 30.8325 32.2909C30.9187 32.2838 31.0665 32.1686 31.121 32.1232C31.1755 32.0777 31.0484 31.9702 31.0465 31.958C31.0375 31.8871 31.1001 31.7441 31.1098 31.7372C31.5809 31.366 32.2048 31.2432 32.6189 30.8218C32.6527 30.788 32.5253 30.67 32.5294 30.6634C32.6161 30.5095 32.7856 30.9495 32.9667 31.0039C32.7464 30.736 32.8373 30.7464 32.905 30.6484C32.9374 30.601 32.8334 30.5113 32.8291 30.4973C32.7716 30.2859 32.9738 30.4633 33.0176 30.4978C33.1787 30.6247 33.0846 30.4027 33.1927 30.4872C33.3002 30.5709 33.3508 30.7764 33.435 30.7103C33.3846 30.593 33.1269 30.3811 33.1603 30.2904C33.2804 29.9523 33.9024 29.8032 34.1139 29.677C34.3262 29.5503 34.3748 29.485 34.5145 29.4359C34.7731 29.3425 34.5523 29.2078 34.6165 29.0215C34.6809 28.8351 34.9736 29.3555 35.069 29.4429C35.1639 29.5306 35.1052 29.4109 35.1701 29.4495C35.2349 29.4882 35.2378 29.5943 35.307 29.575C35.3764 29.5555 35.3853 29.2655 35.3238 29.1452C35.1936 28.8905 34.9508 28.7032 35.1526 28.6811C35.1643 28.68 35.232 28.8238 35.2721 28.8133C35.5808 28.7305 35.8581 28.5307 36.1634 28.4334C36.206 28.4199 36.28 28.5808 36.3059 28.5745C36.5755 28.5102 36.3273 28.3317 36.2428 27.9895C36.4777 28.3528 36.6956 28.5191 36.8574 28.4008C36.9537 28.3306 36.8241 28.1922 36.8057 28.04C36.8001 27.9941 36.9444 28.0476 36.9033 27.9677C36.7692 27.7061 36.5124 27.4933 36.7505 27.4762C36.7612 27.4759 36.8339 27.6196 36.864 27.6091C37.0588 27.5418 36.8931 27.2873 37.042 27.1304C37.1632 27.004 37.5148 26.9728 37.6837 26.8853C37.9693 27.2774 38.0452 27.0831 37.9038 26.7718C38.0102 26.7104 38.1125 26.6117 38.2365 26.5782C38.2794 26.5664 38.3403 26.6958 38.3535 26.705C38.5587 26.8498 38.4099 26.5555 38.424 26.5295C38.5827 26.2602 38.9165 26.3231 39.0055 25.9631C39.0084 25.9503 38.8258 25.6666 39.0291 25.8239C39.0427 25.835 39.0575 26.0127 39.1701 25.947C39.2841 25.8803 39.578 25.8938 39.645 25.6568C39.66 25.6005 39.5968 25.3112 39.7915 25.4366C39.8177 25.4537 39.862 25.5406 39.9065 25.5752C40.0488 25.6853 39.8807 25.3875 40.0968 25.5902C40.3141 25.7922 40.5372 25.902 40.5829 25.631C40.5844 25.623 40.4707 25.3742 40.5213 25.3456C40.6022 25.3002 40.7406 25.2764 40.8173 25.2244C40.854 25.1993 40.7388 25.0743 40.7436 25.0675C40.9462 24.8242 41.2269 24.8236 41.5306 24.717C41.5905 24.6952 41.6303 24.4065 41.821 24.5062C42.0284 24.6165 42.3208 25.3944 42.4643 25.0921C42.5235 24.9709 42.1851 23.9685 42.6096 24.3638C42.7521 24.2267 42.9361 24.1726 43.0995 24.1374C43.1039 24.1361 43.1157 24.1296 43.1198 24.1276C43.3236 24.0466 43.5296 23.963 43.6664 23.7544C43.6781 23.7371 43.5718 23.4596 43.6099 23.4398C43.6671 23.4107 43.7712 23.5054 43.8149 23.4875C44.0004 23.4145 44.0802 23.2178 44.2402 23.1231C44.3006 23.0868 44.365 23.2145 44.438 23.1695C44.5116 23.1233 44.4417 22.9433 44.5866 22.9417C44.6957 22.9412 45.0079 23.175 45.1319 23.1247C44.8881 22.8409 44.9556 22.7934 44.9899 22.6242C44.9961 22.5917 44.8852 22.5178 44.8833 22.4977C44.8725 22.4151 44.9817 22.4586 44.9627 22.3734C44.9583 22.3529 44.8669 22.2637 44.8577 22.2423C44.7737 22.0594 45.0657 22.1621 45.1204 22.1743C45.3217 22.2299 45.2185 22.0921 45.3167 22.0851C45.3198 22.0849 45.3227 22.0847 45.3256 22.0847C45.4185 22.0819 45.4342 22.2125 45.5173 22.1723C45.6971 22.0838 45.7966 21.863 45.8679 21.6947C45.8961 21.6269 45.7187 21.6127 45.719 21.6015C45.7279 21.4604 45.9412 21.3579 45.6254 21.2111C46.5041 21.2927 45.562 21.1132 45.7589 20.9578C45.7746 20.9454 46.1902 20.9675 46.2425 21.0427C46.2943 21.1197 46.1508 21.2009 46.2241 21.3136C46.2431 21.3362 46.5878 21.5666 46.603 21.5975C46.7334 21.8143 46.1329 21.6426 46.0997 21.6367C45.7282 21.5921 46.0608 21.881 46.0636 21.9417C46.095 22.1866 45.9249 22.2959 45.9021 22.4887C45.9013 22.4945 45.9011 22.5006 45.9016 22.5069C45.9133 22.6368 46.1936 22.8782 46.1252 22.9435C45.8812 23.1681 45.4208 22.8233 45.5688 23.3608C45.5985 23.4755 45.9385 23.7689 45.5489 23.6475C45.5229 23.6413 45.2044 23.4939 45.2677 23.7026C45.2755 23.7291 45.3575 23.8292 45.3533 23.8467C45.3224 23.9622 45.2081 23.9211 45.1567 24.0227C45.105 24.1246 45.0483 24.2581 44.9281 24.29C44.8552 24.3099 44.6447 24.1626 44.5851 24.132C44.4143 24.0433 44.4896 24.3285 44.3287 24.1879C44.1687 24.0455 44.0835 23.7254 43.8928 23.6906C44.0722 23.975 44.2502 24.271 44.4268 24.5595C44.1586 24.7202 43.8505 24.7922 43.5896 24.9445C43.5597 24.9586 43.474 25.0056 43.4424 25.0151C43.4307 25.0198 43.419 25.0249 43.4073 25.0304C43.381 25.0433 43.476 25.1999 43.4503 25.2179C43.3446 25.2919 43.1663 25.2309 43.055 25.3422C42.9702 25.4285 42.942 25.6581 42.8508 25.7621C42.5947 25.4628 42.4998 25.6648 42.3565 25.7077C42.3068 25.7227 42.2577 25.6323 42.209 25.622C42.0252 25.5867 42.2553 25.8457 42.25 25.9111C42.2343 26.1871 41.8271 25.5337 41.6719 25.6525C41.6633 25.6586 41.7753 26.0727 41.7746 26.1035C41.7706 26.3033 41.6827 25.9926 41.6074 26.0047C41.4652 26.0298 41.3495 25.988 41.2918 26.1696C41.2756 26.2228 41.3318 26.4921 41.1517 26.3746C41.1281 26.3592 41.0579 26.243 41.046 26.2415C40.8366 26.2223 41.066 26.5818 41.0749 26.7501C41.0835 26.9185 40.8029 26.7543 40.7308 26.7011C40.5445 26.5631 40.7252 26.5912 40.7162 26.5713C40.6106 26.3332 40.5511 26.4274 40.473 26.455C40.2263 26.1177 40.1473 26.2029 40.3929 26.4852C40.4199 26.5159 40.449 26.4484 40.473 26.455C40.6482 26.8322 40.579 26.944 40.2448 26.7105C40.0896 26.6001 40.0132 26.3978 39.9042 26.5683C39.8538 26.6462 40.0472 26.8618 40.0304 26.9697C39.9925 27.2159 39.6481 27.1326 39.5191 27.2779C39.4727 27.3303 39.6179 27.4197 39.5911 27.4587C39.5217 27.5616 39.368 27.5272 39.3064 27.647C39.301 27.658 39.4195 27.7755 39.3906 27.7992C39.1741 27.9808 38.8995 28.0517 38.666 28.2209C38.5508 28.3045 38.3966 28.5322 38.2626 28.6094C38.0307 28.7439 37.6422 28.7353 37.4953 28.9183C37.4005 29.0361 37.525 29.1487 37.542 29.2765C37.5738 29.5249 37.1706 29.3401 37.1126 29.3082C37.1107 29.3071 37.1852 29.2024 37.0821 29.1741C36.9458 29.056 37.1132 29.3068 37.1126 29.3082C37.0746 29.2879 36.8548 29.4065 36.834 29.4617C36.8228 29.4917 36.9288 29.6074 36.9213 29.6206C36.7391 29.9329 36.4877 30.1722 36.179 30.3136C36.1723 30.3147 36.0743 30.1698 36.06 30.174C35.8571 30.2297 35.8847 30.4766 35.8298 30.6769C35.7749 30.8771 35.6431 30.9232 35.3889 30.7392C35.3157 30.8417 35.0968 30.8405 34.9677 30.8369C34.8388 30.8333 35.0318 31.1136 35.0287 31.1243C34.9371 31.4625 34.6822 31.4105 34.4384 31.5555C34.3217 31.6243 34.135 31.8257 34.0378 31.9448C33.9614 32.0393 33.8565 32.0182 33.7993 32.1245C33.7915 32.1388 33.8941 32.2512 33.8939 32.2586C33.9041 32.477 33.7299 32.1451 33.6701 32.1073C33.4534 31.9689 33.3282 31.9026 33.2754 32.0829C33.2628 32.1246 33.4987 32.6134 33.4655 32.6769C33.4218 32.7587 33.3333 32.5865 33.2902 32.6761C33.2864 32.6837 33.358 32.7773 33.3111 32.8056C33.0945 32.9383 32.8295 33.0492 32.6198 33.2186C32.5911 33.2413 32.7392 33.3643 32.7007 33.3986C32.5205 33.5591 32.3017 33.7114 32.0571 33.7822C31.9965 33.7992 31.9489 33.6718 31.9156 33.648C31.7134 33.5046 31.8251 33.8463 31.814 33.8625C31.549 34.2597 31.1097 34.1968 30.8324 34.5792C30.8179 34.6003 30.88 35.0074 30.6278 34.8019C30.6108 34.7883 30.3555 34.5762 30.4239 34.7977C30.4282 34.8115 30.5672 34.9153 30.4835 34.9548C30.3981 34.9955 30.3491 35.1668 30.1436 35.0903C30.0789 35.0663 29.8183 34.8586 29.8729 35.1337C29.8773 35.1525 30.0672 35.727 29.7833 35.4397C29.7367 35.3924 29.5008 35.0424 29.513 35.2993C29.5156 35.3489 29.6096 35.3975 29.5865 35.4861C29.5513 35.6223 29.3692 35.613 29.3689 35.8436C29.3695 35.8839 29.4526 36.176 29.2636 36.0434C29.234 36.0226 29.1715 35.8943 29.1291 35.905C28.9269 35.9552 28.8139 36.1501 28.5945 36.185C28.5169 36.1976 28.4157 35.9904 28.3204 35.9827C28.225 35.9751 28.0694 36.0124 28.0652 36.1422C28.0611 36.272 28.3386 36.5209 28.2594 36.6116C27.9074 37.0109 27.3918 37.1084 26.9534 37.3709C26.8887 37.4096 27.0136 37.4815 26.9233 37.5462C26.5846 37.7899 26.0874 38.2734 25.6358 38.2437C25.2771 38.2181 25.4798 37.8796 25.2499 37.9254C25.1393 37.9479 25.2792 38.3618 25.2654 38.387C25.1325 38.6379 24.8933 38.5724 24.7411 38.7419C24.7098 38.7769 24.8413 38.895 24.8136 38.9231C24.7199 39.0207 24.5617 39.0336 24.4634 39.115C24.4195 39.1518 24.5 39.2552 24.4506 39.2756C24.3331 39.3257 24.2097 39.3409 24.0397 39.3058C24.0242 39.3026 23.9986 39.1253 23.9172 39.1713C23.7852 39.2463 23.5624 39.2474 23.4884 39.444C23.4664 39.503 23.6271 39.7546 23.4235 39.6409C23.3808 39.6172 23.2107 39.3003 23.2721 39.6295C23.2823 39.6842 23.3284 40.1517 23.0936 39.9824C23.0318 39.9379 22.8135 39.7295 22.7866 39.8016C22.7836 39.8123 22.8984 39.9291 22.8638 39.9699C22.7405 40.1112 22.5715 40.1988 22.441 40.3414C22.4063 40.3798 22.5581 40.4799 22.5034 40.5326C22.3532 40.6779 22.1222 40.7741 21.9272 40.8354C21.8554 40.8577 21.8247 40.7146 21.8122 40.7048C21.6109 40.544 21.7432 40.8487 21.7294 40.88C21.6415 41.0706 21.4457 41.0111 21.3291 41.132C21.2966 41.165 21.4066 41.281 21.4064 41.2976C21.3995 41.4626 21.3096 41.1873 21.2433 41.1921C21.0572 41.2046 20.9057 41.3134 20.7754 41.4175C20.7281 41.4556 20.8811 41.5745 20.8376 41.6069C20.5817 41.8017 20.2866 41.9623 19.9641 42.0413C19.9033 42.0559 19.8626 41.917 19.8354 41.8962C19.6464 41.7497 19.6972 42.0753 19.6873 42.1152C19.6433 42.2968 19.5354 42.2176 19.4474 42.2977C19.0214 42.689 18.3867 42.9712 17.8955 43.2005C17.2589 43.4981 16.7362 43.6463 16.1719 44.0075C16.136 44.0302 16.2652 44.1707 16.2354 44.1924C15.8434 44.4668 15.4165 44.6235 15.0293 44.9002C14.9975 44.9225 15.1319 45.0496 15.0837 45.0906C14.9853 45.1759 14.839 45.2459 14.6985 45.2591C14.6301 45.2659 14.6312 45.0925 14.5639 45.102C14.4077 45.1233 14.26 45.1901 14.1434 45.286C14.0937 45.3274 14.2643 45.4396 14.1928 45.4811C13.7074 45.7667 13.2297 46.0594 12.6086 46.1248C12.5659 46.1292 12.3635 45.8218 12.3219 45.9233C12.3639 46.0162 12.4202 46.1218 12.4686 46.2192C11.7748 46.6527 10.9777 46.9227 10.2346 47.2773C10.2032 47.2923 10.3446 47.4384 10.2843 47.4683C9.93559 47.6417 9.61901 47.8606 9.17227 47.8667C9.12806 47.8676 8.99475 47.5524 8.91226 47.6509C8.8979 47.6685 8.75899 47.7879 8.75044 47.8748C8.74977 47.8876 8.84937 48.0163 8.79994 48.0458C8.51367 48.2137 8.19098 48.3306 7.85173 48.3863C7.79695 48.3949 7.77398 48.2175 7.73435 48.2223C7.45406 48.2576 7.24586 48.5005 6.94659 48.4721C6.74611 48.4524 6.67791 48.1598 6.4715 47.9379C6.44237 47.9066 6.34326 47.9464 6.26643 47.7968C6.07306 47.4206 5.92158 46.9802 5.70994 46.5819C5.66446 46.496 5.58143 46.6508 5.55686 46.4031C5.55546 46.3864 5.61459 46.2723 5.60321 46.1897C5.59546 46.1325 5.49385 45.9914 5.4959 45.9126C5.49793 45.8338 5.59469 45.9465 5.61248 45.8465C5.62973 45.7455 5.52293 45.581 5.61891 45.5098ZM34.3857 30.8246C34.2117 30.751 34.5596 31.2378 34.5559 31.0616C34.5553 31.0525 34.3944 30.828 34.3857 30.8246ZM43.586 24.4084C43.3436 24.2454 43.4643 24.6236 43.6448 24.7543C43.8269 24.8836 43.6605 24.4571 43.586 24.4084ZM44.5832 23.5227C44.3419 23.4417 44.8153 24.146 44.8511 23.9076C44.8533 23.8939 44.5975 23.5272 44.5832 23.5227ZM6.81815 47.6819C6.81356 47.6753 6.74141 47.7011 6.74315 47.709C6.78823 47.898 6.93266 47.8461 6.81815 47.6819ZM45.4309 22.4829C45.3147 22.443 45.3214 22.6309 45.466 22.6845C45.5848 22.726 45.5796 22.529 45.4309 22.4829ZM30.0801 33.2141C30.0737 33.2078 30.0251 33.233 30.0555 33.2732C30.1537 33.4025 30.1879 33.3212 30.0801 33.2141ZM46.1077 20.3508C46.0732 20.6829 45.3613 20.819 45.4523 20.5039C45.468 20.4443 45.6723 20.638 45.7375 20.5637C45.8564 20.4221 45.4162 20.3255 45.652 20.1785C45.6952 20.1516 46.1114 20.3316 46.1087 20.3514C46.1084 20.3512 46.1081 20.351 46.1077 20.3508ZM33.9105 30.2829C33.9042 30.2777 33.8387 30.3175 33.8419 30.3249C33.9229 30.5016 34.055 30.4214 33.9105 30.2829ZM27.2899 34.7477C27.2769 34.7362 27.1247 34.8234 27.1288 34.8394C27.2318 35.1463 27.5406 34.9705 27.2899 34.7477ZM37.6938 26.8939C37.6454 26.692 37.7097 26.6165 37.9034 26.7718C37.8319 26.8087 37.7659 26.8551 37.6938 26.8939Z" fill="#5882E3"/>
<path d="M45.8978 21.6837C45.6147 21.6329 45.2889 21.4507 45.0548 21.2808C44.9813 21.2277 45.0602 21.1441 45.0112 21.1031C44.9149 21.0227 44.7959 21.0334 44.7015 20.9453C44.6708 20.9158 44.7757 20.7759 44.7421 20.7485C44.5578 20.5996 44.3441 20.5647 44.1449 20.4512C43.1699 19.8945 42.1672 19.4468 41.1368 18.973C40.7962 18.8165 40.4356 18.5162 40.0497 18.4404C40.0047 18.4317 39.9773 18.579 39.965 18.5873C39.7729 18.7131 39.9207 18.451 39.8528 18.3828C39.5828 18.1128 39.2282 17.9629 38.899 17.898C38.7588 17.8708 38.786 18.1946 38.7124 17.9906C38.7072 17.9767 38.7964 17.8432 38.7663 17.8139C38.697 17.7472 38.5289 17.7129 38.4691 17.6768C38.3541 17.6064 38.3331 17.6 38.2169 17.5537C38.0585 17.4891 37.8971 17.344 37.7145 17.3121C37.6754 17.3057 37.666 17.474 37.5984 17.4773C37.5308 17.4806 37.3828 17.4094 37.3449 17.3544C37.307 17.2994 37.374 17.19 37.3753 17.1595C37.3891 16.9036 37.0869 17.1497 37.0612 17.1488C36.5893 17.1205 36.3005 16.8036 35.912 16.6553C35.6154 16.5424 35.269 16.4775 34.9903 16.3612C34.6565 16.2213 34.4094 16.0333 34.0707 15.9192C34.0354 15.9071 34.0085 16.0989 33.9653 16.0845C33.5036 15.9307 33.0783 15.7452 32.6702 15.4519C32.6297 15.4225 32.7472 15.2902 32.7104 15.2516C32.4829 15.0183 32.1684 14.5471 31.7488 15.1584C31.5778 15.0625 31.3569 14.9464 31.243 14.7469C31.169 14.6182 31.3381 14.4899 31.1786 14.5111C31.1427 14.5157 31.1246 14.678 31.0751 14.6738C30.8668 14.6557 30.6814 14.5294 30.4688 14.5352C30.4254 14.5367 30.3848 14.6728 30.3651 14.6925C30.2031 14.8515 30.1753 14.4751 30.1509 14.4392C29.9667 14.1703 29.7589 14.1684 29.5302 14.0758C29.4771 14.0542 29.4721 14.256 29.4187 14.2416C29.1429 14.1649 28.8749 14.0445 28.6392 13.8637C28.5874 13.8233 28.6994 13.6927 28.6776 13.6656C28.5811 13.5482 28.4442 13.8234 28.3502 13.7165C28.3302 13.6944 28.3938 13.5702 28.3948 13.5543C28.4096 13.3038 28.2269 13.5967 28.2061 13.5967C27.9386 13.6036 27.9263 13.2201 27.6798 13.1793C27.6506 13.1749 27.6486 13.3621 27.5703 13.3397C27.0467 13.1911 26.55 12.9495 26.0973 12.6265C26.028 12.5769 26.13 12.4747 26.131 12.4577C26.1425 12.1903 25.9704 12.4888 25.9408 12.4913C25.7107 12.5022 25.6306 12.1663 25.3533 12.4944C24.5564 12.0404 23.6498 11.94 22.946 11.2871C22.9368 11.2791 23.015 11.1295 22.9964 11.1143C22.7739 10.9301 22.7314 11.1924 22.4519 11.4276C22.3816 11.4866 22.3892 11.0787 22.3879 11.0481C22.3834 10.9355 22.5135 10.718 22.5068 10.694C22.4481 10.5033 22.1796 11.2831 22.0237 11.225C22.0192 11.2219 22.0932 11.0875 22.0852 11.0684C22.0606 11.0086 21.9987 11.0498 21.9769 10.9859C21.9275 10.8384 22.0349 10.4508 21.8141 10.6173C21.786 10.6391 21.649 11.0871 21.5183 11.0147C21.4661 10.9854 21.2209 10.9027 21.1644 10.8494C21.1077 10.796 21.2064 10.6719 21.2039 10.664C21.091 10.4094 21.187 10.357 21.1964 10.0458C21.2047 9.73537 20.987 10.4023 20.9217 10.4616C20.8563 10.5205 20.7772 10.3159 20.7637 10.25C20.7502 10.184 20.825 10.1096 20.8066 10.0683C20.6839 9.79749 20.6 10.3629 20.4971 10.4435C20.2538 10.6345 20.3202 10.1049 20.1967 10.0052C20.163 9.97814 20.1535 10.1008 20.1154 10.0986C19.9654 10.0885 19.9402 9.90649 19.7372 9.9906C19.704 10.0042 19.4745 10.2532 19.4749 10.0091C19.4751 9.97399 19.5511 9.8638 19.5049 9.81606C19.4354 9.74437 19.2975 9.66402 19.1871 9.67006C19.1077 9.67529 19.1133 9.90444 19.0498 9.81087C19.0217 9.76918 19.1351 9.67745 19.0787 9.60892C19.0226 9.54047 18.8398 9.48023 18.7704 9.45979C18.7008 9.4394 18.6832 9.60518 18.674 9.61345C18.6194 9.6602 18.4634 9.68707 18.4522 9.68285C17.8574 9.49017 17.4066 9.041 16.8098 8.92982C16.7637 8.92111 16.7371 9.09259 16.7295 9.09293C16.5562 9.10872 16.8242 8.72099 16.7643 8.53956C16.6674 8.87267 16.6224 8.79074 16.5003 8.78899C16.4414 8.78846 16.4267 8.92525 16.4174 8.93659C16.2732 9.10261 16.3048 8.83525 16.3082 8.77953C16.3209 8.57455 16.1901 8.77725 16.1982 8.64019C16.206 8.50406 16.348 8.34653 16.2444 8.31401C16.1759 8.42177 16.1477 8.75445 16.0533 8.77796C15.6895 8.86405 15.2286 8.44345 14.9832 8.33691C14.7494 8.23376 14.6709 8.23311 14.5453 8.14646C14.3095 7.98761 14.3331 8.24706 14.1436 8.30369C13.9561 8.36126 14.2047 7.81862 14.2194 7.69007C14.2345 7.56173 14.1723 7.67962 14.1655 7.60449C14.1586 7.52939 14.2425 7.46444 14.1863 7.41998C14.1351 7.37695 13.8782 7.53634 13.8194 7.6578C13.6905 7.91361 13.6864 8.22052 13.5449 8.07083C13.5368 8.06206 13.6121 7.92193 13.579 7.89591C13.3238 7.69689 13.0029 7.59992 12.7219 7.41931C12.6831 7.39419 12.7636 7.23601 12.7413 7.21948C12.5118 7.0482 12.5352 7.35497 12.3253 7.63817C12.4582 7.22642 12.4324 6.94789 12.2339 6.90188C12.1166 6.87494 12.0981 7.06384 11.9995 7.17919C11.9974 7.18161 11.9953 7.18318 11.993 7.18403C11.9909 7.18377 11.985 7.1816 11.983 7.18092C11.9494 7.18527 11.922 7.05821 11.8767 7.12858C11.7171 7.37564 11.6642 7.70531 11.5255 7.50654C11.5196 7.49739 11.6077 7.36244 11.5828 7.3415C11.4213 7.20517 11.2814 7.475 11.0668 7.42461C10.8981 7.38495 10.6895 7.0973 10.5221 6.99493C10.7126 6.54878 10.4996 6.58034 10.3027 6.86071C10.1918 6.79975 10.0579 6.76463 9.96351 6.6755C9.93083 6.64491 10.01 6.52568 10.0109 6.50964C10.0266 6.25847 9.85144 6.53815 9.82141 6.53954C9.50181 6.54159 9.3722 6.22153 9.02064 6.33784C9.0082 6.34212 8.86519 6.64767 8.88872 6.39142C8.89063 6.37387 9.03502 6.26735 8.91667 6.20605C8.7988 6.14491 8.63522 5.88292 8.40598 5.95816C8.35036 5.97609 8.14289 6.18697 8.13999 5.95509C8.1398 5.92368 8.18836 5.8391 8.19256 5.78276C8.20477 5.60275 8.04807 5.90671 8.09563 5.61374C8.14328 5.32082 8.09692 5.06816 7.84963 5.18347C7.84192 5.18661 7.70014 5.42045 7.64757 5.3946C7.56332 5.35295 7.46189 5.25136 7.37094 5.21659C7.32719 5.19997 7.2923 5.36664 7.28362 5.36644C6.95797 5.33649 6.8063 5.1145 6.51902 4.92953C6.46595 4.8951 6.21721 5.04174 6.17347 4.82966C6.12514 4.59732 6.55548 3.88302 6.20306 3.95344C6.06075 3.98109 5.53172 4.89412 5.52931 4.31096C5.08672 4.27907 4.82543 3.87751 4.3603 3.89899C4.33938 3.89982 4.1758 4.14842 4.1356 4.12822C4.07608 4.09769 4.0925 3.9577 4.05159 3.93184C3.88118 3.82018 3.66884 3.86139 3.49722 3.77391C3.4317 3.74087 3.50728 3.61935 3.42932 3.57999C3.35147 3.54082 3.2293 3.69187 3.15267 3.56517C3.09521 3.46897 3.15219 3.08386 3.05869 2.99926C2.95828 3.24387 2.89258 3.29695 2.80269 3.3208C2.77003 3.33009 2.72827 3.33168 2.67767 3.33919C2.64437 3.34429 2.61419 3.4743 2.59553 3.48277C2.51871 3.52 2.5214 3.40155 2.44479 3.44595C2.4263 3.45657 2.37105 3.57167 2.35298 3.58695C2.19844 3.72147 2.19639 3.40534 2.19375 3.34973C2.1867 3.13909 2.08108 3.2748 2.04563 3.17927C2.00842 3.08332 2.14266 3.03705 2.0817 2.96331C1.95457 2.81031 1.73259 2.75258 1.56421 2.69299C1.49742 2.67011 1.49193 2.84721 1.48116 2.8477C1.33211 2.84572 1.23952 2.63092 1.07214 2.93702C1.20682 2.06417 0.966684 2.99561 0.815153 2.77613C0.803044 2.75848 0.881698 2.35026 0.959242 2.30683C1.03608 2.26333 1.09769 2.41325 1.20916 2.34526C1.23367 2.32865 1.45915 1.98795 1.4835 1.97065C1.66694 1.8322 1.50679 2.4326 1.50251 2.46676C1.46847 2.84043 1.73272 2.4858 1.78311 2.47254C1.99932 2.40566 2.1181 2.54358 2.29729 2.51436C2.41409 2.49619 2.58314 2.12674 2.65581 2.17171C2.89732 2.32318 2.73059 2.87407 3.15844 2.5355C3.19169 2.50919 3.23275 2.43644 3.27191 2.3737L3.1923 2.33853C3.25185 2.22437 3.30776 2.14085 3.3314 2.38883C3.33363 2.4134 3.33954 2.75938 3.48492 2.59965C3.50324 2.5795 3.55065 2.45907 3.56644 2.45364C3.67127 2.41953 3.68658 2.53651 3.79051 2.52457C3.89459 2.5127 4.0259 2.48553 4.10771 2.56516C4.15726 2.61302 4.14468 2.86741 4.15143 2.93358C4.1687 3.12334 4.35734 2.89817 4.33127 3.10935C4.30516 3.32164 4.09146 3.57506 4.17348 3.75141C4.30221 3.44074 4.44051 3.12431 4.57291 2.81303C4.85682 2.93828 5.09941 3.15146 5.39397 3.25247C5.43058 3.26467 5.46069 3.08212 5.50168 3.09088C5.6749 3.1288 5.76833 3.30462 5.95538 3.32385C6.10037 3.33807 6.31387 3.21711 6.46798 3.22668C6.40885 3.61733 6.6589 3.57653 6.79237 3.6678C6.83916 3.69961 6.79757 3.79365 6.82164 3.8394C6.91355 4.00975 6.97532 3.66823 7.0331 3.63373C7.27963 3.48649 7.00788 4.20668 7.20543 4.26551C7.21573 4.26883 7.49239 3.93789 7.5191 3.9211C7.68985 3.81023 7.48398 4.06088 7.54026 4.11619C7.64269 4.21712 7.69311 4.34304 7.88241 4.28986C7.93784 4.27385 8.13556 4.07793 8.14353 4.29449C8.1446 4.32286 8.08781 4.44615 8.0935 4.45702C8.2009 4.64325 8.36511 4.2501 8.50962 4.15296C8.65346 4.05559 8.68213 4.38466 8.6786 4.47473C8.67027 4.70805 8.58647 4.53846 8.57441 4.55679C8.4309 4.77492 8.54921 4.77536 8.61824 4.82679C8.47204 5.2183 8.58935 5.23896 8.69043 4.87855C8.70128 4.8391 8.62652 4.85075 8.61824 4.82679C8.84009 4.47453 8.97968 4.47464 8.96617 4.88279C8.95976 5.07405 8.82241 5.24404 9.03809 5.24941C9.13611 5.25213 9.21204 4.97242 9.31635 4.93035C9.55497 4.83464 9.67489 5.17387 9.86722 5.20732C9.93673 5.21933 9.93463 5.04819 9.98424 5.0514C10.116 5.05945 10.1742 5.21123 10.3129 5.20309C10.3256 5.20219 10.3628 5.03923 10.3998 5.05223C10.6823 5.14833 10.8795 5.34446 11.1651 5.46674C11.3022 5.52536 11.5851 5.54514 11.7208 5.62196C11.9575 5.75456 12.1682 6.10357 12.403 6.13981C12.4099 6.14091 12.4166 6.14163 12.4231 6.14198L12.2166 6.07808C12.3548 6.05913 12.3599 5.90205 12.4466 5.81086C12.6242 5.62582 12.7823 6.06376 12.789 6.12781C12.789 6.12978 12.6534 6.13755 12.7013 6.23588C12.6994 6.41668 12.7872 6.12819 12.789 6.12781C12.798 6.16967 13.0499 6.27086 13.1128 6.25504C13.1462 6.24589 13.1691 6.09048 13.1859 6.08861C13.564 6.04235 13.9297 6.10439 14.2513 6.2758C14.2566 6.28065 14.1977 6.44542 14.2107 6.45473C14.3972 6.59117 14.5721 6.42111 14.7747 6.3507C14.9738 6.27935 15.1023 6.36432 15.102 6.67883C15.2316 6.68015 15.3646 6.86204 15.4412 6.9714C15.5176 7.08068 15.6374 6.7621 15.6484 6.75861C15.9947 6.64517 16.0805 6.87862 16.3615 7.00469C16.5014 7.06733 16.7675 7.10541 16.9284 7.12119C17.0534 7.13227 17.0976 7.23175 17.2224 7.22085C17.2393 7.21947 17.2738 7.07121 17.2802 7.06724C17.4605 6.93782 17.2801 7.26716 17.2832 7.33817C17.2905 7.59512 17.3012 7.73427 17.4874 7.67935C17.5301 7.66681 17.8067 7.1988 17.8811 7.19181C17.9773 7.1836 17.8826 7.35286 17.9854 7.33989C17.9941 7.33896 18.0316 7.22717 18.0841 7.25115C18.3266 7.36036 18.5617 7.51649 18.8266 7.5986C18.8624 7.61017 18.8799 7.41787 18.9327 7.43172C19.1849 7.49832 19.4275 7.59302 19.6317 7.75999C19.6812 7.80142 19.6009 7.91157 19.6001 7.9526C19.5958 8.20116 19.8208 7.91932 19.8411 7.91976C20.3141 7.91689 20.5312 8.32565 21.0097 8.34496C21.0353 8.34518 21.339 8.06674 21.3098 8.3909C21.308 8.41253 21.2752 8.74304 21.4214 8.56283C21.4305 8.55156 21.4386 8.37809 21.5189 8.4258C21.5992 8.47346 21.7772 8.4216 21.8342 8.6367C21.854 8.70516 21.8262 9.03687 22.0256 8.83837C22.0388 8.82423 22.4106 8.34603 22.3326 8.74251C22.3197 8.80772 22.1616 9.19908 22.37 9.04593C22.41 9.01613 22.3968 8.91072 22.4843 8.88068C22.6187 8.83418 22.716 8.99119 22.91 8.86312C22.9451 8.84074 23.1368 8.60671 23.1343 8.83795C23.1339 8.87416 23.0625 8.99782 23.096 9.0272C23.2548 9.16752 23.484 9.15299 23.6418 9.31651C23.6978 9.37419 23.5827 9.57419 23.6323 9.65807C23.6812 9.74166 23.8074 9.85196 23.9143 9.78106C24.0235 9.71099 24.0723 9.34151 24.1914 9.3554C24.708 9.41557 25.1204 9.79952 25.5791 10.0071C25.6482 10.0384 25.6356 9.89463 25.741 9.93205C26.1355 10.0716 26.8345 10.2077 27.0737 10.5945C27.2646 10.904 26.865 10.9315 27.0392 11.0943C27.1233 11.1724 27.3832 10.82 27.4101 10.8161C27.6875 10.7776 27.7813 11.0136 28.011 11.0401C28.0585 11.0455 28.0772 10.8696 28.117 10.876C28.2533 10.8964 28.3589 11.0186 28.4852 11.052C28.5421 11.0667 28.5788 10.9408 28.6253 10.9695C28.7381 11.0369 28.819 11.1267 28.8903 11.2851C28.8968 11.2996 28.7682 11.4243 28.853 11.4633C28.9903 11.5259 29.1226 11.706 29.331 11.6523C29.3931 11.6359 29.5018 11.3579 29.5327 11.5906C29.5393 11.6392 29.3827 11.9631 29.616 11.7209C29.6545 11.6805 30.0124 11.3704 30.0126 11.6589C30.0132 11.7351 29.9747 12.0345 30.0489 12.0136C30.0593 12.0097 30.0855 11.848 30.1389 11.8517C30.3263 11.8676 30.4979 11.9518 30.6911 11.9723C30.7428 11.9774 30.7326 11.7957 30.8078 11.8084C31.0139 11.8426 31.2439 11.9762 31.4074 12.0947C31.4686 12.1391 31.3722 12.2493 31.3718 12.2651C31.3643 12.5229 31.5295 12.2346 31.5629 12.2269C31.7694 12.1834 31.8406 12.3761 32.009 12.397C32.0553 12.4032 32.0814 12.2455 32.0949 12.2357C32.2315 12.1421 32.0653 12.3795 32.1097 12.4297C32.2332 12.5713 32.4146 12.6275 32.5771 12.6685C32.6367 12.6833 32.6379 12.4892 32.6906 12.5045C33.004 12.5914 33.3148 12.7295 33.5791 12.9383C33.6287 12.9779 33.543 13.0948 33.5433 13.1291C33.5443 13.3688 33.7731 13.1303 33.811 13.1138C33.9845 13.0385 33.985 13.1711 34.1021 13.1914C34.6696 13.2864 35.3124 13.621 35.7895 13.8583C36.4221 14.1709 36.8851 14.491 37.5215 14.6979C37.5621 14.7113 37.5885 14.5222 37.6243 14.5315C38.0867 14.6607 38.493 14.8941 38.9551 15.0133C38.993 15.0234 39.0035 14.8387 39.0664 14.8494C39.1958 14.8702 39.3446 14.9373 39.4464 15.0365C39.4962 15.0846 39.3624 15.1954 39.4137 15.2409C39.5326 15.3471 39.6793 15.4166 39.8292 15.4436C39.8937 15.455 39.8674 15.2519 39.9462 15.2798C40.4827 15.4655 41.0297 15.641 41.4841 16.064C41.5153 16.093 41.4173 16.4478 41.5209 16.4121C41.563 16.3193 41.6053 16.2074 41.6466 16.1067C42.4473 16.349 43.174 16.761 43.9517 17.0768C43.9846 17.0901 43.9961 16.8868 44.0601 16.9116C44.4342 17.0564 44.8055 17.1394 45.1164 17.4633C45.1473 17.4951 45.0072 17.8074 45.1362 17.8009C45.159 17.7995 45.3422 17.82 45.4117 17.7669C45.4215 17.7587 45.4473 17.598 45.5029 17.614C45.8256 17.71 46.1401 17.8676 46.4153 18.0754C46.4598 18.1093 46.3465 18.2481 46.3777 18.2736C46.5993 18.4534 46.9215 18.4367 47.1114 18.6729C47.2383 18.8315 47.0745 19.0835 47.0599 19.3867C47.0579 19.4294 47.1571 19.4736 47.1032 19.633C46.9681 20.0338 46.756 20.4486 46.6177 20.8779C46.5879 20.9704 46.7609 20.9237 46.5977 21.113C46.5866 21.1255 46.4604 21.1613 46.4081 21.2266C46.3719 21.2718 46.3422 21.4433 46.2829 21.4962C46.2236 21.5491 46.2361 21.4007 46.1498 21.4566C46.0633 21.5135 46.0199 21.705 45.8978 21.6837ZM15.7777 7.45976C15.817 7.64478 16.0188 7.08146 15.8752 7.18471C15.868 7.19038 15.7755 7.45061 15.7777 7.45976ZM4.93154 3.57034C4.9505 3.86171 5.1737 3.53293 5.16651 3.31083C5.15929 3.08897 4.92563 3.48194 4.93154 3.57034ZM3.65371 3.27105C3.71326 3.5184 4.04697 2.73821 3.83814 2.83992C3.82608 2.84557 3.6502 3.25667 3.65371 3.27105ZM46.6281 19.3122C46.6265 19.3201 46.6964 19.3546 46.7009 19.3479C46.8065 19.1847 46.6667 19.1157 46.6281 19.3122ZM2.40171 2.96448C2.39746 3.08798 2.57379 3.0238 2.5814 2.87006C2.5863 2.74551 2.40568 2.8099 2.40171 2.96448ZM20.2937 9.72974C20.292 9.73863 20.3425 9.76575 20.3588 9.71808C20.4112 9.56442 20.3213 9.58016 20.2937 9.72974ZM0.263518 2.32421C0.581063 2.42336 0.606901 3.14981 0.290942 2.99806C0.233004 2.97077 0.469557 2.80841 0.405712 2.72974C0.284906 2.58549 0.101674 2.99676 0.00102401 2.73638C-0.0173314 2.68862 0.243962 2.31649 0.26429 2.32337C0.264033 2.32365 0.263775 2.32393 0.263518 2.32421ZM15.6041 8.15913C15.6034 8.16721 15.6736 8.1984 15.6779 8.19156C15.7771 8.02441 15.6353 7.96133 15.6041 8.15913ZM23.1984 11.2074C23.1974 11.225 23.3583 11.3025 23.3685 11.2898C23.565 11.032 23.2399 10.8743 23.1984 11.2074ZM10.5242 6.98181C10.3731 7.12578 10.2722 7.10814 10.3029 6.86108C10.3746 6.9047 10.4513 6.93864 10.5242 6.98181Z" fill="#5882E3"/>
<path d="M13.0898 21.4947C13.2701 21.4168 13.5211 21.4379 13.7147 21.488C13.7754 21.5035 13.761 21.6125 13.8035 21.6279C13.8866 21.6579 13.9512 21.5964 14.0339 21.6344C14.0613 21.6475 14.0533 21.8182 14.0815 21.8282C14.2373 21.8813 14.3621 21.8207 14.5218 21.8345C15.292 21.9048 16.0016 21.8697 16.7606 21.8418C17.0085 21.8328 17.3125 21.9446 17.5657 21.8424C17.5945 21.8304 17.5565 21.6869 17.5605 21.674C17.6242 21.4775 17.6353 21.7764 17.6987 21.8075C17.9501 21.9304 18.2041 21.9091 18.4118 21.8231C18.5001 21.7861 18.3684 21.5087 18.4829 21.6588C18.4908 21.669 18.4889 21.8272 18.5162 21.8403C18.5782 21.8697 18.6815 21.8272 18.7307 21.833C18.8225 21.8453 18.8369 21.8417 18.9203 21.8321C19.0345 21.8202 19.1793 21.8789 19.2946 21.8273C19.3191 21.8158 19.2634 21.6615 19.3006 21.6289C19.3378 21.5962 19.4474 21.595 19.4887 21.6275C19.53 21.66 19.5317 21.7871 19.542 21.8149C19.6278 22.0494 19.7054 21.6977 19.72 21.6873C19.9823 21.5077 20.2796 21.6614 20.5517 21.6237C20.7617 21.5943 20.9697 21.5019 21.1701 21.4834C21.4146 21.4613 21.6291 21.52 21.8561 21.4742C21.8801 21.4696 21.8265 21.2864 21.8557 21.2804C22.1607 21.217 22.4854 21.1939 22.8171 21.2778C22.8503 21.2864 22.8318 21.456 22.8663 21.4744C23.0796 21.5831 23.413 21.8683 23.4401 21.137C23.5775 21.147 23.7416 21.1544 23.8777 21.2829C23.9653 21.3656 23.9162 21.5542 23.9983 21.4656C24.0167 21.4458 23.9688 21.2928 23.9981 21.275C24.1219 21.2001 24.2685 21.2324 24.3868 21.1343C24.4118 21.1138 24.3857 20.9744 24.3901 20.9481C24.4278 20.7348 24.5799 21.0589 24.6063 21.0804C24.8077 21.2403 24.9255 21.1512 25.0869 21.1344C25.1243 21.1306 25.0553 20.9479 25.0904 20.9374C25.2689 20.8863 25.4724 20.8759 25.6694 20.9351C25.7133 20.9487 25.6964 21.1143 25.7184 21.129C25.8151 21.1921 25.7944 20.8861 25.8856 20.9408C25.9047 20.952 25.913 21.0908 25.9182 21.1055C25.9989 21.336 25.9976 20.9945 26.0093 20.9854C26.156 20.863 26.3021 21.2006 26.4576 21.1297C26.4759 21.1209 26.4101 20.9525 26.4628 20.9385C26.8138 20.8437 27.1809 20.8445 27.5539 20.9377C27.6107 20.9521 27.5891 21.0879 27.5946 21.1035C27.6825 21.3482 27.6744 21.0062 27.6902 20.9912C27.817 20.8818 27.9759 21.149 28.0242 20.7342C28.6394 20.7967 29.183 20.498 29.8237 20.7832C29.8316 20.7864 29.8393 20.9543 29.855 20.9601C30.0437 21.0311 29.9769 20.7771 30.0526 20.4466C30.0708 20.3637 30.2135 20.7333 30.2247 20.7603C30.2674 20.8597 30.2675 21.1109 30.2799 21.1296C30.3818 21.2761 30.2663 20.4596 30.3761 20.4457C30.3797 20.4466 30.3841 20.599 30.3952 20.6128C30.4296 20.6562 30.4503 20.5929 30.4844 20.6413C30.5627 20.7533 30.6348 21.148 30.7011 20.9048C30.7097 20.8733 30.6321 20.4117 30.732 20.4215C30.7736 20.4256 30.9477 20.3959 30.9993 20.4201C31.0513 20.4442 31.0366 20.5978 31.0409 20.6039C31.1946 20.7857 31.1556 20.8737 31.2559 21.1586C31.3556 21.4425 31.2521 20.7489 31.2685 20.6681C31.2841 20.5875 31.3992 20.739 31.431 20.7927C31.4619 20.8465 31.4437 20.9452 31.4689 20.9747C31.635 21.1674 31.4881 20.6218 31.5206 20.5057C31.5967 20.231 31.7425 20.7369 31.8443 20.7758C31.8718 20.7863 31.8364 20.6714 31.8581 20.6576C31.9435 20.6046 32.0252 20.758 32.1136 20.5975C32.1282 20.5713 32.1768 20.2505 32.2592 20.4717C32.2709 20.5036 32.2644 20.6348 32.3071 20.6589C32.3703 20.6951 32.4796 20.7105 32.541 20.6595C32.5852 20.6219 32.5047 20.4166 32.573 20.4752C32.6032 20.5013 32.5686 20.6313 32.6242 20.6702C32.6796 20.709 32.8042 20.6886 32.8504 20.6787C32.8967 20.6688 32.8519 20.511 32.8543 20.4997C32.8684 20.4351 32.9537 20.3463 32.9621 20.3455C33.37 20.277 33.7835 20.5033 34.1687 20.3677C34.1987 20.3573 34.1586 20.1901 34.1629 20.1867C34.2651 20.1029 34.2306 20.5639 34.3245 20.706C34.2736 20.3631 34.3262 20.4201 34.3972 20.3737C34.4313 20.351 34.3962 20.22 34.3979 20.206C34.4282 19.9973 34.495 20.2546 34.5106 20.307C34.5672 20.4999 34.5814 20.2627 34.6213 20.3914C34.6611 20.5191 34.6263 20.7192 34.6998 20.7082C34.7062 20.5826 34.6147 20.2668 34.6645 20.2082C34.8471 19.9872 35.2653 20.1955 35.4362 20.2027C35.6012 20.2104 35.6594 20.1808 35.7588 20.2146C35.9412 20.2754 35.8528 20.0434 35.9485 19.9216C36.0442 19.7999 36.0588 20.3938 36.0889 20.5184C36.1186 20.643 36.12 20.5111 36.1469 20.5784C36.1744 20.6456 36.1419 20.7363 36.1909 20.7571C36.2402 20.7779 36.3371 20.539 36.3372 20.4051C36.3385 20.1213 36.2479 19.834 36.3797 19.9234C36.3873 19.9287 36.3828 20.0858 36.4111 20.0984C36.4796 20.1273 36.5467 20.1458 36.6125 20.1599L36.5823 20.1652C36.7366 20.1792 36.888 20.1694 37.0466 20.2072C37.0781 20.215 37.0931 20.3893 37.1118 20.3957C37.3067 20.4634 37.1785 20.1939 37.1999 19.856C37.276 20.2813 37.3871 20.5262 37.5147 20.5003C37.5912 20.485 37.5381 20.3038 37.5599 20.1631C37.5665 20.1207 37.649 20.2354 37.6404 20.1466C37.6136 19.8563 37.494 19.5497 37.6583 19.6477C37.6655 19.6525 37.6781 19.8117 37.7008 19.8169C37.8467 19.8516 37.8047 19.551 37.9462 19.4873C38.0575 19.4372 38.2955 19.5841 38.43 19.5938C38.502 20.0735 38.6052 19.9453 38.6063 19.6072C38.6939 19.6083 38.7826 19.5769 38.8699 19.612C38.9001 19.6239 38.8999 19.7656 38.9055 19.7802C38.9911 20.009 38.9842 19.6819 39.0013 19.6669C39.1842 19.5189 39.3719 19.746 39.5349 19.4867C39.5406 19.4774 39.5172 19.1411 39.5933 19.3807C39.5981 19.3972 39.5511 19.556 39.6413 19.5589C39.7129 19.5613 39.8454 19.668 39.9521 19.6231C39.9544 19.6226 39.9617 19.6227 39.9641 19.6223C39.9897 19.6127 40.0145 19.5941 40.0375 19.5628C40.0665 19.5241 40.1316 19.2481 40.2 19.4597C40.2091 19.4885 40.2033 19.5853 40.2168 19.6387C40.26 19.8088 40.2687 19.4677 40.3219 19.7556C40.3757 20.0434 40.4718 20.2573 40.5889 20.0543C40.5926 20.0484 40.6141 19.7778 40.6534 19.781C40.7151 19.7863 40.8053 19.8401 40.8691 19.8367C40.8998 19.8349 40.8756 19.6679 40.8809 19.6646C41.0862 19.5652 41.2385 19.7106 41.4625 19.769C41.5044 19.78 41.6136 19.5481 41.6985 19.7263C41.791 19.9213 41.7276 20.7467 41.9224 20.5442C42.0014 20.4632 42.0661 19.4164 42.2308 19.9516C42.506 19.8072 42.7779 20.0727 43.0505 19.8674C43.0627 19.8583 43.0877 19.5653 43.1175 19.5677C43.1617 19.5719 43.1933 19.7066 43.2253 19.7139C43.3588 19.7478 43.473 19.6245 43.601 19.6349C43.6498 19.6384 43.6414 19.7801 43.6994 19.7843C43.7574 19.7884 43.7839 19.6009 43.8677 19.685C43.9306 19.7492 44.0158 20.1233 44.0984 20.1617C44.0748 19.7886 44.1288 19.7925 44.217 19.6869C44.2339 19.6664 44.2044 19.5382 44.2119 19.5218C44.2421 19.4523 44.2828 19.5573 44.3104 19.4819C44.3171 19.4638 44.3076 19.3365 44.3125 19.3145C44.3535 19.1227 44.4691 19.4015 44.4892 19.45C44.5658 19.6342 44.5806 19.4663 44.6338 19.5368C44.6872 19.6072 44.6249 19.7064 44.6839 19.7469C44.806 19.8305 44.9515 19.7965 45.0677 19.7911C45.1141 19.7881 45.066 19.6216 45.0722 19.6172C45.1633 19.5649 45.2781 19.7353 45.2955 19.3922C45.4537 20.2581 45.3439 19.3016 45.4976 19.4615C45.5098 19.4744 45.5696 19.8854 45.5346 19.9506C45.4995 20.0157 45.423 19.8935 45.375 19.9941C45.3639 20.0177 45.3252 20.4127 45.3165 20.4373C45.2502 20.6291 45.1765 20.013 45.1688 19.9796C45.0825 19.6187 45.0282 20.0449 45.0053 20.0761C44.9019 20.2192 44.7959 20.1411 44.707 20.2438C44.6488 20.3102 44.6767 20.7156 44.6253 20.7074C44.4535 20.6803 44.3537 20.1196 44.2332 20.6214C44.2073 20.7284 44.2729 21.1689 44.1266 20.8293C44.1172 20.808 44.0052 20.4956 43.9675 20.7006C43.9627 20.7265 43.9716 20.8556 43.9638 20.867C43.9111 20.9411 43.8651 20.8408 43.8056 20.8941C43.7461 20.9473 43.6747 21.0255 43.6001 20.986C43.5551 20.9624 43.4863 20.7248 43.4621 20.6671C43.3942 20.5006 43.3475 20.7825 43.3004 20.5788C43.2533 20.374 43.3065 20.0564 43.2054 19.9279C43.2197 20.2638 43.2299 20.6089 43.2419 20.9469C43.0322 20.9461 42.8206 20.8472 42.6126 20.8708C42.5867 20.8741 42.6209 21.0536 42.5932 21.0617C42.4772 21.0953 42.3689 20.9705 42.2498 21.0263C42.1567 21.0702 42.0606 21.265 41.9635 21.3165C41.8914 20.9339 41.75 21.0692 41.6429 21.0372C41.6055 21.0262 41.6049 20.9234 41.5778 20.8906C41.4762 20.7696 41.5316 21.1081 41.5061 21.1624C41.3955 21.394 41.3644 20.625 41.2282 20.6478C41.2212 20.6487 41.1439 21.0612 41.1322 21.0871C41.0593 21.2557 41.1154 20.9447 41.0664 20.9157C40.9772 20.8627 40.9129 20.7664 40.8128 20.8893C40.783 20.9257 40.7199 21.1832 40.6551 20.9872C40.6466 20.9615 40.6471 20.8258 40.6407 20.8181C40.5262 20.6888 40.5345 21.1149 40.4758 21.2609C40.4184 21.4069 40.3105 21.116 40.2891 21.0319C40.2311 20.8143 40.3252 20.937 40.3275 20.9154C40.3521 20.6584 40.284 20.7046 40.2279 20.6848C40.206 20.2675 40.1308 20.2952 40.1709 20.6659C40.1753 20.7064 40.2162 20.6661 40.2279 20.6848C40.1934 21.096 40.1135 21.1512 40.0095 20.7719C40.0091 20.7707 40.0088 20.7694 40.0084 20.7682L40.0543 20.7653C39.997 20.5911 40.0164 20.3825 39.8949 20.4701C39.8397 20.51 39.8888 20.7943 39.845 20.8773C39.747 21.0665 39.5665 20.8155 39.4514 20.8711C39.4093 20.8913 39.4695 21.0429 39.4416 21.0621C39.3692 21.1134 39.2854 21.0043 39.2149 21.0741C39.2084 21.0806 39.2461 21.242 39.2221 21.2471C39.0423 21.289 38.8703 21.2062 38.6821 21.2325C38.5905 21.2452 38.4452 21.3617 38.3498 21.3606C38.1858 21.3586 37.9396 21.1636 37.8114 21.251C37.7288 21.3071 37.7836 21.4639 37.7697 21.582C37.7439 21.8107 37.5241 21.4612 37.4912 21.407C37.4901 21.4051 37.5611 21.3488 37.4994 21.2762C37.4346 21.1102 37.4919 21.406 37.4912 21.407C37.4708 21.3716 37.3013 21.3732 37.2759 21.4117C37.2623 21.4327 37.3084 21.5823 37.3007 21.5903C37.2009 21.6916 37.0915 21.7656 36.971 21.8097C36.9382 21.8134 36.8427 21.8382 36.8098 21.8381C36.7086 21.8631 36.5969 21.8664 36.4894 21.8449C36.4851 21.8422 36.4711 21.6679 36.461 21.6638C36.3196 21.602 36.2573 21.8242 36.1633 21.9627C36.0667 22.1014 35.9759 22.069 35.8778 21.7783C35.7997 21.8252 35.664 21.7072 35.589 21.6347C35.5123 21.5625 35.5409 21.9015 35.5357 21.9089C35.3682 22.1445 35.2457 21.9626 35.0457 21.955C34.9565 21.9501 34.7712 22.021 34.6807 22.0689C34.607 22.1076 34.5505 22.0339 34.4829 22.093C34.4737 22.1009 34.5012 22.2501 34.4988 22.2563C34.4373 22.4458 34.4342 22.0735 34.4096 22.0098C34.3184 21.7783 34.2712 21.6549 34.1808 21.7793C34.1601 21.8078 34.1521 22.3453 34.1113 22.3814C34.0583 22.4275 34.0579 22.2352 34.0024 22.2882C33.9979 22.2926 34.0127 22.4095 33.9766 22.4085C33.8115 22.4051 33.6053 22.3603 33.4388 22.3919C33.4151 22.3959 33.4677 22.578 33.4338 22.5868C33.2736 22.6281 33.0912 22.6428 32.9249 22.5747C32.8831 22.5574 32.892 22.4245 32.8789 22.3869C32.7988 22.1596 32.7643 22.5079 32.7526 22.5159C32.4848 22.7135 32.2133 22.4349 31.9441 22.6161C31.9293 22.6267 31.8498 23.0054 31.7551 22.7005C31.7487 22.6803 31.6538 22.3681 31.6307 22.5923C31.6293 22.6063 31.6847 22.7663 31.6212 22.7571C31.5588 22.7478 31.4807 22.8687 31.3766 22.6984C31.3438 22.6447 31.2435 22.3341 31.1967 22.5974C31.1939 22.6157 31.1437 23.2043 31.0504 22.8141C31.0363 22.7497 30.9872 22.3306 30.9251 22.5563C30.9131 22.6001 30.956 22.6896 30.9178 22.7535C30.8595 22.8521 30.7522 22.7516 30.6876 22.949C30.6765 22.984 30.6467 23.2763 30.5666 23.0673C30.5541 23.0345 30.5524 22.8928 30.5224 22.8806C30.3759 22.8228 30.2577 22.9326 30.1127 22.8526C30.0615 22.8245 30.0571 22.5956 30.0004 22.5412C29.9437 22.4869 29.8363 22.4413 29.7968 22.5512C29.7573 22.6611 29.8604 23.0139 29.7851 23.0527C29.4745 23.2191 29.0992 23.0523 28.7718 23.0629C28.7221 23.0646 28.7795 23.1882 28.7072 23.1999C28.4368 23.2443 27.99 23.4248 27.7197 23.1816C27.5017 22.987 27.7189 22.7891 27.5621 22.7188C27.4864 22.6853 27.464 23.1137 27.4486 23.1291C27.3032 23.2841 27.1708 23.1129 27.0313 23.1889C27.0027 23.2047 27.0544 23.3704 27.0298 23.3819C26.9457 23.4228 26.8424 23.3593 26.7586 23.3844C26.7211 23.396 26.7451 23.5246 26.7083 23.5192C26.6196 23.5081 26.5394 23.4632 26.4447 23.3521C26.436 23.342 26.4637 23.1745 26.4026 23.1764C26.3039 23.18 26.1658 23.0763 26.0673 23.2151C26.0381 23.2568 26.0759 23.5529 25.9753 23.3582C25.9542 23.3176 25.9273 22.9596 25.8816 23.278C25.8739 23.3309 25.7831 23.7643 25.6755 23.5069C25.6467 23.4392 25.5634 23.1543 25.5292 23.2054C25.5247 23.2134 25.5675 23.3695 25.5364 23.3893C25.4265 23.4567 25.3006 23.4561 25.1846 23.5221C25.1536 23.5401 25.2243 23.6981 25.1774 23.7196C25.0486 23.779 24.8731 23.7597 24.7313 23.7262C24.6794 23.7135 24.6953 23.5727 24.6896 23.5584C24.6024 23.3245 24.613 23.6544 24.5972 23.6758C24.498 23.8047 24.3897 23.6635 24.2879 23.7183C24.2598 23.733 24.3015 23.8854 24.2975 23.9001C24.2543 24.0434 24.2627 23.7586 24.2198 23.7331C24.0995 23.6606 23.9789 23.6894 23.8695 23.7243C23.8293 23.7373 23.8997 23.911 23.8634 23.9207C23.6423 23.9818 23.4333 23.9924 23.208 23.9217C23.1661 23.9079 23.1722 23.7661 23.1598 23.7355C23.0734 23.5217 23.0306 23.835 23.0152 23.8663C22.9453 24.0095 22.8946 23.8915 22.8197 23.9249C22.4511 24.0905 21.9965 24.0694 21.6245 24.0689C21.1522 24.0673 20.7891 23.9825 20.3421 24.0784C20.3138 24.0843 20.3678 24.2646 20.3437 24.2721C20.0403 24.3588 19.732 24.3277 19.4235 24.4242C19.3982 24.4318 19.4594 24.6014 19.4196 24.6194C19.3382 24.6577 19.2285 24.6631 19.1338 24.6192C19.0877 24.5982 19.124 24.4405 19.078 24.4224C18.9687 24.3801 18.8697 24.3811 18.774 24.4228C18.7339 24.4408 18.8216 24.6108 18.7675 24.6203C18.4 24.689 18.0269 24.7718 17.6111 24.5935C17.5834 24.5812 17.5108 24.2212 17.466 24.2984C17.4758 24.3997 17.4924 24.5182 17.5055 24.6261C16.9815 24.7577 16.3877 24.7118 15.8557 24.766C15.8326 24.7685 15.899 24.9553 15.8545 24.9609C15.5967 24.9939 15.351 25.0825 15.0542 24.929C15.0248 24.914 14.9914 24.5738 14.9193 24.636C14.907 24.6472 14.7924 24.7092 14.7735 24.7867C14.7711 24.7984 14.814 24.9534 14.7778 24.9632C14.5669 25.0171 14.335 25.0127 14.1031 24.9468C14.0656 24.9359 14.0796 24.7624 14.0527 24.7532C13.8621 24.6888 13.6845 24.8441 13.4899 24.7157C13.3595 24.6291 13.3616 24.3324 13.2597 24.055C13.2453 24.0158 13.1722 24.0195 13.1451 23.8536C13.0768 23.4363 13.0475 22.973 12.9705 22.5288C12.954 22.4331 12.8716 22.5503 12.8964 22.3099C12.8983 22.2938 12.9577 22.2069 12.9639 22.1257C12.9682 22.0695 12.9228 21.9033 12.9376 21.8301C12.9523 21.757 12.9991 21.8951 13.0282 21.8075C13.057 21.7189 13.0123 21.5288 13.0898 21.4947ZM35.242 21.3123C35.161 21.1572 35.2195 21.7526 35.271 21.6027C35.2734 21.5947 35.2461 21.3199 35.242 21.3123ZM42.8019 20.396C42.7062 20.1362 42.6664 20.5262 42.7343 20.7272C42.8027 20.928 42.8313 20.4747 42.8019 20.396ZM43.6597 20.1574C43.5492 19.9557 43.5843 20.8034 43.68 20.6258C43.6857 20.6157 43.6662 20.1691 43.6597 20.1574ZM13.5339 23.9334C13.5319 23.9257 13.4795 23.9252 13.4793 23.9332C13.4783 24.1252 13.5832 24.126 13.5339 23.9334ZM44.5028 19.8869C44.463 19.775 44.3863 19.914 44.4353 20.0532C44.475 20.1652 44.5525 20.026 44.5028 19.8869ZM31.8823 21.0653C31.8802 21.0566 31.8435 21.053 31.8503 21.1029C31.8725 21.2637 31.9165 21.2122 31.8823 21.0653ZM45.9544 19.7288C45.7349 19.7237 45.5276 19.042 45.7653 19.0935C45.8087 19.1027 45.7023 19.3261 45.7628 19.3825C45.8744 19.485 45.8841 19.0405 46.0125 19.2618C46.0363 19.3023 45.9675 19.7306 45.9542 19.7298C45.9543 19.7295 45.9544 19.7291 45.9544 19.7288ZM35.1245 20.6026C35.1225 20.5949 35.071 20.5932 35.0706 20.6011C35.0647 20.7929 35.1685 20.7964 35.1245 20.6026ZM29.7085 20.9626C29.7038 20.9462 29.5828 20.9456 29.5807 20.9615C29.5576 21.2774 29.8023 21.2796 29.7085 20.9626ZM38.4341 19.6063C38.4599 19.4089 38.5274 19.376 38.6061 19.607C38.5493 19.6024 38.4911 19.6093 38.4341 19.6063Z" fill="#5882E3"/>
</svg>
