<svg width="48" height="49" viewBox="0 0 48 49" fill="none" xmlns="http://www.w3.org/2000/svg">
<path d="M29.1517 28.4283C28.6473 28.9412 27.9698 29.4402 27.4367 29.8124C27.2686 29.9297 27.2765 29.7809 27.158 29.8581C26.9262 30.0097 26.7746 30.217 26.5423 30.3637C26.4659 30.4111 26.4334 30.2128 26.3555 30.2658C25.927 30.5596 25.6026 30.9259 25.2042 31.2642C24.5212 31.8443 23.865 32.4478 23.2221 33.0762C22.0282 34.2428 20.9094 35.4901 19.8138 36.8058C19.2597 37.4701 18.5044 38.222 18.0314 38.9909C17.9766 39.0801 18.1325 39.1161 18.1307 39.1394C18.0988 39.5015 17.9174 39.2443 17.7668 39.3866C17.5582 39.5848 17.358 39.8032 17.1688 40.0322C16.7792 40.5145 16.3617 40.9996 15.9619 41.4156C15.7001 41.6843 16.1756 41.6547 15.7804 41.7802C15.7535 41.7885 15.7238 41.6085 15.6356 41.6613C15.4368 41.7826 15.1178 42.0635 14.9735 42.153C14.6956 42.3261 14.6531 42.357 14.4072 42.5284C14.2977 42.6039 14.1778 42.6766 14.0549 42.7499C13.9028 42.8158 13.8123 42.9668 13.8704 42.8466C13.8746 42.8299 13.8777 42.8125 13.8798 42.7956C13.8832 42.7281 14.0578 42.8214 14.0625 42.6783C14.0598 42.5678 13.9803 42.4796 13.9585 42.4878C14.0082 42.532 14.0512 42.5737 14.0749 42.6045C14.1522 42.7041 14.0396 42.7793 14.0406 42.8152C14.0493 43.1195 14.5987 43.0642 14.646 43.081C15.5694 43.466 16.2707 44.0086 17.1621 44.3772C17.8377 44.6543 18.5951 44.8565 19.2529 45.0661C20.0356 45.3149 20.6941 45.5708 21.4693 45.6881C21.5513 45.7003 21.4867 45.4985 21.5858 45.5125C21.9605 45.5643 22.3305 45.6033 22.6756 45.619C23.3265 45.6476 23.9891 45.6308 24.6714 45.5995C24.7784 45.5945 24.6701 45.781 24.7802 45.7853C25.4468 45.8189 26.598 45.841 26.7537 45.0266C27.1893 44.9178 27.7147 44.7568 28.1479 44.7409C28.4288 44.7294 28.2573 44.9932 28.5313 44.7988C28.5934 44.7547 28.4445 44.6451 28.5413 44.5903C28.9467 44.3605 29.4321 44.2002 29.8319 43.9324C29.9116 43.8784 29.8313 43.7592 29.8466 43.7245C29.913 43.5789 30.0811 43.5474 30.2455 43.5512C30.3731 43.566 30.5038 43.6028 30.543 43.5986C31.1642 43.523 31.5441 43.2488 32.0592 42.9902C32.1788 42.9298 31.9508 42.8334 32.0628 42.7691C32.6445 42.4377 33.2665 42.1221 33.8868 41.8797C34.0254 41.8259 33.9841 42.0331 34.0543 42.0147C34.3628 41.9315 34.2753 41.6304 34.5677 41.5446C34.6293 41.526 34.6654 41.6645 34.6828 41.6723C34.9556 41.7948 34.9273 41.423 34.9644 41.3939C35.1032 41.2814 35.248 41.2133 35.3913 41.1665C35.6729 41.0844 35.9902 41.0606 36.2438 40.7978C36.2856 40.753 36.0682 40.71 36.1909 40.593C36.7218 40.0772 37.2501 39.44 37.7913 38.8094C38.0846 38.4653 38.3904 38.131 38.7109 37.8189C38.8556 37.6784 38.8654 37.873 38.8861 37.8735C39.2107 37.8804 39.0378 37.5608 39.0719 37.502C39.3464 37.0454 39.8867 36.9031 39.8707 36.3644C40.0946 36.1796 40.3205 35.9992 40.5494 35.824C41.7341 34.8511 42.4356 32.9597 43.5945 31.5446C43.6107 31.5235 43.736 31.6442 43.7676 31.6017C44.1538 31.0803 43.8674 31.0629 43.7846 30.5414C43.7662 30.406 44.256 30.3043 44.2956 30.2899C44.4373 30.2446 44.6055 30.4593 44.64 30.4372C44.8793 30.2783 44.3481 30.0021 44.3224 29.7008C44.316 29.6584 44.3206 29.6171 44.3405 29.577C44.3465 29.5679 44.4622 29.6758 44.4886 29.6568C44.5718 29.5959 44.5541 29.4902 44.6367 29.4282C44.8208 29.2931 45.2396 29.3329 45.0966 28.9459C45.074 28.9 44.6161 28.8478 44.6827 28.5759C44.7187 28.4673 44.7245 27.9552 44.7326 27.796C44.7497 27.6405 44.9087 27.7314 44.9144 27.7206C45.066 27.2653 45.1632 27.4156 45.4226 27.1429C45.6761 26.8633 44.994 27.0406 44.9015 26.96C44.809 26.8805 44.9147 26.5093 44.9602 26.4157C45.0048 26.3227 45.1145 26.415 45.1361 26.3357C45.2858 25.818 44.7641 26.1552 44.6359 25.9905C44.563 25.8921 44.5403 25.7909 44.5494 25.692C44.5783 25.4247 44.8783 25.1816 44.9135 24.9143C44.9262 24.8184 44.8086 24.8981 44.7967 24.8124C44.7518 24.4726 44.9134 24.2703 44.7731 23.8793C44.75 23.8169 44.4473 23.4858 44.6885 23.2904C44.7232 23.2633 44.8477 23.3523 44.8852 23.2084C44.9408 22.9932 45.0027 22.6066 44.9893 22.3686C44.9793 22.1922 44.7417 22.3638 44.8366 22.1529C44.8795 22.06 44.9779 22.2559 45.0484 22.0817C45.1073 21.9349 45.1693 21.5851 45.2119 21.3773C45.219 21.3413 45.2248 21.3098 45.2292 21.2846C45.2571 21.1185 45.0801 21.1793 45.0721 21.1637C45.0278 21.0716 44.9981 20.7519 45.0001 20.7261C45.1769 19.3616 45.1498 18.0505 44.6762 16.6553C44.6425 16.5422 44.4942 16.6573 44.4873 16.6404C44.4523 16.5585 44.4494 16.4998 44.4675 16.462C44.5343 16.3327 44.8614 16.4073 44.9335 16.176C44.6027 16.2874 44.6323 16.1196 44.5328 15.8695C44.484 15.7485 44.3705 15.8493 44.3544 15.841C44.1116 15.7088 44.332 15.5189 44.3745 15.47C44.532 15.2955 44.2682 15.2284 44.3701 15.1092C44.47 14.9876 44.7164 15.1228 44.6356 14.8735C44.4955 14.8429 44.2443 15.1207 44.1357 14.9549C43.8207 14.4641 43.5567 13.5532 43.308 12.9064C43.2486 12.744 43.1874 12.6028 43.1314 12.4964C42.8582 11.9922 42.7194 11.8591 42.5509 11.5615C42.2309 11.0291 42.1832 11.3572 41.8553 11.1426C41.5221 10.9318 42.0838 10.6746 42.1418 10.5482C42.1989 10.4215 42.0613 10.4647 42.0658 10.3662C42.0705 10.2681 42.2359 10.32 42.1445 10.1821C42.0525 10.0423 41.5801 9.87606 41.4453 9.92915C41.1588 10.0392 41.086 10.3865 40.8637 10.0125C40.8509 9.99079 41.0173 9.93778 40.9626 9.86014C40.7426 9.55262 40.4928 9.26163 40.2406 8.97131C39.9978 8.69069 39.7318 8.42586 39.4749 8.15498C39.4039 8.08003 39.5829 8.00075 39.5423 7.95535C39.1125 7.4848 39.1117 7.85435 38.6497 7.91686C38.9648 7.61299 38.9674 7.28544 38.5776 7.00984C38.344 6.84498 38.2769 7.02819 38.0501 7.0327C37.9818 7.03417 37.8899 6.81338 37.8094 6.86544C37.5452 7.03457 37.5177 7.41139 37.1869 7.02294C37.1727 7.00546 37.3203 6.91533 37.2645 6.86444C36.9505 6.57471 36.7404 6.70286 36.3864 6.53443C36.3372 6.51081 36.2846 6.48052 36.2301 6.44302C35.8777 6.20258 35.4474 5.58708 35.1183 5.27066C35.4396 4.90653 35.0305 4.70878 34.6861 4.8625C34.466 4.66786 34.2074 4.4946 34.0056 4.30326C33.9363 4.23795 34.0652 4.15517 34.0638 4.136C34.0356 3.83157 33.7515 4.04302 33.6962 4.02628C33.5262 3.96803 33.3781 3.90348 33.2376 3.84695C33.1513 3.84216 33.3088 3.78688 33.2525 3.8097C33.2189 3.84905 33.1843 3.9729 33.1786 4.09842C33.169 4.26098 33.1895 4.42949 33.2586 4.59878C33.268 4.62274 33.6028 4.64337 33.3657 4.81325C33.3498 4.82655 33.1835 4.62775 33.1907 4.92257C33.1956 5.21348 33.1203 5.81765 33.3644 6.21568C33.4219 6.3103 33.7457 6.52562 33.573 6.78542C33.5494 6.81961 33.4487 6.80391 33.4027 6.85457C33.2551 7.0141 33.6042 7.04302 33.3355 7.23849C33.293 7.26848 33.2526 7.30187 33.2153 7.33801C33.0155 7.53403 32.9035 7.80108 33.0654 8.16674C33.071 8.18008 33.3393 8.28957 33.33 8.42896C33.3154 8.65104 33.241 8.9612 33.2272 9.1911C33.2207 9.30188 33.3927 9.24237 33.3945 9.26182C33.4369 10.0114 33.2442 10.5252 33.1355 11.316C33.1185 11.4383 33.2608 11.7587 33.1962 12.0199C33.1836 12.0718 33.1623 12.1213 33.1301 12.1659C32.9057 12.4613 32.1286 12.0828 32.2362 12.7454C32.2759 13 33.2257 13.591 32.5651 13.9596C32.4294 14.9592 31.8289 15.723 31.6337 16.7242C31.6248 16.7692 31.8427 17.0093 31.7997 17.1072C31.7362 17.2503 31.5777 17.282 31.5293 17.3834C31.4636 17.5192 31.4159 17.6566 31.379 17.7944C31.2988 18.0935 31.2571 18.3932 31.1576 18.6865C31.1029 18.8498 30.9842 18.7526 30.9201 18.9492C30.8567 19.1463 30.9993 19.3267 30.8422 19.5734C30.7232 19.7593 30.3036 19.8725 30.1938 20.1374C30.5547 20.236 30.5012 20.4213 30.5201 20.7767C30.524 20.8449 30.6666 20.8058 30.675 20.8395C30.712 20.9771 30.5808 21.0673 30.6256 21.1999C30.6363 21.2322 30.7606 21.2616 30.7763 21.2896C30.9153 21.5278 30.5633 21.7905 30.5022 21.8361C30.3384 21.9587 30.3597 22.0623 30.3485 22.1653C30.3424 22.2109 30.331 22.254 30.2977 22.2975C30.1848 22.4438 30.1542 22.1768 30.0632 22.3566C29.8748 22.7278 29.7548 23.2336 29.629 23.6266C29.5796 23.7832 29.7752 23.7259 29.772 23.7494C29.7131 24.0904 29.4337 24.3608 29.6949 24.6488C28.7869 24.5921 29.7114 24.8724 29.3797 25.2786C29.3532 25.31 28.9467 25.2139 28.9388 25.0559C28.9306 24.899 29.1265 24.7322 29.1014 24.5095C29.0963 24.4559 28.8128 24.0749 28.8012 24.0331C28.7148 23.7023 29.3177 23.8492 29.3552 23.8441C29.7596 23.7848 29.456 23.3382 29.452 23.247C29.4371 22.8238 29.6092 22.5178 29.5971 22.1705C29.5944 22.0887 29.5412 22.0213 29.4769 21.9617L29.4737 21.9756C29.3592 21.8686 29.2107 21.7862 29.2427 21.6769C29.4094 21.1089 30.0062 21.0353 29.6545 20.3801C29.5803 20.2394 29.1195 20.2528 29.561 19.9127C29.5888 19.8908 29.9755 19.6568 29.8265 19.4265C29.8077 19.3974 29.6822 19.3658 29.6795 19.333C29.6639 19.1135 29.7993 19.0054 29.8125 18.7724C29.8259 18.5394 29.8324 18.2521 29.9523 18.0124C30.0242 17.8674 30.3164 17.7471 30.396 17.6944C30.4746 17.643 30.5034 17.5735 30.5174 17.5017C30.5462 17.3588 30.5246 17.2065 30.6808 17.174C30.9214 17.1233 31.1249 17.4712 31.3709 17.2029C31.062 17.0694 30.7506 16.9179 30.4431 16.7758C30.7317 16.0736 31.1003 15.4714 31.3198 14.8038C31.3464 14.7215 31.1467 14.7447 31.1705 14.6556C31.2699 14.2817 31.4942 14.0018 31.5455 13.6129C31.5843 13.3116 31.4672 12.9588 31.4652 12.67C31.8076 12.5771 31.8149 12.2359 31.8233 11.9645C31.826 11.8953 31.8301 11.829 31.8386 11.7673C31.8568 11.6331 31.9591 11.647 31.9972 11.5544C32.1391 11.2029 31.7912 11.3524 31.743 11.251C31.5389 10.815 32.3092 10.8262 32.3234 10.3349C32.3243 10.3101 31.9376 9.96231 31.9153 9.91828C31.7691 9.62953 32.061 9.88334 32.1038 9.71225C32.1815 9.40356 32.2958 9.19213 32.1972 8.82793C32.168 8.72031 31.9256 8.46617 32.1283 8.28244C32.1549 8.25788 32.29 8.27547 32.2985 8.25518C32.4378 7.88719 32.0079 7.87977 31.8578 7.70207C31.7976 7.63233 31.8038 7.5488 31.8364 7.46796C31.887 7.35031 31.9953 7.21154 32.0402 7.16715C32.2318 6.9731 32.152 7.27598 32.1725 7.27861C32.4391 7.34642 32.3698 7.13617 32.3584 6.95269C32.7664 6.85606 32.6913 6.5953 32.3442 6.76095C32.3066 6.7795 32.3713 6.9138 32.3584 6.95269C31.9284 6.86872 31.8215 6.61015 32.1276 6.19137C32.2732 5.99544 32.5037 6.11347 32.342 5.63337C32.2719 5.41073 32.0005 5.54345 31.8945 5.33821C31.7033 4.96191 31.8161 4.41547 31.9195 3.94693C31.9476 3.81502 31.9732 3.66712 32.0248 3.4773C32.1518 3.11066 31.8458 3.42633 31.9705 3.12446C32.0684 2.90707 32.3534 2.54652 32.8033 2.41948C33.2463 2.29661 33.5599 2.40608 33.7491 2.48195C33.9229 2.56393 34.0782 2.64944 34.252 2.70844C34.2854 2.71988 34.2869 2.53351 34.3947 2.58915C35.1925 3.01706 35.6173 3.52721 36.1959 4.01063C36.4742 4.24654 37.0066 4.58492 37.2592 4.81271C37.3478 4.89284 37.4346 4.98099 37.5198 5.0708C37.8566 5.42702 38.2537 5.87237 38.6362 6.08066C38.9497 6.25207 38.98 6.07277 39.1709 6.06869C39.5414 6.0599 39.7582 6.69732 39.7794 6.78983C39.7798 6.79206 39.4998 6.63581 39.587 6.80416C39.5621 7.00434 39.7758 6.78818 39.7794 6.78983C39.7955 6.84715 40.2857 7.26967 40.4063 7.33219C40.4722 7.36394 40.5405 7.218 40.5734 7.2372C40.8507 7.40159 41.1216 7.59089 41.3805 7.81185C41.7865 8.15067 42.1693 8.52821 42.5205 8.95836C42.5287 8.97136 42.3875 9.07664 42.4082 9.10559C42.6956 9.51573 43.0697 9.60545 43.448 9.8466C43.8254 10.088 44.0182 10.4019 43.9334 10.7909C44.1647 11.0346 44.3263 11.52 44.3946 11.8037C44.4635 12.0856 44.7794 11.964 44.7983 11.9839C44.8366 12.0256 44.8722 12.0673 44.9054 12.1091C45.3135 12.5932 45.3448 13.0426 45.5833 13.7227C45.7079 14.0694 45.9826 14.7544 46.1152 15.1275C46.2242 15.4235 46.1887 15.6216 46.2991 15.8864C46.3139 15.9225 46.4536 15.8524 46.4618 15.8627C46.5389 15.9481 46.5519 16.0001 46.5324 16.0332C46.4861 16.0847 46.2945 16.0853 46.2569 16.1259C46.0601 16.3511 45.9675 16.5072 46.1719 16.8376C46.2188 16.9135 46.8005 17.0296 46.8724 17.1924C46.964 17.4025 46.7586 17.3624 46.8565 17.5854C46.8644 17.6046 46.9794 17.5755 47.0053 17.7239C47.1297 18.4191 47.1562 19.2358 47.1473 20.0043C47.1457 20.1103 47.3367 19.9789 47.3365 20.1333C47.3342 20.6768 47.2615 21.2551 47.1112 21.7808C47.0721 21.904 47.0316 22.0258 46.9888 22.1449C46.9473 22.2595 46.8304 22.1644 46.7878 22.1841C46.5285 22.3106 46.8372 22.5925 46.8399 22.6289C46.9008 23.5478 46.5936 24.282 46.7593 25.3311C46.7643 25.3607 46.8669 25.4901 46.9226 25.638C46.973 25.7187 46.9874 25.814 46.8437 25.8997C46.8232 25.9082 46.5206 26.0993 46.7617 26.2221C46.7769 26.2297 46.9239 26.0979 46.936 26.2872C46.9478 26.4765 47.1218 26.8115 46.9884 27.1932C46.9456 27.3168 46.6626 27.6003 46.9287 27.9571C46.9536 27.9592 47.5216 28.6163 47.086 28.8119C47.0125 28.8421 46.6161 28.7454 46.7396 29.2353C46.7609 29.3314 46.8908 29.1906 46.8924 29.4387C46.8912 29.8276 46.6211 30.2406 46.5973 30.7042C46.5959 30.7361 46.612 30.8184 46.6105 30.917C46.6257 31.039 46.6118 31.183 46.441 31.2212C46.3973 31.231 46.2988 31.1161 46.2389 31.1952C45.9485 31.5801 45.7977 32.0636 45.4829 32.4444C45.3726 32.5775 45.2132 32.393 45.0741 32.5229C44.9362 32.6507 44.7145 32.9376 44.7143 33.1554C44.7159 33.3701 45.1348 33.3603 45.0229 33.6257C44.5193 34.773 43.8156 35.7349 42.8005 36.9192C42.6383 37.0953 42.8758 37.0313 42.6243 37.301C42.4848 37.4464 42.3177 37.6091 42.1259 37.7703C41.4912 38.2999 40.7933 39.1687 40.1855 39.568C39.6154 39.9361 39.9834 39.1932 39.607 39.5291C39.4544 39.6671 39.5538 40.0173 39.5755 40.1588C39.5787 40.1874 39.5792 40.2079 39.5747 40.2174C39.3051 40.7934 38.8832 41.0237 38.5292 41.5063C38.4546 41.6067 38.6638 41.6305 38.5976 41.7155C38.3702 42.0085 38.0299 42.2421 37.7473 42.5048C37.6193 42.6231 37.7276 42.7028 37.5922 42.7995C37.2802 43.0208 36.9526 43.1822 36.5648 43.2706C36.5521 43.2721 36.5393 43.2736 36.5264 43.2751C36.5129 43.2766 36.5229 43.2269 36.5168 43.1844C36.5161 43.1599 36.5091 43.1385 36.4869 43.1308C36.4665 43.1203 36.4334 43.1231 36.3784 43.1518C36.0574 43.3201 35.6063 43.4321 35.2999 43.7425C35.2094 43.8349 35.3484 44.0993 35.015 44.0464C34.9452 44.0354 34.8367 43.6865 34.7114 44.107C34.6906 44.1771 34.4267 44.7945 34.0712 44.6782C33.9776 44.6478 33.687 44.47 33.5755 44.5807C33.5609 44.5967 33.7079 44.7006 33.6048 44.7724C33.2388 45.0238 32.8187 45.2211 32.4248 45.4712C32.3189 45.5386 32.5588 45.6058 32.3986 45.7011C32.101 45.8769 31.7366 46.0407 31.3312 46.182C31.1974 46.2239 31.0403 46.2757 30.8923 46.3225C30.7261 46.3751 30.7797 46.2009 30.7623 46.1922C30.4789 46.0522 30.4995 46.4025 30.4426 46.4487C30.094 46.7286 29.7202 46.7222 29.3538 46.9162C29.2529 46.9691 29.3863 47.0838 29.3707 47.1052C29.2023 47.3204 29.2611 46.9935 29.1097 47.0207C28.6881 47.0943 28.2533 47.2691 27.8505 47.4254C27.7021 47.483 27.9298 47.5985 27.7945 47.6484C26.9982 47.9451 26.1151 48.1613 25.2523 48.2112C25.0895 48.2201 25.1663 48.0648 25.1278 48.039C24.8677 47.8578 24.5801 48.2047 24.5025 48.2429C24.1615 48.4174 24.007 48.307 23.6895 48.3516C23.347 48.3985 22.9799 48.4233 22.5989 48.4215C21.1642 48.4008 19.8827 48.0158 18.8556 47.6844C17.1514 47.1106 15.9377 46.4903 14.3909 45.7454C14.2922 45.6965 14.3052 45.9128 14.2186 45.8723C13.5734 45.5634 12.9516 45.1853 12.3323 44.7311C11.8142 44.3545 11.1704 43.5787 11.3399 42.4228C11.5626 41.3834 12.0547 41.0385 12.3987 40.7225C12.537 40.6129 12.2328 40.6244 12.4427 40.451C12.4442 40.4497 12.4458 40.4483 12.4475 40.4469C12.6858 40.247 12.9965 40.0422 13.2508 39.9254C13.3749 39.8678 13.3196 40.0965 13.4429 40.0355C13.7302 39.8937 13.9845 39.7066 14.1742 39.4937C14.2535 39.4033 14.0004 39.3925 14.1099 39.2873C14.387 39.0158 14.6207 38.7291 14.8556 38.4034C15.3514 37.7118 15.8881 37.0385 16.5276 36.4244C16.5992 36.3553 16.9413 36.5096 17.0089 36.3032C16.9368 36.2298 16.8409 36.1584 16.7581 36.0875C17.9343 34.4321 19.315 32.9511 20.7136 31.458C20.7727 31.3948 20.5283 31.3736 20.6426 31.2504C20.741 31.1443 20.8378 31.039 20.9357 30.933C21.4914 30.3313 22.0398 29.7455 22.7568 29.2686C22.8404 29.2128 23.0428 29.4923 23.2125 29.2542C23.2428 29.2109 23.522 28.8775 23.5522 28.7467C23.5554 28.7282 23.3885 28.667 23.4856 28.568C24.061 27.9858 24.7194 27.436 25.3921 26.9769C25.5002 26.9036 25.5084 27.1221 25.5859 27.0714C26.1375 26.7076 26.6007 26.1502 27.1283 25.8845C27.4769 25.7072 27.5712 26.0184 27.9171 26.0864C27.9698 26.0935 28.1266 25.9391 28.2599 26.0396C28.6014 26.2923 28.8517 26.7054 29.2234 26.9664C29.3033 27.0313 29.5269 26.5915 29.5276 26.9627C29.5237 26.9968 29.3612 27.2927 29.3647 27.3987C29.3665 27.4751 29.5566 27.5263 29.5283 27.6546C29.4983 27.7837 29.3173 27.7594 29.2524 27.9321C29.1912 28.1015 29.3705 28.203 29.1517 28.4283ZM44.6114 13.0242C44.5619 13.3054 45.1214 13.0906 44.8823 12.9146C44.87 12.9065 44.6135 13.0098 44.6114 13.0242ZM31.5083 15.637C31.8598 15.4577 31.5635 15.1371 31.3022 15.2558C31.0411 15.3729 31.4018 15.6906 31.5083 15.637ZM30.6271 18.6294C30.9257 18.3524 30.1313 18.0496 30.1857 18.4685C30.1887 18.4929 30.6097 18.6459 30.6271 18.6294ZM27.2457 26.8048C27.2538 26.8084 27.3965 26.6945 27.3934 26.6867C27.3409 26.4804 27.0583 26.7061 27.2457 26.8048ZM30.0928 21.665C30.2281 21.5837 30.1666 21.2505 29.998 21.3509C29.8622 21.4324 29.9244 21.7662 30.0928 21.665ZM45.2053 24.9014C45.1964 24.9051 45.1901 25.0366 45.2405 25.0332C45.4025 25.022 45.3545 24.8405 45.2053 24.9014ZM28.4495 26.5069C28.8251 25.8499 29.6604 25.7221 29.2125 26.451C29.1311 26.5808 29.1608 26.0562 29.0171 26.2017C28.7561 26.465 29.038 26.8751 28.6628 27.0854C28.5945 27.1231 28.4269 26.5437 28.4492 26.5052C28.4493 26.5058 28.4494 26.5063 28.4495 26.5069ZM44.0158 13.4475C44.0107 13.4548 44.079 13.6237 44.0877 13.6246C44.3022 13.6381 44.1631 13.2936 44.0158 13.4475ZM43.5074 32.0514C43.4878 32.0525 43.2729 32.4158 43.2802 32.4346C43.4479 32.7767 43.8837 32.0421 43.5074 32.0514ZM35.1211 5.25613C34.8472 5.27502 34.6568 5.14684 34.6866 4.86325C34.829 4.99404 34.9783 5.12049 35.1211 5.25613Z" fill="#5882E3"/>
<path d="M23.0173 22.4099C22.857 22.1701 22.7491 21.7791 22.7073 21.4887C22.6935 21.3967 22.8095 21.398 22.8032 21.33C22.7909 21.1972 22.6971 21.1107 22.694 20.9792C22.6934 20.9355 22.8676 20.9153 22.8635 20.871C22.8417 20.6325 22.7129 20.441 22.653 20.211C22.3587 19.0786 21.9677 18.0025 21.578 16.8832C21.4483 16.5115 21.4097 16.0264 21.1912 15.6762C21.1661 15.6368 21.0407 15.7189 21.0261 15.7155C20.8022 15.662 21.0928 15.5857 21.0941 15.486C21.1002 15.095 20.9569 14.7137 20.7716 14.4121C20.6932 14.2857 20.4793 14.5358 20.5736 14.3325C20.5798 14.3184 20.7393 14.2948 20.7389 14.2499C20.7379 14.1483 20.647 13.9995 20.6307 13.9265C20.6025 13.7915 20.5913 13.768 20.5442 13.6468C20.4809 13.4799 20.4736 13.2529 20.3698 13.0877C20.3471 13.0524 20.218 13.1621 20.1686 13.1115C20.1201 13.0634 20.0682 12.8949 20.0817 12.8259C20.0953 12.757 20.222 12.7345 20.2451 12.7142C20.4422 12.5488 20.0539 12.4831 20.0366 12.4616C19.8676 12.2464 19.8042 12.0113 19.7548 11.7797C19.693 11.5378 19.6655 11.296 19.6226 11.0564C19.5471 10.6446 19.4821 10.215 19.5096 9.8653C19.543 9.44959 19.669 9.1406 19.6723 8.80796C19.6728 8.77338 19.4823 8.80326 19.4823 8.76208C19.4823 8.65788 19.4818 8.55966 19.4809 8.46738C19.4771 8.1136 19.4938 7.74596 19.5674 7.36926C19.5773 7.3196 19.7466 7.37232 19.7663 7.32188C19.8836 7.01329 20.1736 6.5058 19.4406 6.38033C19.453 6.17254 19.4625 5.91928 19.5932 5.72257C19.6773 5.59574 19.8661 5.69826 19.7782 5.55715C19.7585 5.52527 19.6042 5.5804 19.5867 5.53165C19.5131 5.32626 19.5475 5.09288 19.4519 4.88887C19.432 4.84734 19.2915 4.86849 19.2653 4.85808C19.0523 4.7698 19.3823 4.57687 19.4049 4.53898C19.4632 4.43675 19.4913 4.3458 19.5029 4.25982C19.5254 4.11388 19.4852 3.9835 19.4718 3.82932C19.467 3.77446 19.2849 3.85926 19.2735 3.80826C19.2166 3.54395 19.1875 3.26771 19.2163 2.97829C19.2231 2.91389 19.3931 2.93817 19.4045 2.90564C19.4518 2.75992 19.146 2.79334 19.1841 2.65192C19.1917 2.62214 19.3307 2.60901 19.3445 2.60097C19.5624 2.47466 19.2164 2.47419 19.2048 2.45461C19.1321 2.33992 19.1631 2.21846 19.2091 2.09365C19.2832 1.97705 19.2369 1.73516 19.4746 1.33019C19.5379 1.24665 19.2313 1.32102 19.4457 1.08328C19.7214 0.839873 19.9209 0.816494 20.0775 0.778155C20.2372 0.747785 20.3684 0.741603 20.4957 0.741991C20.8797 0.746561 21.2652 0.801653 21.627 0.905998C21.7161 0.931136 21.6465 1.06031 21.6516 1.07677C21.7318 1.33416 21.8046 0.997195 21.8345 0.985864C22.0676 0.905278 22.2549 1.20531 22.4471 0.815393C23.3981 1.03768 24.428 0.999351 25.2518 1.63034C25.2622 1.63788 25.1928 1.79193 25.2134 1.80623C25.4617 1.9818 25.483 1.7162 25.7725 1.47677C25.8459 1.41692 25.8616 1.82955 25.8637 1.86034C25.8737 1.97407 25.7443 2.1927 25.7524 2.21693C25.8189 2.40841 26.0801 1.62583 26.2495 1.68835C26.2543 1.69158 26.1794 1.8256 26.188 1.84494C26.2141 1.90523 26.2796 1.86551 26.3033 1.93045C26.357 2.08045 26.2452 2.46656 26.4744 2.30653C26.5037 2.28569 26.6484 1.83961 26.7875 1.91933C26.8418 1.95083 27.1024 2.04902 27.161 2.10621C27.2198 2.16329 27.1138 2.28256 27.1164 2.29067C27.2311 2.55383 27.1262 2.59983 27.109 2.91197C27.0926 3.22322 27.3332 2.56411 27.4014 2.50755C27.4691 2.45111 27.5454 2.65981 27.5579 2.72632C27.5708 2.79316 27.4922 2.86478 27.5107 2.9071C27.6353 3.18437 27.7272 2.61875 27.8335 2.54113C28.0801 2.3546 28.0126 2.88441 28.1419 2.98332C28.1642 3.00047 28.1749 2.95427 28.1901 2.92038C28.1982 2.90224 28.2076 2.88762 28.2207 2.88799C28.367 2.8926 28.4023 3.07365 28.6005 2.97585C28.6342 2.9604 28.8387 2.69275 28.8624 2.93554C28.8659 2.97059 28.7996 3.08736 28.8524 3.13086C28.9307 3.19602 29.0879 3.26301 29.1958 3.24347C29.2754 3.22906 29.2406 3.00188 29.3166 3.08751C29.3506 3.12572 29.2473 3.23009 29.3134 3.2917C29.3793 3.35318 29.5763 3.39266 29.6526 3.40691C29.7289 3.42086 29.7262 3.25362 29.7349 3.24448C29.7864 3.19233 29.9565 3.15579 29.9719 3.16072C30.1973 3.225 30.4312 3.28842 30.7078 3.56621C30.9385 3.81684 31.0123 4.18643 30.9839 4.45091C30.961 4.72361 30.8945 4.94545 30.859 5.17689C30.8501 5.23026 31.0237 5.24578 31.0241 5.25443C31.0355 5.45623 30.6475 5.17884 30.4654 5.24577C30.7993 5.33975 30.7168 5.39014 30.7098 5.51925C30.7065 5.58194 30.8435 5.59806 30.8545 5.60798C31.0138 5.76437 30.745 5.72879 30.6893 5.72341C30.4836 5.70594 30.6786 5.84902 30.5408 5.83691C30.4045 5.82387 30.2566 5.66935 30.2163 5.77644C30.3191 5.85298 30.6522 5.8939 30.6677 5.9958C30.7122 6.2885 30.4546 6.62148 30.2868 6.86817C30.2316 6.95082 30.1843 7.02325 30.1564 7.08086C30.0415 7.31852 30.0343 7.40583 29.9394 7.53613C29.7689 7.76955 30.0302 7.75423 30.0756 7.95325C30.1203 8.15438 29.5919 7.87489 29.4637 7.85558C29.3357 7.83584 29.4499 7.9052 29.3738 7.9103C29.2978 7.91533 29.2385 7.82435 29.1898 7.88271C29.1408 7.94181 29.2898 8.19768 29.406 8.26797C29.6536 8.41295 29.9616 8.42905 29.8006 8.5723C29.7912 8.58046 29.6563 8.49539 29.6276 8.52926C29.4058 8.79696 29.286 9.11685 29.0775 9.39623C29.0488 9.43406 28.8983 9.33945 28.8798 9.36084C28.6866 9.58177 28.9938 9.58629 29.2518 9.8336C28.8546 9.66161 28.5771 9.65666 28.5083 9.85129C28.4665 9.96939 28.6516 10.0105 28.7514 10.1299C28.7815 10.1659 28.6306 10.2086 28.7095 10.2519C28.9674 10.3942 29.3011 10.4187 29.1111 10.5793C29.1023 10.5864 28.9615 10.5073 28.942 10.5355C28.815 10.7174 29.0959 10.8328 29.0593 11.0608C29.031 11.2383 28.7571 11.4824 28.6678 11.6627C28.2073 11.5099 28.2535 11.7295 28.5492 11.9035C28.4974 12.0211 28.4712 12.1671 28.3899 12.2721C28.362 12.3085 28.2364 12.2396 28.2203 12.2402C27.9685 12.2479 28.2612 12.4026 28.2652 12.4329C28.2938 12.7593 27.9836 12.9315 28.1315 13.2794C28.1368 13.2919 28.4553 13.4028 28.1969 13.4091C28.1792 13.4092 28.0599 13.272 28.0091 13.402C27.9588 13.53 27.7126 13.7292 27.8103 13.9571C27.8333 14.0136 28.0662 14.1951 27.8343 14.2307C27.803 14.235 27.7136 14.1957 27.6569 14.1988C27.476 14.2096 27.7957 14.3313 27.4988 14.3193C27.2013 14.3097 26.9544 14.3899 27.0962 14.6327C27.1002 14.6402 27.3492 14.7542 27.3299 14.8107C27.2975 14.9054 27.2096 15.0198 27.1853 15.1221C27.1742 15.1697 27.3443 15.1808 27.3452 15.1898C27.3563 15.5279 27.1562 15.7172 27.0161 16.0424C26.9893 16.1051 27.1736 16.3312 26.9718 16.4144C26.7628 16.5039 26.0578 16.235 26.0877 16.507C26.0914 16.5133 26.0962 16.5286 26.1035 16.5469C26.1579 16.6694 27.1374 17.0687 26.557 17.1626C26.581 17.6222 26.2078 17.9447 26.2756 18.4202C26.2785 18.4415 26.5424 18.5805 26.5262 18.624C26.5014 18.6893 26.3598 18.6902 26.3379 18.7349C26.2426 18.9239 26.3027 19.1392 26.2301 19.327C26.2029 19.3981 26.075 19.3334 26.0423 19.4186C26.0096 19.5042 26.1712 19.6129 26.0509 19.7063C25.9595 19.7762 25.5698 19.7589 25.4928 19.8645C25.8501 19.9748 25.8194 20.0521 25.8712 20.2253C25.8815 20.2582 26.015 20.2656 26.0262 20.283C26.0749 20.3551 25.9568 20.3739 26.0117 20.4458C26.0248 20.4632 26.147 20.5003 26.1647 20.5164C26.3197 20.6548 26.0018 20.7157 25.9469 20.7248C25.7373 20.763 25.883 20.855 25.7902 20.904C25.6972 20.9535 25.6396 20.8204 25.5712 20.8902C25.5488 20.9132 25.5287 20.9384 25.5105 20.9652C25.4119 21.0996 25.3647 21.2795 25.3087 21.4206C25.2827 21.4882 25.4597 21.4997 25.4597 21.5107C25.4491 21.6674 25.226 21.744 25.512 21.945C24.6565 21.7218 25.5588 22.0612 25.3127 22.1981C25.293 22.2085 24.9018 22.0682 24.8696 21.9866C24.8373 21.9054 24.9937 21.8646 24.9374 21.7478C24.9247 21.7194 24.6037 21.4707 24.587 21.4479C24.4578 21.2686 25.0455 21.4664 25.08 21.4717C25.4521 21.5255 25.1078 21.2433 25.0925 21.1989C25.043 21.0441 25.1003 20.9427 25.1163 20.8312L25.1119 20.8449C25.1169 20.804 25.1166 20.7624 25.1041 20.7176C25.0737 20.6063 24.6873 20.4801 24.7213 20.4099C24.8337 20.1777 25.4028 20.2521 24.9996 19.882C24.9137 19.8026 24.4731 19.7273 24.8602 19.6482C24.8846 19.643 25.2295 19.6016 25.0578 19.4683C25.0362 19.4517 24.9118 19.4158 24.905 19.4003C24.8616 19.2976 24.9775 19.2678 24.9562 19.1636C24.9355 19.0571 24.8962 18.927 24.9682 18.8344C25.0113 18.779 25.2666 18.7625 25.3318 18.7488C25.52 18.7085 25.2769 18.5428 25.4903 18.5442C25.7047 18.5462 25.9781 18.7358 26.1462 18.6311C25.8237 18.5357 25.4946 18.431 25.1712 18.3319C25.2681 18.0279 25.4549 17.7559 25.5212 17.4452C25.529 17.4066 25.344 17.3997 25.348 17.3569C25.3648 17.1789 25.5279 17.0616 25.5211 16.875C25.5151 16.7299 25.3637 16.5392 25.343 16.4062C25.4235 16.4085 25.4843 16.3984 25.5291 16.3862L25.5268 16.3979C25.7057 16.3146 25.6675 16.1196 25.7234 15.9933C25.7484 15.9354 25.8478 15.9619 25.8895 15.9279C26.0453 15.7979 25.6973 15.7969 25.6549 15.7413C25.4741 15.5062 26.2277 15.6625 26.2601 15.4445C26.2617 15.4342 25.8967 15.1983 25.8771 15.1715C25.7449 15.0115 26.0205 15.1859 26.0686 15.1178C26.1574 14.9903 26.2758 14.9218 26.2014 14.7293C26.1786 14.6754 25.9621 14.4924 26.1769 14.4543C26.205 14.4491 26.3343 14.4905 26.3446 14.483C26.5188 14.343 26.1091 14.227 25.9967 14.09C25.885 13.9507 26.2111 13.8751 26.3014 13.867C26.5355 13.844 26.3743 13.9547 26.394 13.9645C26.6266 14.0839 26.6144 13.9625 26.6595 13.882C27.0654 13.9813 27.0741 13.858 26.7042 13.7994C26.6639 13.7928 26.6827 13.8697 26.6595 13.882C26.2862 13.6949 26.2719 13.552 26.6822 13.5108C26.8739 13.4937 27.0563 13.6161 27.0419 13.3905C27.0361 13.287 26.7493 13.243 26.6977 13.1399C26.5808 12.9023 26.9106 12.7357 26.9281 12.5323C26.9344 12.4588 26.7633 12.4804 26.7625 12.4284C26.7601 12.2894 26.9075 12.2116 26.8885 12.0682C26.8867 12.0551 26.7205 12.0345 26.7308 11.9943C26.8059 11.6874 26.9874 11.4632 27.091 11.1503C27.1392 11.0042 27.1412 10.7041 27.2088 10.5569C27.3271 10.295 27.6638 10.0431 27.6852 9.79773C27.7004 9.6363 27.5335 9.61541 27.4488 9.51537C27.2836 9.32432 27.7277 9.23093 27.7951 9.22076C27.7972 9.22064 27.7899 9.3621 27.8935 9.32077C28.074 9.33795 27.7953 9.22248 27.7951 9.22076C27.8393 9.21199 27.9609 8.97359 27.9492 8.91134C27.9425 8.87806 27.7895 8.84244 27.7888 8.82602C27.7752 8.43814 27.8569 8.08551 28.0494 7.76186C28.0546 7.75676 28.2159 7.82454 28.226 7.81182C28.3694 7.64039 28.2137 7.44129 28.1543 7.23131C28.0933 7.02601 28.1806 6.90958 28.4981 6.91383C28.5087 6.77372 28.6961 6.64676 28.8094 6.57119C28.9223 6.49659 28.6084 6.36499 28.6054 6.35365C28.5944 6.3139 28.5877 6.27728 28.5847 6.24321C28.5694 5.94858 28.7827 5.83809 28.9123 5.59059C28.9826 5.45754 29.0432 5.17874 29.0568 5.03827C29.0677 4.92591 29.1639 4.89482 29.1442 4.7949C29.1414 4.7818 28.9943 4.74432 28.9899 4.73915C28.8461 4.59721 29.1842 4.75323 29.2532 4.75493C29.5022 4.76401 29.6429 4.74354 29.5544 4.62108C29.5356 4.58676 29.0176 4.44944 28.9843 4.46011C28.9443 4.4656 29.1349 4.46972 29.0885 4.489C29.0849 4.49221 28.9663 4.48846 28.9731 4.52077C28.9781 4.61434 29.1412 4.9513 29.3143 5.06317C29.4716 5.19322 29.5307 5.20063 29.5409 5.21227C29.5449 5.21526 29.4652 5.38453 29.4708 5.39206C29.4731 5.41121 29.2073 5.3317 28.992 5.19476C28.9373 5.1595 29.0039 5.0405 28.9996 4.99964C28.972 4.75207 28.7763 5.05757 28.7539 5.05896C28.3193 5.09805 28.0087 4.81925 27.5824 4.69344C27.5008 4.66931 27.4136 4.65082 27.3224 4.64298C27.2925 4.64165 26.9489 4.90304 26.9743 4.57478C26.9755 4.55281 27.007 4.21959 26.8493 4.39279C26.8394 4.4036 26.8308 4.57866 26.744 4.52528C26.6569 4.4718 26.4679 4.51338 26.4173 4.29563C26.4008 4.22682 26.4335 3.89322 26.2243 4.08347C26.2089 4.09635 25.8219 4.56221 25.9132 4.16919C25.9282 4.10454 26.0964 3.7171 25.8855 3.8658C25.8455 3.89499 25.8548 3.99997 25.7693 4.02927C25.6383 4.07474 25.5496 3.91909 25.3657 4.05114C25.3334 4.07458 25.1486 4.31151 25.1545 4.08273C25.1552 4.04683 25.2234 3.9216 25.1921 3.89367C25.0404 3.75926 24.8307 3.78856 24.6817 3.64084C24.6291 3.58896 24.7278 3.38089 24.6778 3.30218C24.6264 3.22302 24.507 3.12792 24.4067 3.20873C24.3098 3.29046 24.2909 3.661 24.1818 3.66215C23.7097 3.66876 23.3115 3.37386 22.8497 3.27939C22.7816 3.26559 22.8216 3.40174 22.7201 3.39115C22.3442 3.34963 21.6957 3.42698 21.3665 3.14521C21.0978 2.91786 21.4491 2.75738 21.2377 2.6629C21.1362 2.61804 21.0223 3.0393 20.9984 3.05252C20.8222 3.15033 20.6934 3.0789 20.545 3.05763C20.5156 3.04921 20.4907 3.04842 20.4809 3.06496C20.476 3.0774 20.4973 3.24715 20.4987 3.25527C20.5064 3.2683 20.5327 3.25797 20.6365 3.21057C20.7307 3.15955 20.9645 3.07634 21.2519 2.74915C21.478 2.44676 21.5721 2.53138 21.6687 2.20216C21.757 1.68401 21.64 1.63767 21.6135 1.72004C21.5902 1.74472 21.5622 1.77661 21.5283 1.81385C21.5189 1.8249 21.3482 1.79454 21.3558 1.8693C21.3692 1.99283 21.2924 2.20891 21.453 2.37175C21.5012 2.42033 21.7945 2.36328 21.6169 2.52847C21.5799 2.56379 21.2215 2.59618 21.5535 2.68544C21.6086 2.69745 22.0667 2.88536 21.8202 3.05885C21.7555 3.10442 21.4781 3.23255 21.5336 3.29898C21.5423 3.30822 21.6957 3.24549 21.7196 3.30599C21.8009 3.51879 21.8082 3.75622 21.8737 3.98436C21.8915 4.04605 22.0511 3.94153 22.0722 4.03477C22.0787 4.06379 22.0841 4.09395 22.0884 4.12506C22.1191 4.30919 22.0944 4.53098 22.0607 4.71281C22.0463 4.78865 21.9057 4.74653 21.8911 4.75295C21.6543 4.85673 21.9857 4.8864 22.0068 4.9137C22.1341 5.08618 21.9906 5.23632 22.0442 5.40222C22.0586 5.4481 22.2122 5.40308 22.2268 5.41131C22.3702 5.49715 22.0843 5.44685 22.0581 5.51029C21.9837 5.68824 22.0112 5.87953 22.0446 6.05357C22.0571 6.11749 22.2326 6.03107 22.2417 6.08865C22.2992 6.42933 22.3089 6.7933 22.231 7.14566C22.216 7.21196 22.0739 7.17977 22.0428 7.19532C21.8258 7.30214 22.1379 7.42117 22.1687 7.45187C22.3091 7.58975 22.1885 7.65361 22.2176 7.78203C22.2625 7.97947 22.2871 8.19653 22.295 8.42526C22.3103 9.0652 22.1898 9.55119 22.1369 9.87231C22.0446 10.3975 21.9685 10.6417 22.0537 10.8901C22.0856 10.9746 22.1201 11.0596 22.1579 11.145C22.1757 11.1854 22.3332 11.077 22.3508 11.111C22.5694 11.5546 22.6731 12.0186 22.9053 12.4522C22.9239 12.4875 23.0661 12.3686 23.1015 12.4232C23.1768 12.5385 23.2301 12.6958 23.2271 12.8379C23.2263 12.9082 23.0534 12.8845 23.0556 12.9543C23.0625 13.1217 23.1115 13.2749 23.1971 13.4088C23.2337 13.4653 23.3625 13.3042 23.3972 13.3833C23.6408 13.929 23.8912 14.449 23.9094 15.0957C23.9106 15.1402 23.5868 15.3155 23.6865 15.3715C23.7829 15.3383 23.8931 15.2916 23.9945 15.2522C24.3813 16.0213 24.6056 16.8743 24.9278 17.6792C24.9412 17.7126 25.0954 17.5791 25.1223 17.6435C25.2809 18.0222 25.4873 18.3678 25.4772 18.8338C25.4761 18.8791 25.1536 18.994 25.2493 19.086C25.2664 19.1018 25.3817 19.2549 25.4692 19.2707C25.4821 19.2724 25.615 19.1778 25.6433 19.2319C25.8019 19.5398 25.9159 19.8968 25.9609 20.2475C25.9681 20.3048 25.7888 20.3177 25.7926 20.3591C25.8213 20.6535 26.064 20.8903 26.028 21.1959C26.0047 21.4036 25.7086 21.4584 25.4819 21.6622C25.4499 21.6909 25.4893 21.7983 25.3373 21.8706C24.9553 22.0522 24.5084 22.1848 24.1038 22.3845C24.0166 22.4272 24.1737 22.5274 23.9222 22.5366C23.9052 22.5369 23.7896 22.4655 23.7058 22.4721C23.6477 22.4764 23.5044 22.5757 23.4244 22.568C23.3444 22.5604 23.4592 22.4646 23.358 22.439C23.2559 22.414 23.0883 22.5164 23.0173 22.4099ZM29.3227 6.22401C29.5125 6.18706 28.9619 5.95275 29.0533 6.11172C29.0584 6.11971 29.3133 6.22614 29.3227 6.22401ZM25.8893 17.8743C26.1775 17.8186 25.8255 17.6322 25.6052 17.6677C25.3851 17.7034 25.8019 17.8912 25.8893 17.8743ZM25.714 19.2219C25.9559 19.1325 25.1467 18.8769 25.2669 19.0803C25.2737 19.0919 25.6999 19.227 25.714 19.2219ZM25.2297 21.2856C25.2229 21.2899 25.2473 21.366 25.2553 21.3647C25.4465 21.3283 25.3976 21.1762 25.2297 21.2856ZM25.5386 20.5665C25.6621 20.5541 25.5745 20.3842 25.4208 20.4003C25.2972 20.4134 25.385 20.5821 25.5386 20.5665ZM28.0504 3.26063C28.0518 3.25173 27.9996 3.22497 27.9839 3.27282C27.9336 3.42727 28.0268 3.41115 28.0504 3.26063ZM24.7551 22.6769C24.9213 22.3885 25.6472 22.4743 25.4228 22.7866C25.3823 22.8423 25.2781 22.5626 25.1854 22.6153C25.0172 22.7099 25.3742 22.9867 25.0939 23.0326C25.0428 23.0406 24.7443 22.6926 24.7545 22.6759C24.7547 22.6763 24.7549 22.6766 24.7551 22.6769ZM30.0133 6.4308C30.0214 6.4318 30.0577 6.36017 30.0512 6.35541C29.8908 6.24454 29.8168 6.39049 30.0133 6.4308ZM24.9941 1.72485C24.9953 1.70731 24.814 1.64057 24.8047 1.65448C24.6301 1.92831 24.9841 2.06052 24.9941 1.72485ZM28.6545 11.6618C28.8092 11.8046 28.7991 11.9104 28.5496 11.9032C28.5878 11.8253 28.6162 11.7424 28.6545 11.6618Z" fill="#5882E3"/>
<path d="M22.5545 26.0693C22.2958 26.4855 21.8632 26.9491 21.5084 27.2792C21.3979 27.3821 21.3615 27.2565 21.28 27.3265C21.1206 27.4637 21.0447 27.6453 20.8835 27.7719C20.8297 27.8135 20.7478 27.6455 20.6945 27.6914C20.397 27.9516 20.2147 28.2543 19.9426 28.5445C18.626 29.9425 17.4221 31.3787 16.1622 32.8562C15.7473 33.3429 15.1486 33.8559 14.7909 34.4145C14.7481 34.4812 14.8928 34.5359 14.893 34.5552C14.8944 34.8528 14.7096 34.6069 14.587 34.6977C14.0902 35.0721 13.6691 35.5786 13.3449 36.0655C13.2099 36.269 13.5925 36.2648 13.3041 36.3561C13.2848 36.362 13.2033 36.215 13.1483 36.2552C13.0406 36.3374 12.9304 36.4916 12.79 36.6404C12.7653 36.666 12.7432 36.6879 12.7249 36.7033C12.5561 36.8445 12.5324 36.8723 12.39 37.0233C12.1946 37.2288 11.91 37.4299 11.7346 37.6851C11.6976 37.7398 11.8754 37.7799 11.8276 37.8764C11.7797 37.9728 11.5895 38.1735 11.5002 38.2205C11.4108 38.2673 11.3404 38.1554 11.3076 38.1493C11.0325 38.0961 11.0834 38.5617 11.0637 38.5987C10.6887 39.2716 10.1277 39.6602 9.66951 40.2202C9.49614 40.4325 9.32779 40.6623 9.1589 40.8886C9.04856 41.031 8.92957 41.1765 8.73577 41.3322C8.55429 41.4683 8.20586 41.725 7.64821 41.6175C7.23368 41.5197 7.03075 41.2789 6.91564 41.1352C6.50819 40.5773 6.39198 40.0763 6.18093 39.6083C6.15512 39.5484 6.00895 39.6901 5.97712 39.617C5.73809 39.0627 5.5362 38.5423 5.34842 38.0035C5.2676 37.7754 5.20087 37.5594 5.1374 37.3276C5.11513 37.2453 5.31047 37.2774 5.2974 37.1914C5.21682 36.6754 5.20299 35.8105 4.42172 35.8074C4.3169 35.4828 4.18327 35.0755 4.20557 34.7348C4.22099 34.5179 4.45914 34.6316 4.29766 34.4292C4.26162 34.3837 4.14028 34.508 4.09744 34.4354C3.91837 34.1327 3.83143 33.7528 3.6383 33.4536C3.59842 33.3921 3.47153 33.4579 3.44075 33.4474C3.19059 33.3606 3.41928 32.9745 3.42458 32.9117C3.45111 32.4088 3.28041 32.1069 3.16381 31.6827C3.13727 31.5848 2.9868 31.7519 2.9548 31.6594C2.7894 31.1731 2.68044 30.6448 2.66389 30.1429C2.66067 30.032 2.83958 30.0975 2.84628 30.0433C2.8741 29.8044 2.56484 29.8153 2.58724 29.5948C2.59149 29.5482 2.73241 29.5449 2.74568 29.5338C2.95419 29.3606 2.59944 29.3255 2.58543 29.2976C2.55253 29.2336 2.53403 29.172 2.52497 29.1124C2.46951 28.778 2.64564 28.4803 2.54814 28.1417C2.53373 28.092 2.37876 28.2347 2.34897 28.0925C2.15583 27.1283 2.1435 26.2133 2.09948 25.3293C2.09369 25.1925 2.24208 25.2605 2.25636 25.2491C2.4762 25.057 2.12386 25.0402 2.10156 24.9988C2.00806 24.8175 2.02922 24.6175 1.98273 24.4494C1.94193 24.3003 1.87119 24.174 1.67627 24.0831C1.56911 22.3662 1.58023 20.8168 2.09824 19.3336C2.10454 19.315 2.26728 19.3677 2.27913 19.3305C2.41352 18.91 2.19042 18.9327 1.92758 18.6729C1.90819 18.6483 1.88891 18.621 1.87008 18.5904C1.80084 18.47 2.23516 18.2611 2.26787 18.2549C2.38849 18.1972 2.61064 18.3398 2.63663 18.3177C2.84179 18.1564 2.03645 17.9619 2.14164 17.6492C2.1462 17.6404 2.27564 17.7298 2.29866 17.7098C2.3694 17.6512 2.34209 17.5522 2.4188 17.4997C2.59916 17.3746 2.98624 17.4842 2.88207 17.1524C2.86891 17.1104 2.42149 16.9572 2.56052 16.723C2.61508 16.6281 2.82938 16.2069 2.92182 16.1088C3.01259 16.0097 3.09939 16.1624 3.10982 16.1572C3.45531 15.9552 3.46084 16.1124 3.80113 16.1161C4.14012 16.1222 3.51506 15.8018 3.48504 15.7005C3.45597 15.5975 3.72763 15.4724 3.81024 15.4495C3.89087 15.4292 3.93139 15.544 3.9874 15.5162C4.35877 15.3287 3.78142 15.193 3.75242 15.033C3.6888 14.6485 4.245 14.7536 4.43144 14.5724C4.48267 14.5223 4.35275 14.5021 4.37913 14.4444C4.48346 14.2197 4.70099 14.1923 4.74337 13.8778C4.74852 13.8289 4.63163 13.4567 4.90159 13.4766C4.9405 13.4795 5.01029 13.6033 5.09544 13.5363C5.22437 13.434 5.41312 13.2276 5.4793 13.068C5.52779 12.9504 5.27201 12.9349 5.41904 12.8503C5.48472 12.8126 5.50632 12.9909 5.62143 12.9139C5.73507 12.8384 5.93342 12.5705 6.00506 12.4713C6.07806 12.3698 5.90826 12.3246 5.90579 12.31C5.89917 12.2614 5.92358 12.1649 5.9495 12.0857C5.96992 12.0233 5.99037 11.9728 5.99627 11.9654C6.65012 11.0992 7.50713 10.5174 8.15725 9.69284C8.20871 9.62796 8.04662 9.55117 8.05319 9.54007C8.195 9.28522 8.37257 9.75852 8.61751 9.72089C8.34673 9.50291 8.47194 9.46172 8.58164 9.2927C8.6344 9.21102 8.50175 9.15539 8.49788 9.1396C8.45046 8.89506 8.70774 9.00808 8.76426 9.02716C8.97204 9.09754 8.87461 8.86232 9.01444 8.90875C9.15287 8.95522 9.19021 9.19544 9.32007 9.05939C9.26865 8.9347 8.93885 8.80794 9.00216 8.66847C9.2421 8.13984 10.1373 7.6044 10.4632 7.31444C10.789 7.02474 10.8697 6.91098 11.0805 6.76213C11.4581 6.49614 11.1719 6.44334 11.291 6.16608C11.3225 6.09362 11.368 6.07382 11.4198 6.08577C11.569 6.11933 11.7685 6.41474 11.8572 6.45907C11.9761 6.51964 11.9129 6.39752 11.9984 6.41088C12.0829 6.42522 12.0684 6.56195 12.1689 6.49863C12.2687 6.4353 12.338 6.05304 12.2781 5.92728C12.1487 5.66206 11.8368 5.54804 12.1422 5.40538C12.1598 5.39755 12.222 5.55184 12.2838 5.51626C12.7713 5.23018 13.2223 4.86273 13.7463 4.65122C13.8183 4.6227 13.8545 4.80499 13.8966 4.79075C14.1414 4.71116 14.1604 4.63046 14.1413 4.49518C14.1494 4.38955 14.0469 4.24391 14.2902 4.05662C14.2386 4.28041 14.3686 4.43724 14.3714 4.56605C14.3519 4.70063 14.2515 4.66204 14.2793 4.81139C14.2881 4.97533 14.472 4.95495 14.6009 5.08897C14.6393 5.13529 14.4993 5.26719 14.5844 5.30407C14.8634 5.41844 15.2042 5.31263 15.0313 5.66765C15.0232 5.68301 14.8725 5.61157 14.8558 5.66599C14.7462 6.00953 15.0386 6.09186 15.0172 6.4716C15 6.7683 14.7378 7.24891 14.6647 7.57138C14.1847 7.49852 14.2534 7.82942 14.572 7.99173C14.5339 8.20161 14.5306 8.4302 14.4696 8.62974C14.4488 8.69869 14.3121 8.64272 14.2963 8.65045C14.049 8.77257 14.3692 8.88578 14.3798 8.93089C14.443 9.2428 14.3742 9.51066 14.3868 9.7834C14.3946 9.94869 14.4296 10.1123 14.5371 10.2768C14.5476 10.293 14.8846 10.2815 14.6547 10.4317C14.639 10.4422 14.4679 10.3065 14.4829 10.5266C14.4971 10.7448 14.3875 11.194 14.6073 11.4659C14.6597 11.532 14.9669 11.6512 14.7959 11.847C14.7726 11.8737 14.6735 11.8756 14.6285 11.9173C14.486 12.0527 14.8284 12.0161 14.5781 12.1992C14.3281 12.3825 14.1858 12.6801 14.4732 12.9288C14.482 12.9374 14.7619 12.928 14.7886 13.0244C14.8307 13.1783 14.8497 13.4117 14.9054 13.5693C14.9323 13.6451 15.0743 13.5422 15.0817 13.5544C15.2836 13.922 15.3247 14.2526 15.3764 14.6477C15.3902 14.7609 15.4133 14.8804 15.4507 15.0068C15.4804 15.1128 15.8113 15.2736 15.7526 15.5343C15.693 15.8254 14.8568 16.0397 15.3158 16.4096C15.5046 16.5607 16.5136 16.1936 16.2837 16.8069C16.5978 17.1148 16.7889 17.4843 17.0127 17.8356C17.1638 18.0731 17.3206 18.3044 17.5411 18.5124C17.5653 18.5352 17.8682 18.4718 17.905 18.5418C17.9592 18.6457 17.8722 18.7678 17.9048 18.8437C18.0369 19.1611 18.2828 19.3874 18.4073 19.6972C18.4541 19.8142 18.308 19.8328 18.3617 19.9716C18.4144 20.1096 18.625 20.1289 18.6196 20.3506C18.6149 20.5193 18.3178 20.7978 18.3462 20.9977C18.6983 20.8722 18.7408 21.0041 18.9172 21.2031C18.9513 21.2415 19.0565 21.1495 19.079 21.1655C19.1733 21.2299 19.0998 21.346 19.1975 21.4044C19.221 21.4187 19.3419 21.3778 19.368 21.3872C19.5948 21.4666 19.4011 21.7903 19.3668 21.8455C19.2377 22.0573 19.4187 22.0752 19.3865 22.215C19.3542 22.3545 19.2078 22.2109 19.2098 22.3605C19.2138 22.6425 19.3306 22.962 19.4239 23.233C19.4252 23.2373 19.4307 23.2493 19.4325 23.2534C19.4452 23.2793 19.4572 23.304 19.4691 23.3289C19.5225 23.4376 19.637 23.2866 19.6482 23.3004C19.7983 23.5006 19.759 23.8077 20.1226 23.7655C19.4344 24.3374 20.2695 23.8542 20.2839 24.2519C20.2848 24.2839 19.9341 24.5081 19.8311 24.4448C19.7283 24.3816 19.7649 24.1785 19.6099 24.093C19.5737 24.0734 19.134 24.0788 19.0995 24.0639C18.831 23.9524 19.3662 23.6351 19.3912 23.6098C19.5499 23.4383 19.4408 23.3605 19.3148 23.3119C19.3116 23.3049 19.3021 23.2841 19.2999 23.2767C19.2202 23.2349 19.1315 23.2064 19.1118 23.1852C18.888 22.944 18.8906 22.675 18.7223 22.4698C18.6129 22.3352 18.2226 22.4492 18.1943 22.3258C18.1007 21.9193 18.5883 21.5923 17.9944 21.3952C17.8672 21.3538 17.4802 21.584 17.7051 21.1909C17.7198 21.1671 17.9391 20.848 17.7046 20.8083C17.6752 20.8034 17.5554 20.8526 17.5377 20.8379C17.4214 20.7392 17.4817 20.6164 17.3776 20.5015C17.2737 20.3872 17.1348 20.2604 17.103 20.0945C17.0839 19.9946 17.2415 19.7719 17.2715 19.7015C17.3593 19.5001 17.0437 19.5032 17.1829 19.3302C17.3204 19.1526 17.6817 19.1524 17.6803 18.8792C17.3843 19.0389 17.0756 19.1944 16.7765 19.3528C16.6015 19.0325 16.4603 18.6946 16.2623 18.383C16.1956 18.2793 16.1253 18.1775 16.0487 18.0784C16.0078 18.026 15.9018 18.1875 15.854 18.1339C15.6532 17.9068 15.6007 17.6152 15.3729 17.3799C15.1961 17.198 14.8793 17.0734 14.6865 16.8609C14.9189 16.5113 14.5918 16.229 14.4735 15.918C14.4323 15.8101 14.528 15.7712 14.523 15.6838C14.5063 15.3533 14.2567 15.6207 14.1714 15.5606C13.9483 15.3903 14.1267 15.1898 14.2704 14.9851C14.3716 14.8851 14.4536 14.7724 14.4058 14.65C14.3997 14.6327 13.9411 14.5545 13.907 14.5343C13.6867 14.4038 14.032 14.4583 14.021 14.3322C14.0003 14.1004 14.0404 13.918 13.8391 13.6965C13.7798 13.632 13.4754 13.5271 13.615 13.3137C13.6334 13.2859 13.7661 13.2557 13.7686 13.2374C13.8038 12.9087 13.395 13.0251 13.2055 12.8928C13.0156 12.7589 13.2262 12.4077 13.2952 12.3336C13.4711 12.1366 13.4139 12.4189 13.4373 12.4214C13.7087 12.4447 13.6142 12.2647 13.599 12.1116C13.9989 11.9902 13.9271 11.7956 13.5823 11.9536C13.5447 11.9717 13.6102 12.0779 13.599 12.1116C13.1694 12.0823 13.06 11.8478 13.3849 11.5156C13.5383 11.3607 13.7624 11.4356 13.6249 11.0916C13.5641 10.9337 13.2902 11.0432 13.1903 10.9053C12.9818 10.6145 13.1491 10.1867 13.1365 9.85225C13.1351 9.81955 13.1322 9.78751 13.1273 9.75621C13.1067 9.62285 12.9542 9.75974 12.9351 9.66728C12.885 9.42014 13.0055 9.20877 12.954 8.96952C12.9492 8.94764 12.7823 8.99438 12.7833 8.91943C12.7897 8.3498 12.9467 7.88869 13.0229 7.34038C13.0594 7.07505 13.0405 6.59596 13.0998 6.33694C13.2007 5.88972 13.5255 5.37019 13.484 5.06605C13.455 4.88792 13.2846 4.93241 13.1731 4.91779C13.1207 4.92381 13.0966 4.93603 13.1377 5.05834C13.1581 5.11222 13.2019 5.21698 13.3063 5.34875C13.4148 5.49145 13.6327 5.68046 13.8988 5.763C14.1733 5.84871 14.3615 5.81501 14.4856 5.77959C14.5904 5.74386 14.6497 5.69945 14.6803 5.66629C14.7308 5.6022 14.7226 5.56265 14.7214 5.5468C14.7221 5.54492 14.6946 5.55052 14.6333 5.55122C14.5557 5.55583 14.498 5.5378 14.5916 5.46658C14.596 5.27706 14.7106 5.55024 14.7214 5.5468C14.7214 5.54676 14.7214 5.54672 14.7214 5.54667C14.6787 5.52199 14.3509 5.67685 14.3079 5.74814C14.2849 5.78459 14.3912 5.90121 14.3778 5.91761C14.0632 6.30342 13.7024 6.67047 13.2513 6.99972C13.242 7.00424 13.1321 6.86767 13.1116 6.87996C12.8926 7.00786 12.84 7.2164 12.7853 7.43127C12.7648 7.50163 12.7441 7.57244 12.7179 7.64186C12.6076 7.9341 12.4166 8.06637 12.0842 7.97555C11.9598 8.15449 11.6456 8.28224 11.4648 8.34958C11.2812 8.41988 11.5053 8.67678 11.499 8.69265C11.3081 9.18896 10.9711 9.25055 10.5965 9.58529C10.4181 9.74382 10.1239 10.1131 9.9745 10.3213C9.85674 10.486 9.71551 10.5181 9.6261 10.6861C9.61402 10.7087 9.74102 10.7948 9.74006 10.8043C9.73131 11.077 9.52982 10.7515 9.45267 10.7369C9.17295 10.6833 9.01272 10.6665 8.91808 10.9365C8.89565 10.9991 9.17208 11.4871 9.12371 11.5878C9.05916 11.719 8.95232 11.5518 8.88872 11.6931C8.88327 11.705 8.97284 11.7815 8.90934 11.8458C8.61445 12.1466 8.26567 12.4541 7.99701 12.8053C7.96025 12.8526 8.15393 12.9103 8.10331 12.9807C7.98581 13.1438 7.86063 13.308 7.72342 13.4691C7.57778 13.6404 7.42667 13.7975 7.26558 13.9349C7.18818 13.9999 7.12156 13.8714 7.07766 13.8649C6.80978 13.8283 6.96771 14.1865 6.95531 14.2139C6.64457 14.9023 6.06338 15.1773 5.77135 15.8717C5.7549 15.911 5.892 16.366 5.55653 16.3072C5.53378 16.3038 5.19019 16.2433 5.31224 16.4619C5.32011 16.4752 5.50414 16.4933 5.41269 16.6071C5.32295 16.7184 5.29603 16.9741 5.04331 17.0472C4.96297 17.0713 4.609 17.0424 4.74633 17.3242C4.75287 17.3481 5.13882 17.8524 4.74385 17.753C4.67903 17.7368 4.30537 17.5364 4.41056 17.818C4.43214 17.8708 4.54623 17.8487 4.55774 17.9634C4.57659 18.1379 4.39508 18.2778 4.52044 18.4891C4.54099 18.5304 4.78121 18.714 4.55443 18.7218C4.51858 18.7241 4.38825 18.6657 4.36278 18.7007C4.30753 18.7767 4.29488 18.8533 4.29246 18.9002C4.2748 19.1068 4.25694 19.3059 4.18291 19.4915C4.13507 19.6118 3.91589 19.5225 3.84076 19.6452C3.76584 19.7661 3.67887 20.0155 3.76803 20.1588C3.85738 20.3008 4.23353 20.1971 4.24151 20.3956C4.27796 21.2501 3.99781 22.0406 3.97754 22.7937C3.97516 22.9041 4.10241 22.8115 4.1098 22.9689C4.12352 23.2556 4.19275 23.6351 4.25185 23.8666C4.37816 24.3665 4.44466 24.8763 4.36815 25.2332C4.24212 25.7998 3.96278 25.1671 3.9418 25.5808C3.9309 25.7772 4.37795 25.9235 4.39772 25.9695C4.59493 26.4085 4.44094 26.7397 4.54152 27.1008C4.56231 27.1748 4.72333 27.0808 4.73913 27.1435C4.79451 27.3566 4.74732 27.5799 4.79133 27.7644C4.81162 27.8472 4.93778 27.8096 4.94088 27.8863C4.95028 28.0691 4.92784 28.232 4.84972 28.4332C4.84275 28.452 4.65889 28.3816 4.68489 28.5162C4.6884 28.5338 4.69137 28.552 4.694 28.5707C4.74438 28.8662 4.71386 29.1937 4.88032 29.4383C4.93415 29.515 5.22762 29.4616 5.06236 29.6807C5.02823 29.7273 4.66673 29.7527 5.01384 29.8946C5.07145 29.9201 5.55287 30.1592 5.33172 30.3832C5.27312 30.4418 5.01676 30.6258 5.08655 30.7102C5.09711 30.7214 5.23847 30.6284 5.27461 30.7044C5.39849 30.9691 5.46609 31.2646 5.60283 31.5353C5.64008 31.6087 5.76254 31.4443 5.81297 31.5546C5.95024 31.8529 6.04143 32.2541 6.10181 32.5772C6.12443 32.6984 5.96673 32.6655 5.95559 32.6788C5.77533 32.8971 6.11147 32.8598 6.1459 32.8981C6.35459 33.1338 6.28902 33.3955 6.4252 33.6337C6.46284 33.7005 6.58922 33.5935 6.60771 33.6025C6.79201 33.6994 6.48761 33.6931 6.4941 33.7945C6.51207 34.0804 6.63907 34.3618 6.7648 34.6142C6.8104 34.7048 6.93479 34.5303 6.97386 34.6126C7.21084 35.1038 7.42045 35.635 7.54422 36.1626C7.56789 36.2636 7.41413 36.2615 7.39353 36.2939C7.25048 36.5229 7.61276 36.5865 7.65988 36.6206C7.78532 36.7087 7.81031 36.7914 7.83132 36.8802C7.84815 36.9468 7.86113 37.0124 7.90582 37.0901C8.42131 37.9554 8.83506 39.3582 8.94483 39.4868C8.936 39.477 8.92589 39.4662 8.9133 39.4532C8.83739 39.3748 8.56554 39.1123 8.09397 39.0511C7.62542 38.9981 7.35401 39.1601 7.26015 39.218C7.07301 39.3552 7.16775 39.3258 7.21826 39.2745C7.72778 38.7524 8.19922 38.2562 8.68503 37.6261C8.73036 37.5677 8.53926 37.5074 8.57654 37.4554C9.06518 36.7896 9.65136 36.2006 10.187 35.5261C10.2314 35.4709 10.032 35.4285 10.0992 35.3356C10.2363 35.1441 10.4468 34.9311 10.6527 34.7969C10.7528 34.7314 10.7545 34.9486 10.8527 34.881C10.8742 34.8662 10.8955 34.8511 10.9168 34.8357C10.984 34.8288 11.1929 34.5922 11.3056 34.413C11.3653 34.3203 11.1202 34.3354 11.2101 34.222C11.8006 33.4671 12.3762 32.6885 13.1755 32.0539C13.2313 32.0092 13.5532 32.1929 13.5881 32.0352C13.515 31.9636 13.4207 31.89 13.3383 31.8189C14.18 30.6573 15.1528 29.6228 16.0562 28.5012C16.0939 28.4543 15.8769 28.4164 15.9491 28.3251C16.373 27.7884 16.7326 27.2415 17.3144 26.8106C17.3715 26.7682 17.6186 27.0069 17.7032 26.8148C17.7172 26.7816 17.8737 26.5073 17.8616 26.4024C17.8593 26.3871 17.6997 26.3325 17.7561 26.2527C18.0892 25.7871 18.4907 25.3323 18.9167 24.9451C18.9861 24.8823 19.0594 25.0643 19.1101 25.0204C19.472 24.7033 19.6785 24.2289 20.0753 23.9711C20.3396 23.8012 20.5036 24.0682 20.829 24.1209C20.8748 24.1284 20.9944 23.9856 21.133 24.0813C21.4815 24.3218 21.7908 24.6778 22.1689 24.9258C22.2501 24.9795 22.322 24.7173 22.4155 24.9788C22.4214 24.9967 22.3713 25.1875 22.4067 25.2714C22.4311 25.3296 22.6001 25.3909 22.6168 25.4839C22.6335 25.5769 22.478 25.5432 22.4794 25.6759C22.4818 25.809 22.6628 25.8932 22.5545 26.0693ZM10.6457 8.66185C10.4143 8.66272 10.8207 9.10229 10.8448 8.87538C10.8454 8.86398 10.6573 8.66156 10.6457 8.66185ZM16.7352 18.2303C16.7637 18.1384 16.7494 18.0814 16.7136 18.0538C16.6233 17.9824 16.4061 18.0881 16.3524 18.2601C16.3445 18.2853 16.3422 18.3061 16.3445 18.3231C16.357 18.4589 16.7079 18.3162 16.7352 18.2303ZM17.9588 19.9785C18.0434 19.6672 17.2636 20.0033 17.5244 20.1559C17.5392 20.1648 17.9537 19.9964 17.9588 19.9785ZM20.4417 24.7509C20.4493 24.754 20.538 24.653 20.5338 24.6455C20.428 24.4723 20.2508 24.6744 20.4417 24.7509ZM18.9348 21.9305C19.0186 21.8197 18.8205 21.6498 18.7168 21.7876C18.6334 21.898 18.8305 22.068 18.9348 21.9305ZM4.6759 14.7322C4.66698 14.7294 4.60628 14.8036 4.64905 14.8304C4.78642 14.9169 4.82385 14.7817 4.6759 14.7322ZM20.3375 25.3787C20.2452 24.8449 20.8152 24.2949 20.9048 24.9451C20.9174 25.0565 20.6302 24.7639 20.6031 24.9176C20.5525 25.196 21.0164 25.2503 20.854 25.5561C20.8241 25.6136 20.3417 25.4128 20.3363 25.378C20.3367 25.3782 20.3371 25.3785 20.3375 25.3787ZM10.07 8.22167C10.0619 8.21859 9.9634 8.30688 9.9669 8.31448C10.0511 8.49906 10.2494 8.32154 10.07 8.22167ZM2.2216 19.7024C2.20398 19.7076 2.15456 20.0119 2.16911 20.0229C2.46037 20.2152 2.56068 19.6034 2.2216 19.7024ZM14.6512 7.57478C14.8215 7.74128 14.8234 7.90739 14.5723 7.99112C14.601 7.85363 14.6206 7.71394 14.6512 7.57478Z" fill="#5882E3"/>
</svg>
