<svg width="51" height="50" viewBox="0 0 51 50" fill="none" xmlns="http://www.w3.org/2000/svg">
<path d="M4.44022 34.1056C5.18613 35.4943 6.15629 37.3134 6.95591 38.6315C7.20867 39.0481 7.00474 38.8837 7.17939 39.1721C7.5209 39.7305 7.90676 40.1978 8.26934 40.7179C8.39133 40.8921 8.12831 40.7636 8.25896 40.9441C8.93626 41.8688 9.69637 42.6485 10.5387 43.2996C10.5907 43.3394 10.6429 43.3789 10.6955 43.4183C12.638 44.887 15.0246 45.7516 17.4902 46.5019C20.1825 47.3352 22.9971 47.5531 25.921 47.4053C26.6753 47.3819 27.3959 47.2579 28.1423 47.0482C29.0911 46.7835 30.1498 46.3903 31.2025 45.934C32.2853 45.4639 33.3685 44.9232 34.3293 44.3755C34.55 44.2492 34.364 44.2242 34.4022 44.1932C35.0007 43.7073 34.8864 44.0238 35.3347 43.8083C37.1103 42.9491 39.0002 41.8184 40.5355 40.7222C41.1849 40.2531 40.4013 40.5299 41.1289 40.1705C41.1777 40.1458 41.0872 40.3482 41.2557 40.2488C41.2594 40.2466 41.2633 40.2442 41.2673 40.2417C41.6873 39.9831 42.4121 39.3899 42.7035 39.1491C43.2718 38.6849 43.3579 38.6036 43.854 38.1203C44.5269 37.459 45.3 36.6408 45.849 35.7864C45.9648 35.6052 45.7061 35.7743 45.8797 35.4779C46.0565 35.1857 46.5249 34.414 46.6916 34.1519C46.861 33.8952 46.8836 34.0528 46.9283 34.0149C47.2411 33.754 47.4586 32.9557 47.5506 32.6191C47.5685 32.5535 47.5812 32.5065 47.5895 32.4857C48.4856 30.2388 48.868 28.1253 48.4978 25.8594C48.3746 25.1402 48.1702 24.4124 47.8921 23.7286C47.5516 22.817 46.8907 22.0174 46.2873 21.2303C46.1058 20.9987 45.9256 20.7727 45.7459 20.5498C44.6872 19.2438 43.7018 18.0661 42.5466 16.7974C42.4039 16.6411 42.4653 16.92 42.2907 16.7292C41.0129 15.3351 39.734 13.948 38.4592 12.5724C37.8802 11.9491 37.3036 11.3306 36.7164 10.7317C36.5276 10.5399 36.8656 10.6879 36.6804 10.4901C36.0387 9.79948 35.1501 8.9287 34.2198 8.35499C33.5201 7.91055 32.8375 7.6229 32.3574 7.62889C31.3963 7.07753 30.1672 6.50405 29.2723 6.03146C28.6937 5.72756 29.3316 5.83023 28.5634 5.59683C28.4321 5.55754 28.501 5.65779 28.4331 5.67306C28.4111 5.67823 28.3745 5.67431 28.3109 5.6533C27.2303 5.2956 26.059 4.86394 24.9608 4.58963C24.738 4.53439 24.7666 4.65442 24.6988 4.65368C24.133 4.64137 23.3316 4.14455 23.1445 4.07382C21.7249 3.53398 20.6362 3.31736 19.2634 3.0101C18.9447 2.93985 19.2914 3.16103 18.9837 3.09893C18.817 3.06533 18.6487 3.03177 18.4812 2.9988C17.0449 2.71573 15.5708 2.45927 14.1645 2.23508C13.8158 2.17967 14.1522 2.09662 13.9859 2.06413C13.2485 1.92539 13.0612 2.13789 12.3556 2.03076C12.2063 2.00915 12.2987 1.91191 12.2722 1.89843C11.8555 1.68706 11.466 1.92117 11.3556 1.92137C10.8609 1.92402 10.4302 1.89692 10.0237 1.86582C9.29334 1.8133 8.60968 1.7446 7.79028 1.93822C7.64001 1.97675 8.00408 2.02771 7.58894 2.1302C6.78931 2.33869 6.06015 2.69233 5.50002 3.26622C4.53609 4.23327 3.9477 5.61685 3.48569 7.00069C3.26911 7.65457 3.08188 8.31732 2.91079 8.97614C2.79511 9.42853 2.76968 9.08227 2.75141 9.10835C2.46326 9.53837 2.65429 9.89676 2.63471 10.0473C2.47429 11.2402 2.09495 12.3258 2.28262 13.1808C2.1049 14.2896 1.96351 15.4053 1.84212 16.5221C1.38468 20.3894 3.70607 23.8929 5.58394 27.3385C5.61236 27.3892 5.48179 27.3691 5.49824 27.4441C5.50028 27.4534 5.50454 27.464 5.51158 27.4764C6.29417 28.8116 6.30484 28.4571 7.09731 29.108C7.29397 29.2692 7.57308 30.034 7.61009 30.0993C7.72195 30.3363 7.40781 30.2709 7.45404 30.3434C7.85537 30.937 8.20845 30.4306 8.88464 31.0405C8.90585 31.0605 8.73902 31.0654 8.79023 31.1255C8.94862 31.3117 9.16223 31.4309 9.32319 31.6109C9.67495 32.0046 9.67388 32.3425 10.3433 32.7111C10.3765 32.7295 10.4115 32.7483 10.4485 32.7673C10.5459 32.8176 10.6421 32.4393 11.2916 32.9946C11.5499 33.22 12.7031 34.1518 13.023 34.4075C13.3396 34.6704 13.0461 34.5936 13.0666 34.615C13.8842 35.3861 13.5065 35.1881 13.8581 35.6864C14.2252 36.1774 14.3669 35.6423 14.5903 35.7072C14.6528 35.7249 14.7469 35.7765 14.8553 35.8435C15.1272 36.017 15.5195 36.2623 15.645 36.3401C15.8168 36.4497 15.5576 36.4307 15.7175 36.515C16.8143 37.028 16.2883 36.4175 16.6757 36.4366C17.5741 36.4364 18.2292 36.8724 19.0852 36.9304C19.3147 36.944 19.1286 36.853 19.3322 36.8465C20.0358 36.8215 20.4996 36.89 21.2232 36.8209C21.3259 36.811 21.4362 36.7972 21.552 36.7788C21.7028 36.7567 22.4307 36.4861 22.9234 36.6246C22.9933 36.6448 22.8059 36.7548 23.1528 36.7533C23.672 36.7514 24.6048 36.701 25.1579 36.6243C25.5674 36.5676 25.083 36.4456 25.6038 36.4539C25.8348 36.4577 25.4168 36.5852 25.8512 36.5844C26.2831 36.5837 27.3799 36.4912 27.797 36.4552C27.8302 36.4523 27.8594 36.449 27.8849 36.4453C28.1735 36.4011 27.9752 36.3144 28.0053 36.3044C28.2001 36.2492 28.9483 36.0601 29.0123 36.0374C31.8465 35.3791 34.1015 33.5701 36.1718 31.5773C36.5016 31.2704 36.6543 30.7537 36.7099 30.2457C36.7353 29.9865 36.5876 30.1455 36.5901 30.1058C36.5913 29.2267 36.9011 29.9442 37.0192 29.296C36.7587 29.3942 36.8133 29.0159 36.712 28.3736C36.6613 28.0669 36.5812 28.2478 36.5678 28.2208C36.358 27.787 36.4922 27.4434 36.5171 27.3527C36.6069 27.02 36.3638 26.7277 36.4133 26.5026C36.4606 26.2744 36.7169 26.716 36.5666 26.1008C36.4336 25.9527 36.3107 26.4615 36.1567 26.0116C35.6563 24.4951 34.7867 21.7753 34.0461 20.3483C33.967 20.1893 33.8828 20.0483 33.8028 19.9265C32.9929 18.7874 32.58 18.5103 32.0057 17.905C30.9209 16.8371 31.2108 17.3494 30.4455 16.7873C29.673 16.2254 30.3133 16.1938 30.2727 16.0321C30.2336 15.8718 30.0587 15.8497 29.9673 15.7003C29.8765 15.5514 30.1904 15.7396 29.9088 15.4672C29.868 15.4276 29.8138 15.3816 29.7504 15.3316C29.3764 15.0341 28.6747 14.621 28.5287 14.612C28.1674 14.5886 28.3998 15.0614 27.6502 14.3522C27.6068 14.3114 27.8301 14.3411 27.6603 14.1896C26.3272 13.0087 24.8331 11.9145 23.3597 10.9116C23.3366 10.8959 23.3136 10.8803 23.2906 10.8648C23.0836 10.7247 23.3416 10.7305 23.2221 10.6481C21.9659 9.80253 22.3139 10.2679 21.481 10.084C21.7949 9.89118 21.5003 9.48019 20.4536 8.97842C19.824 8.68654 19.8716 8.86644 19.4236 8.78588C19.2916 8.76197 18.8712 8.4966 18.7635 8.53066C18.4174 8.64751 18.7678 8.9892 17.7081 8.58097C17.6614 8.56422 17.8444 8.48836 17.6792 8.43871C17.3822 8.35111 17.1426 8.31799 16.9608 8.32456C16.4202 8.3415 16.0939 8.44193 15.2093 8.45471C14.2507 8.46236 12.5284 8.42939 11.4878 8.71203C11.4236 8.33854 10.4011 8.75369 10.2076 9.19919C10.0105 9.31262 9.82332 9.45012 9.66378 9.60929C9.34315 9.92667 9.10087 10.3162 8.91858 10.7077C8.82492 10.9144 8.78063 10.7389 8.75954 10.7613C8.43159 11.1326 8.61026 11.5105 8.59074 11.6547C8.40479 13.2864 8.34908 14.6785 8.54449 16.294C8.55177 16.3517 8.80723 16.4408 8.62732 16.8792C8.61468 16.9074 8.4953 16.3721 8.49254 17.1368C8.49122 17.3214 8.48169 17.5462 8.46734 17.7968C8.41594 18.5016 8.79109 19.4901 9.24899 20.1287C9.39322 20.3373 9.89202 20.7714 10.0468 21.2797C10.067 21.348 9.96501 21.3272 9.98738 21.4314C10.0655 21.7713 10.3731 21.7633 10.423 22.1951C10.4735 22.6265 10.8337 23.3681 11.6514 24.0803C11.6773 24.1034 11.9952 24.1613 12.2167 24.4119C12.5694 24.8135 13.0615 25.3948 13.4581 25.7889C13.6479 25.9776 13.6155 25.7674 13.65 25.7986C13.9231 26.0498 14.1808 26.2887 14.4265 26.5172C15.3662 27.384 16.2431 28.0858 17.6016 28.7859C17.915 28.953 18.9092 29.2007 19.4917 29.5785C20.1324 29.9962 19.1896 30.2835 20.8458 30.7857C21.4263 30.9634 22.3489 30.6822 23.2373 31.1976C23.3655 31.2719 23.4966 31.3567 23.6394 31.4524C24.2326 31.6206 24.928 31.551 25.4074 31.1684C26.5647 29.5808 25.9654 27.6625 25.6597 25.9062C25.6348 25.7985 25.3587 25.497 25.3131 25.2451C25.2804 25.0619 25.2771 24.9142 25.277 24.7803C25.2778 24.6458 25.2694 24.5202 25.2235 24.3888C24.8092 23.3178 24.0021 22.5912 23.2912 21.7624C23.0138 21.45 23.1906 21.4863 22.8554 21.1156C22.52 20.7464 22.1896 20.6001 21.7773 20.06C21.7452 20.0178 21.7149 19.9737 21.6858 19.9282C21.4386 19.5398 21.1898 19.0316 20.6249 18.6956C20.4664 18.9347 20.0567 18.6768 19.236 18.523C19.0791 18.4952 19.2174 18.6338 19.1424 18.6258C18.8404 18.597 18.583 18.4628 18.2909 18.4731C18.2197 18.4756 18.2027 18.57 18.145 18.5782C17.6614 18.6447 16.8883 18.4075 16.7458 18.3749C16.2184 18.2364 15.9718 18.3792 15.5647 18.3616C15.1534 18.3505 15.7563 18.2115 15.274 18.2336C15.1455 18.2406 15.0032 18.2531 14.8664 18.271C14.0744 18.4744 13.989 19.3807 13.8178 19.9771C13.7399 20.294 13.754 20.624 13.8398 20.9072C13.9846 21.3128 14.0029 20.9867 14.0262 21.0442C14.3838 21.7928 15.0474 22.3936 15.5532 22.4501C15.6557 23.3215 16.0012 22.668 16.9226 23.4247C16.9961 23.4883 16.913 23.8055 16.5981 23.6503C16.2812 23.495 15.8689 23.1323 15.4094 22.9043C15.3029 22.8598 14.558 22.6658 14.4655 22.5973C13.7519 22.1437 14.0654 21.6895 14.0611 21.6597C14.0311 21.3869 13.8604 21.1126 13.744 20.8056C13.6224 20.5041 13.5745 20.1788 13.5885 20.0501C13.5923 20.0089 13.5976 19.9676 13.6042 19.9262C13.6566 19.5675 13.7273 19.2126 13.8712 18.8611C14.0117 18.5314 14.2572 18.0756 14.8101 17.9578C15.0083 17.9168 15.2098 17.8807 15.403 17.8428C15.9568 17.7408 15.9969 17.437 16.4514 17.4305C17.9844 17.4672 18.4132 17.9204 19.9023 17.999C20.2198 18.0486 20.0768 17.5607 21.0268 18.345C21.0973 18.3924 21.6916 19.0562 22.1393 19.3285C22.1937 19.3591 22.2563 19.3033 22.3179 19.3406C22.3224 19.343 22.3268 19.346 22.3312 19.3498C22.6999 19.6686 22.866 19.9571 23.2583 20.3223C23.6504 20.6879 24.1341 21.1268 24.5221 21.6275C24.758 21.9289 24.9275 22.4308 25.0023 22.6066C25.2148 23.0931 25.7057 23.4866 25.7181 23.8892C25.708 24.2729 25.2726 23.7584 25.4598 24.6013C25.685 24.5702 25.9261 24.5831 26.162 24.602C26.1895 24.6021 26.217 24.6021 26.2444 24.6019C26.5627 26.3934 26.8823 28.1061 26.6606 30.1692C26.6139 30.44 26.8026 30.1817 26.7443 30.4849C26.6435 30.8984 26.5049 31.4232 25.9126 31.8673C25.1985 32.4438 23.9611 32.4517 23.1964 32.1556C23.0848 32.1198 22.9785 32.0828 22.87 32.0424C22.1943 31.7999 21.4477 31.6174 20.7524 31.373C20.39 30.9143 19.1942 30.555 18.3507 30.1689C18.0545 30.0327 18.106 29.9705 17.9038 29.8541C17.144 29.4079 17.4104 29.8062 17.1729 29.7399C16.1481 29.4173 16.3248 28.8791 15.2969 28.2091C15.2431 28.1803 14.4081 27.9356 14.3092 27.8699C13.6785 27.4991 14.285 27.7134 13.9644 27.4017C13.8998 27.3372 13.8379 27.2735 13.7779 27.2102C13.3311 26.7337 12.9966 26.3391 12.3767 25.8097C12.1735 25.6375 11.5924 25.298 11.3587 24.809C11.3279 24.745 11.4291 24.7059 11.3973 24.6609C10.8205 23.8489 10.566 24.0308 10.1183 23.6516C9.67048 23.2722 9.3155 22.4138 9.26783 22.2294C9.13021 21.7453 9.5332 22.4856 9.56421 22.4953C9.89588 22.6222 9.48622 22.127 9.22599 21.7062C9.44283 21.4729 9.0628 20.9106 8.95907 21.2675C8.94803 21.309 9.18133 21.6159 9.22599 21.7062C8.7326 21.5204 8.25918 20.8696 8.14087 19.9527C8.10641 19.5127 8.34371 19.8516 7.91098 18.6732C7.76434 18.1061 7.5788 18.3785 7.49246 17.7861C7.49223 17.7842 7.49199 17.7823 7.49176 17.7803C7.37261 16.7467 7.52259 15.3873 7.48232 14.2781C7.46923 13.8744 7.35221 14.268 7.34001 13.9919C7.31145 13.2529 7.41529 12.5945 7.48276 11.8066C7.48957 11.7345 7.33961 11.8918 7.37716 11.6444C7.53327 10.6148 7.95235 9.52518 8.78356 8.73185C9.50747 8.04601 10.3453 7.73913 11.191 7.5041C12.1124 7.23417 13.7235 7.01567 14.6481 7.02316C15.4053 7.01799 16.2361 7.08662 17.0371 7.18128C18.1514 7.3498 18.9009 7.71333 19.6042 7.95551C20.4415 8.27144 20.3038 8.08787 20.6912 8.16952C21.4407 8.32768 22.4477 9.20783 22.5706 9.3343C22.574 9.33584 21.8968 8.99755 22.2215 9.24778C22.3595 9.47463 22.5639 9.33135 22.5706 9.3343C22.6329 9.39228 23.3703 9.84101 23.8404 10.135C24.0007 10.234 24.132 10.314 24.1994 10.3497C24.3433 10.4261 24.3296 10.2785 24.4036 10.3205C26.1585 11.3252 27.7912 12.5117 29.3195 13.8576C29.3454 13.8823 29.22 13.9483 29.282 14.0053C29.6209 14.3192 29.9276 14.5696 30.2237 14.7936C30.6702 15.13 31.1 15.3928 31.5773 15.7318C32.3623 16.2881 32.9251 16.8378 33.1918 17.4086C33.7531 17.9012 34.4384 18.7909 34.7535 19.4053C34.8557 19.5966 34.9467 19.7318 35.0267 19.825C35.181 19.9944 35.3115 19.9892 35.3318 20.0208C36.2392 21.4821 36.4663 22.4517 36.9952 24.1151C37.2491 24.9061 37.7085 26.4991 37.8757 27.4138C38.0149 28.1362 38.0076 28.5861 38.0664 29.2921C38.0732 29.3875 38.185 29.2889 38.1899 29.3181C38.323 30.1379 38.0418 29.7386 37.9891 29.9044C37.728 30.5142 37.7658 30.8388 37.1833 31.9897C37.1329 32.0708 37.069 32.2303 36.9575 32.4157C36.8508 32.6884 36.7184 33.0786 36.537 33.2714C36.1881 33.6393 36.2319 33.4043 35.8606 33.791C35.8285 33.8235 35.8966 33.8831 35.6442 34.1023C34.4722 35.1211 33.0351 36.1363 31.477 36.8483C31.2634 36.9444 31.597 36.9512 31.2848 37.0908C30.2986 37.5265 29.1462 37.8421 28.0004 37.9087C27.5171 37.9369 27.0442 37.9598 26.5855 37.975C26.2437 37.9859 26.4491 37.8709 26.3727 37.8478C25.9032 37.7087 25.2773 38.0157 25.1711 38.0289C23.778 38.2044 22.5605 38.266 21.258 38.2717C20.2543 38.2689 19.166 38.31 17.8823 38.249C17.7402 38.2549 16.4673 38.3645 15.9738 37.9672C15.9362 37.9416 15.4832 37.5695 14.969 37.5331C14.9358 37.5287 15.2165 37.786 14.6504 37.5287C14.4848 37.4498 14.2886 37.3592 14.078 37.2481C13.618 37.0081 13.0856 36.6901 12.6961 36.3036C12.5187 36.1297 12.2003 35.6107 11.5323 35.3297C11.4863 35.3152 10.3717 34.973 10.278 34.5049C10.2634 34.4298 10.5087 34.2186 9.79081 33.8425C9.65421 33.7728 9.82073 33.9969 9.48754 33.7863C9.48742 33.7862 9.4873 33.7861 9.48718 33.7861C8.98971 33.4749 8.3503 32.9034 7.63029 32.457C7.50643 32.384 6.88896 32.1161 6.65497 31.6361C6.61896 31.5617 6.79786 31.5964 6.62388 31.3968C5.80697 30.4532 4.98622 29.4556 4.39267 28.387C4.34434 28.3002 4.32088 28.2372 4.31112 28.1878C4.28267 28.0289 4.40081 28.0119 4.2552 27.7119C4.06414 27.3202 3.64426 26.553 3.34399 26.1992C3.04235 25.843 3.06357 26.417 2.69503 25.8298C1.12449 23.311 -0.207987 20.1888 0.0439188 16.8371C0.0742414 16.4423 -0.00330019 16.6283 -3.20673e-05 16.3288C0.000563741 16.2664 0.0057981 16.1801 0.0185835 16.0573C0.246109 13.6903 0.750439 9.55648 1.52495 7.52892C2.13772 5.91614 1.68251 8.02798 2.10144 6.79011C2.1238 6.7264 2.1427 6.66148 2.15874 6.59617C2.29153 6.04675 2.25183 5.42317 2.29639 5.28582C2.72311 3.95289 3.33783 3.01812 4.26904 2.04424C4.37268 1.93825 4.48367 1.83059 4.60193 1.72365C4.85758 1.49999 4.51645 1.61191 4.74378 1.42391C5.54521 0.774952 6.54744 0.47226 7.37689 0.282231C7.75183 0.198845 7.66613 0.116267 8.01368 0.0681956C8.73763 -0.0233933 9.36989 -0.0197753 10.0274 0.0491174C10.1198 0.0595065 10.2179 0.0712627 10.3117 0.0843421C10.3786 0.0937021 9.92419 0.209144 10.4842 0.221966C11.3919 0.245626 12.4919 0.408325 13.5212 0.41942C13.8266 0.423094 13.864 0.199134 14.4977 0.430164C14.6294 0.479682 14.4234 0.721241 15.2067 0.590782C15.3369 0.566337 16.6549 0.442999 17.2412 0.754926C17.3948 0.835456 17.7719 1.1264 18.1351 1.16135C18.1847 1.16533 18.0129 1.00955 18.3118 1.0555C18.4941 1.08415 18.6764 1.11531 18.8611 1.14895C19.7422 1.30931 20.6372 1.51819 21.5211 1.70646C21.8065 1.76735 21.4152 1.54065 21.8399 1.63597C23.0086 1.89802 24.438 2.33341 25.5432 2.71704C25.9513 2.85888 25.6355 2.86889 25.6623 2.88891C26.0886 3.21278 26.445 3.07009 26.6102 3.10869C27.5588 3.33474 28.2439 3.67433 29.073 3.97309C29.1345 3.99534 29.1963 4.01724 29.2586 4.03874C29.5109 4.12658 29.3761 3.94925 29.4297 3.95854C29.9832 4.06351 29.5236 4.11082 29.8396 4.2602C30.728 4.68277 31.7403 5.11578 32.6469 5.56061C32.9797 5.72463 32.67 5.4122 32.9695 5.56306C33.7273 5.94587 34.4843 6.38599 35.201 6.86546C36.1634 7.49712 37.1006 8.28329 37.8647 9.06051C38.1189 9.31793 37.8808 9.2389 37.919 9.30751C38.1796 9.78143 38.8626 10.1399 38.9991 10.2472C39.4614 10.6074 39.6557 10.8567 39.9272 11.1584C40.0161 11.2575 40.1189 11.3683 40.238 11.4866C42.5835 13.8246 45.2665 16.8472 47.2587 19.3025C47.2619 19.3064 47.265 19.3103 47.2681 19.3142C48.1677 20.4715 49.0971 21.5494 49.6423 23.0419C50.517 25.4616 50.7124 27.9313 50.1546 30.602C50.0961 30.865 50.2934 30.6313 50.2429 30.859C50.0359 31.7623 49.728 32.6313 49.3377 33.4593C48.5483 35.19 47.4957 36.9993 46.1679 38.5407C46.0105 38.7243 46.3417 38.5499 46.0891 38.8479C45.5728 39.4577 44.8375 40.16 44.2058 40.6429C43.8961 40.8801 44.2208 40.4554 43.9099 40.6948C43.4174 41.0705 42.8987 41.4534 42.3783 41.8251C42.144 41.9927 41.9056 42.1626 41.6763 42.327C41.3637 42.5504 41.919 42.3377 41.5074 42.6178C38.6947 44.5022 35.8735 46.1559 32.7225 47.5015C32.5398 47.5779 32.2938 47.4776 31.9654 47.5957C31.9029 47.6183 31.8378 47.6482 31.7704 47.6878C31.7678 47.7726 31.8066 47.8536 31.8252 47.9346C30.0869 48.7227 28.1664 49.4999 26.0211 49.5707C23.0616 49.7305 19.896 49.5046 16.9279 48.6182C16.9054 48.6116 16.8891 48.6086 16.8774 48.6084C16.8319 48.6079 16.8584 48.6514 16.8556 48.6835C16.8551 48.6889 16.8539 48.6939 16.8512 48.6984C16.8381 48.7214 16.7904 48.7292 16.6457 48.6865C14.4399 48.0307 12.1636 47.323 10.0896 45.8462C9.88736 45.6974 10.1276 45.5613 9.50892 45.1786C9.47904 45.1598 9.38929 45.101 9.26978 45.0202C8.93484 44.7988 8.42404 44.3926 8.24616 44.2783C8.21184 44.2573 8.27965 44.4859 8.01313 44.2397C6.48287 42.7928 5.29836 41.0504 4.31538 39.343C4.15738 39.0653 4.44362 39.2858 4.3339 39.0897C3.55381 37.6964 2.6457 36.2199 2.07223 34.8164C1.69098 33.8751 2.05744 34.116 2.01792 33.5395C2.01293 33.4602 1.74894 32.8944 1.85065 32.8132C2.10273 32.6045 2.54343 32.7248 2.79698 32.4703C2.85191 32.4182 2.43242 31.7043 2.79811 32.0723C2.82309 32.0991 3.12836 32.6096 3.24608 32.7158C3.32708 32.7893 3.36388 32.5696 3.50069 32.7326C3.63673 32.8936 3.64064 33.1486 3.84681 33.4263C4.05637 33.7068 4.1163 33.5043 4.44022 34.1056ZM35.7431 22.0413C35.8403 22.6052 36.2883 22.5192 35.9595 21.9923C35.9429 21.967 35.7376 22.0123 35.7431 22.0413ZM26.3514 28.2175C26.2079 28.9615 26.4745 29.4858 26.6308 28.9436C26.774 28.3919 26.3918 27.9865 26.3514 28.2175ZM23.4293 21.3287C23.8788 22.0587 24.4475 21.743 23.7383 21.1458C23.6973 21.1115 23.4026 21.2861 23.4293 21.3287ZM3.18515 35.7216C3.18571 35.7107 2.98566 35.3146 2.97538 35.3068C2.73878 35.1612 3.1418 35.9593 3.18515 35.7216ZM16.9405 18.0489C17.2032 18.1312 17.9724 18.0954 17.6513 17.962C17.3869 17.8469 16.6078 17.9372 16.9405 18.0489ZM19.1045 37.1497C19.0958 37.1435 18.7768 37.1293 18.7819 37.1667C18.7991 37.2904 19.2483 37.265 19.1045 37.1497ZM20.1953 25.0491C20.1261 25.0335 20.0585 25.0163 19.9925 24.9979C18.3201 24.4242 17.6508 23.5882 19.4121 24.3077C19.7507 24.4352 18.6221 24.2112 19.0405 24.4075C19.4051 24.5791 19.7441 24.6308 20.0784 24.6798C20.4474 24.7138 20.7763 24.7227 21.2268 24.8087C21.3041 24.8231 21.0848 24.9175 20.8226 24.982C20.5587 25.0474 20.246 25.062 20.1919 25.0491C20.193 25.0491 20.1942 25.0491 20.1953 25.0491ZM35.3643 22.5405C35.3634 22.552 35.519 22.966 35.5273 22.9734C35.7474 23.1463 35.4339 22.31 35.3643 22.5405ZM4.85863 26.4026C4.85531 26.376 4.33786 25.4976 4.31234 25.4736C3.83596 25.1352 4.88446 26.9202 4.85863 26.4026ZM11.469 8.70714C11.0588 8.96614 10.5983 9.17097 10.2095 9.1983C10.5911 8.98229 11.0242 8.8212 11.469 8.70714Z" fill="#5882E3"/>
</svg>
