<svg width="96" height="56" viewBox="0 0 96 56" fill="none" xmlns="http://www.w3.org/2000/svg">
<path d="M45.3242 22.405C43.3995 19.6144 42.2563 15.3108 42.1929 11.765C42.1929 7.69676 42.9743 4.165 45.3242 1.125H42.4995C40.6006 3.98618 39.7242 7.33912 39.7242 11.765C39.7242 16.1909 40.8272 19.6144 42.4995 22.405H45.3242Z" fill="#0B1956" stroke="#0B1956" stroke-width="1.12"/>
<path d="M86.7695 22.405C88.6943 19.6144 89.8375 15.3108 89.9009 11.765C89.9009 7.69676 89.1195 4.165 86.7695 1.125H89.5942C91.4932 3.98618 92.3695 7.33912 92.3695 11.765C92.3695 16.1909 91.2665 19.6144 89.5942 22.405H86.7695Z" fill="#0B1956" stroke="#0B1956" stroke-width="1.12"/>
<path d="M61.4619 19.5C61.4619 21.0392 63.3655 22.5341 65.6846 22.5342C68.0037 22.5342 69.7432 21.0392 69.7432 19.5H72.291C72.291 22.2833 69.6903 24.4463 65.6846 24.4463C61.6789 24.4463 58.9648 22.2833 58.9648 19.5H61.4619Z" fill="#0B1956"/>
<path d="M61.4619 19.5L62.0219 19.5V18.94H61.4619V19.5ZM65.6846 22.5342L65.6846 23.0942H65.6846V22.5342ZM69.7432 19.5V18.94H69.1832V19.5L69.7432 19.5ZM72.291 19.5L72.851 19.5V18.94H72.291V19.5ZM65.6846 24.4463L65.6846 25.0063H65.6846V24.4463ZM58.9648 19.5V18.94H58.4048L58.4048 19.5L58.9648 19.5ZM61.4619 19.5L60.9019 19.5C60.9019 20.5051 61.5161 21.4128 62.3707 22.0446C63.2352 22.6837 64.4081 23.0942 65.6846 23.0942L65.6846 22.5342L65.6846 21.9742C64.642 21.9742 63.7036 21.6372 63.0365 21.144C62.3595 20.6435 62.0219 20.0341 62.0219 19.5L61.4619 19.5ZM65.6846 22.5342V23.0942C66.9629 23.0942 68.1003 22.6824 68.9283 22.0356C69.7503 21.3935 70.3032 20.4857 70.3032 19.5L69.7432 19.5L69.1832 19.5C69.1832 20.0535 68.8663 20.6628 68.2388 21.153C67.6173 21.6385 66.7254 21.9742 65.6846 21.9742V22.5342ZM69.7432 19.5V20.06H72.291V19.5V18.94H69.7432V19.5ZM72.291 19.5L71.731 19.5C71.731 21.848 69.5243 23.8863 65.6846 23.8863V24.4463V25.0063C69.8563 25.0063 72.851 22.7186 72.851 19.5L72.291 19.5ZM65.6846 24.4463L65.6846 23.8863C61.831 23.8863 59.5248 21.8373 59.5248 19.5L58.9648 19.5L58.4048 19.5C58.4048 22.7292 61.5268 25.0063 65.6846 25.0063L65.6846 24.4463ZM58.9648 19.5V20.06H61.4619V19.5V18.94H58.9648V19.5Z" fill="#0B1956"/>
<path d="M88.8675 46.5775V39.0173L79.9477 39.0189L78.1244 36.2437V28.7497L92.7875 28.6719V46.5775H88.8675ZM88.8675 31.8551L82.0141 31.8959V35.8749L88.8675 35.8341V31.8551Z" fill="#0B1956"/>
<path d="M76.75 46.6251C76.75 46.6251 76.7471 41.7422 77.1472 39.893C77.5702 37.9385 79.4495 36.2717 82.0462 35.8747L82.64 39.0184C81.6812 39.0579 81.0224 40.0214 80.8799 40.68C80.7145 41.444 80.6785 46.6251 80.6785 46.6251H76.75Z" fill="#0B1956"/>
<path d="M56.3984 46.6401V28.6719H61.4826L65.211 41.4024L68.9394 28.6719H73.9483V46.6401H70.2576V35.0735L66.7551 46.6401H63.5916L60.0892 35.0735V46.6401H56.3984Z" fill="#0B1956"/>
<path d="M46.973 47.2221C40.42 47.2221 37.7461 43.0392 37.7461 37.947C37.7461 32.4547 40.9096 28.6719 45.9561 28.6719C50.9273 28.6719 53.6012 32.2001 53.6012 37.4378C53.6012 38.1289 53.5636 38.7108 53.5259 39.2928H41.8511C42.0771 41.948 43.8848 43.6212 46.973 43.6212C49.082 43.6212 50.7014 43.1847 52.2831 42.3481V46.24C51.3793 46.6038 49.4586 47.2221 46.973 47.2221ZM41.8888 36.092H49.6469C49.4962 33.4367 48.1404 32.0182 45.9561 32.0182C43.6212 32.0182 42.2277 33.4731 41.8888 36.092Z" fill="#0B1956"/>
<path d="M24.3822 55.2411L18.3164 28.9052H22.3928L22.7173 30.003C23.9224 29.1301 24.5015 28.6719 26.6296 28.6719C29.9704 28.6719 34.635 30.4566 34.9436 37.3675C34.9436 43.1872 31.1964 47.019 26.4888 47.019L28.5249 55.2411H24.3822ZM25.8956 43.309C29.208 43.8853 31.4804 40.8015 31.0282 36.8491C30.275 30.2656 24.7959 31.9521 23.636 33.1245L25.8956 43.309Z" fill="#0B1956"/>
<path d="M27.2019 24.9956C22.2307 24.9956 18.8789 21.2491 18.8789 15.7204C18.8789 10.1917 22.2307 6.44531 27.2019 6.44531C32.1731 6.44531 35.5249 10.1917 35.5249 15.7204C35.5249 21.2491 32.1731 24.9956 27.2019 24.9956ZM27.2019 21.3583C29.9512 21.3583 31.3823 18.9213 31.3823 15.7204C31.3823 12.5196 29.9512 10.119 27.2019 10.119C24.4527 10.119 23.0216 12.5196 23.0216 15.7204C23.0216 18.9213 24.4527 21.3583 27.2019 21.3583Z" fill="#0B1956"/>
<path d="M5.62503 24.6552V17.0951H12.2956L14.2703 12.9971V6.71875L1.68359 6.74965V24.6552H5.62503ZM5.62503 9.93286H10.3404V13.9119H5.62503V9.93286Z" fill="#0B1956"/>
<path d="M3.89439 24.6158C5.42058 24.6642 7.52725 24.7836 9.50009 24.6706C11.4104 24.5611 13.6141 24.2225 15.1597 23.0724C16.8258 21.8325 17.4834 19.7527 17.0832 17.9035C16.6603 15.949 15.0765 14.2822 12.4798 13.8853L11.9648 17.0292C13.2115 17.2198 13.5956 17.9319 13.7382 18.5905C13.9035 19.3544 13.642 20.1284 13.0661 20.557C12.3696 21.0751 11.1417 21.3875 9.30455 21.4928C7.52988 21.5945 5.65465 21.4865 4.00222 21.4341L3.89439 24.6158Z" fill="#0B1956"/>
<path d="M5.62503 47.1552V39.5951H12.2956L14.2703 35.4971V29.2188L1.68359 29.2496V47.1552H5.62503ZM5.62503 32.4329H10.3404V36.4119H5.62503V32.4329Z" fill="#0B1956"/>
<path d="M3.89439 47.1158C5.42058 47.1642 7.52725 47.2836 9.50009 47.1706C11.4104 47.0611 13.6141 46.7225 15.1597 45.5724C16.8258 44.3325 17.4834 42.2527 17.0832 40.4035C16.6603 38.449 15.0765 36.7822 12.4798 36.3853L11.9648 39.5292C13.2115 39.7198 13.5956 40.4319 13.7382 41.0905C13.9035 41.8544 13.642 42.6284 13.0661 43.057C12.3696 43.5751 11.1417 43.8875 9.30455 43.9928C7.52988 44.0945 5.65465 43.9865 4.00222 43.9341L3.89439 47.1158Z" fill="#0B1956"/>
<path d="M47.1016 10.22L54.2242 6.39844L60.8763 10.22" stroke="#0B1956" stroke-width="3.36"/>
<path d="M72.9141 10.2422L85.7656 10.3669" stroke="#0B1956" stroke-width="3.36"/>
</svg>
