<svg width="48" height="48" viewBox="0 0 48 48" fill="none" xmlns="http://www.w3.org/2000/svg">
<path d="M41.6564 34.9078H37.4546C35.864 34.9078 35.3838 33.6173 32.5326 30.7661C30.0414 28.3651 28.991 28.0649 28.3608 28.0649C27.4905 28.0649 27.2502 28.305 27.2502 29.5055V33.2872C27.2502 34.3077 26.9201 34.9078 24.2491 34.9078C21.6571 34.7337 19.1435 33.9463 16.9155 32.6105C14.6874 31.2747 12.8085 29.4287 11.4335 27.2245C8.16942 23.1617 5.89829 18.3934 4.80078 13.2986C4.80078 12.6684 5.04082 12.0981 6.2414 12.0981H10.4431C11.5236 12.0981 11.9138 12.5783 12.3339 13.6889C14.3747 19.6914 17.8563 24.9136 19.2669 24.9136C19.8071 24.9136 20.0471 24.6735 20.0471 23.323V17.1402C19.8671 14.3191 18.3665 14.0789 18.3665 13.0586C18.3863 12.7894 18.5102 12.5385 18.7119 12.3592C18.9136 12.1798 19.1773 12.0862 19.447 12.0981H26.0498C26.9502 12.0981 27.2502 12.5483 27.2502 13.6287V21.9724C27.2502 22.8728 27.6405 23.1728 27.9106 23.1728C28.4508 23.1728 28.8709 22.8728 29.8613 21.8824C31.9897 19.2869 33.7287 16.3953 35.0236 13.2986C35.1558 12.926 35.4063 12.6069 35.7369 12.3901C36.0675 12.1733 36.46 12.0708 36.8545 12.0981H41.0562C42.3167 12.0981 42.5868 12.7283 42.3167 13.6287C40.7878 17.0525 38.8963 20.3025 36.6744 23.323C36.2242 24.0132 36.0441 24.3734 36.6744 25.1837C37.0945 25.814 38.5652 27.0444 39.5556 28.2149C40.9962 29.6519 42.1924 31.3146 43.097 33.1372C43.4571 34.3077 42.8569 34.9078 41.6564 34.9078Z" fill="#0B1956"/>
</svg>
