<svg width="134" height="48" viewBox="0 0 134 48" fill="none" xmlns="http://www.w3.org/2000/svg">
<g clip-path="url(#clip0_3726_17020)">
<path d="M113.019 43.757C109.89 43.757 107.828 41.92 107.828 38.8467C107.828 34.8194 110.317 33.1944 118.352 33.1944V33.0884C118.352 30.4036 117.214 29.2731 114.796 29.2731C112.841 29.2731 111.561 29.7677 109.819 31.8166L108.148 30.015C110.174 27.7541 112.059 26.9062 114.975 26.9062C120.307 26.9062 120.947 30.4743 120.947 33.0531V43.3331H118.352V40.8602C117.001 42.6972 115.117 43.757 113.019 43.757ZM113.374 41.4608C115.117 41.4608 116.574 40.507 118.352 37.7868V35.3493C112.201 35.3493 110.423 36.1971 110.423 38.8467C110.423 40.7542 111.526 41.4608 113.374 41.4608Z" fill="#0B1956"/>
<path d="M92.6226 43.3348H90.0273V27.3672H92.6226V33.8673H101.511V27.3672H104.107V43.3348H101.511V36.2695H92.6226V43.3348Z" fill="#0B1956"/>
<path d="M85.6157 43.3348H83.0199V31.3591L73.7765 43.3348H71.3945V27.3672H73.9898V39.2369L83.1981 27.3672H85.6157V43.3348Z" fill="#0B1956"/>
<path d="M58.8823 43.757C55.7536 43.757 53.6914 41.92 53.6914 38.8467C53.6914 34.8194 56.1801 33.1944 64.2153 33.1944V33.0884C64.2153 30.4036 63.0772 29.2731 60.6596 29.2731C58.7046 29.2731 57.4246 29.7677 55.6823 31.8166L54.0114 30.015C56.0381 27.7541 57.9223 26.9062 60.8377 26.9062C66.1707 26.9062 66.8105 30.4743 66.8105 33.0531V43.3331H64.2153V40.8602C62.8639 42.6972 60.9797 43.757 58.8823 43.757ZM59.2375 41.4608C60.9797 41.4608 62.4374 40.507 64.2153 37.7868V35.3493C58.0643 35.3493 56.287 36.1971 56.287 38.8467C56.287 40.7542 57.3889 41.4608 59.2375 41.4608Z" fill="#0B1956"/>
<path d="M44.4757 41.3939C46.8577 41.3939 48.0309 39.9808 48.0309 38.4618C48.0309 37.0487 46.6799 36.2362 44.9023 36.2362H42.7336V33.8693H44.9023C46.5022 33.8693 47.5332 32.9155 47.5332 31.6085C47.5332 30.2307 46.6799 29.3475 44.9379 29.3475C42.8402 29.3475 42.0225 29.9834 40.4582 31.785C40.4226 31.7497 38.7161 30.1247 38.7161 30.1247C40.5648 27.8285 42.378 26.9453 44.9379 26.9453C48.2442 26.9453 50.0575 28.959 50.0575 31.2905C50.0575 32.9862 49.2397 34.1873 47.9598 34.9645C49.6308 35.7063 50.6263 36.9781 50.6263 38.6384C50.6263 41.2173 48.5998 43.8314 44.4757 43.8314C42.0936 43.8314 40.3515 43.1602 38.2539 40.864L39.996 39.1683C41.7025 40.864 42.5914 41.3939 44.4757 41.3939Z" fill="#0B1956"/>
<path d="M20.7734 27.3672H23.3688V39.2369L32.577 27.3672H34.9946V43.3348H32.3993V31.3591L23.1555 43.3348H20.7734V27.3672Z" fill="#0B1956"/>
<path d="M2.48871 43.3348V47.9979H0V40.9326H1.99096C4.3019 37.188 4.3019 31.5711 4.3019 27.3672H15.5366V40.9326H17.8476V47.9979H15.3589V43.3348H2.48871ZM12.9413 40.9326V29.7694H6.89728C6.89728 33.5846 6.47066 37.3999 4.87075 40.9326H12.9413Z" fill="#0B1956"/>
<path d="M81.9366 16.8507C78.8079 16.8507 76.7461 15.0138 76.7461 11.9403C76.7461 7.91313 79.2344 6.28811 87.2696 6.28811V6.18212C87.2696 3.49733 86.132 2.36688 83.7144 2.36688C81.7589 2.36688 80.4789 2.86145 78.7367 4.91039L77.0657 3.10874C79.0924 0.847839 80.9766 0 83.892 0C89.225 0 89.8648 3.56798 89.8648 6.14685V16.4268H87.2696V13.954C85.9188 15.791 84.034 16.8507 81.9366 16.8507ZM82.2924 14.5545C84.034 14.5545 85.4917 13.6007 87.2696 10.8806V8.44306C81.1186 8.44306 79.3413 9.2909 79.3413 11.9403C79.3413 13.848 80.4432 14.5545 82.2924 14.5545Z" fill="#0B1956"/>
<path d="M57.8203 16.3932V13.8497C58.1399 13.991 58.6021 14.0263 58.8866 14.0263C61.3755 14.0263 62.0509 10.2464 62.0509 0.460938H73.037V16.4285H70.4413V2.86314H64.5754C64.5754 12.0833 63.2597 16.5698 59.2067 16.5698C58.7446 16.5698 58.2825 16.4992 57.8203 16.3932Z" fill="#0B1956"/>
<path d="M48.4444 2.40221C45.138 2.40221 42.7203 5.12235 42.7203 8.44306C42.7203 11.7284 45.138 14.4485 48.4444 14.4485C51.7863 14.4485 54.0973 11.7284 54.0973 8.44306C54.0973 5.12235 51.7863 2.40221 48.4444 2.40221ZM40.125 8.44306C40.125 3.77994 43.7514 0 48.4444 0C53.1374 0 56.6926 3.77994 56.6926 8.44306C56.6926 13.0708 53.1374 16.8507 48.4444 16.8507C43.7514 16.8507 40.125 13.0708 40.125 8.44306Z" fill="#0B1956"/>
<path d="M24.9023 16.4285V0.460938H27.4977V6.96104H28.7776L35.0705 0.460938H38.2702L30.9819 8.02079C33.2928 8.97462 34.8572 14.0617 37.6303 14.0617C37.9502 14.0617 38.2702 13.991 38.6257 13.8497V16.4285C38.0925 16.5698 37.5947 16.6405 37.1681 16.6405C32.8662 16.6405 31.6929 10.8469 28.9909 9.36324H27.4977V16.4285H24.9023Z" fill="#0B1956"/>
<path d="M9.12763 14.0263V0.460938H11.723V14.0263H17.767V0.460938H20.3624V16.4285H0.488281V0.460938H3.08364V14.0263H9.12763Z" fill="#0B1956"/>
<path d="M128.7 24.1094C131.609 24.1094 133.972 26.4527 134.002 29.3667C134.002 32.2808 131.609 34.6241 128.7 34.6241C125.762 34.6241 123.398 32.2507 123.398 29.3667C123.398 26.4527 125.792 24.1094 128.7 24.1094ZM126.822 25.7317V32.7615H131.124V31.4396C131.124 30.1478 130.7 29.2766 129.609 28.8861C129.973 28.7659 130.155 28.5255 130.306 28.3753C130.548 28.0749 130.67 27.7144 130.67 27.3539C130.67 27.0535 130.578 26.5127 130.094 26.1222C129.76 25.8518 129.458 25.7317 128.73 25.7317H126.822ZM128.49 26.0927C128.763 26.0927 129.157 26.1227 129.43 26.4832C129.581 26.6335 129.672 26.8738 129.702 27.1141H128.46V27.4746H129.702C129.702 27.715 129.642 27.9553 129.43 28.2257C129.217 28.466 128.914 28.6763 128.46 28.6763V29.0368C129.672 29.0368 130.126 29.848 130.157 31.32V32.4015H129.369V30.0582H128.49V32.4015H127.794V26.0927H128.49Z" fill="#0B1956"/>
<path d="M78.3632 24.4335C75.5898 24.4335 73.4924 23.5856 72.0703 21.0775L74.1321 19.5938C75.2346 21.5014 76.1945 22.0666 78.3632 22.0666C80.532 22.0666 81.4919 21.5014 82.5938 19.5938L84.6556 21.0775C83.2336 23.5856 81.1361 24.4335 78.3632 24.4335Z" fill="#0B1956"/>
</g>
<defs>
<clipPath id="clip0_3726_17020">
<rect width="134" height="48" fill="white"/>
</clipPath>
</defs>
</svg>
